%TF.GenerationSoftware,KiCad,Pcbnew,8.0.3*%
%TF.CreationDate,2024-08-06T18:37:16+01:00*%
%TF.ProjectId,DRV8243 DC Motor Driver Expander,44525638-3234-4332-9044-43204d6f746f,rev?*%
%TF.SameCoordinates,Original*%
%TF.FileFunction,Soldermask,Bot*%
%TF.FilePolarity,Negative*%
%FSLAX46Y46*%
G04 Gerber Fmt 4.6, Leading zero omitted, Abs format (unit mm)*
G04 Created by KiCad (PCBNEW 8.0.3) date 2024-08-06 18:37:16*
%MOMM*%
%LPD*%
G01*
G04 APERTURE LIST*
%ADD10C,0.800000*%
%ADD11C,1.600200*%
%ADD12C,0.499999*%
%ADD13C,1.650000*%
%ADD14C,6.400000*%
G04 APERTURE END LIST*
D10*
%TO.C,*%
X105690000Y-91170000D03*
%TD*%
%TO.C,*%
X137820000Y-105830000D03*
%TD*%
%TO.C,*%
X107380000Y-89960000D03*
%TD*%
%TO.C,*%
X96030000Y-93430000D03*
%TD*%
%TO.C,*%
X134820000Y-105760000D03*
%TD*%
%TO.C,*%
X92600000Y-91090000D03*
%TD*%
%TO.C,*%
X118980000Y-101190000D03*
%TD*%
%TO.C,*%
X127490000Y-91220000D03*
%TD*%
%TO.C,*%
X97540000Y-87630000D03*
%TD*%
%TO.C,*%
X104290000Y-102540000D03*
%TD*%
%TO.C,*%
X115880000Y-92690000D03*
%TD*%
D11*
%TO.C,J3*%
X135331200Y-84654400D03*
X135331200Y-79654400D03*
X131831197Y-84654400D03*
X131831197Y-79654400D03*
%TD*%
D10*
%TO.C,*%
X124150000Y-102530000D03*
%TD*%
%TO.C,*%
X162750000Y-89640000D03*
%TD*%
%TO.C,*%
X94430000Y-89940000D03*
%TD*%
%TO.C,*%
X134840000Y-106950000D03*
%TD*%
%TO.C,*%
X114170000Y-102500000D03*
%TD*%
D12*
%TO.C,U1*%
X130454400Y-95265999D03*
X130454400Y-97266001D03*
X130454400Y-96266000D03*
X129754399Y-95265999D03*
X129754399Y-97266001D03*
X128604401Y-97266001D03*
X128604401Y-95265999D03*
%TD*%
D11*
%TO.C,J5*%
X102520000Y-98577200D03*
X107520000Y-98577200D03*
X102520000Y-95077197D03*
X107520000Y-95077197D03*
%TD*%
D10*
%TO.C,*%
X119040000Y-99320000D03*
%TD*%
%TO.C,*%
X142250000Y-106990000D03*
%TD*%
%TO.C,*%
X117940000Y-94570000D03*
%TD*%
%TO.C,*%
X162820000Y-97080000D03*
%TD*%
%TO.C,*%
X139230000Y-105870000D03*
%TD*%
%TO.C,*%
X115900000Y-89390000D03*
%TD*%
%TO.C,*%
X122470000Y-101200000D03*
%TD*%
%TO.C,*%
X96010000Y-95850000D03*
%TD*%
%TO.C,*%
X92710000Y-84600000D03*
%TD*%
%TO.C,*%
X94450000Y-93430000D03*
%TD*%
%TO.C,*%
X97720000Y-100060000D03*
%TD*%
%TO.C,*%
X124120000Y-101210000D03*
%TD*%
%TO.C,*%
X118980000Y-98160000D03*
%TD*%
%TO.C,*%
X122500000Y-102520000D03*
%TD*%
%TO.C,*%
X97430000Y-86150000D03*
%TD*%
%TO.C,*%
X161240000Y-97110000D03*
%TD*%
%TO.C,*%
X112320000Y-101180000D03*
%TD*%
%TO.C,*%
X92740000Y-86180000D03*
%TD*%
%TO.C,*%
X125770000Y-91200000D03*
%TD*%
%TO.C,*%
X127070000Y-95680000D03*
%TD*%
%TO.C,*%
X95020000Y-86180000D03*
%TD*%
%TO.C,*%
X143730000Y-107020000D03*
%TD*%
%TO.C,*%
X92570000Y-94610000D03*
%TD*%
%TO.C,*%
X161170000Y-89670000D03*
%TD*%
%TO.C,*%
X139250000Y-107060000D03*
%TD*%
%TO.C,*%
X159760000Y-97220000D03*
%TD*%
%TO.C,*%
X125770000Y-101120000D03*
%TD*%
%TO.C,*%
X162790000Y-99460000D03*
%TD*%
%TO.C,*%
X94450000Y-100040000D03*
%TD*%
%TO.C,*%
X104080000Y-89940000D03*
%TD*%
%TO.C,*%
X92610000Y-93440000D03*
%TD*%
%TO.C,*%
X122350000Y-91210000D03*
%TD*%
%TO.C,*%
X96010000Y-89940000D03*
%TD*%
%TO.C,*%
X159660000Y-87370000D03*
%TD*%
%TO.C,*%
X92590000Y-95860000D03*
%TD*%
%TO.C,*%
X127130000Y-97650000D03*
%TD*%
%TO.C,*%
X94460000Y-98900000D03*
%TD*%
%TO.C,*%
X104110000Y-91170000D03*
%TD*%
D13*
%TO.C,J2*%
X122732800Y-84705200D03*
X122732800Y-79705200D03*
X119232800Y-84705200D03*
X119232800Y-79705200D03*
X115732800Y-84705200D03*
X115732800Y-79705200D03*
X112232800Y-84705200D03*
X112232800Y-79705200D03*
%TD*%
D10*
%TO.C,*%
X105910000Y-102550000D03*
%TD*%
%TO.C,*%
X92850000Y-87660000D03*
%TD*%
%TO.C,*%
X119010000Y-102510000D03*
%TD*%
%TO.C,*%
X92610000Y-92240000D03*
%TD*%
%TO.C,*%
X114190000Y-101180000D03*
%TD*%
%TO.C,*%
X115810000Y-101190000D03*
%TD*%
%TO.C,*%
X127030000Y-94640000D03*
%TD*%
%TO.C,*%
X112300000Y-102500000D03*
%TD*%
%TO.C,*%
X162820000Y-94500000D03*
%TD*%
%TO.C,*%
X127420000Y-89990000D03*
%TD*%
%TO.C,*%
X162860000Y-91950000D03*
%TD*%
%TO.C,*%
X96020000Y-91080000D03*
%TD*%
%TO.C,*%
X136320000Y-106990000D03*
%TD*%
%TO.C,*%
X95130000Y-87660000D03*
%TD*%
%TO.C,*%
X140710000Y-107020000D03*
%TD*%
%TO.C,*%
X92580000Y-100040000D03*
%TD*%
%TO.C,*%
X161210000Y-99490000D03*
%TD*%
%TO.C,*%
X102240000Y-89950000D03*
%TD*%
%TO.C,*%
X94430000Y-95850000D03*
%TD*%
%TO.C,*%
X96080000Y-98910000D03*
%TD*%
D11*
%TO.C,J1*%
X105537001Y-84709000D03*
X105537001Y-79709000D03*
X102036998Y-84709000D03*
X102036998Y-79709000D03*
%TD*%
D10*
%TO.C,*%
X117930000Y-91150000D03*
%TD*%
%TO.C,*%
X161280000Y-91980000D03*
%TD*%
%TO.C,*%
X159760000Y-94640000D03*
%TD*%
%TO.C,*%
X127070000Y-96680000D03*
%TD*%
%TO.C,*%
X97730000Y-98920000D03*
%TD*%
%TO.C,*%
X145330000Y-107040000D03*
%TD*%
%TO.C,*%
X161140000Y-84980000D03*
%TD*%
%TO.C,*%
X145310000Y-105850000D03*
%TD*%
%TO.C,*%
X97730000Y-89960000D03*
%TD*%
%TO.C,H2*%
X158128000Y-80183056D03*
X158830944Y-78486000D03*
X158830944Y-81880112D03*
X160528000Y-77783056D03*
D14*
X160528000Y-80183056D03*
D10*
X160528000Y-82583056D03*
X162225056Y-78486000D03*
X162225056Y-81880112D03*
X162928000Y-80183056D03*
%TD*%
%TO.C,*%
X161140000Y-87260000D03*
%TD*%
%TO.C,*%
X143710000Y-105830000D03*
%TD*%
%TO.C,*%
X105660000Y-89940000D03*
%TD*%
%TO.C,*%
X122470000Y-98170000D03*
%TD*%
%TO.C,*%
X124120000Y-98180000D03*
%TD*%
%TO.C,*%
X94990000Y-84600000D03*
%TD*%
%TO.C,*%
X97750000Y-92250000D03*
%TD*%
%TO.C,*%
X97750000Y-93450000D03*
%TD*%
%TO.C,*%
X115790000Y-102510000D03*
%TD*%
%TO.C,H3*%
X92088000Y-104140000D03*
X92790944Y-102442944D03*
X92790944Y-105837056D03*
X94488000Y-101740000D03*
D14*
X94488000Y-104140000D03*
D10*
X94488000Y-106540000D03*
X96185056Y-102442944D03*
X96185056Y-105837056D03*
X96888000Y-104140000D03*
%TD*%
%TO.C,*%
X120850000Y-101190000D03*
%TD*%
%TO.C,*%
X102270000Y-91180000D03*
%TD*%
%TO.C,*%
X97730000Y-95870000D03*
%TD*%
%TO.C,*%
X94410000Y-94600000D03*
%TD*%
%TO.C,*%
X120910000Y-99320000D03*
%TD*%
%TO.C,*%
X162720000Y-84950000D03*
%TD*%
%TO.C,*%
X124120000Y-89970000D03*
%TD*%
%TO.C,*%
X122530000Y-99330000D03*
%TD*%
%TO.C,*%
X125700000Y-89970000D03*
%TD*%
%TO.C,*%
X115880000Y-91110000D03*
%TD*%
%TO.C,*%
X124180000Y-99340000D03*
%TD*%
%TO.C,*%
X133320000Y-106890000D03*
%TD*%
%TO.C,*%
X142230000Y-105800000D03*
%TD*%
%TO.C,*%
X97710000Y-94620000D03*
%TD*%
%TO.C,*%
X92590000Y-98900000D03*
%TD*%
%TO.C,*%
X107410000Y-91190000D03*
%TD*%
%TO.C,*%
X94440000Y-91080000D03*
%TD*%
%TO.C,*%
X161240000Y-94530000D03*
%TD*%
%TO.C,*%
X136300000Y-105800000D03*
%TD*%
%TO.C,*%
X97740000Y-91100000D03*
%TD*%
%TO.C,*%
X96070000Y-100050000D03*
%TD*%
%TO.C,*%
X162720000Y-87230000D03*
%TD*%
%TO.C,*%
X92590000Y-89950000D03*
%TD*%
%TO.C,*%
X133300000Y-105700000D03*
%TD*%
%TO.C,*%
X115890000Y-94530000D03*
%TD*%
%TO.C,*%
X102420000Y-102540000D03*
%TD*%
%TO.C,*%
X120880000Y-102510000D03*
%TD*%
%TO.C,*%
X95990000Y-94600000D03*
%TD*%
%TO.C,*%
X159800000Y-92090000D03*
%TD*%
%TO.C,*%
X96030000Y-92230000D03*
%TD*%
%TO.C,*%
X117950000Y-89430000D03*
%TD*%
%TO.C,*%
X117440000Y-102520000D03*
%TD*%
%TO.C,*%
X124190000Y-91200000D03*
%TD*%
%TO.C,*%
X159730000Y-99600000D03*
%TD*%
%TO.C,*%
X125820000Y-102560002D03*
%TD*%
%TO.C,*%
X94450000Y-92230000D03*
%TD*%
%TO.C,*%
X140690000Y-105830000D03*
%TD*%
%TO.C,*%
X107560000Y-102560000D03*
%TD*%
D13*
%TO.C,J4*%
X153244000Y-84694400D03*
X153244000Y-79694400D03*
X149744000Y-84694400D03*
X149744000Y-79694400D03*
X146244000Y-84694400D03*
X146244000Y-79694400D03*
X142744000Y-84694400D03*
X142744000Y-79694400D03*
%TD*%
D10*
%TO.C,*%
X117930000Y-92730000D03*
%TD*%
%TO.C,H1*%
X92088000Y-80264000D03*
X92790944Y-78566944D03*
X92790944Y-81961056D03*
X94488000Y-77864000D03*
D14*
X94488000Y-80264000D03*
D10*
X94488000Y-82664000D03*
X96185056Y-78566944D03*
X96185056Y-81961056D03*
X96888000Y-80264000D03*
%TD*%
%TO.C,*%
X137840000Y-107020000D03*
%TD*%
%TO.C,*%
X159690000Y-89780000D03*
%TD*%
%TO.C,*%
X122280000Y-89980000D03*
%TD*%
%TO.C,*%
X97400000Y-84570000D03*
%TD*%
%TO.C,*%
X117460000Y-101200000D03*
%TD*%
%TO.C,H4*%
X158128000Y-104093944D03*
X158830944Y-102396888D03*
X158830944Y-105791000D03*
X160528000Y-101693944D03*
D14*
X160528000Y-104093944D03*
D10*
X160528000Y-106493944D03*
X162225056Y-102396888D03*
X162225056Y-105791000D03*
X162928000Y-104093944D03*
%TD*%
%TO.C,*%
X120850000Y-98160000D03*
%TD*%
%TO.C,*%
X159660000Y-85090000D03*
%TD*%
M02*
