%TF.GenerationSoftware,KiCad,Pcbnew,8.0.3*%
%TF.CreationDate,2024-08-06T18:37:16+01:00*%
%TF.ProjectId,DRV8243 DC Motor Driver Expander,44525638-3234-4332-9044-43204d6f746f,rev?*%
%TF.SameCoordinates,Original*%
%TF.FileFunction,Legend,Bot*%
%TF.FilePolarity,Positive*%
%FSLAX46Y46*%
G04 Gerber Fmt 4.6, Leading zero omitted, Abs format (unit mm)*
G04 Created by KiCad (PCBNEW 8.0.3) date 2024-08-06 18:37:16*
%MOMM*%
%LPD*%
G01*
G04 APERTURE LIST*
%ADD10C,0.508000*%
%ADD11C,0.000000*%
%ADD12C,0.800000*%
%ADD13C,1.600200*%
%ADD14C,0.499999*%
%ADD15C,1.650000*%
%ADD16C,6.400000*%
G04 APERTURE END LIST*
D10*
%TO.C,J3*%
X138978698Y-84654400D02*
G75*
G02*
X138216698Y-84654400I-381000J0D01*
G01*
X138216698Y-84654400D02*
G75*
G02*
X138978698Y-84654400I381000J0D01*
G01*
%TO.C,J5*%
X102901000Y-101843698D02*
G75*
G02*
X102139000Y-101843698I-381000J0D01*
G01*
X102139000Y-101843698D02*
G75*
G02*
X102901000Y-101843698I381000J0D01*
G01*
%TO.C,J1*%
X109184499Y-84709000D02*
G75*
G02*
X108422499Y-84709000I-381000J0D01*
G01*
X108422499Y-84709000D02*
G75*
G02*
X109184499Y-84709000I381000J0D01*
G01*
D11*
%TO.C,kibuzzard-65BE5BEC*%
G36*
X153872406Y-86631304D02*
G01*
X153872406Y-87354727D01*
X153872406Y-87923846D01*
X153872406Y-88024335D01*
X153872406Y-88222773D01*
X152756394Y-88222773D01*
X152756394Y-88024335D01*
X152756394Y-87923370D01*
X152954831Y-87923370D01*
X152987692Y-87986235D01*
X153044842Y-88024335D01*
X153102469Y-87995760D01*
X153137354Y-87964328D01*
X153178193Y-87925275D01*
X153224984Y-87878603D01*
X153277729Y-87824310D01*
X153313924Y-87786210D01*
X153379587Y-87853778D01*
X153436558Y-87910749D01*
X153484838Y-87957124D01*
X153524426Y-87992903D01*
X153583958Y-88024335D01*
X153641108Y-87986235D01*
X153673969Y-87923846D01*
X153633964Y-87865268D01*
X153394886Y-87655718D01*
X153580624Y-87655718D01*
X153613961Y-87654289D01*
X153638726Y-87645240D01*
X153658014Y-87619999D01*
X153664444Y-87570945D01*
X153655395Y-87518081D01*
X153628249Y-87492840D01*
X153579671Y-87487125D01*
X153050081Y-87487125D01*
X153017220Y-87488554D01*
X152991979Y-87497602D01*
X152972691Y-87522844D01*
X152966261Y-87571898D01*
X152975072Y-87624999D01*
X153001504Y-87650955D01*
X153051034Y-87655718D01*
X153232961Y-87655718D01*
X153176764Y-87705552D01*
X153124757Y-87751425D01*
X153076942Y-87793335D01*
X153033317Y-87831282D01*
X152993884Y-87865268D01*
X152954831Y-87923370D01*
X152756394Y-87923370D01*
X152756394Y-87012780D01*
X152966261Y-87012780D01*
X152975072Y-87065882D01*
X153001504Y-87091837D01*
X153051034Y-87096600D01*
X153523474Y-87096600D01*
X153523474Y-87355680D01*
X153530618Y-87401400D01*
X153553001Y-87420450D01*
X153593483Y-87425212D01*
X153633964Y-87420450D01*
X153654919Y-87404258D01*
X153664444Y-87354727D01*
X153664444Y-87011827D01*
X153655395Y-86958964D01*
X153628249Y-86933722D01*
X153579671Y-86928007D01*
X153050081Y-86928007D01*
X153017220Y-86929436D01*
X152991979Y-86938485D01*
X152972691Y-86963726D01*
X152966261Y-87012780D01*
X152756394Y-87012780D01*
X152756394Y-86630827D01*
X152959594Y-86630827D01*
X152963047Y-86675952D01*
X152973405Y-86721791D01*
X153001504Y-86791800D01*
X153014839Y-86814660D01*
X153031984Y-86841330D01*
X153077227Y-86866095D01*
X153130091Y-86846092D01*
X153168667Y-86810850D01*
X153181526Y-86779417D01*
X153160571Y-86730840D01*
X153136283Y-86684167D01*
X153128186Y-86624160D01*
X153138902Y-86562724D01*
X153171049Y-86502240D01*
X153230104Y-86454615D01*
X153270704Y-86440327D01*
X153316305Y-86435565D01*
X153361906Y-86440327D01*
X153402506Y-86454615D01*
X153462514Y-86503192D01*
X153493946Y-86562486D01*
X153504424Y-86624160D01*
X153496804Y-86679881D01*
X153481564Y-86717505D01*
X153469181Y-86734650D01*
X153450131Y-86780370D01*
X153463466Y-86811088D01*
X153503471Y-86844187D01*
X153556811Y-86865142D01*
X153590149Y-86852284D01*
X153613961Y-86822280D01*
X153633964Y-86789419D01*
X153658729Y-86725125D01*
X153670159Y-86677381D01*
X153673969Y-86631304D01*
X153670992Y-86585822D01*
X153662063Y-86539864D01*
X153646108Y-86492953D01*
X153622058Y-86444614D01*
X153590863Y-86398060D01*
X153553478Y-86356507D01*
X153507281Y-86320908D01*
X153449655Y-86292214D01*
X153383575Y-86273283D01*
X153312019Y-86266972D01*
X153241177Y-86273164D01*
X153177240Y-86291737D01*
X153121995Y-86319955D01*
X153077227Y-86355079D01*
X153040913Y-86396393D01*
X153011029Y-86443185D01*
X152982454Y-86505521D01*
X152965309Y-86568068D01*
X152959594Y-86630827D01*
X152756394Y-86630827D01*
X152756394Y-85956457D01*
X152954831Y-85956457D01*
X152958522Y-86011107D01*
X152969595Y-86060756D01*
X152999599Y-86126002D01*
X153017696Y-86149815D01*
X153064369Y-86179342D01*
X153116756Y-86156482D01*
X153152475Y-86123621D01*
X153164381Y-86089807D01*
X153145331Y-86040277D01*
X153135806Y-86029324D01*
X153123424Y-86014560D01*
X153111041Y-85963601D01*
X153125805Y-85912166D01*
X153166762Y-85891687D01*
X153209149Y-85915976D01*
X153231056Y-85976460D01*
X153238319Y-86014322D01*
X153248677Y-86055517D01*
X153261893Y-86096713D01*
X153277729Y-86134575D01*
X153301184Y-86167793D01*
X153337260Y-86195059D01*
X153384528Y-86213275D01*
X153441559Y-86219347D01*
X153499780Y-86213156D01*
X153550620Y-86194582D01*
X153592411Y-86166007D01*
X153623486Y-86129812D01*
X153651532Y-86077213D01*
X153668360Y-86022286D01*
X153673969Y-85965030D01*
X153671230Y-85921453D01*
X153663015Y-85880257D01*
X153635869Y-85815487D01*
X153605865Y-85772625D01*
X153576814Y-85745002D01*
X153566336Y-85736430D01*
X153511568Y-85711665D01*
X153483350Y-85721904D01*
X153447274Y-85752622D01*
X153424414Y-85803105D01*
X153436320Y-85835014D01*
X153472039Y-85877400D01*
X153502995Y-85915500D01*
X153517759Y-85961220D01*
X153509715Y-86010432D01*
X153485585Y-86039960D01*
X153445369Y-86049802D01*
X153408698Y-86025514D01*
X153387266Y-85965030D01*
X153378575Y-85927406D01*
X153365835Y-85886925D01*
X153349762Y-85846444D01*
X153331069Y-85808820D01*
X153305232Y-85775602D01*
X153267727Y-85748336D01*
X153219983Y-85730120D01*
X153163429Y-85724047D01*
X153109930Y-85730980D01*
X153061194Y-85751776D01*
X153017220Y-85786436D01*
X152982560Y-85833056D01*
X152961763Y-85889730D01*
X152954831Y-85956457D01*
X152756394Y-85956457D01*
X152756394Y-85711665D01*
X152756394Y-85513227D01*
X153872406Y-85513227D01*
X153872406Y-85711665D01*
X153872406Y-85965030D01*
X153872406Y-86631304D01*
G37*
%TO.C,kibuzzard-65A6FFF9*%
G36*
X118411625Y-82225356D02*
G01*
X118211600Y-82225356D01*
X118117937Y-82190431D01*
X118071900Y-82085656D01*
X118117937Y-81980087D01*
X118213187Y-81944369D01*
X118411625Y-81944369D01*
X118411625Y-82225356D01*
G37*
G36*
X121195394Y-82245200D02*
G01*
X120574329Y-83176798D01*
X120243600Y-83176798D01*
X120103900Y-83176798D01*
X118960900Y-83176798D01*
X118552912Y-83176798D01*
X117178931Y-83176798D01*
X116020850Y-83176798D01*
X114977862Y-83176798D01*
X114554000Y-83176798D01*
X114223271Y-83176798D01*
X113742435Y-82455544D01*
X114554000Y-82455544D01*
X114564319Y-82552580D01*
X114595275Y-82637313D01*
X114642900Y-82706964D01*
X114703225Y-82758756D01*
X114790890Y-82805499D01*
X114882436Y-82833545D01*
X114977862Y-82842894D01*
X115050491Y-82838330D01*
X115119150Y-82824637D01*
X115227100Y-82779394D01*
X115298537Y-82729388D01*
X115344575Y-82680969D01*
X115358862Y-82663506D01*
X115400137Y-82572225D01*
X115383072Y-82525195D01*
X115331875Y-82465069D01*
X115247737Y-82426969D01*
X115194556Y-82446812D01*
X115123912Y-82506344D01*
X115060412Y-82557937D01*
X114984212Y-82582544D01*
X114902192Y-82569138D01*
X114852979Y-82528922D01*
X114836575Y-82461894D01*
X114877056Y-82400775D01*
X114977862Y-82365056D01*
X115040569Y-82350570D01*
X115108037Y-82329337D01*
X115175506Y-82302548D01*
X115238212Y-82271394D01*
X115293577Y-82228333D01*
X115339019Y-82165825D01*
X115369380Y-82086252D01*
X115379500Y-81991994D01*
X115367947Y-81902829D01*
X115333286Y-81821602D01*
X115298668Y-81777681D01*
X115463637Y-81777681D01*
X115471575Y-81843562D01*
X115498562Y-81877694D01*
X115579525Y-81891981D01*
X115882737Y-81891981D01*
X115882737Y-82690494D01*
X115885119Y-82744469D01*
X115899406Y-82784950D01*
X115941475Y-82817494D01*
X116020850Y-82827019D01*
X116099431Y-82817494D01*
X116140706Y-82784950D01*
X116154994Y-82743675D01*
X116157375Y-82688906D01*
X116157375Y-81891981D01*
X116462175Y-81891981D01*
X116536787Y-81880075D01*
X116568537Y-81842769D01*
X116573073Y-81804669D01*
X116663787Y-81804669D01*
X116663787Y-82284094D01*
X116671923Y-82386487D01*
X116696331Y-82484119D01*
X116737011Y-82576987D01*
X116793962Y-82665094D01*
X116866591Y-82738317D01*
X116957475Y-82796062D01*
X117062845Y-82833567D01*
X117178931Y-82846069D01*
X117294819Y-82833369D01*
X117399594Y-82795269D01*
X117489486Y-82736531D01*
X117560725Y-82661919D01*
X117616982Y-82575003D01*
X117657166Y-82482531D01*
X117681276Y-82384503D01*
X117689312Y-82280919D01*
X117689312Y-82085656D01*
X117792500Y-82085656D01*
X117802819Y-82183883D01*
X117833775Y-82272187D01*
X117881003Y-82346998D01*
X117940137Y-82404744D01*
X118029037Y-82461188D01*
X118120054Y-82495055D01*
X118213187Y-82506344D01*
X118411625Y-82506344D01*
X118411625Y-82685731D01*
X118414006Y-82740500D01*
X118429087Y-82782569D01*
X118471156Y-82814716D01*
X118552912Y-82825431D01*
X118641019Y-82810747D01*
X118683087Y-82766694D01*
X118692612Y-82684144D01*
X118692612Y-81806256D01*
X118819612Y-81806256D01*
X118819612Y-82687319D01*
X118821994Y-82742881D01*
X118837075Y-82784156D01*
X118879144Y-82816303D01*
X118960900Y-82827019D01*
X119046625Y-82817494D01*
X119086312Y-82787331D01*
X119198584Y-82637753D01*
X119297274Y-82506520D01*
X119382381Y-82393631D01*
X119453907Y-82299087D01*
X119511851Y-82222887D01*
X119556213Y-82165031D01*
X119556213Y-82687319D01*
X119558594Y-82742881D01*
X119573675Y-82784156D01*
X119615744Y-82816303D01*
X119697500Y-82827019D01*
X119776875Y-82816303D01*
X119818150Y-82784156D01*
X119833231Y-82741294D01*
X119835613Y-82685731D01*
X119835613Y-81804669D01*
X119962613Y-81804669D01*
X119962613Y-82687319D01*
X119964994Y-82742881D01*
X119980075Y-82784156D01*
X120022144Y-82816303D01*
X120103900Y-82827019D01*
X120192006Y-82811937D01*
X120234075Y-82766694D01*
X120243600Y-82685731D01*
X120243600Y-81803081D01*
X120241219Y-81748312D01*
X120226138Y-81706244D01*
X120184069Y-81674097D01*
X120102313Y-81663381D01*
X120013809Y-81678066D01*
X119970550Y-81722119D01*
X119962613Y-81804669D01*
X119835613Y-81804669D01*
X119835613Y-81799906D01*
X119820531Y-81711800D01*
X119775287Y-81674494D01*
X119697500Y-81664969D01*
X119622094Y-81673700D01*
X119583200Y-81693544D01*
X119546687Y-81734819D01*
X119441207Y-81878091D01*
X119348074Y-82004165D01*
X119267287Y-82113041D01*
X119198849Y-82204719D01*
X119142757Y-82279199D01*
X119099013Y-82336481D01*
X119099013Y-81799906D01*
X119083931Y-81711800D01*
X119038687Y-81674494D01*
X118963281Y-81664969D01*
X118890256Y-81672906D01*
X118848981Y-81691956D01*
X118829137Y-81725294D01*
X118819612Y-81806256D01*
X118692612Y-81806256D01*
X118692612Y-81803081D01*
X118690231Y-81748312D01*
X118675150Y-81706244D01*
X118633081Y-81674097D01*
X118551325Y-81663381D01*
X118211600Y-81663381D01*
X118119349Y-81674670D01*
X118028861Y-81708537D01*
X117940137Y-81764981D01*
X117881003Y-81822925D01*
X117833775Y-81898331D01*
X117802819Y-81987231D01*
X117792500Y-82085656D01*
X117689312Y-82085656D01*
X117689312Y-81803081D01*
X117686931Y-81746725D01*
X117671850Y-81704656D01*
X117628987Y-81671319D01*
X117548025Y-81661794D01*
X117467062Y-81671319D01*
X117425787Y-81704656D01*
X117406737Y-81804669D01*
X117406737Y-82280919D01*
X117394831Y-82375375D01*
X117359112Y-82465069D01*
X117287675Y-82536506D01*
X117174962Y-82563494D01*
X117073759Y-82542063D01*
X117001925Y-82477769D01*
X116959062Y-82385297D01*
X116944775Y-82279331D01*
X116944775Y-81793556D01*
X116928900Y-81706244D01*
X116882862Y-81671319D01*
X116807456Y-81661794D01*
X116735225Y-81669731D01*
X116693950Y-81688781D01*
X116673312Y-81722119D01*
X116663787Y-81804669D01*
X116573073Y-81804669D01*
X116576475Y-81776094D01*
X116568537Y-81710212D01*
X116541550Y-81676081D01*
X116460587Y-81661794D01*
X115577938Y-81661794D01*
X115503325Y-81673700D01*
X115471575Y-81711006D01*
X115463637Y-81777681D01*
X115298668Y-81777681D01*
X115275519Y-81748312D01*
X115197819Y-81690545D01*
X115103363Y-81655885D01*
X114992150Y-81644331D01*
X114901067Y-81650483D01*
X114818319Y-81668937D01*
X114709575Y-81718944D01*
X114669887Y-81749106D01*
X114620675Y-81826894D01*
X114658775Y-81914206D01*
X114713544Y-81973738D01*
X114769900Y-81993581D01*
X114852450Y-81961831D01*
X114870706Y-81945956D01*
X114895312Y-81925319D01*
X114980244Y-81904681D01*
X115065969Y-81929287D01*
X115100100Y-81997550D01*
X115059619Y-82068194D01*
X114958812Y-82104706D01*
X114895709Y-82116811D01*
X114827050Y-82134075D01*
X114758391Y-82156102D01*
X114695287Y-82182494D01*
X114639923Y-82221586D01*
X114594481Y-82281712D01*
X114564120Y-82360492D01*
X114554000Y-82455544D01*
X113742435Y-82455544D01*
X113602206Y-82245200D01*
X114223271Y-81313602D01*
X114554000Y-81313602D01*
X120243600Y-81313602D01*
X120574329Y-81313602D01*
X121195394Y-82245200D01*
G37*
%TO.C,kibuzzard-65BE5C01*%
G36*
X143306006Y-87058341D02*
G01*
X143306006Y-87899399D01*
X143306006Y-87984171D01*
X143306006Y-88182609D01*
X142189994Y-88182609D01*
X142189994Y-87984171D01*
X142189994Y-87457439D01*
X142400814Y-87457439D01*
X142406052Y-87502683D01*
X142417959Y-87526019D01*
X142442724Y-87547926D01*
X142528687Y-87611215D01*
X142604331Y-87667095D01*
X142669657Y-87715566D01*
X142724664Y-87756630D01*
X142769352Y-87790285D01*
X142803721Y-87816531D01*
X142481776Y-87816531D01*
X142428913Y-87825580D01*
X142406529Y-87852726D01*
X142400814Y-87897970D01*
X142405576Y-87941785D01*
X142417006Y-87966550D01*
X142437009Y-87978456D01*
X142485586Y-87984171D01*
X143014224Y-87984171D01*
X143047561Y-87982743D01*
X143072326Y-87973694D01*
X143091614Y-87948453D01*
X143098044Y-87899399D01*
X143092329Y-87847964D01*
X143074231Y-87824151D01*
X142984485Y-87756788D01*
X142905745Y-87697575D01*
X142838011Y-87646510D01*
X142781285Y-87603595D01*
X142735565Y-87568828D01*
X142700851Y-87542211D01*
X143014224Y-87542211D01*
X143047561Y-87540783D01*
X143072326Y-87531734D01*
X143091614Y-87506493D01*
X143098044Y-87457439D01*
X143091614Y-87409814D01*
X143072326Y-87385049D01*
X143046609Y-87376000D01*
X143013271Y-87374571D01*
X142481776Y-87374571D01*
X142428913Y-87383620D01*
X142406529Y-87410766D01*
X142400814Y-87457439D01*
X142189994Y-87457439D01*
X142189994Y-87049769D01*
X142388431Y-87049769D01*
X142392122Y-87104418D01*
X142403195Y-87154068D01*
X142433199Y-87219314D01*
X142451296Y-87243126D01*
X142497969Y-87272654D01*
X142550356Y-87249794D01*
X142586075Y-87216933D01*
X142597981Y-87183119D01*
X142578931Y-87133589D01*
X142569406Y-87122635D01*
X142557024Y-87107871D01*
X142544641Y-87056913D01*
X142559405Y-87005478D01*
X142600362Y-86984999D01*
X142642749Y-87009288D01*
X142664656Y-87069771D01*
X142671919Y-87107633D01*
X142682277Y-87148829D01*
X142695493Y-87190024D01*
X142711329Y-87227886D01*
X142734784Y-87261105D01*
X142770860Y-87288370D01*
X142818128Y-87306587D01*
X142875159Y-87312659D01*
X142933380Y-87306467D01*
X142984220Y-87287894D01*
X143026011Y-87259319D01*
X143057086Y-87223124D01*
X143085132Y-87170525D01*
X143101960Y-87115597D01*
X143107569Y-87058341D01*
X143104830Y-87014764D01*
X143096615Y-86973569D01*
X143069469Y-86908799D01*
X143039465Y-86865936D01*
X143010414Y-86838314D01*
X142999936Y-86829741D01*
X142945168Y-86804976D01*
X142916950Y-86815216D01*
X142880874Y-86845934D01*
X142858014Y-86896416D01*
X142869920Y-86928325D01*
X142905639Y-86970711D01*
X142936595Y-87008811D01*
X142951359Y-87054531D01*
X142943315Y-87103744D01*
X142919185Y-87133271D01*
X142878969Y-87143114D01*
X142842298Y-87118825D01*
X142820866Y-87058341D01*
X142812175Y-87020717D01*
X142799435Y-86980236D01*
X142783362Y-86939755D01*
X142764669Y-86902131D01*
X142738832Y-86868913D01*
X142701327Y-86841648D01*
X142653583Y-86823431D01*
X142597029Y-86817359D01*
X142543530Y-86824291D01*
X142494794Y-86845087D01*
X142450820Y-86879748D01*
X142416160Y-86926367D01*
X142395363Y-86983041D01*
X142388431Y-87049769D01*
X142189994Y-87049769D01*
X142189994Y-86522084D01*
X142393194Y-86522084D01*
X142396647Y-86567208D01*
X142407005Y-86613048D01*
X142435104Y-86683056D01*
X142448439Y-86705916D01*
X142465584Y-86732586D01*
X142510827Y-86757351D01*
X142563691Y-86737349D01*
X142602267Y-86702106D01*
X142615126Y-86670674D01*
X142594171Y-86622096D01*
X142569883Y-86575424D01*
X142561786Y-86515416D01*
X142572502Y-86453980D01*
X142604649Y-86393496D01*
X142663704Y-86345871D01*
X142704304Y-86331584D01*
X142749905Y-86326821D01*
X142795506Y-86331584D01*
X142836106Y-86345871D01*
X142896114Y-86394449D01*
X142927546Y-86453742D01*
X142938024Y-86515416D01*
X142930404Y-86571138D01*
X142915164Y-86608761D01*
X142902781Y-86625906D01*
X142883731Y-86671626D01*
X142897066Y-86702344D01*
X142937071Y-86735444D01*
X142990411Y-86756399D01*
X143023749Y-86743540D01*
X143047561Y-86713536D01*
X143067564Y-86680675D01*
X143092329Y-86616381D01*
X143103759Y-86568637D01*
X143107569Y-86522560D01*
X143104592Y-86477078D01*
X143095663Y-86431120D01*
X143079708Y-86384209D01*
X143055658Y-86335870D01*
X143024463Y-86289317D01*
X142987078Y-86247764D01*
X142940881Y-86212164D01*
X142883255Y-86183470D01*
X142817175Y-86164539D01*
X142745619Y-86158229D01*
X142674777Y-86164420D01*
X142610840Y-86182994D01*
X142555595Y-86211212D01*
X142510827Y-86246335D01*
X142474513Y-86287650D01*
X142444629Y-86334441D01*
X142416054Y-86396777D01*
X142398909Y-86459325D01*
X142393194Y-86522084D01*
X142189994Y-86522084D01*
X142189994Y-86158229D01*
X142189994Y-85959791D01*
X143306006Y-85959791D01*
X143306006Y-86158229D01*
X143306006Y-86522560D01*
X143306006Y-87058341D01*
G37*
%TO.C,kibuzzard-65A70003*%
G36*
X133710363Y-82123756D02*
G01*
X133510338Y-82123756D01*
X133416675Y-82088831D01*
X133370637Y-81984056D01*
X133416675Y-81878487D01*
X133511925Y-81842769D01*
X133710363Y-81842769D01*
X133710363Y-82123756D01*
G37*
G36*
X137090944Y-81850508D02*
G01*
X137186988Y-81916587D01*
X137237258Y-81981234D01*
X137267421Y-82057699D01*
X137277475Y-82145981D01*
X137267333Y-82234264D01*
X137236906Y-82310728D01*
X137186194Y-82375375D01*
X137089555Y-82441455D01*
X136982200Y-82463481D01*
X136875044Y-82442050D01*
X136779000Y-82377756D01*
X136728729Y-82314080D01*
X136698567Y-82237351D01*
X136688513Y-82147569D01*
X136698655Y-82057610D01*
X136729082Y-81980352D01*
X136779794Y-81915794D01*
X136876433Y-81850309D01*
X136983788Y-81828481D01*
X137090944Y-81850508D01*
G37*
G36*
X138510257Y-82143600D02*
G01*
X137889192Y-83075198D01*
X137558463Y-83075198D01*
X136979025Y-83075198D01*
X135793956Y-83075198D01*
X134635875Y-83075198D01*
X133851650Y-83075198D01*
X132477669Y-83075198D01*
X131319587Y-83075198D01*
X130276600Y-83075198D01*
X129852738Y-83075198D01*
X129522008Y-83075198D01*
X129041172Y-82353944D01*
X129852738Y-82353944D01*
X129863056Y-82450980D01*
X129894012Y-82535713D01*
X129941637Y-82605364D01*
X130001963Y-82657156D01*
X130089628Y-82703899D01*
X130181174Y-82731945D01*
X130276600Y-82741294D01*
X130349228Y-82736730D01*
X130417888Y-82723037D01*
X130525838Y-82677794D01*
X130597275Y-82627788D01*
X130643313Y-82579369D01*
X130657600Y-82561906D01*
X130698875Y-82470625D01*
X130681809Y-82423595D01*
X130630612Y-82363469D01*
X130546475Y-82325369D01*
X130493294Y-82345212D01*
X130422650Y-82404744D01*
X130359150Y-82456337D01*
X130282950Y-82480944D01*
X130200929Y-82467538D01*
X130151717Y-82427322D01*
X130135312Y-82360294D01*
X130175794Y-82299175D01*
X130276600Y-82263456D01*
X130339306Y-82248970D01*
X130406775Y-82227737D01*
X130474244Y-82200948D01*
X130536950Y-82169794D01*
X130592314Y-82126733D01*
X130637756Y-82064225D01*
X130668117Y-81984652D01*
X130678237Y-81890394D01*
X130666684Y-81801229D01*
X130632024Y-81720002D01*
X130597405Y-81676081D01*
X130762375Y-81676081D01*
X130770313Y-81741962D01*
X130797300Y-81776094D01*
X130878262Y-81790381D01*
X131181475Y-81790381D01*
X131181475Y-82588894D01*
X131183856Y-82642869D01*
X131198144Y-82683350D01*
X131240212Y-82715894D01*
X131319587Y-82725419D01*
X131398169Y-82715894D01*
X131439444Y-82683350D01*
X131453731Y-82642075D01*
X131456112Y-82587306D01*
X131456112Y-81790381D01*
X131760913Y-81790381D01*
X131835525Y-81778475D01*
X131867275Y-81741169D01*
X131871811Y-81703069D01*
X131962525Y-81703069D01*
X131962525Y-82182494D01*
X131970661Y-82284887D01*
X131995069Y-82382519D01*
X132035748Y-82475387D01*
X132092700Y-82563494D01*
X132165328Y-82636717D01*
X132256212Y-82694462D01*
X132361583Y-82731967D01*
X132477669Y-82744469D01*
X132593556Y-82731769D01*
X132698331Y-82693669D01*
X132788223Y-82634931D01*
X132859462Y-82560319D01*
X132915720Y-82473403D01*
X132955903Y-82380931D01*
X132980013Y-82282903D01*
X132988050Y-82179319D01*
X132988050Y-81984056D01*
X133091238Y-81984056D01*
X133101556Y-82082283D01*
X133132512Y-82170587D01*
X133179741Y-82245398D01*
X133238875Y-82303144D01*
X133327775Y-82359588D01*
X133418792Y-82393455D01*
X133511925Y-82404744D01*
X133710363Y-82404744D01*
X133710363Y-82584131D01*
X133712744Y-82638900D01*
X133727825Y-82680969D01*
X133769894Y-82713116D01*
X133851650Y-82723831D01*
X133939756Y-82709147D01*
X133981825Y-82665094D01*
X133991350Y-82582544D01*
X133991350Y-81701481D01*
X133990246Y-81676081D01*
X134078663Y-81676081D01*
X134086600Y-81741962D01*
X134113587Y-81776094D01*
X134194550Y-81790381D01*
X134497763Y-81790381D01*
X134497763Y-82588894D01*
X134500144Y-82642869D01*
X134514431Y-82683350D01*
X134556500Y-82715894D01*
X134635875Y-82725419D01*
X134714456Y-82715894D01*
X134755731Y-82683350D01*
X134770019Y-82642075D01*
X134772400Y-82587306D01*
X134772400Y-81790381D01*
X135077200Y-81790381D01*
X135151813Y-81778475D01*
X135183563Y-81741169D01*
X135188098Y-81703069D01*
X135278813Y-81703069D01*
X135278813Y-82182494D01*
X135286948Y-82284887D01*
X135311356Y-82382519D01*
X135352036Y-82475387D01*
X135408987Y-82563494D01*
X135481616Y-82636717D01*
X135572500Y-82694462D01*
X135677870Y-82731967D01*
X135793956Y-82744469D01*
X135909844Y-82731769D01*
X136014619Y-82693669D01*
X136104511Y-82634931D01*
X136175750Y-82560319D01*
X136232007Y-82473403D01*
X136272191Y-82380931D01*
X136296301Y-82282903D01*
X136304338Y-82179319D01*
X136304338Y-82138837D01*
X136407525Y-82138837D01*
X136417844Y-82259984D01*
X136448800Y-82371803D01*
X136500394Y-82474296D01*
X136572625Y-82567463D01*
X136659938Y-82644903D01*
X136756775Y-82700217D01*
X136863137Y-82733406D01*
X136979025Y-82744469D01*
X137095161Y-82733555D01*
X137202267Y-82700813D01*
X137300345Y-82646242D01*
X137389394Y-82569844D01*
X137463361Y-82478364D01*
X137516195Y-82378550D01*
X137547896Y-82270402D01*
X137558463Y-82153919D01*
X137546556Y-82026323D01*
X137510838Y-81907062D01*
X137455275Y-81801295D01*
X137383838Y-81714181D01*
X137298509Y-81644728D01*
X137201275Y-81591944D01*
X137096500Y-81558606D01*
X136988550Y-81547494D01*
X136874945Y-81558110D01*
X136769078Y-81589959D01*
X136670951Y-81643041D01*
X136580563Y-81717356D01*
X136504859Y-81807397D01*
X136450784Y-81907658D01*
X136418340Y-82018138D01*
X136407525Y-82138837D01*
X136304338Y-82138837D01*
X136304338Y-81701481D01*
X136301956Y-81645125D01*
X136286875Y-81603056D01*
X136244012Y-81569719D01*
X136163050Y-81560194D01*
X136082087Y-81569719D01*
X136040813Y-81603056D01*
X136021763Y-81703069D01*
X136021763Y-82179319D01*
X136009856Y-82273775D01*
X135974138Y-82363469D01*
X135902700Y-82434906D01*
X135789987Y-82461894D01*
X135688784Y-82440463D01*
X135616950Y-82376169D01*
X135574087Y-82283697D01*
X135559800Y-82177731D01*
X135559800Y-81691956D01*
X135543925Y-81604644D01*
X135497887Y-81569719D01*
X135422481Y-81560194D01*
X135350250Y-81568131D01*
X135308975Y-81587181D01*
X135288338Y-81620519D01*
X135278813Y-81703069D01*
X135188098Y-81703069D01*
X135191500Y-81674494D01*
X135183563Y-81608612D01*
X135156575Y-81574481D01*
X135075612Y-81560194D01*
X134192962Y-81560194D01*
X134118350Y-81572100D01*
X134086600Y-81609406D01*
X134078663Y-81676081D01*
X133990246Y-81676081D01*
X133988969Y-81646712D01*
X133973888Y-81604644D01*
X133931819Y-81572497D01*
X133850062Y-81561781D01*
X133510338Y-81561781D01*
X133418086Y-81573070D01*
X133327599Y-81606937D01*
X133238875Y-81663381D01*
X133179741Y-81721325D01*
X133132512Y-81796731D01*
X133101556Y-81885631D01*
X133091238Y-81984056D01*
X132988050Y-81984056D01*
X132988050Y-81701481D01*
X132985669Y-81645125D01*
X132970587Y-81603056D01*
X132927725Y-81569719D01*
X132846762Y-81560194D01*
X132765800Y-81569719D01*
X132724525Y-81603056D01*
X132705475Y-81703069D01*
X132705475Y-82179319D01*
X132693569Y-82273775D01*
X132657850Y-82363469D01*
X132586412Y-82434906D01*
X132473700Y-82461894D01*
X132372497Y-82440463D01*
X132300662Y-82376169D01*
X132257800Y-82283697D01*
X132243512Y-82177731D01*
X132243512Y-81691956D01*
X132227637Y-81604644D01*
X132181600Y-81569719D01*
X132106194Y-81560194D01*
X132033962Y-81568131D01*
X131992687Y-81587181D01*
X131972050Y-81620519D01*
X131962525Y-81703069D01*
X131871811Y-81703069D01*
X131875213Y-81674494D01*
X131867275Y-81608612D01*
X131840287Y-81574481D01*
X131759325Y-81560194D01*
X130876675Y-81560194D01*
X130802062Y-81572100D01*
X130770313Y-81609406D01*
X130762375Y-81676081D01*
X130597405Y-81676081D01*
X130574256Y-81646712D01*
X130496557Y-81588945D01*
X130402101Y-81554285D01*
X130290887Y-81542731D01*
X130199805Y-81548883D01*
X130117056Y-81567337D01*
X130008312Y-81617344D01*
X129968625Y-81647506D01*
X129919413Y-81725294D01*
X129957512Y-81812606D01*
X130012281Y-81872138D01*
X130068638Y-81891981D01*
X130151188Y-81860231D01*
X130169444Y-81844356D01*
X130194050Y-81823719D01*
X130278981Y-81803081D01*
X130364706Y-81827687D01*
X130398838Y-81895950D01*
X130358356Y-81966594D01*
X130257550Y-82003106D01*
X130194447Y-82015211D01*
X130125788Y-82032475D01*
X130057128Y-82054502D01*
X129994025Y-82080894D01*
X129938661Y-82119986D01*
X129893219Y-82180112D01*
X129862858Y-82258892D01*
X129852738Y-82353944D01*
X129041172Y-82353944D01*
X128900943Y-82143600D01*
X129522008Y-81212002D01*
X129852737Y-81212002D01*
X137558462Y-81212002D01*
X137558463Y-81212002D01*
X137889192Y-81212002D01*
X138510257Y-82143600D01*
G37*
%TO.C,kibuzzard-65A6FCD9*%
G36*
X116250720Y-87035481D02*
G01*
X116250720Y-87638414D01*
X116250720Y-87724139D01*
X116250720Y-87922576D01*
X115143280Y-87922576D01*
X115143280Y-87724139D01*
X115143280Y-87438865D01*
X115341717Y-87438865D01*
X115350555Y-87510567D01*
X115377066Y-87572638D01*
X115421251Y-87625079D01*
X115476761Y-87664766D01*
X115537245Y-87688579D01*
X115602703Y-87696516D01*
X115655566Y-87690563D01*
X115705573Y-87672704D01*
X115749388Y-87646510D01*
X115783678Y-87615554D01*
X115836303Y-87548879D01*
X115868450Y-87489824D01*
X115877975Y-87466011D01*
X115882738Y-87466011D01*
X115882738Y-87640319D01*
X115891786Y-87696040D01*
X115919409Y-87718424D01*
X115967986Y-87724139D01*
X116016088Y-87717948D01*
X116040853Y-87697469D01*
X116052283Y-87638414D01*
X116052283Y-87265986D01*
X116026565Y-87206931D01*
X115966558Y-87182166D01*
X115917147Y-87191096D01*
X115871784Y-87217885D01*
X115831541Y-87257295D01*
X115797489Y-87304086D01*
X115766771Y-87354569D01*
X115736529Y-87405051D01*
X115704501Y-87451843D01*
X115668425Y-87491252D01*
X115629134Y-87518042D01*
X115587463Y-87526971D01*
X115563174Y-87520304D01*
X115537456Y-87505540D01*
X115518883Y-87480299D01*
X115510310Y-87432674D01*
X115532694Y-87379810D01*
X115576985Y-87354569D01*
X115598893Y-87350759D01*
X115604608Y-87350759D01*
X115636040Y-87349330D01*
X115659853Y-87340281D01*
X115676998Y-87314564D01*
X115682713Y-87265986D01*
X115673664Y-87212884D01*
X115646518Y-87186929D01*
X115597940Y-87182166D01*
X115534175Y-87190051D01*
X115474962Y-87213705D01*
X115420299Y-87253127D01*
X115376643Y-87305303D01*
X115350449Y-87367216D01*
X115341717Y-87438865D01*
X115143280Y-87438865D01*
X115143280Y-86593521D01*
X115353147Y-86593521D01*
X115358386Y-86638765D01*
X115370293Y-86662101D01*
X115395058Y-86684009D01*
X115481021Y-86747297D01*
X115556665Y-86803177D01*
X115621991Y-86851649D01*
X115676998Y-86892712D01*
X115721686Y-86926367D01*
X115756055Y-86952614D01*
X115434110Y-86952614D01*
X115381246Y-86961663D01*
X115358863Y-86988809D01*
X115353147Y-87034052D01*
X115357910Y-87077868D01*
X115369340Y-87102632D01*
X115389343Y-87114539D01*
X115437920Y-87120254D01*
X115966558Y-87120254D01*
X115999895Y-87118825D01*
X116024660Y-87109776D01*
X116043948Y-87084535D01*
X116050378Y-87035481D01*
X116044663Y-86984046D01*
X116026565Y-86960234D01*
X115936818Y-86892871D01*
X115858078Y-86833657D01*
X115790345Y-86782592D01*
X115733618Y-86739677D01*
X115687898Y-86704911D01*
X115653185Y-86678294D01*
X115966558Y-86678294D01*
X115999895Y-86676865D01*
X116024660Y-86667816D01*
X116043948Y-86642575D01*
X116050378Y-86593521D01*
X116043948Y-86545896D01*
X116024660Y-86521131D01*
X115998943Y-86512082D01*
X115965605Y-86510654D01*
X115434110Y-86510654D01*
X115381246Y-86519702D01*
X115358863Y-86546849D01*
X115353147Y-86593521D01*
X115143280Y-86593521D01*
X115143280Y-86350634D01*
X115352195Y-86350634D01*
X115361006Y-86403736D01*
X115387438Y-86429691D01*
X115436968Y-86434454D01*
X115966558Y-86434454D01*
X115999895Y-86433025D01*
X116024660Y-86423976D01*
X116043948Y-86398735D01*
X116050378Y-86349681D01*
X116041329Y-86296818D01*
X116014183Y-86271576D01*
X115965605Y-86265861D01*
X115436015Y-86265861D01*
X115403154Y-86267290D01*
X115377913Y-86276339D01*
X115358624Y-86301580D01*
X115352195Y-86350634D01*
X115143280Y-86350634D01*
X115143280Y-86265861D01*
X115143280Y-86067424D01*
X116250720Y-86067424D01*
X116250720Y-86265861D01*
X116250720Y-86349681D01*
X116250720Y-87035481D01*
G37*
%TO.C,kibuzzard-65A6FD36*%
G36*
X100718356Y-98399916D02*
G01*
X100775983Y-98439564D01*
X100806145Y-98478352D01*
X100824243Y-98524230D01*
X100830275Y-98577200D01*
X100824190Y-98630170D01*
X100805933Y-98676048D01*
X100775506Y-98714836D01*
X100717523Y-98754484D01*
X100653110Y-98767700D01*
X100588816Y-98754841D01*
X100531190Y-98716265D01*
X100501028Y-98678059D01*
X100482930Y-98632022D01*
X100476898Y-98578152D01*
X100482983Y-98524177D01*
X100501239Y-98477822D01*
X100531666Y-98439087D01*
X100589650Y-98399797D01*
X100654063Y-98386700D01*
X100718356Y-98399916D01*
G37*
G36*
X101197305Y-99134730D02*
G01*
X100998868Y-99134730D01*
X100651205Y-99134730D01*
X99940164Y-99134730D01*
X99245315Y-99134730D01*
X98631905Y-99134730D01*
X98547133Y-99134730D01*
X98348695Y-99134730D01*
X98348695Y-98312405D01*
X98547133Y-98312405D01*
X98547133Y-98842947D01*
X98548561Y-98875809D01*
X98557610Y-98901050D01*
X98582851Y-98920338D01*
X98631905Y-98926767D01*
X98679768Y-98920576D01*
X98705248Y-98902003D01*
X98714296Y-98875809D01*
X98715725Y-98841042D01*
X98715725Y-98501000D01*
X98728108Y-98512430D01*
X98794783Y-98541958D01*
X98852409Y-98508620D01*
X98882413Y-98449565D01*
X98848123Y-98393368D01*
X98739410Y-98295260D01*
X98910988Y-98295260D01*
X98915750Y-98334789D01*
X98931943Y-98355267D01*
X98980520Y-98363840D01*
X99162448Y-98363840D01*
X99162448Y-98842947D01*
X99163876Y-98875332D01*
X99172449Y-98899621D01*
X99197690Y-98919148D01*
X99245315Y-98924863D01*
X99292464Y-98919148D01*
X99317229Y-98899621D01*
X99325801Y-98874856D01*
X99327230Y-98841995D01*
X99327230Y-98363840D01*
X99510110Y-98363840D01*
X99554878Y-98356696D01*
X99573928Y-98334312D01*
X99576649Y-98311453D01*
X99631078Y-98311453D01*
X99631078Y-98599107D01*
X99635959Y-98660544D01*
X99650604Y-98719123D01*
X99675012Y-98774844D01*
X99709183Y-98827708D01*
X99752759Y-98871642D01*
X99807290Y-98906289D01*
X99870512Y-98928792D01*
X99940164Y-98936293D01*
X100009696Y-98928673D01*
X100072561Y-98905813D01*
X100126497Y-98870570D01*
X100169240Y-98825803D01*
X100202994Y-98773653D01*
X100227104Y-98718170D01*
X100241570Y-98659353D01*
X100246393Y-98597202D01*
X100246393Y-98572914D01*
X100308305Y-98572914D01*
X100314496Y-98645601D01*
X100333070Y-98712693D01*
X100364026Y-98774189D01*
X100407365Y-98830089D01*
X100459753Y-98876553D01*
X100517855Y-98909742D01*
X100581673Y-98929655D01*
X100651205Y-98936293D01*
X100720886Y-98929744D01*
X100785150Y-98910099D01*
X100843997Y-98877357D01*
X100897426Y-98831517D01*
X100941807Y-98776630D01*
X100973507Y-98716741D01*
X100992527Y-98651852D01*
X100998868Y-98581962D01*
X100991724Y-98505405D01*
X100970293Y-98433849D01*
X100936955Y-98370388D01*
X100894093Y-98318120D01*
X100842896Y-98276448D01*
X100784555Y-98244777D01*
X100721690Y-98224775D01*
X100656920Y-98218107D01*
X100588757Y-98224477D01*
X100525237Y-98243587D01*
X100466360Y-98275436D01*
X100412128Y-98320025D01*
X100366705Y-98374050D01*
X100334261Y-98434206D01*
X100314794Y-98500494D01*
X100308305Y-98572914D01*
X100246393Y-98572914D01*
X100246393Y-98310500D01*
X100244964Y-98276686D01*
X100235915Y-98251445D01*
X100210198Y-98231442D01*
X100161620Y-98225727D01*
X100113043Y-98231442D01*
X100088278Y-98251445D01*
X100076848Y-98311453D01*
X100076848Y-98597202D01*
X100069704Y-98653876D01*
X100048273Y-98707692D01*
X100005410Y-98750555D01*
X99937783Y-98766747D01*
X99877061Y-98753889D01*
X99833960Y-98715312D01*
X99808243Y-98659829D01*
X99799670Y-98596250D01*
X99799670Y-98304785D01*
X99790145Y-98252397D01*
X99762523Y-98231442D01*
X99717279Y-98225727D01*
X99673940Y-98230490D01*
X99649175Y-98241920D01*
X99636793Y-98261922D01*
X99631078Y-98311453D01*
X99576649Y-98311453D01*
X99578690Y-98294307D01*
X99573928Y-98254779D01*
X99557735Y-98234300D01*
X99509158Y-98225727D01*
X98979568Y-98225727D01*
X98934800Y-98232871D01*
X98915750Y-98255255D01*
X98910988Y-98295260D01*
X98739410Y-98295260D01*
X98691913Y-98252397D01*
X98689055Y-98250492D01*
X98635239Y-98225727D01*
X98589995Y-98230490D01*
X98565230Y-98241444D01*
X98551895Y-98261922D01*
X98547133Y-98312405D01*
X98348695Y-98312405D01*
X98348695Y-98019670D01*
X98547132Y-98019670D01*
X100998868Y-98019670D01*
X101197305Y-98019670D01*
X101197305Y-99134730D01*
G37*
%TO.C,kibuzzard-65A6FCCE*%
G36*
X122967115Y-86428421D02*
G01*
X122988546Y-86485571D01*
X122988546Y-86604634D01*
X122819954Y-86604634D01*
X122819954Y-86484619D01*
X122840909Y-86428421D01*
X122903774Y-86400799D01*
X122967115Y-86428421D01*
G37*
G36*
X123367006Y-86233159D02*
G01*
X123367006Y-89788841D01*
X123367006Y-89987279D01*
X122250994Y-89987279D01*
X122250994Y-89788841D01*
X122250994Y-89705974D01*
X122458956Y-89705974D01*
X122465386Y-89753599D01*
X122484674Y-89778364D01*
X122510391Y-89787413D01*
X122543729Y-89788841D01*
X123075224Y-89788841D01*
X123128087Y-89779793D01*
X123150471Y-89752646D01*
X123156186Y-89705974D01*
X123150948Y-89660730D01*
X123139041Y-89637394D01*
X123114276Y-89615486D01*
X123028313Y-89552198D01*
X122952669Y-89496318D01*
X122887343Y-89447846D01*
X122832336Y-89406783D01*
X122787648Y-89373128D01*
X122753279Y-89346881D01*
X123075224Y-89346881D01*
X123128087Y-89337833D01*
X123150471Y-89310686D01*
X123156186Y-89265443D01*
X123151424Y-89221628D01*
X123139994Y-89196863D01*
X123119991Y-89184956D01*
X123071414Y-89179241D01*
X122542776Y-89179241D01*
X122509439Y-89180670D01*
X122484674Y-89189719D01*
X122465386Y-89214960D01*
X122458956Y-89264014D01*
X122464671Y-89315449D01*
X122482769Y-89339261D01*
X122572515Y-89406624D01*
X122651255Y-89465838D01*
X122718989Y-89516903D01*
X122775715Y-89559818D01*
X122821435Y-89594584D01*
X122856149Y-89621201D01*
X122542776Y-89621201D01*
X122509439Y-89622630D01*
X122484674Y-89631679D01*
X122465386Y-89656920D01*
X122458956Y-89705974D01*
X122250994Y-89705974D01*
X122250994Y-89264014D01*
X122250994Y-88863964D01*
X122449431Y-88863964D01*
X122452170Y-88907541D01*
X122460385Y-88948736D01*
X122487531Y-89013506D01*
X122517535Y-89056369D01*
X122546586Y-89083991D01*
X122557064Y-89092564D01*
X122611832Y-89117329D01*
X122640050Y-89107089D01*
X122676126Y-89076371D01*
X122698986Y-89025889D01*
X122687080Y-88993980D01*
X122651361Y-88951594D01*
X122620405Y-88913494D01*
X122605641Y-88867774D01*
X122613685Y-88818561D01*
X122637815Y-88789034D01*
X122678031Y-88779191D01*
X122714702Y-88803480D01*
X122736134Y-88863964D01*
X122744825Y-88901588D01*
X122757565Y-88942069D01*
X122773638Y-88982550D01*
X122792331Y-89020174D01*
X122818168Y-89053392D01*
X122855673Y-89080658D01*
X122903417Y-89098874D01*
X122959971Y-89104946D01*
X123013470Y-89098014D01*
X123062206Y-89077218D01*
X123106180Y-89042557D01*
X123140840Y-88995938D01*
X123161637Y-88939264D01*
X123168569Y-88872536D01*
X123164878Y-88817887D01*
X123153805Y-88768237D01*
X123123801Y-88702991D01*
X123105704Y-88679179D01*
X123059031Y-88649651D01*
X123006644Y-88672511D01*
X122970925Y-88705373D01*
X122959019Y-88739186D01*
X122978069Y-88788716D01*
X122987594Y-88799670D01*
X122999976Y-88814434D01*
X123012359Y-88865393D01*
X122997595Y-88916827D01*
X122956638Y-88937306D01*
X122914251Y-88913017D01*
X122892344Y-88852534D01*
X122885081Y-88814672D01*
X122874723Y-88773476D01*
X122861507Y-88732281D01*
X122845671Y-88694419D01*
X122822216Y-88661200D01*
X122786140Y-88633935D01*
X122738872Y-88615718D01*
X122681841Y-88609646D01*
X122623620Y-88615838D01*
X122572780Y-88634411D01*
X122530989Y-88662986D01*
X122499914Y-88699181D01*
X122471868Y-88751780D01*
X122455040Y-88806708D01*
X122449431Y-88863964D01*
X122250994Y-88863964D01*
X122250994Y-88463914D01*
X122458956Y-88463914D01*
X122468005Y-88516778D01*
X122495151Y-88542019D01*
X122543729Y-88547734D01*
X123073319Y-88547734D01*
X123106180Y-88546305D01*
X123131421Y-88537256D01*
X123150709Y-88512015D01*
X123157139Y-88462961D01*
X123148328Y-88409859D01*
X123121896Y-88383904D01*
X123072366Y-88379141D01*
X122599926Y-88379141D01*
X122599926Y-88120061D01*
X122592782Y-88074341D01*
X122570399Y-88055291D01*
X122529917Y-88050529D01*
X122489436Y-88055291D01*
X122468481Y-88071484D01*
X122458956Y-88121014D01*
X122458956Y-88463914D01*
X122250994Y-88463914D01*
X122250994Y-88121014D01*
X122250994Y-87904796D01*
X122458956Y-87904796D01*
X122468005Y-87957660D01*
X122495151Y-87982901D01*
X122543729Y-87988616D01*
X123073319Y-87988616D01*
X123139517Y-87970519D01*
X123157139Y-87901939D01*
X123157139Y-87526654D01*
X123155710Y-87493793D01*
X123146661Y-87468551D01*
X123121420Y-87449263D01*
X123072366Y-87442834D01*
X123019502Y-87451644D01*
X122994261Y-87478076D01*
X122988546Y-87527606D01*
X122988546Y-87820024D01*
X122892344Y-87820024D01*
X122892344Y-87631429D01*
X122890915Y-87598568D01*
X122881866Y-87573326D01*
X122856625Y-87554038D01*
X122807571Y-87547609D01*
X122754707Y-87556657D01*
X122729466Y-87583804D01*
X122723751Y-87633334D01*
X122723751Y-87820024D01*
X122627549Y-87820024D01*
X122627549Y-87526654D01*
X122626120Y-87493793D01*
X122617071Y-87468551D01*
X122591830Y-87449263D01*
X122542776Y-87442834D01*
X122489912Y-87451644D01*
X122464671Y-87478076D01*
X122458956Y-87527606D01*
X122458956Y-87904796D01*
X122250994Y-87904796D01*
X122250994Y-87527606D01*
X122250994Y-87297101D01*
X122458956Y-87297101D01*
X122468005Y-87349965D01*
X122495151Y-87375206D01*
X122543729Y-87380921D01*
X123073319Y-87380921D01*
X123139517Y-87362824D01*
X123157139Y-87294244D01*
X123157139Y-86918959D01*
X123155710Y-86886098D01*
X123146661Y-86860856D01*
X123121420Y-86841568D01*
X123072366Y-86835139D01*
X123019502Y-86843949D01*
X122994261Y-86870381D01*
X122988546Y-86919911D01*
X122988546Y-87212329D01*
X122892344Y-87212329D01*
X122892344Y-87023734D01*
X122890915Y-86990873D01*
X122881866Y-86965631D01*
X122856625Y-86946343D01*
X122807571Y-86939914D01*
X122754707Y-86948963D01*
X122729466Y-86976109D01*
X122723751Y-87025639D01*
X122723751Y-87212329D01*
X122627549Y-87212329D01*
X122627549Y-86918959D01*
X122626120Y-86886098D01*
X122617071Y-86860856D01*
X122591830Y-86841568D01*
X122542776Y-86835139D01*
X122489912Y-86843949D01*
X122464671Y-86870381D01*
X122458956Y-86919911D01*
X122458956Y-87297101D01*
X122250994Y-87297101D01*
X122250994Y-86919911D01*
X122250994Y-86689406D01*
X122459909Y-86689406D01*
X122468719Y-86742270D01*
X122495151Y-86767511D01*
X122544681Y-86773226D01*
X123073319Y-86773226D01*
X123106180Y-86771798D01*
X123131421Y-86762749D01*
X123150709Y-86737508D01*
X123157139Y-86688454D01*
X123157139Y-86484619D01*
X123150365Y-86429268D01*
X123130045Y-86374975D01*
X123096179Y-86321741D01*
X123061413Y-86286261D01*
X123016169Y-86257924D01*
X122962829Y-86239350D01*
X122903774Y-86233159D01*
X122844838Y-86239350D01*
X122791855Y-86257924D01*
X122746968Y-86286261D01*
X122712321Y-86321741D01*
X122678455Y-86375081D01*
X122658135Y-86429691D01*
X122651361Y-86485571D01*
X122651361Y-86604634D01*
X122543729Y-86604634D01*
X122510867Y-86606063D01*
X122485626Y-86615111D01*
X122466338Y-86640352D01*
X122459909Y-86689406D01*
X122250994Y-86689406D01*
X122250994Y-86233159D01*
X122250994Y-86034721D01*
X123367006Y-86034721D01*
X123367006Y-86233159D01*
G37*
%TO.C,kibuzzard-65A6FC0C*%
G36*
X105717975Y-87895748D02*
G01*
X105705235Y-87960994D01*
X105667016Y-88019572D01*
X105609509Y-88061006D01*
X105538905Y-88074818D01*
X105468063Y-88061363D01*
X105409841Y-88021001D01*
X105370908Y-87962542D01*
X105357930Y-87894795D01*
X105357930Y-87803355D01*
X105717975Y-87803355D01*
X105717975Y-87895748D01*
G37*
G36*
X106095483Y-87473790D02*
G01*
X106095483Y-87892890D01*
X106095483Y-88243410D01*
X106095483Y-88441847D01*
X104978517Y-88441847D01*
X104978517Y-88243410D01*
X104978517Y-87719535D01*
X105188385Y-87719535D01*
X105189338Y-87895748D01*
X105195559Y-87962720D01*
X105214222Y-88025526D01*
X105245327Y-88084164D01*
X105288874Y-88138635D01*
X105341499Y-88184474D01*
X105399840Y-88217216D01*
X105463896Y-88236862D01*
X105533666Y-88243410D01*
X105603705Y-88237010D01*
X105668564Y-88217812D01*
X105728244Y-88185814D01*
X105782745Y-88141016D01*
X105828167Y-88087111D01*
X105860612Y-88027788D01*
X105880079Y-87963048D01*
X105886568Y-87892890D01*
X105886568Y-87718583D01*
X105880614Y-87671434D01*
X105862755Y-87646192D01*
X105801795Y-87634762D01*
X105272205Y-87634762D01*
X105238867Y-87636191D01*
X105214103Y-87645240D01*
X105194814Y-87670481D01*
X105188385Y-87719535D01*
X104978517Y-87719535D01*
X104978517Y-87031830D01*
X105190290Y-87031830D01*
X105195529Y-87077074D01*
X105207435Y-87100410D01*
X105232200Y-87122317D01*
X105318163Y-87185606D01*
X105393807Y-87241486D01*
X105459133Y-87289958D01*
X105514140Y-87331021D01*
X105558828Y-87364676D01*
X105593198Y-87390923D01*
X105271253Y-87390923D01*
X105218389Y-87399971D01*
X105196005Y-87427117D01*
X105190290Y-87472361D01*
X105195052Y-87516176D01*
X105206483Y-87540941D01*
X105226485Y-87552847D01*
X105275062Y-87558563D01*
X105803700Y-87558563D01*
X105837038Y-87557134D01*
X105861803Y-87548085D01*
X105881091Y-87522844D01*
X105887520Y-87473790D01*
X105881805Y-87422355D01*
X105863708Y-87398543D01*
X105773961Y-87331180D01*
X105695221Y-87271966D01*
X105627488Y-87220901D01*
X105570761Y-87177986D01*
X105525041Y-87143220D01*
X105490327Y-87116603D01*
X105803700Y-87116603D01*
X105837038Y-87115174D01*
X105861803Y-87106125D01*
X105881091Y-87080884D01*
X105887520Y-87031830D01*
X105881091Y-86984205D01*
X105861803Y-86959440D01*
X105836085Y-86950391D01*
X105802748Y-86948963D01*
X105271253Y-86948963D01*
X105218389Y-86958011D01*
X105196005Y-86985157D01*
X105190290Y-87031830D01*
X104978517Y-87031830D01*
X104978517Y-86612730D01*
X105176955Y-86612730D01*
X105185210Y-86686284D01*
X105209975Y-86757087D01*
X105251250Y-86825138D01*
X105293636Y-86850855D01*
X105347452Y-86828948D01*
X105385314Y-86793467D01*
X105397935Y-86761320D01*
X105371741Y-86703217D01*
X105352096Y-86659403D01*
X105345547Y-86607967D01*
X105358287Y-86539626D01*
X105396506Y-86479380D01*
X105455323Y-86437232D01*
X105529856Y-86423182D01*
X105582032Y-86429532D01*
X105628705Y-86448582D01*
X105669874Y-86480332D01*
X105713093Y-86541292D01*
X105727500Y-86609872D01*
X105723214Y-86659641D01*
X105710355Y-86704170D01*
X105606533Y-86704170D01*
X105606533Y-86628922D01*
X105598913Y-86587012D01*
X105576529Y-86570820D01*
X105536524Y-86567010D01*
X105496042Y-86571296D01*
X105475088Y-86587012D01*
X105466515Y-86632732D01*
X105466515Y-86800373D01*
X105493185Y-86863238D01*
X105546525Y-86872763D01*
X105756075Y-86872763D01*
X105814178Y-86846092D01*
X105850432Y-86801087D01*
X105876328Y-86746080D01*
X105891866Y-86681072D01*
X105897045Y-86606063D01*
X105890348Y-86537423D01*
X105870256Y-86473427D01*
X105836770Y-86414074D01*
X105789889Y-86359365D01*
X105733542Y-86313526D01*
X105671660Y-86280784D01*
X105604241Y-86261138D01*
X105531285Y-86254590D01*
X105458687Y-86261257D01*
X105392339Y-86281260D01*
X105332242Y-86314598D01*
X105278396Y-86361270D01*
X105234016Y-86416991D01*
X105202315Y-86477475D01*
X105183295Y-86542721D01*
X105176955Y-86612730D01*
X104978517Y-86612730D01*
X104978517Y-86254590D01*
X104978517Y-86056153D01*
X106095483Y-86056153D01*
X106095483Y-86254590D01*
X106095483Y-86606063D01*
X106095483Y-87473790D01*
G37*
%TO.C,kibuzzard-65A7001B*%
G36*
X105247494Y-94229831D02*
G01*
X105283213Y-94325081D01*
X105283213Y-94525106D01*
X105002225Y-94525106D01*
X105002225Y-94321906D01*
X105037150Y-94229831D01*
X105141925Y-94183794D01*
X105247494Y-94229831D01*
G37*
G36*
X105068371Y-95200411D02*
G01*
X105145629Y-95230838D01*
X105210188Y-95281550D01*
X105275672Y-95378189D01*
X105297500Y-95485544D01*
X105275473Y-95592700D01*
X105209394Y-95688744D01*
X105144747Y-95739015D01*
X105068283Y-95769177D01*
X104980000Y-95779231D01*
X104891717Y-95769089D01*
X104815253Y-95738662D01*
X104750606Y-95687950D01*
X104684527Y-95591311D01*
X104662500Y-95483956D01*
X104683931Y-95376800D01*
X104748225Y-95280756D01*
X104811901Y-95230485D01*
X104888631Y-95200323D01*
X104978413Y-95190269D01*
X105068371Y-95200411D01*
G37*
G36*
X105068371Y-97591186D02*
G01*
X105145629Y-97621613D01*
X105210188Y-97672325D01*
X105275672Y-97768964D01*
X105297500Y-97876319D01*
X105275473Y-97983475D01*
X105209394Y-98079519D01*
X105144747Y-98129790D01*
X105068283Y-98159952D01*
X104980000Y-98170006D01*
X104891717Y-98159864D01*
X104815253Y-98129437D01*
X104750606Y-98078725D01*
X104684527Y-97982086D01*
X104662500Y-97874731D01*
X104683931Y-97767575D01*
X104748225Y-97671531D01*
X104811901Y-97621260D01*
X104888631Y-97591098D01*
X104978413Y-97581044D01*
X105068371Y-97591186D01*
G37*
G36*
X105909217Y-93560965D02*
G01*
X105909217Y-93891694D01*
X105909217Y-99808306D01*
X105909217Y-100139035D01*
X104980000Y-100758513D01*
X104050783Y-100139035D01*
X104050783Y-99808306D01*
X104050783Y-99670194D01*
X104402150Y-99670194D01*
X104412866Y-99748775D01*
X104445012Y-99790844D01*
X104486287Y-99805925D01*
X104543438Y-99808306D01*
X105424500Y-99808306D01*
X105479269Y-99805925D01*
X105521337Y-99790844D01*
X105552294Y-99747981D01*
X105562613Y-99667019D01*
X105552294Y-99593200D01*
X105530863Y-99552719D01*
X105521337Y-99543194D01*
X105048263Y-99182831D01*
X105181422Y-99082057D01*
X105295151Y-98995633D01*
X105389448Y-98923561D01*
X105464315Y-98865839D01*
X105519750Y-98822469D01*
X105551897Y-98777027D01*
X105562613Y-98694675D01*
X105551897Y-98613514D01*
X105519750Y-98571644D01*
X105476888Y-98556562D01*
X105421325Y-98554181D01*
X104540263Y-98554181D01*
X104453347Y-98569263D01*
X104411675Y-98614506D01*
X104402150Y-98690706D01*
X104410087Y-98763731D01*
X104429137Y-98805006D01*
X104460887Y-98827231D01*
X104543438Y-98835169D01*
X105075250Y-98835169D01*
X105011552Y-98883984D01*
X104918881Y-98951056D01*
X104831767Y-99013366D01*
X104784737Y-99047894D01*
X104747431Y-99076469D01*
X104718856Y-99115362D01*
X104700600Y-99182038D01*
X104717269Y-99247125D01*
X104749813Y-99289194D01*
X104767275Y-99301894D01*
X104829386Y-99349122D01*
X104936344Y-99427306D01*
X105035761Y-99499537D01*
X105075250Y-99528906D01*
X104540263Y-99528906D01*
X104485494Y-99531288D01*
X104445012Y-99546369D01*
X104412866Y-99589231D01*
X104402150Y-99670194D01*
X104050783Y-99670194D01*
X104050783Y-98690706D01*
X104050783Y-97871556D01*
X104381512Y-97871556D01*
X104392427Y-97987692D01*
X104425169Y-98094798D01*
X104479739Y-98192876D01*
X104556137Y-98281925D01*
X104647617Y-98355893D01*
X104747431Y-98408727D01*
X104855580Y-98440427D01*
X104972063Y-98450994D01*
X105099658Y-98439087D01*
X105218919Y-98403369D01*
X105324686Y-98347806D01*
X105411800Y-98276369D01*
X105481253Y-98191041D01*
X105534038Y-98093806D01*
X105567375Y-97989031D01*
X105578488Y-97881081D01*
X105567871Y-97767476D01*
X105536022Y-97661609D01*
X105482940Y-97563482D01*
X105408625Y-97473094D01*
X105318584Y-97397390D01*
X105218323Y-97343316D01*
X105107843Y-97310871D01*
X104987144Y-97300056D01*
X104865998Y-97310375D01*
X104754178Y-97341331D01*
X104651685Y-97392925D01*
X104558519Y-97465156D01*
X104481079Y-97552469D01*
X104425764Y-97649306D01*
X104392575Y-97755669D01*
X104381512Y-97871556D01*
X104050783Y-97871556D01*
X104050783Y-96680931D01*
X104400563Y-96680931D01*
X104410087Y-96759512D01*
X104442631Y-96800787D01*
X104483906Y-96815075D01*
X104538675Y-96817456D01*
X105335600Y-96817456D01*
X105335600Y-97122256D01*
X105347506Y-97196869D01*
X105384813Y-97228619D01*
X105451488Y-97236556D01*
X105517369Y-97228619D01*
X105551500Y-97201631D01*
X105565788Y-97120669D01*
X105565788Y-96238019D01*
X105553881Y-96163406D01*
X105516575Y-96131656D01*
X105449900Y-96123719D01*
X105384019Y-96131656D01*
X105349888Y-96158644D01*
X105335600Y-96239606D01*
X105335600Y-96542819D01*
X104537087Y-96542819D01*
X104483113Y-96545200D01*
X104442631Y-96559487D01*
X104410087Y-96601556D01*
X104400563Y-96680931D01*
X104050783Y-96680931D01*
X104050783Y-95480781D01*
X104381512Y-95480781D01*
X104392427Y-95596917D01*
X104425169Y-95704023D01*
X104479739Y-95802101D01*
X104556137Y-95891150D01*
X104647617Y-95965118D01*
X104747431Y-96017952D01*
X104855580Y-96049652D01*
X104972063Y-96060219D01*
X105099658Y-96048312D01*
X105218919Y-96012594D01*
X105324686Y-95957031D01*
X105411800Y-95885594D01*
X105481253Y-95800266D01*
X105534038Y-95703031D01*
X105567375Y-95598256D01*
X105578488Y-95490306D01*
X105567871Y-95376701D01*
X105536022Y-95270834D01*
X105482940Y-95172707D01*
X105408625Y-95082319D01*
X105318584Y-95006615D01*
X105218323Y-94952541D01*
X105107843Y-94920096D01*
X104987144Y-94909281D01*
X104865998Y-94919600D01*
X104754178Y-94950556D01*
X104651685Y-95002150D01*
X104558519Y-95074381D01*
X104481079Y-95161694D01*
X104425764Y-95258531D01*
X104392575Y-95364894D01*
X104381512Y-95480781D01*
X104050783Y-95480781D01*
X104050783Y-94071875D01*
X104391038Y-94071875D01*
X104406119Y-94122675D01*
X104437075Y-94152044D01*
X104482407Y-94172858D01*
X104578186Y-94214133D01*
X104724413Y-94275869D01*
X104721237Y-94325081D01*
X104721237Y-94525106D01*
X104541850Y-94525106D01*
X104487081Y-94527488D01*
X104445012Y-94542569D01*
X104412866Y-94584637D01*
X104402150Y-94666394D01*
X104416834Y-94754500D01*
X104460887Y-94796569D01*
X104543438Y-94806094D01*
X105424500Y-94806094D01*
X105479269Y-94803713D01*
X105521337Y-94788631D01*
X105553484Y-94746563D01*
X105564200Y-94664806D01*
X105564200Y-94321906D01*
X105552911Y-94229655D01*
X105519044Y-94139167D01*
X105462600Y-94050444D01*
X105404656Y-93992500D01*
X105329250Y-93945669D01*
X105240350Y-93914712D01*
X105141925Y-93904394D01*
X105029389Y-93917623D01*
X104930964Y-93957310D01*
X104846650Y-94023456D01*
X104781563Y-93995940D01*
X104698483Y-93959956D01*
X104597412Y-93915506D01*
X104514863Y-93891694D01*
X104459300Y-93916300D01*
X104413262Y-93990119D01*
X104391038Y-94071875D01*
X104050783Y-94071875D01*
X104050783Y-93891694D01*
X104050783Y-93560965D01*
X104980000Y-92941487D01*
X105909217Y-93560965D01*
G37*
%TO.C,kibuzzard-65BE5BF3*%
G36*
X149938899Y-86892606D02*
G01*
X149926159Y-86957853D01*
X149887940Y-87016431D01*
X149830433Y-87057865D01*
X149759829Y-87071676D01*
X149688987Y-87058222D01*
X149630765Y-87017860D01*
X149591832Y-86959400D01*
X149578854Y-86891654D01*
X149578854Y-86800214D01*
X149938899Y-86800214D01*
X149938899Y-86892606D01*
G37*
G36*
X150316406Y-86889749D02*
G01*
X150316406Y-87386001D01*
X150316406Y-87470774D01*
X150316406Y-87669211D01*
X149200394Y-87669211D01*
X149200394Y-87470774D01*
X149200394Y-87386954D01*
X149410261Y-87386954D01*
X149419072Y-87440056D01*
X149445504Y-87466011D01*
X149495034Y-87470774D01*
X150024624Y-87470774D01*
X150057961Y-87469345D01*
X150082726Y-87460296D01*
X150102014Y-87435055D01*
X150108444Y-87386001D01*
X150099395Y-87333138D01*
X150072249Y-87307896D01*
X150023671Y-87302181D01*
X149494081Y-87302181D01*
X149461220Y-87303610D01*
X149435979Y-87312659D01*
X149416691Y-87337900D01*
X149410261Y-87386954D01*
X149200394Y-87386954D01*
X149200394Y-86716394D01*
X149409309Y-86716394D01*
X149410261Y-86892606D01*
X149416482Y-86959579D01*
X149435145Y-87022384D01*
X149466250Y-87081023D01*
X149509798Y-87135494D01*
X149562423Y-87181333D01*
X149620764Y-87214075D01*
X149684819Y-87233720D01*
X149754590Y-87240269D01*
X149824629Y-87233869D01*
X149889488Y-87214670D01*
X149949168Y-87182672D01*
X150003669Y-87137875D01*
X150049091Y-87083969D01*
X150081536Y-87024647D01*
X150101002Y-86959906D01*
X150107491Y-86889749D01*
X150107491Y-86715441D01*
X150101538Y-86668293D01*
X150083679Y-86643051D01*
X150022719Y-86631621D01*
X149493129Y-86631621D01*
X149459791Y-86633050D01*
X149435026Y-86642099D01*
X149415738Y-86667340D01*
X149409309Y-86716394D01*
X149200394Y-86716394D01*
X149200394Y-86306819D01*
X149398831Y-86306819D01*
X149402522Y-86361468D01*
X149413595Y-86411118D01*
X149443599Y-86476364D01*
X149461696Y-86500176D01*
X149508369Y-86529704D01*
X149560756Y-86506844D01*
X149596475Y-86473983D01*
X149608381Y-86440169D01*
X149589331Y-86390639D01*
X149579806Y-86379685D01*
X149567424Y-86364921D01*
X149555041Y-86313963D01*
X149569805Y-86262528D01*
X149610762Y-86242049D01*
X149653149Y-86266338D01*
X149675056Y-86326821D01*
X149682319Y-86364683D01*
X149692677Y-86405879D01*
X149705893Y-86447074D01*
X149721729Y-86484936D01*
X149745184Y-86518155D01*
X149781260Y-86545420D01*
X149828528Y-86563637D01*
X149885559Y-86569709D01*
X149943780Y-86563518D01*
X149994620Y-86544944D01*
X150036411Y-86516369D01*
X150067486Y-86480174D01*
X150095532Y-86427575D01*
X150112360Y-86372647D01*
X150117969Y-86315391D01*
X150115230Y-86271814D01*
X150107015Y-86230619D01*
X150079869Y-86165849D01*
X150049865Y-86122986D01*
X150020814Y-86095364D01*
X150010336Y-86086791D01*
X149955568Y-86062026D01*
X149927350Y-86072266D01*
X149891274Y-86102984D01*
X149868414Y-86153466D01*
X149880320Y-86185375D01*
X149916039Y-86227761D01*
X149946995Y-86265861D01*
X149961759Y-86311581D01*
X149953715Y-86360794D01*
X149929585Y-86390321D01*
X149889369Y-86400164D01*
X149852698Y-86375875D01*
X149831266Y-86315391D01*
X149822575Y-86277768D01*
X149809835Y-86237286D01*
X149793762Y-86196805D01*
X149775069Y-86159181D01*
X149749232Y-86125963D01*
X149711727Y-86098697D01*
X149663983Y-86080481D01*
X149607429Y-86074409D01*
X149553930Y-86081341D01*
X149505194Y-86102137D01*
X149461220Y-86136797D01*
X149426560Y-86183417D01*
X149405763Y-86240091D01*
X149398831Y-86306819D01*
X149200394Y-86306819D01*
X149200394Y-86062026D01*
X149200394Y-85863589D01*
X150316406Y-85863589D01*
X150316406Y-86062026D01*
X150316406Y-86315391D01*
X150316406Y-86889749D01*
G37*
%TO.C,kibuzzard-65A7000E*%
G36*
X101493638Y-82222975D02*
G01*
X101290438Y-82222975D01*
X101198363Y-82188050D01*
X101152325Y-82083275D01*
X101198363Y-81977706D01*
X101293613Y-81941987D01*
X101493638Y-81941987D01*
X101493638Y-82222975D01*
G37*
G36*
X106325988Y-82222975D02*
G01*
X106125963Y-82222975D01*
X106032300Y-82188050D01*
X105986263Y-82083275D01*
X106032300Y-81977706D01*
X106127550Y-81941987D01*
X106325988Y-81941987D01*
X106325988Y-82222975D01*
G37*
G36*
X105159969Y-81949727D02*
G01*
X105256013Y-82015806D01*
X105306283Y-82080453D01*
X105336446Y-82156917D01*
X105346500Y-82245200D01*
X105336358Y-82333483D01*
X105305931Y-82409947D01*
X105255219Y-82474594D01*
X105158580Y-82540673D01*
X105051225Y-82562700D01*
X104944069Y-82541269D01*
X104848025Y-82476975D01*
X104797754Y-82413299D01*
X104767592Y-82336569D01*
X104757538Y-82246787D01*
X104767680Y-82156829D01*
X104798107Y-82079571D01*
X104848819Y-82015012D01*
X104945458Y-81949528D01*
X105052813Y-81927700D01*
X105159969Y-81949727D01*
G37*
G36*
X107557182Y-82245200D02*
G01*
X106937704Y-83174417D01*
X106606975Y-83174417D01*
X106467275Y-83174417D01*
X105048050Y-83174417D01*
X103332756Y-83174417D01*
X102019100Y-83174417D01*
X101040406Y-83174417D01*
X100860225Y-83174417D01*
X100529496Y-83174417D01*
X100220109Y-82710337D01*
X100860225Y-82710337D01*
X100884831Y-82765900D01*
X100958650Y-82811938D01*
X101040406Y-82834162D01*
X101091206Y-82819081D01*
X101120575Y-82788125D01*
X101141389Y-82742793D01*
X101182664Y-82647014D01*
X101244400Y-82500787D01*
X101293613Y-82503963D01*
X101493638Y-82503963D01*
X101493638Y-82683350D01*
X101496019Y-82738119D01*
X101511100Y-82780188D01*
X101553169Y-82812334D01*
X101634925Y-82823050D01*
X101723031Y-82808366D01*
X101765100Y-82764313D01*
X101774625Y-82681762D01*
X101774625Y-81802287D01*
X101877812Y-81802287D01*
X101892497Y-81890394D01*
X101936550Y-81932462D01*
X102019100Y-81941987D01*
X102506463Y-81941987D01*
X102506463Y-82102325D01*
X102192137Y-82102325D01*
X102137369Y-82104706D01*
X102095300Y-82119787D01*
X102063153Y-82161856D01*
X102052437Y-82243612D01*
X102067519Y-82331719D01*
X102112763Y-82373788D01*
X102195312Y-82383312D01*
X102506463Y-82383312D01*
X102506463Y-82543650D01*
X102017513Y-82543650D01*
X101962744Y-82546031D01*
X101920675Y-82561112D01*
X101888528Y-82603181D01*
X101877812Y-82684937D01*
X101892497Y-82773044D01*
X101936550Y-82815113D01*
X102019100Y-82824637D01*
X102647750Y-82824637D01*
X102735856Y-82809556D01*
X102777925Y-82764313D01*
X102787450Y-82683350D01*
X102787450Y-81800700D01*
X102778770Y-81768950D01*
X102874763Y-81768950D01*
X102893813Y-81846737D01*
X103198613Y-82727800D01*
X103209725Y-82754788D01*
X103251794Y-82796856D01*
X103332756Y-82823050D01*
X103413719Y-82796856D01*
X103458963Y-82745263D01*
X103644700Y-82197575D01*
X103708264Y-82385408D01*
X103757984Y-82532347D01*
X103793862Y-82638392D01*
X103815896Y-82703543D01*
X103824088Y-82727800D01*
X103838375Y-82754788D01*
X103863775Y-82786537D01*
X103951088Y-82823050D01*
X104034431Y-82799238D01*
X104078088Y-82751613D01*
X104089200Y-82727800D01*
X104259508Y-82238056D01*
X104476550Y-82238056D01*
X104486869Y-82359202D01*
X104517825Y-82471022D01*
X104569419Y-82573515D01*
X104641650Y-82666681D01*
X104728963Y-82744121D01*
X104825800Y-82799436D01*
X104932163Y-82832625D01*
X105048050Y-82843688D01*
X105164186Y-82832773D01*
X105271292Y-82800031D01*
X105369370Y-82745461D01*
X105458419Y-82669063D01*
X105532386Y-82577583D01*
X105585220Y-82477769D01*
X105616921Y-82369620D01*
X105627488Y-82253137D01*
X105615581Y-82125542D01*
X105602922Y-82083275D01*
X105706863Y-82083275D01*
X105717181Y-82181502D01*
X105748138Y-82269806D01*
X105795366Y-82344617D01*
X105854500Y-82402362D01*
X105943400Y-82458807D01*
X106034417Y-82492674D01*
X106127550Y-82503963D01*
X106325988Y-82503963D01*
X106325988Y-82683350D01*
X106328369Y-82738119D01*
X106343450Y-82780188D01*
X106385519Y-82812334D01*
X106467275Y-82823050D01*
X106555381Y-82808366D01*
X106597450Y-82764313D01*
X106606975Y-82681762D01*
X106606975Y-81800700D01*
X106604594Y-81745931D01*
X106589513Y-81703863D01*
X106547444Y-81671716D01*
X106465688Y-81661000D01*
X106125963Y-81661000D01*
X106033711Y-81672289D01*
X105943224Y-81706156D01*
X105854500Y-81762600D01*
X105795366Y-81820544D01*
X105748138Y-81895950D01*
X105717181Y-81984850D01*
X105706863Y-82083275D01*
X105602922Y-82083275D01*
X105579863Y-82006281D01*
X105524300Y-81900514D01*
X105452863Y-81813400D01*
X105367534Y-81743947D01*
X105270300Y-81691162D01*
X105165525Y-81657825D01*
X105057575Y-81646712D01*
X104943970Y-81657329D01*
X104838103Y-81689178D01*
X104739976Y-81742260D01*
X104649588Y-81816575D01*
X104573884Y-81906616D01*
X104519809Y-82006877D01*
X104487365Y-82117357D01*
X104476550Y-82238056D01*
X104259508Y-82238056D01*
X104395588Y-81846737D01*
X104413050Y-81768950D01*
X104386459Y-81712197D01*
X104306688Y-81668937D01*
X104223344Y-81653062D01*
X104166194Y-81678462D01*
X104130475Y-81756250D01*
X103955850Y-82286475D01*
X103782813Y-81764187D01*
X103751459Y-81707831D01*
X103701850Y-81672112D01*
X103635969Y-81661000D01*
X103560563Y-81687194D01*
X103516113Y-81738787D01*
X103333550Y-82289650D01*
X103158925Y-81756250D01*
X103138287Y-81702275D01*
X103108919Y-81668144D01*
X103055738Y-81651475D01*
X102981125Y-81667350D01*
X102901353Y-81711800D01*
X102874763Y-81768950D01*
X102778770Y-81768950D01*
X102757288Y-81690369D01*
X102642988Y-81661000D01*
X102017513Y-81661000D01*
X101962744Y-81663381D01*
X101920675Y-81678462D01*
X101888528Y-81720531D01*
X101877812Y-81802287D01*
X101774625Y-81802287D01*
X101774625Y-81800700D01*
X101772244Y-81745931D01*
X101757163Y-81703863D01*
X101715094Y-81671716D01*
X101633337Y-81661000D01*
X101290438Y-81661000D01*
X101198186Y-81672289D01*
X101107699Y-81706156D01*
X101018975Y-81762600D01*
X100961031Y-81820544D01*
X100914200Y-81895950D01*
X100883244Y-81984850D01*
X100872925Y-82083275D01*
X100886154Y-82195811D01*
X100925842Y-82294236D01*
X100991988Y-82378550D01*
X100964471Y-82443637D01*
X100928488Y-82526717D01*
X100884038Y-82627788D01*
X100860225Y-82710337D01*
X100220109Y-82710337D01*
X99910018Y-82245200D01*
X100529496Y-81315983D01*
X100860225Y-81315983D01*
X106606975Y-81315983D01*
X106937704Y-81315983D01*
X107557182Y-82245200D01*
G37*
%TO.C,kibuzzard-65BE5B8E*%
G36*
X112203865Y-86943247D02*
G01*
X112182910Y-86998492D01*
X112120045Y-87026115D01*
X112056704Y-86998492D01*
X112035272Y-86941342D01*
X112035272Y-86821327D01*
X112203865Y-86821327D01*
X112203865Y-86943247D01*
G37*
G36*
X112395318Y-86243160D02*
G01*
X112382578Y-86308406D01*
X112344359Y-86366985D01*
X112286852Y-86408419D01*
X112216247Y-86422230D01*
X112145405Y-86408776D01*
X112087184Y-86368414D01*
X112048250Y-86309954D01*
X112035272Y-86242207D01*
X112035272Y-86150767D01*
X112395318Y-86150767D01*
X112395318Y-86243160D01*
G37*
G36*
X112270170Y-88767655D02*
G01*
X112316048Y-88785912D01*
X112354836Y-88816339D01*
X112394484Y-88874322D01*
X112407700Y-88938735D01*
X112394841Y-89003029D01*
X112356265Y-89060655D01*
X112318059Y-89090818D01*
X112272022Y-89108915D01*
X112218152Y-89114948D01*
X112164177Y-89108862D01*
X112117822Y-89090606D01*
X112079087Y-89060179D01*
X112039797Y-89002195D01*
X112026700Y-88937782D01*
X112039916Y-88873489D01*
X112079564Y-88815862D01*
X112118352Y-88785700D01*
X112164230Y-88767603D01*
X112217200Y-88761570D01*
X112270170Y-88767655D01*
G37*
G36*
X112774730Y-87093266D02*
G01*
X112774730Y-87593805D01*
X112774730Y-88460580D01*
X112774730Y-88940640D01*
X112774730Y-89429273D01*
X112774730Y-90036015D01*
X112774730Y-90497025D01*
X112774730Y-90695463D01*
X111659670Y-90695463D01*
X111659670Y-90497025D01*
X111659670Y-90038873D01*
X111866680Y-90038873D01*
X111866680Y-90414157D01*
X111868109Y-90447019D01*
X111877158Y-90471784D01*
X111902875Y-90491310D01*
X111951453Y-90497025D01*
X112000030Y-90491310D01*
X112025271Y-90471308D01*
X112033844Y-90446066D01*
X112035272Y-90412253D01*
X112035272Y-90120787D01*
X112131475Y-90120787D01*
X112131475Y-90308430D01*
X112132904Y-90342244D01*
X112141952Y-90367485D01*
X112167908Y-90386059D01*
X112217200Y-90392250D01*
X112270302Y-90383201D01*
X112296257Y-90356055D01*
X112301020Y-90307477D01*
X112301020Y-90120787D01*
X112481042Y-90120787D01*
X112514380Y-90119359D01*
X112539145Y-90110310D01*
X112558433Y-90085069D01*
X112564863Y-90036015D01*
X112555814Y-89983151D01*
X112528668Y-89957910D01*
X112480090Y-89952195D01*
X111950500Y-89952195D01*
X111884301Y-89970292D01*
X111866680Y-90038873D01*
X111659670Y-90038873D01*
X111659670Y-89432130D01*
X111866680Y-89432130D01*
X111866680Y-89807415D01*
X111868109Y-89840276D01*
X111877158Y-89865041D01*
X111902875Y-89884567D01*
X111951453Y-89890283D01*
X112000030Y-89884567D01*
X112025271Y-89864565D01*
X112033844Y-89839324D01*
X112035272Y-89805510D01*
X112035272Y-89514045D01*
X112131475Y-89514045D01*
X112131475Y-89701688D01*
X112132904Y-89735501D01*
X112141952Y-89760743D01*
X112167908Y-89779316D01*
X112217200Y-89785508D01*
X112270302Y-89776459D01*
X112296257Y-89749312D01*
X112301020Y-89700735D01*
X112301020Y-89514045D01*
X112481042Y-89514045D01*
X112514380Y-89512616D01*
X112539145Y-89503568D01*
X112558433Y-89478326D01*
X112564863Y-89429273D01*
X112555814Y-89376409D01*
X112528668Y-89351167D01*
X112480090Y-89345452D01*
X111950500Y-89345452D01*
X111884301Y-89363550D01*
X111866680Y-89432130D01*
X111659670Y-89432130D01*
X111659670Y-88934925D01*
X111858107Y-88934925D01*
X111864477Y-89003088D01*
X111883587Y-89066608D01*
X111915436Y-89125485D01*
X111960025Y-89179718D01*
X112014050Y-89225140D01*
X112074206Y-89257584D01*
X112140494Y-89277051D01*
X112212914Y-89283540D01*
X112285601Y-89277349D01*
X112352693Y-89258775D01*
X112414189Y-89227819D01*
X112470089Y-89184480D01*
X112516553Y-89132093D01*
X112549742Y-89073990D01*
X112569655Y-89010172D01*
X112576293Y-88940640D01*
X112569744Y-88870959D01*
X112550099Y-88806695D01*
X112517357Y-88747848D01*
X112471517Y-88694419D01*
X112416630Y-88650038D01*
X112356741Y-88618338D01*
X112291852Y-88599318D01*
X112221962Y-88592977D01*
X112145405Y-88600121D01*
X112073849Y-88621552D01*
X112010388Y-88654890D01*
X111958120Y-88697752D01*
X111916448Y-88748949D01*
X111884777Y-88807290D01*
X111864775Y-88870155D01*
X111858107Y-88934925D01*
X111659670Y-88934925D01*
X111659670Y-88086247D01*
X111866680Y-88086247D01*
X111866680Y-88461532D01*
X111868109Y-88494394D01*
X111877158Y-88519635D01*
X111902399Y-88538923D01*
X111951453Y-88545352D01*
X112004316Y-88536542D01*
X112029557Y-88510110D01*
X112035272Y-88460580D01*
X112035272Y-88168162D01*
X112131475Y-88168162D01*
X112131475Y-88356757D01*
X112132904Y-88389619D01*
X112141952Y-88414860D01*
X112167194Y-88434148D01*
X112216247Y-88440578D01*
X112269111Y-88431529D01*
X112294353Y-88404383D01*
X112300067Y-88354852D01*
X112300067Y-88168162D01*
X112396270Y-88168162D01*
X112396270Y-88461532D01*
X112397699Y-88494394D01*
X112406747Y-88519635D01*
X112431989Y-88538923D01*
X112481042Y-88545352D01*
X112533906Y-88536542D01*
X112559148Y-88510110D01*
X112564863Y-88460580D01*
X112564863Y-88083390D01*
X112555814Y-88030526D01*
X112528668Y-88005285D01*
X112480090Y-87999570D01*
X111950500Y-87999570D01*
X111884301Y-88017667D01*
X111866680Y-88086247D01*
X111659670Y-88086247D01*
X111659670Y-87334249D01*
X111860965Y-87334249D01*
X111864775Y-87359490D01*
X111878110Y-87375682D01*
X111903351Y-87391399D01*
X111930021Y-87404138D01*
X111982409Y-87428070D01*
X112049679Y-87458669D01*
X112120997Y-87491411D01*
X112192316Y-87524272D01*
X112259586Y-87555229D01*
X112310426Y-87578684D01*
X112332452Y-87589042D01*
X111915257Y-87779542D01*
X111886682Y-87792877D01*
X111860965Y-87834787D01*
X111877158Y-87890985D01*
X111906209Y-87933133D01*
X111938117Y-87947182D01*
X111983837Y-87932895D01*
X112517238Y-87670005D01*
X112551051Y-87638096D01*
X112563910Y-87593805D01*
X112563910Y-87584280D01*
X112551051Y-87539036D01*
X112517238Y-87507127D01*
X111983837Y-87244237D01*
X111938117Y-87229950D01*
X111906209Y-87243999D01*
X111877158Y-87286147D01*
X111860965Y-87334249D01*
X111659670Y-87334249D01*
X111659670Y-86737507D01*
X111866680Y-86737507D01*
X111866680Y-86943247D01*
X111873453Y-86998598D01*
X111893773Y-87052891D01*
X111927640Y-87106125D01*
X111962406Y-87140891D01*
X112007650Y-87168990D01*
X112060990Y-87187564D01*
X112120045Y-87193755D01*
X112187567Y-87185817D01*
X112246622Y-87162005D01*
X112297210Y-87122317D01*
X112336262Y-87138827D01*
X112386110Y-87160417D01*
X112446753Y-87187087D01*
X112496282Y-87201375D01*
X112529620Y-87186611D01*
X112557242Y-87142320D01*
X112570577Y-87093266D01*
X112561529Y-87062786D01*
X112542955Y-87045165D01*
X112515756Y-87032677D01*
X112458288Y-87007912D01*
X112370552Y-86970870D01*
X112372458Y-86941342D01*
X112372458Y-86821327D01*
X112480090Y-86821327D01*
X112512951Y-86819899D01*
X112538192Y-86810850D01*
X112557481Y-86785609D01*
X112563910Y-86736555D01*
X112555099Y-86683691D01*
X112528668Y-86658450D01*
X112479138Y-86652735D01*
X111950500Y-86652735D01*
X111917639Y-86654164D01*
X111892397Y-86663212D01*
X111873109Y-86688454D01*
X111866680Y-86737507D01*
X111659670Y-86737507D01*
X111659670Y-86066947D01*
X111865727Y-86066947D01*
X111866680Y-86243160D01*
X111872901Y-86310133D01*
X111891564Y-86372938D01*
X111922669Y-86431576D01*
X111966216Y-86486047D01*
X112018842Y-86531887D01*
X112077182Y-86564629D01*
X112141238Y-86584274D01*
X112211009Y-86590822D01*
X112281047Y-86584423D01*
X112345907Y-86565224D01*
X112405587Y-86533226D01*
X112460087Y-86488429D01*
X112505510Y-86434523D01*
X112537954Y-86375200D01*
X112557421Y-86310460D01*
X112563910Y-86240302D01*
X112563910Y-86065995D01*
X112557957Y-86018846D01*
X112540098Y-85993605D01*
X112479138Y-85982175D01*
X111949547Y-85982175D01*
X111916210Y-85983604D01*
X111891445Y-85992652D01*
X111872157Y-86017894D01*
X111865727Y-86066947D01*
X111659670Y-86066947D01*
X111659670Y-85982175D01*
X111659670Y-85783737D01*
X112774730Y-85783737D01*
X112774730Y-85982175D01*
X112774730Y-86240302D01*
X112774730Y-87093266D01*
G37*
%TO.C,kibuzzard-65A6FCAC*%
G36*
X119801958Y-87016590D02*
G01*
X119801958Y-87404258D01*
X119801958Y-87489030D01*
X119801958Y-87687468D01*
X118704042Y-87687468D01*
X118704042Y-87489030D01*
X118704042Y-87400924D01*
X118902480Y-87400924D01*
X118907243Y-87446168D01*
X118918196Y-87470933D01*
X118938675Y-87484268D01*
X118989157Y-87489030D01*
X119519700Y-87489030D01*
X119552561Y-87487601D01*
X119577803Y-87478553D01*
X119597091Y-87453311D01*
X119603520Y-87404258D01*
X119597329Y-87356394D01*
X119578755Y-87330915D01*
X119552561Y-87321866D01*
X119517795Y-87320438D01*
X119177753Y-87320438D01*
X119189183Y-87308055D01*
X119218710Y-87241380D01*
X119185373Y-87183754D01*
X119126317Y-87153750D01*
X119070120Y-87188040D01*
X118929150Y-87344250D01*
X118927245Y-87347107D01*
X118902480Y-87400924D01*
X118704042Y-87400924D01*
X118704042Y-86574630D01*
X118904385Y-86574630D01*
X118909624Y-86619874D01*
X118921530Y-86643210D01*
X118946295Y-86665117D01*
X119032258Y-86728406D01*
X119107902Y-86784286D01*
X119173228Y-86832757D01*
X119228235Y-86873821D01*
X119272923Y-86907476D01*
X119307293Y-86933722D01*
X118985347Y-86933722D01*
X118932484Y-86942771D01*
X118910100Y-86969918D01*
X118904385Y-87015161D01*
X118909147Y-87058976D01*
X118920577Y-87083741D01*
X118940580Y-87095648D01*
X118989157Y-87101362D01*
X119517795Y-87101362D01*
X119551133Y-87099934D01*
X119575898Y-87090885D01*
X119595186Y-87065644D01*
X119601615Y-87016590D01*
X119595900Y-86965155D01*
X119577803Y-86941342D01*
X119488056Y-86873980D01*
X119409316Y-86814766D01*
X119341583Y-86763701D01*
X119284856Y-86720786D01*
X119239136Y-86686020D01*
X119204422Y-86659402D01*
X119517795Y-86659402D01*
X119551133Y-86657974D01*
X119575898Y-86648925D01*
X119595186Y-86623684D01*
X119601615Y-86574630D01*
X119595186Y-86527005D01*
X119575898Y-86502240D01*
X119550180Y-86493191D01*
X119516843Y-86491762D01*
X118985347Y-86491762D01*
X118932484Y-86500811D01*
X118910100Y-86527958D01*
X118904385Y-86574630D01*
X118704042Y-86574630D01*
X118704042Y-86331742D01*
X118903433Y-86331742D01*
X118912243Y-86384844D01*
X118938675Y-86410800D01*
X118988205Y-86415562D01*
X119517795Y-86415562D01*
X119551133Y-86414134D01*
X119575898Y-86405085D01*
X119595186Y-86379844D01*
X119601615Y-86330790D01*
X119592566Y-86277926D01*
X119565420Y-86252685D01*
X119516843Y-86246970D01*
X118987253Y-86246970D01*
X118954391Y-86248399D01*
X118929150Y-86257447D01*
X118909862Y-86282689D01*
X118903433Y-86331742D01*
X118704042Y-86331742D01*
X118704042Y-86246970D01*
X118704042Y-86048532D01*
X119801958Y-86048532D01*
X119801958Y-86246970D01*
X119801958Y-86330790D01*
X119801958Y-87016590D01*
G37*
%TO.C,kibuzzard-65A6FD3E*%
G36*
X100699465Y-94844868D02*
G01*
X100757091Y-94884516D01*
X100787254Y-94923304D01*
X100805351Y-94969183D01*
X100811384Y-95022153D01*
X100805298Y-95075122D01*
X100787042Y-95121001D01*
X100756615Y-95159789D01*
X100698632Y-95199437D01*
X100634219Y-95212653D01*
X100569925Y-95199794D01*
X100512299Y-95161218D01*
X100482136Y-95123012D01*
X100464039Y-95076974D01*
X100458006Y-95023105D01*
X100464092Y-94969130D01*
X100482348Y-94922775D01*
X100512775Y-94884040D01*
X100570758Y-94844749D01*
X100635171Y-94831652D01*
X100699465Y-94844868D01*
G37*
G36*
X101178414Y-95579683D02*
G01*
X100979976Y-95579683D01*
X100632314Y-95579683D01*
X99921273Y-95579683D01*
X99226424Y-95579683D01*
X98397749Y-95579683D01*
X98312024Y-95579683D01*
X98113586Y-95579683D01*
X98113586Y-95287424D01*
X98312024Y-95287424D01*
X98318215Y-95335525D01*
X98338694Y-95360290D01*
X98397749Y-95371720D01*
X98770176Y-95371720D01*
X98829231Y-95346003D01*
X98853996Y-95285995D01*
X98845067Y-95236584D01*
X98818278Y-95191221D01*
X98778868Y-95150978D01*
X98732076Y-95116926D01*
X98681594Y-95086208D01*
X98631111Y-95055966D01*
X98584320Y-95023938D01*
X98544910Y-94987863D01*
X98518121Y-94948572D01*
X98509191Y-94906900D01*
X98515859Y-94882611D01*
X98530623Y-94856894D01*
X98555864Y-94838320D01*
X98603489Y-94829747D01*
X98656353Y-94852131D01*
X98681594Y-94896422D01*
X98685404Y-94918330D01*
X98685404Y-94924045D01*
X98686833Y-94955478D01*
X98695881Y-94979290D01*
X98721599Y-94996435D01*
X98770176Y-95002150D01*
X98823278Y-94993101D01*
X98849234Y-94965955D01*
X98853996Y-94917378D01*
X98846112Y-94853613D01*
X98822458Y-94794399D01*
X98783378Y-94740212D01*
X98892096Y-94740212D01*
X98896859Y-94779741D01*
X98913051Y-94800220D01*
X98961629Y-94808792D01*
X99143556Y-94808792D01*
X99143556Y-95287900D01*
X99144985Y-95320285D01*
X99153557Y-95344574D01*
X99178799Y-95364100D01*
X99226424Y-95369815D01*
X99273572Y-95364100D01*
X99298338Y-95344574D01*
X99306910Y-95319809D01*
X99308339Y-95286947D01*
X99308339Y-94808792D01*
X99491219Y-94808792D01*
X99535986Y-94801649D01*
X99555036Y-94779265D01*
X99557758Y-94756405D01*
X99612186Y-94756405D01*
X99612186Y-95044060D01*
X99617068Y-95105496D01*
X99631713Y-95164075D01*
X99656120Y-95219796D01*
X99690291Y-95272660D01*
X99733868Y-95316594D01*
X99788399Y-95351241D01*
X99851621Y-95373744D01*
X99921273Y-95381245D01*
X99990805Y-95373625D01*
X100053670Y-95350765D01*
X100107605Y-95315522D01*
X100150349Y-95270755D01*
X100184103Y-95218606D01*
X100208213Y-95163123D01*
X100222679Y-95104306D01*
X100227501Y-95042155D01*
X100227501Y-95017866D01*
X100289414Y-95017866D01*
X100295605Y-95090554D01*
X100314179Y-95157646D01*
X100345135Y-95219141D01*
X100388474Y-95275041D01*
X100440861Y-95321505D01*
X100498964Y-95354694D01*
X100562781Y-95374607D01*
X100632314Y-95381245D01*
X100701995Y-95374697D01*
X100766259Y-95355051D01*
X100825106Y-95322309D01*
X100878535Y-95276470D01*
X100922916Y-95221582D01*
X100954616Y-95161694D01*
X100973636Y-95096805D01*
X100979976Y-95026915D01*
X100972833Y-94950358D01*
X100951401Y-94878801D01*
X100918064Y-94815341D01*
X100875201Y-94763072D01*
X100824004Y-94721401D01*
X100765664Y-94689730D01*
X100702799Y-94669728D01*
X100638029Y-94663060D01*
X100569865Y-94669430D01*
X100506346Y-94688539D01*
X100447469Y-94720389D01*
X100393236Y-94764978D01*
X100347814Y-94819002D01*
X100315369Y-94879158D01*
X100295903Y-94945446D01*
X100289414Y-95017866D01*
X100227501Y-95017866D01*
X100227501Y-94755453D01*
X100226073Y-94721639D01*
X100217024Y-94696397D01*
X100191306Y-94676395D01*
X100142729Y-94670680D01*
X100094151Y-94676395D01*
X100069386Y-94696397D01*
X100057956Y-94756405D01*
X100057956Y-95042155D01*
X100050813Y-95098829D01*
X100029381Y-95152645D01*
X99986519Y-95195508D01*
X99918891Y-95211700D01*
X99858169Y-95198841D01*
X99815069Y-95160265D01*
X99789351Y-95104782D01*
X99780779Y-95041203D01*
X99780779Y-94749737D01*
X99771254Y-94697350D01*
X99743631Y-94676395D01*
X99698388Y-94670680D01*
X99655049Y-94675443D01*
X99630284Y-94686872D01*
X99617901Y-94706875D01*
X99612186Y-94756405D01*
X99557758Y-94756405D01*
X99559799Y-94739260D01*
X99555036Y-94699731D01*
X99538844Y-94679252D01*
X99490266Y-94670680D01*
X98960676Y-94670680D01*
X98915909Y-94677824D01*
X98896859Y-94700208D01*
X98892096Y-94740212D01*
X98783378Y-94740212D01*
X98783035Y-94739736D01*
X98730859Y-94696080D01*
X98668947Y-94669886D01*
X98597298Y-94661155D01*
X98525595Y-94669992D01*
X98463524Y-94696503D01*
X98411084Y-94740689D01*
X98371396Y-94796198D01*
X98347584Y-94856682D01*
X98339646Y-94922140D01*
X98345599Y-94975004D01*
X98363459Y-95025010D01*
X98389653Y-95068825D01*
X98420609Y-95103115D01*
X98487284Y-95155741D01*
X98546339Y-95187888D01*
X98570151Y-95197413D01*
X98570151Y-95202175D01*
X98395844Y-95202175D01*
X98340123Y-95211224D01*
X98317739Y-95238846D01*
X98312024Y-95287424D01*
X98113586Y-95287424D01*
X98113586Y-94462717D01*
X98312024Y-94462717D01*
X100979976Y-94462717D01*
X101178414Y-94462717D01*
X101178414Y-95579683D01*
G37*
%TO.C,kibuzzard-65A6FCE2*%
G36*
X131880293Y-87557451D02*
G01*
X131749800Y-87493634D01*
X131880293Y-87430769D01*
X131880293Y-87557451D01*
G37*
G36*
X132379720Y-86644956D02*
G01*
X132379720Y-87737950D01*
X132379720Y-88202770D01*
X132379720Y-89014776D01*
X132379720Y-89456736D01*
X132379720Y-89791064D01*
X132379720Y-89989501D01*
X131272280Y-89989501D01*
X131272280Y-89791064D01*
X131272280Y-89192894D01*
X131470717Y-89192894D01*
X131470717Y-89722484D01*
X131477861Y-89767251D01*
X131500245Y-89786301D01*
X131540250Y-89791064D01*
X131579779Y-89786301D01*
X131600257Y-89770109D01*
X131608830Y-89721531D01*
X131608830Y-89539604D01*
X132087938Y-89539604D01*
X132120322Y-89538175D01*
X132144611Y-89529603D01*
X132164138Y-89504361D01*
X132169853Y-89456736D01*
X132164138Y-89409588D01*
X132144611Y-89384823D01*
X132119846Y-89376250D01*
X132086985Y-89374821D01*
X131608830Y-89374821D01*
X131608830Y-89191941D01*
X131601686Y-89147174D01*
X131579302Y-89128124D01*
X131539297Y-89123361D01*
X131499769Y-89128124D01*
X131479290Y-89144316D01*
X131470717Y-89192894D01*
X131272280Y-89192894D01*
X131272280Y-88672829D01*
X131471670Y-88672829D01*
X131480481Y-88725931D01*
X131506912Y-88751886D01*
X131556442Y-88756649D01*
X132028883Y-88756649D01*
X132028883Y-89015729D01*
X132036026Y-89061449D01*
X132058410Y-89080499D01*
X132098891Y-89085261D01*
X132139372Y-89080499D01*
X132160328Y-89064306D01*
X132169853Y-89014776D01*
X132169853Y-88671876D01*
X132160804Y-88619012D01*
X132133658Y-88593771D01*
X132085080Y-88588056D01*
X131555490Y-88588056D01*
X131522629Y-88589485D01*
X131497387Y-88598534D01*
X131478099Y-88623775D01*
X131471670Y-88672829D01*
X131272280Y-88672829D01*
X131272280Y-87981314D01*
X131470717Y-87981314D01*
X131476432Y-88029891D01*
X131496435Y-88054656D01*
X131556442Y-88066086D01*
X131842192Y-88066086D01*
X131898866Y-88073230D01*
X131952682Y-88094661D01*
X131995545Y-88137524D01*
X132011737Y-88205151D01*
X131998879Y-88265873D01*
X131960302Y-88308974D01*
X131904819Y-88334691D01*
X131841240Y-88343264D01*
X131549775Y-88343264D01*
X131497387Y-88352789D01*
X131476432Y-88380411D01*
X131470717Y-88425655D01*
X131475480Y-88468994D01*
X131486910Y-88493759D01*
X131506912Y-88506141D01*
X131556442Y-88511856D01*
X131844097Y-88511856D01*
X131905534Y-88506975D01*
X131964113Y-88492330D01*
X132019834Y-88467922D01*
X132072698Y-88433751D01*
X132116632Y-88390174D01*
X132151279Y-88335644D01*
X132173782Y-88272422D01*
X132181283Y-88202770D01*
X132173663Y-88133238D01*
X132150803Y-88070372D01*
X132115560Y-88016437D01*
X132070793Y-87973694D01*
X132018643Y-87939940D01*
X131963160Y-87915829D01*
X131904343Y-87901363D01*
X131842192Y-87896541D01*
X131555490Y-87896541D01*
X131521676Y-87897970D01*
X131496435Y-87907019D01*
X131476432Y-87932736D01*
X131470717Y-87981314D01*
X131272280Y-87981314D01*
X131272280Y-87494586D01*
X131471670Y-87494586D01*
X131484052Y-87539354D01*
X131521200Y-87570786D01*
X132052695Y-87827961D01*
X132101272Y-87844154D01*
X132133896Y-87830342D01*
X132163185Y-87788909D01*
X132179377Y-87737950D01*
X132170805Y-87707470D01*
X132152708Y-87690325D01*
X132124132Y-87675561D01*
X132021263Y-87626031D01*
X132021263Y-87362189D01*
X132124132Y-87312659D01*
X132151755Y-87297895D01*
X132169376Y-87280750D01*
X132178425Y-87250270D01*
X132162233Y-87199311D01*
X132133658Y-87157877D01*
X132101272Y-87144066D01*
X132052695Y-87160259D01*
X131520247Y-87417434D01*
X131485005Y-87449342D01*
X131471670Y-87494586D01*
X131272280Y-87494586D01*
X131272280Y-86647814D01*
X131471670Y-86647814D01*
X131471670Y-87023099D01*
X131473099Y-87055960D01*
X131482147Y-87080725D01*
X131507865Y-87100251D01*
X131556442Y-87105966D01*
X131605020Y-87100251D01*
X131630261Y-87080249D01*
X131638834Y-87055007D01*
X131640262Y-87021194D01*
X131640262Y-86729729D01*
X131736465Y-86729729D01*
X131736465Y-86917371D01*
X131737894Y-86951185D01*
X131746942Y-86976426D01*
X131772898Y-86995000D01*
X131822190Y-87001191D01*
X131875292Y-86992142D01*
X131901247Y-86964996D01*
X131906010Y-86916419D01*
X131906010Y-86729729D01*
X132086032Y-86729729D01*
X132119370Y-86728300D01*
X132144135Y-86719251D01*
X132163423Y-86694010D01*
X132169853Y-86644956D01*
X132160804Y-86592092D01*
X132133658Y-86566851D01*
X132085080Y-86561136D01*
X131555490Y-86561136D01*
X131489291Y-86579234D01*
X131471670Y-86647814D01*
X131272280Y-86647814D01*
X131272280Y-85958204D01*
X131472622Y-85958204D01*
X131477861Y-86003447D01*
X131489767Y-86026784D01*
X131514532Y-86048691D01*
X131600496Y-86111980D01*
X131676140Y-86167860D01*
X131741466Y-86216331D01*
X131796472Y-86257395D01*
X131841161Y-86291050D01*
X131875530Y-86317296D01*
X131553585Y-86317296D01*
X131500721Y-86326345D01*
X131478337Y-86353491D01*
X131472622Y-86398735D01*
X131477385Y-86442550D01*
X131488815Y-86467315D01*
X131508817Y-86479221D01*
X131557395Y-86484936D01*
X132086032Y-86484936D01*
X132119370Y-86483507D01*
X132144135Y-86474459D01*
X132163423Y-86449217D01*
X132169853Y-86400164D01*
X132164138Y-86348729D01*
X132146040Y-86324916D01*
X132056293Y-86257553D01*
X131977553Y-86198340D01*
X131909820Y-86147275D01*
X131853093Y-86104360D01*
X131807373Y-86069593D01*
X131772660Y-86042976D01*
X132086032Y-86042976D01*
X132119370Y-86041547D01*
X132144135Y-86032499D01*
X132163423Y-86007257D01*
X132169853Y-85958204D01*
X132163423Y-85910579D01*
X132144135Y-85885814D01*
X132118418Y-85876765D01*
X132085080Y-85875336D01*
X131553585Y-85875336D01*
X131500721Y-85884385D01*
X131478337Y-85911531D01*
X131472622Y-85958204D01*
X131272280Y-85958204D01*
X131272280Y-85875336D01*
X131272280Y-85676899D01*
X132379720Y-85676899D01*
X132379720Y-85875336D01*
X132379720Y-86400164D01*
X132379720Y-86644956D01*
G37*
%TO.C,kibuzzard-65BE5BFB*%
G36*
X146432746Y-87045165D02*
G01*
X146420007Y-87110411D01*
X146381787Y-87168990D01*
X146324280Y-87210424D01*
X146253676Y-87224235D01*
X146182834Y-87210781D01*
X146124612Y-87170419D01*
X146085679Y-87111959D01*
X146072701Y-87044213D01*
X146072701Y-86952773D01*
X146432746Y-86952773D01*
X146432746Y-87045165D01*
G37*
G36*
X146307598Y-87615130D02*
G01*
X146353477Y-87633387D01*
X146392265Y-87663814D01*
X146431913Y-87721797D01*
X146445129Y-87786210D01*
X146432270Y-87850504D01*
X146393694Y-87908130D01*
X146355488Y-87938293D01*
X146309450Y-87956390D01*
X146255581Y-87962423D01*
X146201606Y-87956337D01*
X146155251Y-87938081D01*
X146116516Y-87907654D01*
X146077226Y-87849670D01*
X146064129Y-87785258D01*
X146077345Y-87720964D01*
X146116992Y-87663337D01*
X146155780Y-87633175D01*
X146201659Y-87615078D01*
X146254629Y-87609045D01*
X146307598Y-87615130D01*
G37*
G36*
X146812159Y-87042308D02*
G01*
X146812159Y-87788115D01*
X146812159Y-88131015D01*
X146812159Y-88329453D01*
X145694241Y-88329453D01*
X145694241Y-88131015D01*
X145694241Y-87782400D01*
X145895536Y-87782400D01*
X145901906Y-87850563D01*
X145921016Y-87914083D01*
X145952865Y-87972960D01*
X145997454Y-88027193D01*
X146051478Y-88072615D01*
X146111635Y-88105059D01*
X146177923Y-88124526D01*
X146250342Y-88131015D01*
X146323030Y-88124824D01*
X146390122Y-88106250D01*
X146451618Y-88075294D01*
X146507518Y-88031955D01*
X146553982Y-87979568D01*
X146587170Y-87921465D01*
X146607084Y-87857648D01*
X146613721Y-87788115D01*
X146607173Y-87718434D01*
X146587528Y-87654170D01*
X146554785Y-87595323D01*
X146508946Y-87541894D01*
X146454058Y-87497513D01*
X146394170Y-87465813D01*
X146329281Y-87446793D01*
X146259391Y-87440453D01*
X146182834Y-87447596D01*
X146111277Y-87469028D01*
X146047817Y-87502365D01*
X145995549Y-87545228D01*
X145953877Y-87596424D01*
X145922206Y-87654765D01*
X145902204Y-87717630D01*
X145895536Y-87782400D01*
X145694241Y-87782400D01*
X145694241Y-86868953D01*
X145903156Y-86868953D01*
X145904109Y-87045165D01*
X145910330Y-87112138D01*
X145928993Y-87174943D01*
X145960098Y-87233581D01*
X146003645Y-87288053D01*
X146056271Y-87333892D01*
X146114611Y-87366634D01*
X146178667Y-87386279D01*
X146248437Y-87392828D01*
X146318476Y-87386428D01*
X146383335Y-87367229D01*
X146443015Y-87335231D01*
X146497516Y-87290434D01*
X146542939Y-87236528D01*
X146575383Y-87177205D01*
X146594850Y-87112465D01*
X146601339Y-87042308D01*
X146601339Y-86868000D01*
X146595386Y-86820851D01*
X146577526Y-86795610D01*
X146516566Y-86784180D01*
X145986976Y-86784180D01*
X145953639Y-86785609D01*
X145928874Y-86794658D01*
X145909586Y-86819899D01*
X145903156Y-86868953D01*
X145694241Y-86868953D01*
X145694241Y-86459377D01*
X145892679Y-86459377D01*
X145896370Y-86514027D01*
X145907442Y-86563676D01*
X145937446Y-86628922D01*
X145955544Y-86652735D01*
X146002216Y-86682263D01*
X146054604Y-86659403D01*
X146090323Y-86626541D01*
X146102229Y-86592727D01*
X146083179Y-86543197D01*
X146073654Y-86532244D01*
X146061271Y-86517480D01*
X146048889Y-86466521D01*
X146063652Y-86415086D01*
X146104610Y-86394607D01*
X146146996Y-86418896D01*
X146168904Y-86479380D01*
X146176167Y-86517242D01*
X146186525Y-86558437D01*
X146199741Y-86599633D01*
X146215576Y-86637495D01*
X146239032Y-86670713D01*
X146275107Y-86697979D01*
X146322375Y-86716195D01*
X146379406Y-86722267D01*
X146437628Y-86716076D01*
X146488468Y-86697502D01*
X146530258Y-86668928D01*
X146561334Y-86632733D01*
X146589380Y-86580133D01*
X146606207Y-86525206D01*
X146611816Y-86467950D01*
X146609078Y-86424373D01*
X146600862Y-86383177D01*
X146573716Y-86318407D01*
X146543713Y-86275545D01*
X146514661Y-86247923D01*
X146504184Y-86239350D01*
X146449415Y-86214585D01*
X146421197Y-86224824D01*
X146385121Y-86255542D01*
X146362261Y-86306025D01*
X146374167Y-86337934D01*
X146409886Y-86380320D01*
X146440842Y-86418420D01*
X146455606Y-86464140D01*
X146447563Y-86513352D01*
X146423433Y-86542880D01*
X146383216Y-86552722D01*
X146346545Y-86528434D01*
X146325114Y-86467950D01*
X146316422Y-86430326D01*
X146303682Y-86389845D01*
X146287609Y-86349364D01*
X146268916Y-86311740D01*
X146243080Y-86278522D01*
X146205575Y-86251256D01*
X146157831Y-86233040D01*
X146101276Y-86226967D01*
X146047777Y-86233900D01*
X145999041Y-86254696D01*
X145955067Y-86289356D01*
X145920407Y-86335976D01*
X145899611Y-86392650D01*
X145892679Y-86459377D01*
X145694241Y-86459377D01*
X145694241Y-86214585D01*
X145694241Y-86016148D01*
X146812159Y-86016148D01*
X146812159Y-86214585D01*
X146812159Y-86467950D01*
X146812159Y-87042308D01*
G37*
%TO.C,kibuzzard-65A6FD04*%
G36*
X135317865Y-86431120D02*
G01*
X135296910Y-86487317D01*
X135234045Y-86514940D01*
X135170704Y-86487317D01*
X135149272Y-86430167D01*
X135149272Y-86311105D01*
X135317865Y-86311105D01*
X135317865Y-86431120D01*
G37*
G36*
X135317865Y-88372315D02*
G01*
X135296910Y-88428513D01*
X135234045Y-88456135D01*
X135170704Y-88428513D01*
X135149272Y-88371362D01*
X135149272Y-88252300D01*
X135317865Y-88252300D01*
X135317865Y-88372315D01*
G37*
G36*
X135317865Y-87035005D02*
G01*
X135296910Y-87090250D01*
X135234045Y-87117872D01*
X135170704Y-87090250D01*
X135149272Y-87033100D01*
X135149272Y-86913085D01*
X135317865Y-86913085D01*
X135317865Y-87035005D01*
G37*
G36*
X135384170Y-87505910D02*
G01*
X135430048Y-87524167D01*
X135468836Y-87554594D01*
X135508484Y-87612577D01*
X135521700Y-87676990D01*
X135508841Y-87741284D01*
X135470265Y-87798910D01*
X135432059Y-87829073D01*
X135386022Y-87847170D01*
X135332152Y-87853203D01*
X135278177Y-87847117D01*
X135231822Y-87828861D01*
X135193087Y-87798434D01*
X135153797Y-87740450D01*
X135140700Y-87676037D01*
X135153916Y-87611744D01*
X135193564Y-87554117D01*
X135232352Y-87523955D01*
X135278230Y-87505857D01*
X135331200Y-87499825D01*
X135384170Y-87505910D01*
G37*
G36*
X135888730Y-86226332D02*
G01*
X135888730Y-87185024D01*
X135888730Y-87678895D01*
X135888730Y-88167528D01*
X135888730Y-88769508D01*
X135888730Y-88854280D01*
X135888730Y-89052717D01*
X134773670Y-89052717D01*
X134773670Y-88854280D01*
X134773670Y-88770460D01*
X134980680Y-88770460D01*
X134989491Y-88823562D01*
X135015922Y-88849517D01*
X135065453Y-88854280D01*
X135595042Y-88854280D01*
X135628380Y-88852851D01*
X135653145Y-88843803D01*
X135672433Y-88818561D01*
X135678863Y-88769508D01*
X135669814Y-88716644D01*
X135642668Y-88691403D01*
X135594090Y-88685687D01*
X135064500Y-88685687D01*
X135031639Y-88687116D01*
X135006397Y-88696165D01*
X134987109Y-88721406D01*
X134980680Y-88770460D01*
X134773670Y-88770460D01*
X134773670Y-88168480D01*
X134980680Y-88168480D01*
X134980680Y-88372315D01*
X134987453Y-88427666D01*
X135007773Y-88481958D01*
X135041640Y-88535193D01*
X135076406Y-88570673D01*
X135121650Y-88599010D01*
X135174990Y-88617584D01*
X135234045Y-88623775D01*
X135292981Y-88617584D01*
X135345964Y-88599010D01*
X135390850Y-88570673D01*
X135425497Y-88535193D01*
X135459364Y-88481853D01*
X135479684Y-88427242D01*
X135486458Y-88371362D01*
X135486458Y-88252300D01*
X135594090Y-88252300D01*
X135626951Y-88250871D01*
X135652192Y-88241823D01*
X135671481Y-88216581D01*
X135677910Y-88167528D01*
X135669099Y-88114664D01*
X135642668Y-88089423D01*
X135593138Y-88083708D01*
X135064500Y-88083708D01*
X135031639Y-88085136D01*
X135006397Y-88094185D01*
X134987109Y-88119426D01*
X134980680Y-88168480D01*
X134773670Y-88168480D01*
X134773670Y-87673180D01*
X134972107Y-87673180D01*
X134978477Y-87741343D01*
X134997587Y-87804863D01*
X135029436Y-87863740D01*
X135074025Y-87917973D01*
X135128050Y-87963395D01*
X135188206Y-87995839D01*
X135254494Y-88015306D01*
X135326914Y-88021795D01*
X135399601Y-88015604D01*
X135466693Y-87997030D01*
X135528189Y-87966074D01*
X135584089Y-87922735D01*
X135630553Y-87870347D01*
X135663742Y-87812245D01*
X135683655Y-87748428D01*
X135690293Y-87678895D01*
X135683744Y-87609214D01*
X135664099Y-87544950D01*
X135631357Y-87486103D01*
X135585517Y-87432674D01*
X135530630Y-87388293D01*
X135470741Y-87356593D01*
X135405852Y-87337573D01*
X135335962Y-87331232D01*
X135259405Y-87338376D01*
X135187849Y-87359807D01*
X135124388Y-87393145D01*
X135072120Y-87436008D01*
X135030448Y-87487204D01*
X134998777Y-87545545D01*
X134978775Y-87608410D01*
X134972107Y-87673180D01*
X134773670Y-87673180D01*
X134773670Y-86829265D01*
X134980680Y-86829265D01*
X134980680Y-87035005D01*
X134987453Y-87090356D01*
X135007773Y-87144648D01*
X135041640Y-87197882D01*
X135076406Y-87232649D01*
X135121650Y-87260747D01*
X135174990Y-87279321D01*
X135234045Y-87285512D01*
X135301567Y-87277575D01*
X135360622Y-87253762D01*
X135411210Y-87214075D01*
X135450262Y-87230585D01*
X135500110Y-87252175D01*
X135560753Y-87278845D01*
X135610282Y-87293132D01*
X135643620Y-87278369D01*
X135671242Y-87234077D01*
X135684577Y-87185024D01*
X135675529Y-87154544D01*
X135656955Y-87136922D01*
X135629756Y-87124434D01*
X135572288Y-87099669D01*
X135484552Y-87062627D01*
X135486458Y-87033100D01*
X135486458Y-86913085D01*
X135594090Y-86913085D01*
X135626951Y-86911656D01*
X135652192Y-86902607D01*
X135671481Y-86877366D01*
X135677910Y-86828312D01*
X135669099Y-86775449D01*
X135642668Y-86750207D01*
X135593138Y-86744492D01*
X135064500Y-86744492D01*
X135031639Y-86745921D01*
X135006397Y-86754970D01*
X134987109Y-86780211D01*
X134980680Y-86829265D01*
X134773670Y-86829265D01*
X134773670Y-86227285D01*
X134980680Y-86227285D01*
X134980680Y-86431120D01*
X134987453Y-86486471D01*
X135007773Y-86540763D01*
X135041640Y-86593997D01*
X135076406Y-86629478D01*
X135121650Y-86657815D01*
X135174990Y-86676389D01*
X135234045Y-86682580D01*
X135292981Y-86676389D01*
X135345964Y-86657815D01*
X135390850Y-86629478D01*
X135425497Y-86593997D01*
X135459364Y-86540657D01*
X135479684Y-86486047D01*
X135486458Y-86430167D01*
X135486458Y-86311105D01*
X135594090Y-86311105D01*
X135626951Y-86309676D01*
X135652192Y-86300627D01*
X135671481Y-86275386D01*
X135677910Y-86226332D01*
X135669099Y-86173469D01*
X135642668Y-86148227D01*
X135593138Y-86142512D01*
X135064500Y-86142512D01*
X135031639Y-86143941D01*
X135006397Y-86152990D01*
X134987109Y-86178231D01*
X134980680Y-86227285D01*
X134773670Y-86227285D01*
X134773670Y-85982492D01*
X134980680Y-85982492D01*
X134989491Y-86035594D01*
X135015922Y-86061550D01*
X135065453Y-86066312D01*
X135595042Y-86066312D01*
X135628380Y-86064884D01*
X135653145Y-86055835D01*
X135672433Y-86030594D01*
X135678863Y-85981540D01*
X135669814Y-85928676D01*
X135642668Y-85903435D01*
X135594090Y-85897720D01*
X135064500Y-85897720D01*
X135031639Y-85899149D01*
X135006397Y-85908197D01*
X134987109Y-85933439D01*
X134980680Y-85982492D01*
X134773670Y-85982492D01*
X134773670Y-85897720D01*
X134773670Y-85699282D01*
X135888730Y-85699282D01*
X135888730Y-85897720D01*
X135888730Y-85981540D01*
X135888730Y-86226332D01*
G37*
%TO.C,kibuzzard-65BE5B66*%
G36*
X102540435Y-86565264D02*
G01*
X102540435Y-86914355D01*
X102540435Y-87555387D01*
X102540435Y-88483123D01*
X102540435Y-89105105D01*
X102540435Y-89638505D01*
X102540435Y-90279538D01*
X102540435Y-90632915D01*
X102540435Y-90831353D01*
X101421565Y-90831353D01*
X101421565Y-90632915D01*
X101421565Y-90019981D01*
X101624765Y-90019981D01*
X101628575Y-90045222D01*
X101641910Y-90061415D01*
X101667151Y-90077131D01*
X101693821Y-90089871D01*
X101746209Y-90113803D01*
X101813479Y-90144402D01*
X101884798Y-90177144D01*
X101956116Y-90210005D01*
X102023386Y-90240961D01*
X102074226Y-90264417D01*
X102096253Y-90274775D01*
X101679057Y-90465275D01*
X101650483Y-90478610D01*
X101624765Y-90520520D01*
X101640958Y-90576718D01*
X101670009Y-90618866D01*
X101701918Y-90632915D01*
X101747638Y-90618628D01*
X102281038Y-90355738D01*
X102314851Y-90323829D01*
X102327710Y-90279538D01*
X102327710Y-90270012D01*
X102314851Y-90224769D01*
X102281038Y-90192860D01*
X101747638Y-89929970D01*
X101701918Y-89915683D01*
X101670009Y-89929732D01*
X101640958Y-89971880D01*
X101624765Y-90019981D01*
X101421565Y-90019981D01*
X101421565Y-89545160D01*
X101628575Y-89545160D01*
X101629528Y-89689940D01*
X101629528Y-89779475D01*
X101630956Y-89812813D01*
X101640005Y-89837577D01*
X101665722Y-89856866D01*
X101716205Y-89863295D01*
X101762163Y-89857342D01*
X101785738Y-89839483D01*
X101794786Y-89816146D01*
X101796215Y-89785190D01*
X101796215Y-89618503D01*
X101868605Y-89608978D01*
X101866700Y-89642315D01*
X101874267Y-89700629D01*
X101896968Y-89754922D01*
X101934804Y-89805192D01*
X101983593Y-89845409D01*
X102039155Y-89869539D01*
X102101491Y-89877583D01*
X102164145Y-89869962D01*
X102220660Y-89847103D01*
X102271036Y-89809003D01*
X102310459Y-89759578D01*
X102334113Y-89702746D01*
X102341998Y-89638505D01*
X102337023Y-89581355D01*
X102322101Y-89528015D01*
X102297230Y-89478485D01*
X102279133Y-89454673D01*
X102272465Y-89447053D01*
X102215315Y-89410858D01*
X102153403Y-89446100D01*
X102121970Y-89501345D01*
X102152450Y-89565163D01*
X102172453Y-89624694D01*
X102154355Y-89687559D01*
X102104349Y-89708038D01*
X102053866Y-89685654D01*
X102035293Y-89634695D01*
X102052438Y-89588975D01*
X102074345Y-89537064D01*
X102056248Y-89477056D01*
X102027196Y-89432765D01*
X102003860Y-89422287D01*
X101959331Y-89427050D01*
X101850508Y-89441338D01*
X101743351Y-89455863D01*
X101703823Y-89461340D01*
X101683820Y-89468008D01*
X101658103Y-89481819D01*
X101637624Y-89506584D01*
X101628575Y-89545160D01*
X101421565Y-89545160D01*
X101421565Y-89105105D01*
X101620002Y-89105105D01*
X101627411Y-89177707D01*
X101649636Y-89239302D01*
X101686677Y-89289890D01*
X101732980Y-89327461D01*
X101782986Y-89350003D01*
X101836696Y-89357518D01*
X101887126Y-89349263D01*
X101927290Y-89324498D01*
X101957188Y-89283223D01*
X101963855Y-89283223D01*
X101984334Y-89311321D01*
X102015290Y-89341325D01*
X102058153Y-89364899D01*
X102106730Y-89372758D01*
X102170706Y-89364291D01*
X102226745Y-89338891D01*
X102274846Y-89296558D01*
X102311623Y-89241418D01*
X102333690Y-89177601D01*
X102341045Y-89105105D01*
X102333637Y-89033138D01*
X102311412Y-88969638D01*
X102274370Y-88914605D01*
X102244604Y-88887697D01*
X102206743Y-88864123D01*
X102181978Y-88853645D01*
X102172453Y-88851740D01*
X102121018Y-88841262D01*
X102079584Y-88864599D01*
X102065772Y-88934608D01*
X102075298Y-88985090D01*
X102124828Y-89013665D01*
X102170548Y-89066053D01*
X102176263Y-89106058D01*
X102171143Y-89149873D01*
X102155784Y-89180353D01*
X102109588Y-89204165D01*
X102064344Y-89180829D01*
X102044818Y-89125584D01*
X102042913Y-89082245D01*
X102033388Y-89057480D01*
X102008861Y-89038192D01*
X101960045Y-89031763D01*
X101906943Y-89040573D01*
X101880988Y-89067005D01*
X101876225Y-89116535D01*
X101866938Y-89170827D01*
X101839078Y-89188925D01*
X101800978Y-89169875D01*
X101782880Y-89117011D01*
X101794310Y-89063195D01*
X101817170Y-89038430D01*
X101828600Y-89032715D01*
X101864319Y-89006045D01*
X101876225Y-88969850D01*
X101859080Y-88917463D01*
X101829314Y-88881744D01*
X101795263Y-88869837D01*
X101730492Y-88891745D01*
X101700489Y-88912700D01*
X101662865Y-88952229D01*
X101633338Y-89015094D01*
X101623336Y-89057837D01*
X101620002Y-89105105D01*
X101421565Y-89105105D01*
X101421565Y-88257380D01*
X102045770Y-88257380D01*
X102045770Y-88484075D01*
X102053628Y-88526461D01*
X102077203Y-88546940D01*
X102121018Y-88552655D01*
X102164356Y-88547416D01*
X102187693Y-88530747D01*
X102196265Y-88483123D01*
X102196265Y-88256428D01*
X102188169Y-88213803D01*
X102163880Y-88192610D01*
X102120065Y-88187848D01*
X102077203Y-88193563D01*
X102054343Y-88211660D01*
X102045770Y-88257380D01*
X101421565Y-88257380D01*
X101421565Y-87295831D01*
X101624765Y-87295831D01*
X101628575Y-87321073D01*
X101641910Y-87337265D01*
X101667151Y-87352981D01*
X101693821Y-87365721D01*
X101746209Y-87389652D01*
X101813479Y-87420252D01*
X101884798Y-87452994D01*
X101956116Y-87485855D01*
X102023386Y-87516811D01*
X102074226Y-87540267D01*
X102096253Y-87550625D01*
X101679057Y-87741125D01*
X101650483Y-87754460D01*
X101624765Y-87796370D01*
X101640958Y-87852568D01*
X101670009Y-87894716D01*
X101701918Y-87908765D01*
X101747638Y-87894478D01*
X102281038Y-87631587D01*
X102314851Y-87599679D01*
X102327710Y-87555387D01*
X102327710Y-87545862D01*
X102314851Y-87500619D01*
X102281038Y-87468710D01*
X101747638Y-87205820D01*
X101701918Y-87191532D01*
X101670009Y-87205582D01*
X101640958Y-87247730D01*
X101624765Y-87295831D01*
X101421565Y-87295831D01*
X101421565Y-86821010D01*
X101628575Y-86821010D01*
X101629528Y-86965790D01*
X101629528Y-87055325D01*
X101630956Y-87088662D01*
X101640005Y-87113427D01*
X101665722Y-87132716D01*
X101716205Y-87139145D01*
X101762163Y-87133192D01*
X101785738Y-87115332D01*
X101794786Y-87091996D01*
X101796215Y-87061040D01*
X101796215Y-86894352D01*
X101868605Y-86884828D01*
X101866700Y-86918165D01*
X101874267Y-86976479D01*
X101896968Y-87030772D01*
X101934804Y-87081042D01*
X101983593Y-87121259D01*
X102039155Y-87145389D01*
X102101491Y-87153433D01*
X102164145Y-87145813D01*
X102220660Y-87122952D01*
X102271036Y-87084852D01*
X102310459Y-87035428D01*
X102334113Y-86978596D01*
X102341998Y-86914355D01*
X102337023Y-86857205D01*
X102322101Y-86803865D01*
X102297230Y-86754335D01*
X102279133Y-86730522D01*
X102272465Y-86722902D01*
X102215315Y-86686707D01*
X102153403Y-86721950D01*
X102121970Y-86777195D01*
X102152450Y-86841013D01*
X102172453Y-86900544D01*
X102154355Y-86963409D01*
X102104349Y-86983887D01*
X102053866Y-86961504D01*
X102035293Y-86910545D01*
X102052438Y-86864825D01*
X102074345Y-86812914D01*
X102056248Y-86752906D01*
X102027196Y-86708615D01*
X102003860Y-86698137D01*
X101959331Y-86702900D01*
X101850508Y-86717187D01*
X101743351Y-86731713D01*
X101703823Y-86737190D01*
X101683820Y-86743857D01*
X101658103Y-86757669D01*
X101637624Y-86782434D01*
X101628575Y-86821010D01*
X101421565Y-86821010D01*
X101421565Y-86552881D01*
X102151498Y-86552881D01*
X102156498Y-86601578D01*
X102171500Y-86632415D01*
X102238175Y-86648607D01*
X102241985Y-86648607D01*
X102275799Y-86647179D01*
X102301993Y-86637177D01*
X102322709Y-86612055D01*
X102329615Y-86565264D01*
X102325091Y-86517401D01*
X102311518Y-86489064D01*
X102242938Y-86470490D01*
X102239128Y-86470490D01*
X102205790Y-86471919D01*
X102180073Y-86480967D01*
X102158641Y-86506090D01*
X102151498Y-86552881D01*
X101421565Y-86552881D01*
X101421565Y-86039007D01*
X101626670Y-86039007D01*
X101633338Y-86082822D01*
X101657626Y-86132829D01*
X101694298Y-86149497D01*
X101734302Y-86142830D01*
X101737160Y-86141877D01*
X101969570Y-86083775D01*
X101969570Y-86239032D01*
X101709538Y-86239032D01*
X101677153Y-86240461D01*
X101653340Y-86249510D01*
X101634766Y-86275704D01*
X101629528Y-86324281D01*
X101635719Y-86372382D01*
X101655721Y-86398100D01*
X101680963Y-86407149D01*
X101714300Y-86408578D01*
X102243890Y-86408578D01*
X102298659Y-86399529D01*
X102321995Y-86371906D01*
X102327710Y-86325710D01*
X102322948Y-86281895D01*
X102311518Y-86257130D01*
X102292468Y-86244748D01*
X102242938Y-86239032D01*
X102126733Y-86239032D01*
X102126733Y-85980905D01*
X102117684Y-85927803D01*
X102090538Y-85901847D01*
X102049580Y-85897085D01*
X102011480Y-85899942D01*
X101692393Y-85979000D01*
X101659055Y-85989001D01*
X101637148Y-86006146D01*
X101626670Y-86039007D01*
X101421565Y-86039007D01*
X101421565Y-85897085D01*
X101421565Y-85698647D01*
X102540435Y-85698647D01*
X102540435Y-85897085D01*
X102540435Y-86325710D01*
X102540435Y-86565264D01*
G37*
%TO.C,kibuzzard-65BE5C3B*%
G36*
X147816094Y-82125344D02*
G01*
X147616069Y-82125344D01*
X147522406Y-82090419D01*
X147476369Y-81985644D01*
X147522406Y-81880075D01*
X147617656Y-81844356D01*
X147816094Y-81844356D01*
X147816094Y-82125344D01*
G37*
G36*
X149997142Y-82143600D02*
G01*
X149377135Y-83073610D01*
X149046406Y-83073610D01*
X148624131Y-83073610D01*
X147957381Y-83073610D01*
X146954081Y-83073610D01*
X146812794Y-83073610D01*
X146482065Y-83073610D01*
X145862058Y-82143600D01*
X146154687Y-81704656D01*
X146812794Y-81704656D01*
X146812794Y-82587306D01*
X146815175Y-82642869D01*
X146830256Y-82684144D01*
X146872325Y-82716291D01*
X146954081Y-82727006D01*
X147042187Y-82711925D01*
X147084256Y-82666681D01*
X147093781Y-82585719D01*
X147093781Y-81985644D01*
X147196969Y-81985644D01*
X147207287Y-82083870D01*
X147238244Y-82172175D01*
X147285472Y-82246986D01*
X147344606Y-82304731D01*
X147433506Y-82361176D01*
X147524523Y-82395042D01*
X147617656Y-82406331D01*
X147816094Y-82406331D01*
X147816094Y-82585719D01*
X147818475Y-82640488D01*
X147833556Y-82682556D01*
X147875625Y-82714703D01*
X147957381Y-82725419D01*
X148045488Y-82710734D01*
X148087556Y-82666681D01*
X148097081Y-82584131D01*
X148097081Y-82355531D01*
X148200269Y-82355531D01*
X148210588Y-82452567D01*
X148241544Y-82537300D01*
X148289169Y-82606952D01*
X148349494Y-82658744D01*
X148437159Y-82705487D01*
X148528705Y-82733533D01*
X148624131Y-82742881D01*
X148696759Y-82738317D01*
X148765419Y-82724625D01*
X148873369Y-82679381D01*
X148944806Y-82629375D01*
X148990844Y-82580956D01*
X149005131Y-82563494D01*
X149046406Y-82472213D01*
X149029341Y-82425183D01*
X148978144Y-82365056D01*
X148894006Y-82326956D01*
X148840825Y-82346800D01*
X148770181Y-82406331D01*
X148706681Y-82457925D01*
X148630481Y-82482531D01*
X148548460Y-82469126D01*
X148499248Y-82428909D01*
X148482844Y-82361881D01*
X148523325Y-82300763D01*
X148624131Y-82265044D01*
X148686838Y-82250558D01*
X148754306Y-82229325D01*
X148821775Y-82202536D01*
X148884481Y-82171381D01*
X148939845Y-82128320D01*
X148985288Y-82065812D01*
X149015648Y-81986239D01*
X149025769Y-81891981D01*
X149014215Y-81802817D01*
X148979555Y-81721590D01*
X148921788Y-81648300D01*
X148844088Y-81590533D01*
X148749632Y-81555872D01*
X148638419Y-81544319D01*
X148547336Y-81550470D01*
X148464588Y-81568925D01*
X148355844Y-81618931D01*
X148316156Y-81649094D01*
X148266944Y-81726881D01*
X148305044Y-81814194D01*
X148359813Y-81873725D01*
X148416169Y-81893569D01*
X148498719Y-81861819D01*
X148516975Y-81845944D01*
X148541581Y-81825306D01*
X148626513Y-81804669D01*
X148712238Y-81829275D01*
X148746369Y-81897537D01*
X148705888Y-81968181D01*
X148605081Y-82004694D01*
X148541978Y-82016798D01*
X148473319Y-82034062D01*
X148404659Y-82056089D01*
X148341556Y-82082481D01*
X148286192Y-82121573D01*
X148240750Y-82181700D01*
X148210389Y-82260480D01*
X148200269Y-82355531D01*
X148097081Y-82355531D01*
X148097081Y-81703069D01*
X148094700Y-81648300D01*
X148079619Y-81606231D01*
X148037550Y-81574084D01*
X147955794Y-81563369D01*
X147616069Y-81563369D01*
X147523817Y-81574658D01*
X147433330Y-81608524D01*
X147344606Y-81664969D01*
X147285472Y-81722912D01*
X147238244Y-81798319D01*
X147207287Y-81887219D01*
X147196969Y-81985644D01*
X147093781Y-81985644D01*
X147093781Y-81703069D01*
X147091400Y-81648300D01*
X147076319Y-81606231D01*
X147034250Y-81574084D01*
X146952494Y-81563369D01*
X146863991Y-81578053D01*
X146820731Y-81622106D01*
X146812794Y-81704656D01*
X146154687Y-81704656D01*
X146482065Y-81213590D01*
X146812794Y-81213590D01*
X149046406Y-81213590D01*
X149377135Y-81213590D01*
X149997142Y-82143600D01*
G37*
%TD*%
%LPC*%
D12*
%TO.C,*%
X105690000Y-91170000D03*
%TD*%
%TO.C,*%
X137820000Y-105830000D03*
%TD*%
%TO.C,*%
X107380000Y-89960000D03*
%TD*%
%TO.C,*%
X96030000Y-93430000D03*
%TD*%
%TO.C,*%
X134820000Y-105760000D03*
%TD*%
%TO.C,*%
X92600000Y-91090000D03*
%TD*%
%TO.C,*%
X118980000Y-101190000D03*
%TD*%
%TO.C,*%
X127490000Y-91220000D03*
%TD*%
%TO.C,*%
X97540000Y-87630000D03*
%TD*%
%TO.C,*%
X104290000Y-102540000D03*
%TD*%
%TO.C,*%
X115880000Y-92690000D03*
%TD*%
D13*
%TO.C,J3*%
X135331200Y-84654400D03*
X135331200Y-79654400D03*
X131831197Y-84654400D03*
X131831197Y-79654400D03*
%TD*%
D12*
%TO.C,*%
X124150000Y-102530000D03*
%TD*%
%TO.C,*%
X162750000Y-89640000D03*
%TD*%
%TO.C,*%
X94430000Y-89940000D03*
%TD*%
%TO.C,*%
X134840000Y-106950000D03*
%TD*%
%TO.C,*%
X114170000Y-102500000D03*
%TD*%
D14*
%TO.C,U1*%
X130454400Y-95265999D03*
X130454400Y-97266001D03*
X130454400Y-96266000D03*
X129754399Y-95265999D03*
X129754399Y-97266001D03*
X128604401Y-97266001D03*
X128604401Y-95265999D03*
%TD*%
D13*
%TO.C,J5*%
X102520000Y-98577200D03*
X107520000Y-98577200D03*
X102520000Y-95077197D03*
X107520000Y-95077197D03*
%TD*%
D12*
%TO.C,*%
X119040000Y-99320000D03*
%TD*%
%TO.C,*%
X142250000Y-106990000D03*
%TD*%
%TO.C,*%
X117940000Y-94570000D03*
%TD*%
%TO.C,*%
X162820000Y-97080000D03*
%TD*%
%TO.C,*%
X139230000Y-105870000D03*
%TD*%
%TO.C,*%
X115900000Y-89390000D03*
%TD*%
%TO.C,*%
X122470000Y-101200000D03*
%TD*%
%TO.C,*%
X96010000Y-95850000D03*
%TD*%
%TO.C,*%
X92710000Y-84600000D03*
%TD*%
%TO.C,*%
X94450000Y-93430000D03*
%TD*%
%TO.C,*%
X97720000Y-100060000D03*
%TD*%
%TO.C,*%
X124120000Y-101210000D03*
%TD*%
%TO.C,*%
X118980000Y-98160000D03*
%TD*%
%TO.C,*%
X122500000Y-102520000D03*
%TD*%
%TO.C,*%
X97430000Y-86150000D03*
%TD*%
%TO.C,*%
X161240000Y-97110000D03*
%TD*%
%TO.C,*%
X112320000Y-101180000D03*
%TD*%
%TO.C,*%
X92740000Y-86180000D03*
%TD*%
%TO.C,*%
X125770000Y-91200000D03*
%TD*%
%TO.C,*%
X127070000Y-95680000D03*
%TD*%
%TO.C,*%
X95020000Y-86180000D03*
%TD*%
%TO.C,*%
X143730000Y-107020000D03*
%TD*%
%TO.C,*%
X92570000Y-94610000D03*
%TD*%
%TO.C,*%
X161170000Y-89670000D03*
%TD*%
%TO.C,*%
X139250000Y-107060000D03*
%TD*%
%TO.C,*%
X159760000Y-97220000D03*
%TD*%
%TO.C,*%
X125770000Y-101120000D03*
%TD*%
%TO.C,*%
X162790000Y-99460000D03*
%TD*%
%TO.C,*%
X94450000Y-100040000D03*
%TD*%
%TO.C,*%
X104080000Y-89940000D03*
%TD*%
%TO.C,*%
X92610000Y-93440000D03*
%TD*%
%TO.C,*%
X122350000Y-91210000D03*
%TD*%
%TO.C,*%
X96010000Y-89940000D03*
%TD*%
%TO.C,*%
X159660000Y-87370000D03*
%TD*%
%TO.C,*%
X92590000Y-95860000D03*
%TD*%
%TO.C,*%
X127130000Y-97650000D03*
%TD*%
%TO.C,*%
X94460000Y-98900000D03*
%TD*%
%TO.C,*%
X104110000Y-91170000D03*
%TD*%
D15*
%TO.C,J2*%
X122732800Y-84705200D03*
X122732800Y-79705200D03*
X119232800Y-84705200D03*
X119232800Y-79705200D03*
X115732800Y-84705200D03*
X115732800Y-79705200D03*
X112232800Y-84705200D03*
X112232800Y-79705200D03*
%TD*%
D12*
%TO.C,*%
X105910000Y-102550000D03*
%TD*%
%TO.C,*%
X92850000Y-87660000D03*
%TD*%
%TO.C,*%
X119010000Y-102510000D03*
%TD*%
%TO.C,*%
X92610000Y-92240000D03*
%TD*%
%TO.C,*%
X114190000Y-101180000D03*
%TD*%
%TO.C,*%
X115810000Y-101190000D03*
%TD*%
%TO.C,*%
X127030000Y-94640000D03*
%TD*%
%TO.C,*%
X112300000Y-102500000D03*
%TD*%
%TO.C,*%
X162820000Y-94500000D03*
%TD*%
%TO.C,*%
X127420000Y-89990000D03*
%TD*%
%TO.C,*%
X162860000Y-91950000D03*
%TD*%
%TO.C,*%
X96020000Y-91080000D03*
%TD*%
%TO.C,*%
X136320000Y-106990000D03*
%TD*%
%TO.C,*%
X95130000Y-87660000D03*
%TD*%
%TO.C,*%
X140710000Y-107020000D03*
%TD*%
%TO.C,*%
X92580000Y-100040000D03*
%TD*%
%TO.C,*%
X161210000Y-99490000D03*
%TD*%
%TO.C,*%
X102240000Y-89950000D03*
%TD*%
%TO.C,*%
X94430000Y-95850000D03*
%TD*%
%TO.C,*%
X96080000Y-98910000D03*
%TD*%
D13*
%TO.C,J1*%
X105537001Y-84709000D03*
X105537001Y-79709000D03*
X102036998Y-84709000D03*
X102036998Y-79709000D03*
%TD*%
D12*
%TO.C,*%
X117930000Y-91150000D03*
%TD*%
%TO.C,*%
X161280000Y-91980000D03*
%TD*%
%TO.C,*%
X159760000Y-94640000D03*
%TD*%
%TO.C,*%
X127070000Y-96680000D03*
%TD*%
%TO.C,*%
X97730000Y-98920000D03*
%TD*%
%TO.C,*%
X145330000Y-107040000D03*
%TD*%
%TO.C,*%
X161140000Y-84980000D03*
%TD*%
%TO.C,*%
X145310000Y-105850000D03*
%TD*%
%TO.C,*%
X97730000Y-89960000D03*
%TD*%
%TO.C,H2*%
X158128000Y-80183056D03*
X158830944Y-78486000D03*
X158830944Y-81880112D03*
X160528000Y-77783056D03*
D16*
X160528000Y-80183056D03*
D12*
X160528000Y-82583056D03*
X162225056Y-78486000D03*
X162225056Y-81880112D03*
X162928000Y-80183056D03*
%TD*%
%TO.C,*%
X161140000Y-87260000D03*
%TD*%
%TO.C,*%
X143710000Y-105830000D03*
%TD*%
%TO.C,*%
X105660000Y-89940000D03*
%TD*%
%TO.C,*%
X122470000Y-98170000D03*
%TD*%
%TO.C,*%
X124120000Y-98180000D03*
%TD*%
%TO.C,*%
X94990000Y-84600000D03*
%TD*%
%TO.C,*%
X97750000Y-92250000D03*
%TD*%
%TO.C,*%
X97750000Y-93450000D03*
%TD*%
%TO.C,*%
X115790000Y-102510000D03*
%TD*%
%TO.C,H3*%
X92088000Y-104140000D03*
X92790944Y-102442944D03*
X92790944Y-105837056D03*
X94488000Y-101740000D03*
D16*
X94488000Y-104140000D03*
D12*
X94488000Y-106540000D03*
X96185056Y-102442944D03*
X96185056Y-105837056D03*
X96888000Y-104140000D03*
%TD*%
%TO.C,*%
X120850000Y-101190000D03*
%TD*%
%TO.C,*%
X102270000Y-91180000D03*
%TD*%
%TO.C,*%
X97730000Y-95870000D03*
%TD*%
%TO.C,*%
X94410000Y-94600000D03*
%TD*%
%TO.C,*%
X120910000Y-99320000D03*
%TD*%
%TO.C,*%
X162720000Y-84950000D03*
%TD*%
%TO.C,*%
X124120000Y-89970000D03*
%TD*%
%TO.C,*%
X122530000Y-99330000D03*
%TD*%
%TO.C,*%
X125700000Y-89970000D03*
%TD*%
%TO.C,*%
X115880000Y-91110000D03*
%TD*%
%TO.C,*%
X124180000Y-99340000D03*
%TD*%
%TO.C,*%
X133320000Y-106890000D03*
%TD*%
%TO.C,*%
X142230000Y-105800000D03*
%TD*%
%TO.C,*%
X97710000Y-94620000D03*
%TD*%
%TO.C,*%
X92590000Y-98900000D03*
%TD*%
%TO.C,*%
X107410000Y-91190000D03*
%TD*%
%TO.C,*%
X94440000Y-91080000D03*
%TD*%
%TO.C,*%
X161240000Y-94530000D03*
%TD*%
%TO.C,*%
X136300000Y-105800000D03*
%TD*%
%TO.C,*%
X97740000Y-91100000D03*
%TD*%
%TO.C,*%
X96070000Y-100050000D03*
%TD*%
%TO.C,*%
X162720000Y-87230000D03*
%TD*%
%TO.C,*%
X92590000Y-89950000D03*
%TD*%
%TO.C,*%
X133300000Y-105700000D03*
%TD*%
%TO.C,*%
X115890000Y-94530000D03*
%TD*%
%TO.C,*%
X102420000Y-102540000D03*
%TD*%
%TO.C,*%
X120880000Y-102510000D03*
%TD*%
%TO.C,*%
X95990000Y-94600000D03*
%TD*%
%TO.C,*%
X159800000Y-92090000D03*
%TD*%
%TO.C,*%
X96030000Y-92230000D03*
%TD*%
%TO.C,*%
X117950000Y-89430000D03*
%TD*%
%TO.C,*%
X117440000Y-102520000D03*
%TD*%
%TO.C,*%
X124190000Y-91200000D03*
%TD*%
%TO.C,*%
X159730000Y-99600000D03*
%TD*%
%TO.C,*%
X125820000Y-102560002D03*
%TD*%
%TO.C,*%
X94450000Y-92230000D03*
%TD*%
%TO.C,*%
X140690000Y-105830000D03*
%TD*%
%TO.C,*%
X107560000Y-102560000D03*
%TD*%
D15*
%TO.C,J4*%
X153244000Y-84694400D03*
X153244000Y-79694400D03*
X149744000Y-84694400D03*
X149744000Y-79694400D03*
X146244000Y-84694400D03*
X146244000Y-79694400D03*
X142744000Y-84694400D03*
X142744000Y-79694400D03*
%TD*%
D12*
%TO.C,*%
X117930000Y-92730000D03*
%TD*%
%TO.C,H1*%
X92088000Y-80264000D03*
X92790944Y-78566944D03*
X92790944Y-81961056D03*
X94488000Y-77864000D03*
D16*
X94488000Y-80264000D03*
D12*
X94488000Y-82664000D03*
X96185056Y-78566944D03*
X96185056Y-81961056D03*
X96888000Y-80264000D03*
%TD*%
%TO.C,*%
X137840000Y-107020000D03*
%TD*%
%TO.C,*%
X159690000Y-89780000D03*
%TD*%
%TO.C,*%
X122280000Y-89980000D03*
%TD*%
%TO.C,*%
X97400000Y-84570000D03*
%TD*%
%TO.C,*%
X117460000Y-101200000D03*
%TD*%
%TO.C,H4*%
X158128000Y-104093944D03*
X158830944Y-102396888D03*
X158830944Y-105791000D03*
X160528000Y-101693944D03*
D16*
X160528000Y-104093944D03*
D12*
X160528000Y-106493944D03*
X162225056Y-102396888D03*
X162225056Y-105791000D03*
X162928000Y-104093944D03*
%TD*%
%TO.C,*%
X120850000Y-98160000D03*
%TD*%
%TO.C,*%
X159660000Y-85090000D03*
%TD*%
%LPD*%
M02*
