M48
; DRILL file {KiCad 8.0.3} date 2024-08-06T18:37:16+0100
; FORMAT={-:-/ absolute / inch / decimal}
; #@! TF.CreationDate,2024-08-06T18:37:16+01:00
; #@! TF.GenerationSoftware,Kicad,Pcbnew,8.0.3
; #@! TF.FileFunction,Plated,1,4,PTH
FMAT,2
INCH
; #@! TA.AperFunction,Plated,PTH,ViaDrill
T1C0.0118
; #@! TA.AperFunction,Plated,PTH,ComponentDrill
T2C0.0118
; #@! TA.AperFunction,Plated,PTH,ViaDrill
T3C0.0157
; #@! TA.AperFunction,Plated,PTH,ComponentDrill
T4C0.0157
; #@! TA.AperFunction,Plated,PTH,ComponentDrill
T5C0.0197
; #@! TA.AperFunction,Plated,PTH,ViaDrill
T6C0.0236
; #@! TA.AperFunction,Plated,PTH,ComponentDrill
T7C0.0236
; #@! TA.AperFunction,Plated,PTH,ComponentDrill
T8C0.0430
; #@! TA.AperFunction,Plated,PTH,ComponentDrill
T9C0.0433
; #@! TA.AperFunction,Plated,PTH,ComponentDrill
T10C0.1260
%
G90
G05
T1
X5.015Y-3.9618
X5.089Y-3.6472
X5.0898Y-3.5937
X5.09Y-3.694
X5.1591Y-3.9051
X5.1776Y-3.7831
X5.2004Y-3.876
T2
X5.0632Y-3.7506
X5.0632Y-3.8294
X5.1084Y-3.7506
X5.1084Y-3.8294
X5.136Y-3.7506
X5.136Y-3.79
X5.136Y-3.8294
T3
X4.9535Y-4.1437
X5.1142Y-4.0327
X5.3146Y-4.0508
X5.3154Y-3.8827
X5.4366Y-3.9677
X5.722Y-3.9681
T4
X3.6445Y-3.7248
X3.6449Y-3.9386
X3.6453Y-3.5413
X3.6453Y-3.774
X3.6453Y-3.8937
X3.6457Y-3.5862
X3.6461Y-3.6315
X3.6461Y-3.6787
X3.65Y-3.3307
X3.6512Y-3.3929
X3.6555Y-3.4512
X3.7169Y-3.7244
X3.7177Y-3.5409
X3.7177Y-3.7736
X3.7181Y-3.5858
X3.7185Y-3.6311
X3.7185Y-3.6783
X3.7185Y-3.9386
X3.7189Y-3.8937
X3.7398Y-3.3307
X3.7409Y-3.3929
X3.7453Y-3.4512
X3.7791Y-3.7244
X3.7799Y-3.5409
X3.7799Y-3.7736
X3.7803Y-3.5858
X3.7807Y-3.6311
X3.7807Y-3.6783
X3.7823Y-3.939
X3.7827Y-3.8941
X3.8346Y-3.3295
X3.8358Y-3.3917
X3.8402Y-3.45
X3.8469Y-3.7252
X3.8472Y-3.9394
X3.8476Y-3.5417
X3.8476Y-3.7744
X3.8476Y-3.8945
X3.848Y-3.5866
X3.8484Y-3.6319
X3.8484Y-3.6791
X4.0252Y-3.5413
X4.0264Y-3.5898
X4.0323Y-4.037
X4.0976Y-3.5409
X4.0988Y-3.5894
X4.1059Y-4.037
X4.1598Y-3.5409
X4.161Y-3.5894
X4.1697Y-4.0374
X4.2276Y-3.5417
X4.2287Y-3.5902
X4.2346Y-4.0378
X4.4213Y-4.0354
X4.422Y-3.9835
X4.4949Y-4.0354
X4.4957Y-3.9835
X4.5587Y-4.0358
X4.5594Y-3.9839
X4.5622Y-3.587
X4.5622Y-3.6492
X4.5626Y-3.7217
X4.563Y-3.5193
X4.6236Y-4.0362
X4.6244Y-3.9843
X4.6429Y-3.5886
X4.6429Y-3.6508
X4.6433Y-3.7232
X4.6437Y-3.5209
X4.6843Y-3.8646
X4.6843Y-3.9839
X4.6854Y-4.0358
X4.6866Y-3.9102
X4.7579Y-3.8646
X4.7579Y-3.9839
X4.7591Y-4.0358
X4.7602Y-3.9102
X4.8142Y-3.5425
X4.8169Y-3.5909
X4.8217Y-3.865
X4.8217Y-3.9843
X4.8228Y-4.0362
X4.824Y-3.9106
X4.8866Y-3.5421
X4.8866Y-3.8654
X4.8866Y-3.9846
X4.8878Y-4.0366
X4.889Y-3.911
X4.8894Y-3.5906
X4.9488Y-3.5421
X4.9516Y-3.5906
X4.9516Y-3.9811
X4.9535Y-4.0378
X5.0165Y-3.5429
X5.0193Y-3.5913
X5.248Y-4.1614
X5.2488Y-4.2083
X5.3079Y-4.1638
X5.3087Y-4.2106
X5.3661Y-4.1654
X5.3669Y-4.2122
X5.426Y-4.1665
X5.4268Y-4.2134
X5.4815Y-4.1681
X5.4823Y-4.215
X5.539Y-4.1665
X5.5398Y-4.2134
X5.5996Y-4.1654
X5.6004Y-4.2122
X5.6579Y-4.1665
X5.6587Y-4.2134
X5.7209Y-4.1673
X5.7217Y-4.2142
X6.2858Y-3.35
X6.2858Y-3.4398
X6.287Y-3.5346
X6.2886Y-3.9213
X6.2898Y-3.726
X6.2898Y-3.8276
X6.2913Y-3.6256
X6.3441Y-3.3457
X6.3441Y-3.4354
X6.3453Y-3.5303
X6.3469Y-3.9169
X6.348Y-3.7217
X6.348Y-3.8232
X6.3496Y-3.6213
X6.4063Y-3.3445
X6.4063Y-3.4343
X6.4075Y-3.5291
X6.4091Y-3.9157
X6.4102Y-3.7205
X6.4102Y-3.822
X6.4118Y-3.6201
T5
X3.6255Y-3.16
X3.6255Y-4.1
X3.6532Y-3.0932
X3.6532Y-3.2268
X3.6532Y-4.0332
X3.6532Y-4.1668
X3.72Y-3.0655
X3.72Y-3.2545
X3.72Y-4.0055
X3.72Y-4.1945
X3.7868Y-3.0932
X3.7868Y-3.2268
X3.7868Y-4.0332
X3.7868Y-4.1668
X3.8145Y-3.16
X3.8145Y-4.1
X6.2255Y-3.1568
X6.2255Y-4.0982
X6.2532Y-3.09
X6.2532Y-3.2236
X6.2532Y-4.0314
X6.2532Y-4.165
X6.32Y-3.0623
X6.32Y-3.2513
X6.32Y-4.0037
X6.32Y-4.1927
X6.3868Y-3.09
X6.3868Y-3.2236
X6.3868Y-4.0314
X6.3868Y-4.165
X6.4145Y-3.1568
X6.4145Y-4.0982
T6
X5.2705Y-3.6366
X5.2717Y-3.513
T7
X5.0012Y-3.726
X5.0028Y-3.7669
X5.0028Y-3.8063
X5.0051Y-3.8445
T8
X4.0172Y-3.1381
X4.0172Y-3.335
X4.0362Y-3.7432
X4.0362Y-3.881
X4.155Y-3.1381
X4.155Y-3.335
X4.2331Y-3.7432
X4.2331Y-3.881
X5.1902Y-3.136
X5.1902Y-3.3329
X5.328Y-3.136
X5.328Y-3.3329
T9
X4.4186Y-3.138
X4.4186Y-3.3349
X4.5564Y-3.138
X4.5564Y-3.3349
X4.6942Y-3.138
X4.6942Y-3.3349
X4.832Y-3.138
X4.832Y-3.3349
X5.6198Y-3.1376
X5.6198Y-3.3344
X5.7576Y-3.1376
X5.7576Y-3.3344
X5.8954Y-3.1376
X5.8954Y-3.3344
X6.0332Y-3.1376
X6.0332Y-3.3344
T10
X3.72Y-3.16
X3.72Y-4.1
X6.32Y-3.1568
X6.32Y-4.0982
M30
