%TF.GenerationSoftware,KiCad,Pcbnew,8.0.3*%
%TF.CreationDate,2024-08-06T18:37:16+01:00*%
%TF.ProjectId,DRV8243 DC Motor Driver Expander,44525638-3234-4332-9044-43204d6f746f,rev?*%
%TF.SameCoordinates,Original*%
%TF.FileFunction,Legend,Top*%
%TF.FilePolarity,Positive*%
%FSLAX46Y46*%
G04 Gerber Fmt 4.6, Leading zero omitted, Abs format (unit mm)*
G04 Created by KiCad (PCBNEW 8.0.3) date 2024-08-06 18:37:16*
%MOMM*%
%LPD*%
G01*
G04 APERTURE LIST*
G04 Aperture macros list*
%AMRoundRect*
0 Rectangle with rounded corners*
0 $1 Rounding radius*
0 $2 $3 $4 $5 $6 $7 $8 $9 X,Y pos of 4 corners*
0 Add a 4 corners polygon primitive as box body*
4,1,4,$2,$3,$4,$5,$6,$7,$8,$9,$2,$3,0*
0 Add four circle primitives for the rounded corners*
1,1,$1+$1,$2,$3*
1,1,$1+$1,$4,$5*
1,1,$1+$1,$6,$7*
1,1,$1+$1,$8,$9*
0 Add four rect primitives between the rounded corners*
20,1,$1+$1,$2,$3,$4,$5,0*
20,1,$1+$1,$4,$5,$6,$7,0*
20,1,$1+$1,$6,$7,$8,$9,0*
20,1,$1+$1,$8,$9,$2,$3,0*%
G04 Aperture macros list end*
%ADD10C,0.150000*%
%ADD11C,0.254000*%
%ADD12C,0.120000*%
%ADD13C,0.152400*%
%ADD14C,0.508000*%
%ADD15C,0.250000*%
%ADD16C,0.000000*%
%ADD17C,0.100000*%
%ADD18C,0.200000*%
%ADD19C,0.800000*%
%ADD20RoundRect,0.250000X0.400000X0.625000X-0.400000X0.625000X-0.400000X-0.625000X0.400000X-0.625000X0*%
%ADD21C,1.600200*%
%ADD22C,0.499999*%
%ADD23RoundRect,0.250001X-1.999999X-0.799999X1.999999X-0.799999X1.999999X0.799999X-1.999999X0.799999X0*%
%ADD24C,1.650000*%
%ADD25C,6.400000*%
%ADD26RoundRect,0.250000X0.412500X0.650000X-0.412500X0.650000X-0.412500X-0.650000X0.412500X-0.650000X0*%
%ADD27RoundRect,0.250000X-0.650000X0.412500X-0.650000X-0.412500X0.650000X-0.412500X0.650000X0.412500X0*%
G04 APERTURE END LIST*
D10*
X137143333Y-92724819D02*
X136810000Y-92248628D01*
X136571905Y-92724819D02*
X136571905Y-91724819D01*
X136571905Y-91724819D02*
X136952857Y-91724819D01*
X136952857Y-91724819D02*
X137048095Y-91772438D01*
X137048095Y-91772438D02*
X137095714Y-91820057D01*
X137095714Y-91820057D02*
X137143333Y-91915295D01*
X137143333Y-91915295D02*
X137143333Y-92058152D01*
X137143333Y-92058152D02*
X137095714Y-92153390D01*
X137095714Y-92153390D02*
X137048095Y-92201009D01*
X137048095Y-92201009D02*
X136952857Y-92248628D01*
X136952857Y-92248628D02*
X136571905Y-92248628D01*
X138095714Y-92724819D02*
X137524286Y-92724819D01*
X137810000Y-92724819D02*
X137810000Y-91724819D01*
X137810000Y-91724819D02*
X137714762Y-91867676D01*
X137714762Y-91867676D02*
X137619524Y-91962914D01*
X137619524Y-91962914D02*
X137524286Y-92010533D01*
X130283333Y-89255180D02*
X130283333Y-88540895D01*
X130283333Y-88540895D02*
X130330952Y-88398038D01*
X130330952Y-88398038D02*
X130426190Y-88302800D01*
X130426190Y-88302800D02*
X130569047Y-88255180D01*
X130569047Y-88255180D02*
X130664285Y-88255180D01*
X129902380Y-89255180D02*
X129283333Y-89255180D01*
X129283333Y-89255180D02*
X129616666Y-88874228D01*
X129616666Y-88874228D02*
X129473809Y-88874228D01*
X129473809Y-88874228D02*
X129378571Y-88826609D01*
X129378571Y-88826609D02*
X129330952Y-88778990D01*
X129330952Y-88778990D02*
X129283333Y-88683752D01*
X129283333Y-88683752D02*
X129283333Y-88445657D01*
X129283333Y-88445657D02*
X129330952Y-88350419D01*
X129330952Y-88350419D02*
X129378571Y-88302800D01*
X129378571Y-88302800D02*
X129473809Y-88255180D01*
X129473809Y-88255180D02*
X129759523Y-88255180D01*
X129759523Y-88255180D02*
X129854761Y-88302800D01*
X129854761Y-88302800D02*
X129902380Y-88350419D01*
X130949580Y-95504095D02*
X130140057Y-95504095D01*
X130140057Y-95504095D02*
X130044819Y-95551714D01*
X130044819Y-95551714D02*
X129997200Y-95599333D01*
X129997200Y-95599333D02*
X129949580Y-95694571D01*
X129949580Y-95694571D02*
X129949580Y-95885047D01*
X129949580Y-95885047D02*
X129997200Y-95980285D01*
X129997200Y-95980285D02*
X130044819Y-96027904D01*
X130044819Y-96027904D02*
X130140057Y-96075523D01*
X130140057Y-96075523D02*
X130949580Y-96075523D01*
X129949580Y-97075523D02*
X129949580Y-96504095D01*
X129949580Y-96789809D02*
X130949580Y-96789809D01*
X130949580Y-96789809D02*
X130806723Y-96694571D01*
X130806723Y-96694571D02*
X130711485Y-96599333D01*
X130711485Y-96599333D02*
X130663866Y-96504095D01*
X104474819Y-97160531D02*
X105189104Y-97160531D01*
X105189104Y-97160531D02*
X105331961Y-97208150D01*
X105331961Y-97208150D02*
X105427200Y-97303388D01*
X105427200Y-97303388D02*
X105474819Y-97446245D01*
X105474819Y-97446245D02*
X105474819Y-97541483D01*
X104474819Y-96208150D02*
X104474819Y-96684340D01*
X104474819Y-96684340D02*
X104951009Y-96731959D01*
X104951009Y-96731959D02*
X104903390Y-96684340D01*
X104903390Y-96684340D02*
X104855771Y-96589102D01*
X104855771Y-96589102D02*
X104855771Y-96351007D01*
X104855771Y-96351007D02*
X104903390Y-96255769D01*
X104903390Y-96255769D02*
X104951009Y-96208150D01*
X104951009Y-96208150D02*
X105046247Y-96160531D01*
X105046247Y-96160531D02*
X105284342Y-96160531D01*
X105284342Y-96160531D02*
X105379580Y-96208150D01*
X105379580Y-96208150D02*
X105427200Y-96255769D01*
X105427200Y-96255769D02*
X105474819Y-96351007D01*
X105474819Y-96351007D02*
X105474819Y-96589102D01*
X105474819Y-96589102D02*
X105427200Y-96684340D01*
X105427200Y-96684340D02*
X105379580Y-96731959D01*
X138453333Y-95929580D02*
X138405714Y-95977200D01*
X138405714Y-95977200D02*
X138262857Y-96024819D01*
X138262857Y-96024819D02*
X138167619Y-96024819D01*
X138167619Y-96024819D02*
X138024762Y-95977200D01*
X138024762Y-95977200D02*
X137929524Y-95881961D01*
X137929524Y-95881961D02*
X137881905Y-95786723D01*
X137881905Y-95786723D02*
X137834286Y-95596247D01*
X137834286Y-95596247D02*
X137834286Y-95453390D01*
X137834286Y-95453390D02*
X137881905Y-95262914D01*
X137881905Y-95262914D02*
X137929524Y-95167676D01*
X137929524Y-95167676D02*
X138024762Y-95072438D01*
X138024762Y-95072438D02*
X138167619Y-95024819D01*
X138167619Y-95024819D02*
X138262857Y-95024819D01*
X138262857Y-95024819D02*
X138405714Y-95072438D01*
X138405714Y-95072438D02*
X138453333Y-95120057D01*
X138834286Y-95120057D02*
X138881905Y-95072438D01*
X138881905Y-95072438D02*
X138977143Y-95024819D01*
X138977143Y-95024819D02*
X139215238Y-95024819D01*
X139215238Y-95024819D02*
X139310476Y-95072438D01*
X139310476Y-95072438D02*
X139358095Y-95120057D01*
X139358095Y-95120057D02*
X139405714Y-95215295D01*
X139405714Y-95215295D02*
X139405714Y-95310533D01*
X139405714Y-95310533D02*
X139358095Y-95453390D01*
X139358095Y-95453390D02*
X138786667Y-96024819D01*
X138786667Y-96024819D02*
X139405714Y-96024819D01*
D11*
X119616667Y-89014318D02*
X119616667Y-89921461D01*
X119616667Y-89921461D02*
X119556190Y-90102889D01*
X119556190Y-90102889D02*
X119435238Y-90223842D01*
X119435238Y-90223842D02*
X119253809Y-90284318D01*
X119253809Y-90284318D02*
X119132857Y-90284318D01*
X120160952Y-89135270D02*
X120221428Y-89074794D01*
X120221428Y-89074794D02*
X120342381Y-89014318D01*
X120342381Y-89014318D02*
X120644762Y-89014318D01*
X120644762Y-89014318D02*
X120765714Y-89074794D01*
X120765714Y-89074794D02*
X120826190Y-89135270D01*
X120826190Y-89135270D02*
X120886667Y-89256222D01*
X120886667Y-89256222D02*
X120886667Y-89377175D01*
X120886667Y-89377175D02*
X120826190Y-89558603D01*
X120826190Y-89558603D02*
X120100476Y-90284318D01*
X120100476Y-90284318D02*
X120886667Y-90284318D01*
D10*
X100283333Y-89525180D02*
X100283333Y-88810895D01*
X100283333Y-88810895D02*
X100330952Y-88668038D01*
X100330952Y-88668038D02*
X100426190Y-88572800D01*
X100426190Y-88572800D02*
X100569047Y-88525180D01*
X100569047Y-88525180D02*
X100664285Y-88525180D01*
X99283333Y-88525180D02*
X99854761Y-88525180D01*
X99569047Y-88525180D02*
X99569047Y-89525180D01*
X99569047Y-89525180D02*
X99664285Y-89382323D01*
X99664285Y-89382323D02*
X99759523Y-89287085D01*
X99759523Y-89287085D02*
X99854761Y-89239466D01*
X137048133Y-90007180D02*
X137000514Y-90054800D01*
X137000514Y-90054800D02*
X136857657Y-90102419D01*
X136857657Y-90102419D02*
X136762419Y-90102419D01*
X136762419Y-90102419D02*
X136619562Y-90054800D01*
X136619562Y-90054800D02*
X136524324Y-89959561D01*
X136524324Y-89959561D02*
X136476705Y-89864323D01*
X136476705Y-89864323D02*
X136429086Y-89673847D01*
X136429086Y-89673847D02*
X136429086Y-89530990D01*
X136429086Y-89530990D02*
X136476705Y-89340514D01*
X136476705Y-89340514D02*
X136524324Y-89245276D01*
X136524324Y-89245276D02*
X136619562Y-89150038D01*
X136619562Y-89150038D02*
X136762419Y-89102419D01*
X136762419Y-89102419D02*
X136857657Y-89102419D01*
X136857657Y-89102419D02*
X137000514Y-89150038D01*
X137000514Y-89150038D02*
X137048133Y-89197657D01*
X137381467Y-89102419D02*
X138000514Y-89102419D01*
X138000514Y-89102419D02*
X137667181Y-89483371D01*
X137667181Y-89483371D02*
X137810038Y-89483371D01*
X137810038Y-89483371D02*
X137905276Y-89530990D01*
X137905276Y-89530990D02*
X137952895Y-89578609D01*
X137952895Y-89578609D02*
X138000514Y-89673847D01*
X138000514Y-89673847D02*
X138000514Y-89911942D01*
X138000514Y-89911942D02*
X137952895Y-90007180D01*
X137952895Y-90007180D02*
X137905276Y-90054800D01*
X137905276Y-90054800D02*
X137810038Y-90102419D01*
X137810038Y-90102419D02*
X137524324Y-90102419D01*
X137524324Y-90102419D02*
X137429086Y-90054800D01*
X137429086Y-90054800D02*
X137381467Y-90007180D01*
X131973333Y-104249580D02*
X131925714Y-104297200D01*
X131925714Y-104297200D02*
X131782857Y-104344819D01*
X131782857Y-104344819D02*
X131687619Y-104344819D01*
X131687619Y-104344819D02*
X131544762Y-104297200D01*
X131544762Y-104297200D02*
X131449524Y-104201961D01*
X131449524Y-104201961D02*
X131401905Y-104106723D01*
X131401905Y-104106723D02*
X131354286Y-103916247D01*
X131354286Y-103916247D02*
X131354286Y-103773390D01*
X131354286Y-103773390D02*
X131401905Y-103582914D01*
X131401905Y-103582914D02*
X131449524Y-103487676D01*
X131449524Y-103487676D02*
X131544762Y-103392438D01*
X131544762Y-103392438D02*
X131687619Y-103344819D01*
X131687619Y-103344819D02*
X131782857Y-103344819D01*
X131782857Y-103344819D02*
X131925714Y-103392438D01*
X131925714Y-103392438D02*
X131973333Y-103440057D01*
X132925714Y-104344819D02*
X132354286Y-104344819D01*
X132640000Y-104344819D02*
X132640000Y-103344819D01*
X132640000Y-103344819D02*
X132544762Y-103487676D01*
X132544762Y-103487676D02*
X132449524Y-103582914D01*
X132449524Y-103582914D02*
X132354286Y-103630533D01*
D11*
X147658667Y-81498718D02*
X147658667Y-82405861D01*
X147658667Y-82405861D02*
X147598190Y-82587289D01*
X147598190Y-82587289D02*
X147477238Y-82708242D01*
X147477238Y-82708242D02*
X147295809Y-82768718D01*
X147295809Y-82768718D02*
X147174857Y-82768718D01*
X148807714Y-81922051D02*
X148807714Y-82768718D01*
X148505333Y-81438242D02*
X148202952Y-82345384D01*
X148202952Y-82345384D02*
X148989143Y-82345384D01*
D12*
%TO.C,R1*%
X134377064Y-91340000D02*
X132922936Y-91340000D01*
X134377064Y-93160000D02*
X132922936Y-93160000D01*
D13*
%TO.C,J3*%
X129199698Y-76529199D02*
X129199698Y-87781399D01*
X129199698Y-87781399D02*
X137962698Y-87781399D01*
X137962698Y-76529199D02*
X129199698Y-76529199D01*
X137962698Y-87781399D02*
X137962698Y-76529199D01*
D14*
X138978698Y-84654400D02*
G75*
G02*
X138216698Y-84654400I-381000J0D01*
G01*
X138216698Y-84654400D02*
G75*
G02*
X138978698Y-84654400I381000J0D01*
G01*
D10*
%TO.C,U1*%
X132529400Y-94716001D02*
X132704400Y-94716001D01*
X132529400Y-97815999D02*
X132704400Y-97815999D01*
X132704400Y-94716001D02*
X132704400Y-95016000D01*
X132704400Y-97516000D02*
X132704400Y-97815999D01*
D15*
X132154402Y-93941001D02*
G75*
G02*
X131904400Y-93941001I-125001J0D01*
G01*
X131904400Y-93941001D02*
G75*
G02*
X132154402Y-93941001I125001J0D01*
G01*
D13*
%TO.C,J5*%
X99393001Y-92445698D02*
X99393001Y-101208698D01*
X99393001Y-101208698D02*
X110645201Y-101208698D01*
X110645201Y-92445698D02*
X99393001Y-92445698D01*
X110645201Y-101208698D02*
X110645201Y-92445698D01*
D14*
X102901000Y-101843698D02*
G75*
G02*
X102139000Y-101843698I-381000J0D01*
G01*
X102139000Y-101843698D02*
G75*
G02*
X102901000Y-101843698I381000J0D01*
G01*
D12*
%TO.C,C2*%
X134360000Y-97574437D02*
X134360000Y-99460000D01*
X134360000Y-97574437D02*
X135424437Y-96510000D01*
X134360000Y-103965563D02*
X134360000Y-102080000D01*
X134360000Y-103965563D02*
X135424437Y-105030000D01*
X135424437Y-96510000D02*
X142880000Y-96510000D01*
X135424437Y-105030000D02*
X142880000Y-105030000D01*
X142880000Y-96510000D02*
X142880000Y-99460000D01*
X142880000Y-105030000D02*
X142880000Y-102080000D01*
D16*
%TO.C,kibuzzard-65BE5B0F*%
G36*
X123029850Y-104847353D02*
G01*
X123071522Y-104935459D01*
X122981034Y-105011659D01*
X122680997Y-105011659D01*
X122757197Y-104877119D01*
X122910787Y-104814016D01*
X123029850Y-104847353D01*
G37*
G36*
X103545272Y-104448494D02*
G01*
X103614328Y-104606847D01*
X103545272Y-104764009D01*
X103407159Y-104816397D01*
X103102359Y-104816397D01*
X103102359Y-104394916D01*
X103402397Y-104394916D01*
X103545272Y-104448494D01*
G37*
G36*
X106804012Y-105047378D02*
G01*
X106857591Y-105170012D01*
X106805203Y-105292647D01*
X106648041Y-105349797D01*
X106488497Y-105292647D01*
X106433728Y-105168822D01*
X106488497Y-105046187D01*
X106646850Y-104990228D01*
X106804012Y-105047378D01*
G37*
G36*
X106764722Y-104384200D02*
G01*
X106805203Y-104473497D01*
X106765912Y-104563984D01*
X106649231Y-104606847D01*
X106530169Y-104563984D01*
X106488497Y-104472306D01*
X106526597Y-104383009D01*
X106644469Y-104342528D01*
X106764722Y-104384200D01*
G37*
G36*
X117368428Y-104936650D02*
G01*
X117425578Y-105078334D01*
X117364856Y-105218828D01*
X117217219Y-105280741D01*
X117074344Y-105217637D01*
X117018384Y-105078334D01*
X117073153Y-104937841D01*
X117219600Y-104873547D01*
X117368428Y-104936650D01*
G37*
G36*
X118729312Y-104947366D02*
G01*
X118785272Y-105091431D01*
X118726931Y-105233116D01*
X118580484Y-105297409D01*
X118430466Y-105234306D01*
X118368553Y-105092622D01*
X118426894Y-104947366D01*
X118579294Y-104880691D01*
X118729312Y-104947366D01*
G37*
G36*
X121603481Y-104949747D02*
G01*
X121659441Y-105093812D01*
X121601100Y-105235497D01*
X121454653Y-105299791D01*
X121304634Y-105235497D01*
X121242722Y-105092622D01*
X121299872Y-104948556D01*
X121452272Y-104883072D01*
X121603481Y-104949747D01*
G37*
G36*
X101823926Y-104427360D02*
G01*
X101970075Y-104524694D01*
X102070980Y-104670248D01*
X102104616Y-104847353D01*
X102070087Y-105023863D01*
X101966503Y-105167631D01*
X101820056Y-105263179D01*
X101656941Y-105295028D01*
X101425959Y-105295028D01*
X101425959Y-104394916D01*
X101654559Y-104394916D01*
X101823926Y-104427360D01*
G37*
G36*
X125257060Y-103390218D02*
G01*
X125420910Y-103414523D01*
X125581590Y-103454771D01*
X125737551Y-103510575D01*
X125887291Y-103581397D01*
X126029368Y-103666555D01*
X126162414Y-103765228D01*
X126285148Y-103876468D01*
X126396387Y-103999202D01*
X126495061Y-104132248D01*
X126580219Y-104274325D01*
X126651041Y-104424065D01*
X126706844Y-104580026D01*
X126747092Y-104740705D01*
X126771397Y-104904556D01*
X126779525Y-105070000D01*
X126771397Y-105235444D01*
X126747092Y-105399295D01*
X126706844Y-105559974D01*
X126651041Y-105715935D01*
X126580219Y-105865675D01*
X126495061Y-106007752D01*
X126396387Y-106140798D01*
X126285148Y-106263532D01*
X126162414Y-106374772D01*
X126029368Y-106473445D01*
X125887291Y-106558603D01*
X125737551Y-106629425D01*
X125581590Y-106685229D01*
X125420910Y-106725477D01*
X125257060Y-106749782D01*
X125091616Y-106757909D01*
X124595522Y-106757909D01*
X123845428Y-106757909D01*
X122914359Y-106757909D01*
X121855894Y-106757909D01*
X120449766Y-106757909D01*
X119029350Y-106757909D01*
X116806453Y-106757909D01*
X116239716Y-106757909D01*
X114884784Y-106757909D01*
X112339228Y-106757909D01*
X110917622Y-106757909D01*
X109896066Y-106757909D01*
X108538753Y-106757909D01*
X106645659Y-106757909D01*
X105033553Y-106757909D01*
X103782206Y-106757909D01*
X101649797Y-106757909D01*
X101004478Y-106757909D01*
X100508384Y-106757909D01*
X100342940Y-106749782D01*
X100179090Y-106725477D01*
X100018410Y-106685229D01*
X99862449Y-106629425D01*
X99712709Y-106558603D01*
X99570632Y-106473445D01*
X99437586Y-106374772D01*
X99314852Y-106263532D01*
X99203613Y-106140798D01*
X99104939Y-106007752D01*
X99019781Y-105865675D01*
X98948959Y-105715935D01*
X98893156Y-105559974D01*
X98852908Y-105399295D01*
X98828603Y-105235444D01*
X98820475Y-105070000D01*
X98828603Y-104904556D01*
X98852908Y-104740705D01*
X98893156Y-104580026D01*
X98948959Y-104424065D01*
X99019781Y-104274325D01*
X99075956Y-104180603D01*
X101004478Y-104180603D01*
X101004478Y-105504578D01*
X101033053Y-105656978D01*
X101096156Y-105701627D01*
X101214028Y-105716509D01*
X101649797Y-105716509D01*
X101825191Y-105700287D01*
X101987041Y-105651620D01*
X102135349Y-105570509D01*
X102270112Y-105456953D01*
X102382106Y-105320701D01*
X102462101Y-105171501D01*
X102510098Y-105009353D01*
X102526097Y-104834256D01*
X102509726Y-104659830D01*
X102460612Y-104499691D01*
X102378757Y-104353839D01*
X102264159Y-104222275D01*
X102215012Y-104182984D01*
X102680878Y-104182984D01*
X102680878Y-105504578D01*
X102695166Y-105628403D01*
X102758269Y-105694483D01*
X102890428Y-105716509D01*
X103013062Y-105700436D01*
X103076166Y-105652216D01*
X103098787Y-105589112D01*
X103102359Y-105506959D01*
X103102359Y-105237878D01*
X103402397Y-105237878D01*
X103476216Y-105233116D01*
X103568820Y-105452455D01*
X103630732Y-105596124D01*
X103661953Y-105664122D01*
X103706006Y-105710556D01*
X103782206Y-105733178D01*
X103904841Y-105699841D01*
X104015569Y-105630784D01*
X104052478Y-105547441D01*
X104016759Y-105423616D01*
X103950084Y-105272009D01*
X103896109Y-105147391D01*
X103854834Y-105049759D01*
X103954053Y-104923289D01*
X104013584Y-104775651D01*
X104033428Y-104606847D01*
X104017950Y-104459209D01*
X103971516Y-104325859D01*
X103901269Y-104212750D01*
X103840547Y-104152028D01*
X104123916Y-104152028D01*
X104159634Y-104266328D01*
X104816859Y-105599828D01*
X104896631Y-105684363D01*
X105009741Y-105716509D01*
X105033553Y-105716509D01*
X105144281Y-105684363D01*
X105224053Y-105599828D01*
X105441172Y-105159297D01*
X106012247Y-105159297D01*
X106033810Y-105326778D01*
X106098501Y-105470447D01*
X106206319Y-105590303D01*
X106341389Y-105680261D01*
X106487835Y-105734236D01*
X106645659Y-105752228D01*
X106803483Y-105734104D01*
X106949930Y-105679732D01*
X107085000Y-105589112D01*
X107192818Y-105468859D01*
X107257508Y-105325588D01*
X107279072Y-105159297D01*
X107265677Y-105059880D01*
X107225494Y-104961653D01*
X107139769Y-104831875D01*
X107086191Y-104783059D01*
X107121909Y-104744959D01*
X107192156Y-104633041D01*
X107202911Y-104587797D01*
X107398134Y-104587797D01*
X107410041Y-104709241D01*
X107474930Y-104777106D01*
X107607684Y-104799728D01*
X107729128Y-104785441D01*
X107793422Y-104742578D01*
X107816044Y-104683047D01*
X107819616Y-104604466D01*
X107819616Y-104590178D01*
X107829141Y-104535409D01*
X107892244Y-104424681D01*
X108024403Y-104368722D01*
X108143466Y-104390153D01*
X108206569Y-104436587D01*
X108243478Y-104500881D01*
X108260147Y-104561603D01*
X108237823Y-104665783D01*
X108170850Y-104764009D01*
X108072326Y-104854199D01*
X107955347Y-104934269D01*
X107829141Y-105009873D01*
X107702934Y-105086669D01*
X107585955Y-105171798D01*
X107487431Y-105272406D01*
X107420459Y-105385813D01*
X107398134Y-105509341D01*
X107460047Y-105659359D01*
X107607684Y-105723653D01*
X108538753Y-105723653D01*
X108686391Y-105695078D01*
X108737587Y-105633166D01*
X108753066Y-105512912D01*
X108738778Y-105391469D01*
X108682819Y-105322413D01*
X108543516Y-105299791D01*
X108107747Y-105299791D01*
X108107747Y-105287884D01*
X108167278Y-105264072D01*
X108314916Y-105183705D01*
X108481603Y-105052141D01*
X108509550Y-105021184D01*
X108824503Y-105021184D01*
X108836409Y-105123578D01*
X108901298Y-105191444D01*
X109034053Y-105214066D01*
X109679372Y-105214066D01*
X109679372Y-105504578D01*
X109693659Y-105628403D01*
X109724616Y-105676028D01*
X109786528Y-105704603D01*
X109896066Y-105716509D01*
X110011556Y-105702222D01*
X110080612Y-105643881D01*
X110103234Y-105506959D01*
X110103234Y-105199778D01*
X110258016Y-105199778D01*
X110284209Y-105328366D01*
X110288972Y-105352178D01*
X110315166Y-105414091D01*
X110374102Y-105508745D01*
X110441372Y-105583159D01*
X110578955Y-105675764D01*
X110737705Y-105731326D01*
X110917622Y-105749847D01*
X111098861Y-105731458D01*
X111258405Y-105676293D01*
X111396253Y-105584350D01*
X111502086Y-105464097D01*
X111559830Y-105336700D01*
X111705816Y-105336700D01*
X111767728Y-105473622D01*
X111789159Y-105499816D01*
X111858216Y-105572444D01*
X111965372Y-105647453D01*
X112127297Y-105715319D01*
X112230286Y-105735857D01*
X112339228Y-105742703D01*
X112482368Y-105728680D01*
X112619686Y-105686611D01*
X112751184Y-105616497D01*
X112841672Y-105538809D01*
X112913109Y-105434331D01*
X112959544Y-105307232D01*
X112975022Y-105161678D01*
X112959841Y-105019101D01*
X112914300Y-104900931D01*
X112846137Y-104810741D01*
X112763091Y-104752103D01*
X112668436Y-104712515D01*
X112565447Y-104679475D01*
X112462458Y-104653579D01*
X112367803Y-104635422D01*
X112216594Y-104580653D01*
X112155872Y-104474687D01*
X112207069Y-104372294D01*
X112335656Y-104335384D01*
X112463053Y-104366341D01*
X112499962Y-104397297D01*
X112527347Y-104421109D01*
X112651172Y-104468734D01*
X112735706Y-104438969D01*
X112817859Y-104349672D01*
X112875009Y-104218703D01*
X112852411Y-104182984D01*
X113732259Y-104182984D01*
X113732259Y-105506959D01*
X113746547Y-105628403D01*
X113809650Y-105696269D01*
X113941809Y-105718891D01*
X114884784Y-105718891D01*
X115008609Y-105704603D01*
X115074689Y-105641500D01*
X115096716Y-105509341D01*
X115080642Y-105386706D01*
X115032422Y-105323603D01*
X114969319Y-105300981D01*
X114887166Y-105297409D01*
X114153741Y-105297409D01*
X114153741Y-105056903D01*
X114620466Y-105056903D01*
X114744291Y-105042616D01*
X114812156Y-104979513D01*
X114834778Y-104847353D01*
X114818705Y-104724719D01*
X114782312Y-104677094D01*
X115191966Y-104677094D01*
X115277691Y-104823541D01*
X115542009Y-105090241D01*
X115277691Y-105356941D01*
X115191966Y-105503387D01*
X115278881Y-105648644D01*
X115424137Y-105733178D01*
X115568203Y-105647453D01*
X115832522Y-105383134D01*
X116094459Y-105647453D01*
X116239716Y-105733178D01*
X116384972Y-105648644D01*
X116470697Y-105503387D01*
X116384972Y-105356941D01*
X116120653Y-105090241D01*
X116384972Y-104823541D01*
X116470697Y-104677094D01*
X116465818Y-104668759D01*
X116601666Y-104668759D01*
X116601666Y-106059409D01*
X116605238Y-106140372D01*
X116626669Y-106199903D01*
X116688581Y-106247528D01*
X116806453Y-106261816D01*
X116923134Y-106247528D01*
X116983856Y-106198712D01*
X117005287Y-106137991D01*
X117008859Y-106057028D01*
X117008859Y-105576016D01*
X117123755Y-105658169D01*
X117292228Y-105685553D01*
X117419890Y-105665180D01*
X117542524Y-105604061D01*
X117660131Y-105502197D01*
X117756043Y-105373345D01*
X117813590Y-105231264D01*
X117831154Y-105089050D01*
X117951834Y-105089050D01*
X117971414Y-105248197D01*
X118030151Y-105393850D01*
X118128047Y-105526009D01*
X118248829Y-105630520D01*
X118376226Y-105693226D01*
X118510237Y-105714128D01*
X118686748Y-105682577D01*
X118804322Y-105587922D01*
X118855519Y-105681981D01*
X119029350Y-105714128D01*
X119135018Y-105698650D01*
X119192466Y-105652216D01*
X119212706Y-105589112D01*
X119216278Y-105506959D01*
X119216278Y-104673522D01*
X119215864Y-104663997D01*
X119406778Y-104663997D01*
X119406778Y-105506959D01*
X119410350Y-105589112D01*
X119430591Y-105652216D01*
X119493098Y-105700436D01*
X119613947Y-105716509D01*
X119735986Y-105700436D01*
X119797303Y-105652216D01*
X119819925Y-105591494D01*
X119823497Y-105509341D01*
X119823497Y-105087859D01*
X119881837Y-104937841D01*
X120034237Y-104880691D01*
X120184256Y-104935459D01*
X120240216Y-105087859D01*
X120240216Y-105506959D01*
X120254503Y-105628403D01*
X120316416Y-105694483D01*
X120449766Y-105716509D01*
X120572400Y-105700436D01*
X120635503Y-105652216D01*
X120655744Y-105591494D01*
X120659316Y-105509341D01*
X120659316Y-105091431D01*
X120826003Y-105091431D01*
X120845582Y-105250446D01*
X120904320Y-105395702D01*
X121002216Y-105527200D01*
X121123924Y-105631049D01*
X121254099Y-105693358D01*
X121392741Y-105714128D01*
X121551689Y-105685553D01*
X121671347Y-105599828D01*
X121727009Y-105687339D01*
X121855894Y-105716509D01*
X121988946Y-105700436D01*
X122057109Y-105652216D01*
X122079731Y-105591494D01*
X122083303Y-105509341D01*
X122083303Y-105097384D01*
X122238084Y-105097384D01*
X122254753Y-105251107D01*
X122304759Y-105394776D01*
X122388103Y-105528391D01*
X122479484Y-105618580D01*
X122601225Y-105689125D01*
X122747970Y-105734666D01*
X122914359Y-105749847D01*
X123136262Y-105736601D01*
X123294764Y-105696864D01*
X123389865Y-105630636D01*
X123421566Y-105537916D01*
X123390609Y-105428378D01*
X123259641Y-105321222D01*
X123164391Y-105347416D01*
X123138197Y-105356941D01*
X123044733Y-105378372D01*
X122921503Y-105385516D01*
X122764341Y-105340272D01*
X122685759Y-105228353D01*
X123250116Y-105228353D01*
X123410850Y-105158106D01*
X123465321Y-105068809D01*
X123483478Y-104941413D01*
X123463238Y-104800621D01*
X123402516Y-104671141D01*
X123638259Y-104671141D01*
X123638259Y-105506959D01*
X123638259Y-105576016D01*
X123681122Y-105678409D01*
X123845428Y-105718891D01*
X123966872Y-105703413D01*
X124031166Y-105656978D01*
X124053788Y-105593875D01*
X124057359Y-105511722D01*
X124057359Y-105011659D01*
X124113319Y-104902122D01*
X124233572Y-104856878D01*
X124337156Y-104875928D01*
X124419309Y-104894978D01*
X124550278Y-104804491D01*
X124595522Y-104637803D01*
X124565756Y-104527075D01*
X124490747Y-104478259D01*
X124407403Y-104458019D01*
X124313344Y-104452066D01*
X124183566Y-104492547D01*
X124087125Y-104556841D01*
X124052597Y-104597322D01*
X124026403Y-104518741D01*
X123963895Y-104477664D01*
X123847809Y-104463972D01*
X123725175Y-104480045D01*
X123662072Y-104528266D01*
X123641831Y-104588987D01*
X123638259Y-104671141D01*
X123402516Y-104671141D01*
X123314112Y-104569045D01*
X123203681Y-104496119D01*
X123071224Y-104452363D01*
X122916741Y-104437778D01*
X122733781Y-104457754D01*
X122572253Y-104517682D01*
X122432156Y-104617562D01*
X122324339Y-104750780D01*
X122259648Y-104910721D01*
X122238084Y-105097384D01*
X122083303Y-105097384D01*
X122083303Y-104087734D01*
X122079731Y-104005581D01*
X122058300Y-103942478D01*
X121995197Y-103892472D01*
X121874944Y-103878184D01*
X121754691Y-103892472D01*
X121691587Y-103941287D01*
X121670156Y-104003200D01*
X121666584Y-104085353D01*
X121666584Y-104585416D01*
X121549308Y-104496119D01*
X121392741Y-104466353D01*
X121255290Y-104487255D01*
X121125511Y-104549961D01*
X121003406Y-104654472D01*
X120904849Y-104786631D01*
X120845715Y-104932284D01*
X120826003Y-105091431D01*
X120659316Y-105091431D01*
X120659316Y-105090241D01*
X120641721Y-104924479D01*
X120588936Y-104776445D01*
X120500962Y-104646137D01*
X120386530Y-104544934D01*
X120254371Y-104484213D01*
X120104484Y-104463972D01*
X119925891Y-104518741D01*
X119861597Y-104568747D01*
X119818734Y-104616372D01*
X119794922Y-104518741D01*
X119733605Y-104477664D01*
X119616328Y-104463972D01*
X119495480Y-104478855D01*
X119432972Y-104523503D01*
X119410350Y-104584225D01*
X119406778Y-104663997D01*
X119215864Y-104663997D01*
X119212706Y-104591369D01*
X119191275Y-104528266D01*
X119128172Y-104478259D01*
X118990059Y-104463972D01*
X118856114Y-104497309D01*
X118801941Y-104597322D01*
X118759078Y-104548506D01*
X118666209Y-104494928D01*
X118518572Y-104466353D01*
X118381121Y-104487123D01*
X118251343Y-104549432D01*
X118129237Y-104653281D01*
X118030680Y-104784779D01*
X117971546Y-104930035D01*
X117951834Y-105089050D01*
X117831154Y-105089050D01*
X117832772Y-105075953D01*
X117813457Y-104920643D01*
X117755514Y-104778561D01*
X117658941Y-104649709D01*
X117540804Y-104547845D01*
X117418170Y-104486726D01*
X117291037Y-104466353D01*
X117122862Y-104497309D01*
X117006478Y-104590178D01*
X116955281Y-104496119D01*
X116785022Y-104463972D01*
X116682033Y-104480045D01*
X116625478Y-104528266D01*
X116605238Y-104587797D01*
X116601666Y-104668759D01*
X116465818Y-104668759D01*
X116384972Y-104530647D01*
X116239716Y-104444922D01*
X116094459Y-104530647D01*
X115832522Y-104797347D01*
X115568203Y-104530647D01*
X115424137Y-104444922D01*
X115278881Y-104530647D01*
X115191966Y-104677094D01*
X114782312Y-104677094D01*
X114770484Y-104661616D01*
X114707381Y-104638994D01*
X114625228Y-104635422D01*
X114153741Y-104635422D01*
X114153741Y-104394916D01*
X114884784Y-104394916D01*
X115008609Y-104380628D01*
X115074689Y-104317525D01*
X115096716Y-104185366D01*
X115080642Y-104062731D01*
X115032422Y-103999628D01*
X114969319Y-103977006D01*
X114887166Y-103973434D01*
X113948953Y-103973434D01*
X113777503Y-104017487D01*
X113732259Y-104182984D01*
X112852411Y-104182984D01*
X112801191Y-104102022D01*
X112741659Y-104056778D01*
X112578544Y-103981769D01*
X112454421Y-103954087D01*
X112317797Y-103944859D01*
X112150977Y-103962190D01*
X112009293Y-104014180D01*
X111892744Y-104100831D01*
X111806093Y-104210766D01*
X111754102Y-104332606D01*
X111736772Y-104466353D01*
X111751952Y-104607740D01*
X111797494Y-104727100D01*
X111865657Y-104820862D01*
X111948703Y-104885453D01*
X112042762Y-104932185D01*
X112143966Y-104972369D01*
X112245169Y-105004218D01*
X112339228Y-105025947D01*
X112490437Y-105079525D01*
X112551159Y-105171203D01*
X112526553Y-105271745D01*
X112452734Y-105332070D01*
X112329703Y-105352178D01*
X112215403Y-105315269D01*
X112120153Y-105237878D01*
X112014187Y-105148581D01*
X111934416Y-105118816D01*
X111808209Y-105175966D01*
X111731414Y-105266155D01*
X111705816Y-105336700D01*
X111559830Y-105336700D01*
X111565586Y-105324000D01*
X111586753Y-105164059D01*
X111567108Y-105042616D01*
X111508172Y-104935459D01*
X111433162Y-104858069D01*
X111362916Y-104806872D01*
X111362916Y-104790203D01*
X111466103Y-104715458D01*
X111528016Y-104615049D01*
X111548653Y-104488975D01*
X111529868Y-104354699D01*
X111473511Y-104229683D01*
X111379584Y-104113928D01*
X111253114Y-104021324D01*
X111099126Y-103965761D01*
X110917622Y-103947241D01*
X110799452Y-103955575D01*
X110692594Y-103980578D01*
X110535431Y-104054397D01*
X110436609Y-104148456D01*
X110384222Y-104223466D01*
X110329453Y-104385391D01*
X110359219Y-104470520D01*
X110448516Y-104544934D01*
X110579484Y-104587797D01*
X110669972Y-104558031D01*
X110736647Y-104468734D01*
X110750934Y-104440159D01*
X110812847Y-104383009D01*
X110947387Y-104354434D01*
X111079547Y-104399678D01*
X111127172Y-104494928D01*
X111081928Y-104564580D01*
X110946197Y-104587797D01*
X110822372Y-104599703D01*
X110756292Y-104664592D01*
X110734266Y-104797347D01*
X110750339Y-104919386D01*
X110798559Y-104980703D01*
X110860472Y-105004516D01*
X110968819Y-105009278D01*
X111106931Y-105058094D01*
X111165272Y-105171203D01*
X111105741Y-105286694D01*
X111029541Y-105325091D01*
X110920003Y-105337891D01*
X110819991Y-105323603D01*
X110689022Y-105209303D01*
X110617584Y-105085478D01*
X110491378Y-105061666D01*
X110316356Y-105096194D01*
X110258016Y-105199778D01*
X110103234Y-105199778D01*
X110103234Y-104182984D01*
X110099662Y-104099641D01*
X110077041Y-104036537D01*
X110012747Y-103986531D01*
X109892494Y-103971053D01*
X109771050Y-103984150D01*
X109705566Y-104030584D01*
X109682944Y-104090116D01*
X109679372Y-104171078D01*
X109679372Y-104821159D01*
X109291228Y-104821159D01*
X109436484Y-104240134D01*
X109438866Y-104232991D01*
X109455534Y-104132978D01*
X109413862Y-104041300D01*
X109288847Y-103980578D01*
X109179309Y-103963909D01*
X109097156Y-103990103D01*
X109054294Y-104044872D01*
X109029291Y-104128216D01*
X108831647Y-104925934D01*
X108824503Y-105021184D01*
X108509550Y-105021184D01*
X108558994Y-104966416D01*
X108624478Y-104856878D01*
X108669127Y-104731862D01*
X108684009Y-104599703D01*
X108664166Y-104436058D01*
X108604634Y-104284849D01*
X108505416Y-104146075D01*
X108374315Y-104035611D01*
X108219136Y-103969333D01*
X108039881Y-103947241D01*
X107860758Y-103969069D01*
X107705977Y-104034553D01*
X107575537Y-104143694D01*
X107476980Y-104280351D01*
X107417846Y-104428385D01*
X107398134Y-104587797D01*
X107202911Y-104587797D01*
X107226684Y-104487784D01*
X107207634Y-104336972D01*
X107150484Y-104205209D01*
X107055234Y-104092497D01*
X106934055Y-104006507D01*
X106799118Y-103954914D01*
X106650422Y-103937716D01*
X106501197Y-103954649D01*
X106364672Y-104005449D01*
X106240847Y-104090116D01*
X106142951Y-104200711D01*
X106084214Y-104329299D01*
X106064634Y-104475878D01*
X106103925Y-104641375D01*
X106167028Y-104744959D01*
X106207509Y-104783059D01*
X106157503Y-104828303D01*
X106061062Y-104965225D01*
X106024451Y-105060773D01*
X106012247Y-105159297D01*
X105441172Y-105159297D01*
X105881278Y-104266328D01*
X105916997Y-104152028D01*
X105881873Y-104072256D01*
X105776503Y-103999628D01*
X105636009Y-103959147D01*
X105531234Y-104023441D01*
X105497897Y-104094878D01*
X105021647Y-105137866D01*
X104995751Y-105082799D01*
X104937112Y-104955700D01*
X104859722Y-104787524D01*
X104777569Y-104609228D01*
X104695713Y-104430932D01*
X104619216Y-104262756D01*
X104559387Y-104131787D01*
X104527537Y-104065113D01*
X104488247Y-104002009D01*
X104447766Y-103968672D01*
X104384662Y-103959147D01*
X104264409Y-103999628D01*
X104159039Y-104072256D01*
X104123916Y-104152028D01*
X103840547Y-104152028D01*
X103814353Y-104125834D01*
X103681268Y-104041168D01*
X103545536Y-103990368D01*
X103407159Y-103973434D01*
X102892809Y-103973434D01*
X102770175Y-103989508D01*
X102707072Y-104037728D01*
X102684450Y-104100831D01*
X102680878Y-104182984D01*
X102215012Y-104182984D01*
X102127982Y-104113407D01*
X101981386Y-104035645D01*
X101824372Y-103988987D01*
X101656941Y-103973434D01*
X101216409Y-103971053D01*
X101093775Y-103987127D01*
X101030672Y-104035347D01*
X101008050Y-104097259D01*
X101004478Y-104180603D01*
X99075956Y-104180603D01*
X99104939Y-104132248D01*
X99203613Y-103999202D01*
X99314852Y-103876468D01*
X99437586Y-103765228D01*
X99570632Y-103666555D01*
X99712709Y-103581397D01*
X99862449Y-103510575D01*
X100018410Y-103454771D01*
X100179090Y-103414523D01*
X100342940Y-103390218D01*
X100508384Y-103382091D01*
X101004478Y-103382091D01*
X124595522Y-103382091D01*
X125091616Y-103382091D01*
X125257060Y-103390218D01*
G37*
D17*
%TO.C,J2*%
X109732800Y-76705200D02*
X125232800Y-76705200D01*
X109732800Y-87705200D02*
X109732800Y-76705200D01*
X125232800Y-76705200D02*
X125232800Y-87705200D01*
X125232800Y-87705200D02*
X109732800Y-87705200D01*
D18*
X126732800Y-84705200D02*
X126732800Y-84705200D01*
X126932800Y-84705200D02*
X126932800Y-84705200D01*
X126732800Y-84705200D02*
G75*
G02*
X126932800Y-84705200I100000J0D01*
G01*
X126932800Y-84705200D02*
G75*
G02*
X126732800Y-84705200I-100000J0D01*
G01*
D13*
%TO.C,J1*%
X99405499Y-76583799D02*
X99405499Y-87835999D01*
X99405499Y-87835999D02*
X108168499Y-87835999D01*
X108168499Y-76583799D02*
X99405499Y-76583799D01*
X108168499Y-87835999D02*
X108168499Y-76583799D01*
D14*
X109184499Y-84709000D02*
G75*
G02*
X108422499Y-84709000I-381000J0D01*
G01*
X108422499Y-84709000D02*
G75*
G02*
X109184499Y-84709000I381000J0D01*
G01*
D16*
%TO.C,G\u002A\u002A\u002A*%
G36*
X151026097Y-106343537D02*
G01*
X151010609Y-106359025D01*
X150995122Y-106343537D01*
X151010609Y-106328049D01*
X151026097Y-106343537D01*
G37*
G36*
X146278440Y-92649091D02*
G01*
X146269202Y-92663169D01*
X146237784Y-92665360D01*
X146204732Y-92657795D01*
X146219070Y-92646645D01*
X146267481Y-92642952D01*
X146278440Y-92649091D01*
G37*
G36*
X149157035Y-106378110D02*
G01*
X149152073Y-106390000D01*
X149111039Y-106419819D01*
X149101953Y-106420976D01*
X149085159Y-106401891D01*
X149090122Y-106390000D01*
X149131155Y-106360181D01*
X149140241Y-106359025D01*
X149157035Y-106378110D01*
G37*
G36*
X152265122Y-98739025D02*
G01*
X152265122Y-98862927D01*
X152141219Y-98862927D01*
X152017317Y-98862927D01*
X152017317Y-98739025D01*
X152017317Y-98615122D01*
X152141219Y-98615122D01*
X152265122Y-98615122D01*
X152265122Y-98739025D01*
G37*
G36*
X152220550Y-98153770D02*
G01*
X152255804Y-98174035D01*
X152264845Y-98226912D01*
X152265122Y-98258903D01*
X152261371Y-98328317D01*
X152238210Y-98359165D01*
X152177780Y-98367075D01*
X152141219Y-98367317D01*
X152061889Y-98364035D01*
X152026634Y-98343770D01*
X152017594Y-98290893D01*
X152017317Y-98258903D01*
X152021068Y-98189488D01*
X152044228Y-98158640D01*
X152104659Y-98150730D01*
X152141219Y-98150488D01*
X152220550Y-98153770D01*
G37*
G36*
X153415553Y-106139458D02*
G01*
X153420047Y-106213486D01*
X153421121Y-106317276D01*
X153419085Y-106434798D01*
X153414247Y-106550023D01*
X153406916Y-106646922D01*
X153397402Y-106709466D01*
X153395687Y-106715244D01*
X153391132Y-106699748D01*
X153387072Y-106633620D01*
X153384019Y-106528180D01*
X153382689Y-106428720D01*
X153384132Y-106296952D01*
X153389959Y-106191893D01*
X153399166Y-106126489D01*
X153407330Y-106111220D01*
X153415553Y-106139458D01*
G37*
G36*
X147050793Y-105565965D02*
G01*
X147053376Y-105639815D01*
X147053397Y-105640618D01*
X147056611Y-105837375D01*
X147057365Y-106058384D01*
X147055659Y-106270783D01*
X147053360Y-106384033D01*
X147050762Y-106453406D01*
X147048426Y-106464550D01*
X147046446Y-106421183D01*
X147044919Y-106327028D01*
X147043939Y-106185804D01*
X147043602Y-106002805D01*
X147043961Y-105819651D01*
X147044954Y-105680882D01*
X147046488Y-105590006D01*
X147048465Y-105550531D01*
X147050793Y-105565965D01*
G37*
G36*
X156013170Y-100024512D02*
G01*
X156013170Y-107381220D01*
X151165487Y-107381220D01*
X146317805Y-107381220D01*
X146317805Y-100024512D01*
X146472683Y-100024512D01*
X146472683Y-107226342D01*
X151165487Y-107226342D01*
X155858292Y-107226342D01*
X155858292Y-100024512D01*
X155858292Y-92822683D01*
X151165487Y-92822683D01*
X146472683Y-92822683D01*
X146472683Y-100024512D01*
X146317805Y-100024512D01*
X146317805Y-92822683D01*
X146317805Y-92667805D01*
X151165487Y-92667805D01*
X156013170Y-92667805D01*
X156013170Y-100024512D01*
G37*
G36*
X150180277Y-101486608D02*
G01*
X150176605Y-101519085D01*
X150161752Y-101557025D01*
X150125204Y-101646824D01*
X150069155Y-101783182D01*
X149995801Y-101960798D01*
X149907335Y-102174373D01*
X149805953Y-102418606D01*
X149693850Y-102688196D01*
X149573220Y-102977844D01*
X149480784Y-103199512D01*
X149312885Y-103600113D01*
X149167308Y-103943551D01*
X149043816Y-104230361D01*
X148942169Y-104461077D01*
X148862130Y-104636234D01*
X148803461Y-104756367D01*
X148765924Y-104822010D01*
X148752503Y-104835767D01*
X148719623Y-104832923D01*
X148723824Y-104794018D01*
X148731416Y-104773816D01*
X148758570Y-104707001D01*
X148807309Y-104588483D01*
X148875365Y-104423731D01*
X148960468Y-104218215D01*
X149060347Y-103977405D01*
X149172734Y-103706771D01*
X149295357Y-103411782D01*
X149425948Y-103097909D01*
X149562236Y-102770623D01*
X149664263Y-102525793D01*
X149792222Y-102221664D01*
X149902175Y-101966274D01*
X149993329Y-101761354D01*
X150064890Y-101608639D01*
X150116065Y-101509861D01*
X150146059Y-101466754D01*
X150150223Y-101464878D01*
X150180277Y-101486608D01*
G37*
G36*
X150496242Y-101476072D02*
G01*
X150496788Y-101508757D01*
X150476067Y-101577237D01*
X150431979Y-101689969D01*
X150407332Y-101749343D01*
X150370813Y-101836703D01*
X150313467Y-101974194D01*
X150238239Y-102154735D01*
X150148077Y-102371251D01*
X150045927Y-102616663D01*
X149934736Y-102883893D01*
X149817450Y-103165862D01*
X149703735Y-103439337D01*
X149562930Y-103775955D01*
X149437696Y-104071128D01*
X149329161Y-104322324D01*
X149238455Y-104527012D01*
X149166706Y-104682659D01*
X149115044Y-104786734D01*
X149084596Y-104836705D01*
X149078765Y-104840983D01*
X149049616Y-104818482D01*
X149052308Y-104787012D01*
X149068417Y-104743834D01*
X149104928Y-104652340D01*
X149158247Y-104521329D01*
X149224779Y-104359600D01*
X149300932Y-104175953D01*
X149346434Y-104066829D01*
X149476474Y-103755460D01*
X149623687Y-103402744D01*
X149781461Y-103024540D01*
X149943184Y-102636704D01*
X150102242Y-102255092D01*
X150252023Y-101895562D01*
X150308761Y-101759311D01*
X150372783Y-101617558D01*
X150427654Y-101520011D01*
X150469426Y-101473462D01*
X150476529Y-101470727D01*
X150496242Y-101476072D01*
G37*
G36*
X152752001Y-101503363D02*
G01*
X152760100Y-101528941D01*
X152766749Y-101577162D01*
X152772055Y-101652604D01*
X152776125Y-101759841D01*
X152779065Y-101903449D01*
X152780981Y-102088003D01*
X152781981Y-102318079D01*
X152782170Y-102598253D01*
X152781655Y-102933100D01*
X152781065Y-103158212D01*
X152779662Y-103537917D01*
X152777772Y-103859700D01*
X152775292Y-104127591D01*
X152772117Y-104345617D01*
X152768141Y-104517807D01*
X152763260Y-104648191D01*
X152757369Y-104740795D01*
X152750363Y-104799650D01*
X152742138Y-104828784D01*
X152737500Y-104833476D01*
X152728759Y-104824688D01*
X152721352Y-104789335D01*
X152715185Y-104723369D01*
X152710162Y-104622745D01*
X152706190Y-104483416D01*
X152703176Y-104301334D01*
X152701023Y-104072454D01*
X152699638Y-103792729D01*
X152698928Y-103458112D01*
X152698780Y-103171118D01*
X152698977Y-102800179D01*
X152699648Y-102486639D01*
X152700911Y-102225948D01*
X152702884Y-102013554D01*
X152705685Y-101844906D01*
X152709434Y-101715454D01*
X152714248Y-101620646D01*
X152720245Y-101555932D01*
X152727544Y-101516760D01*
X152736264Y-101498580D01*
X152742345Y-101495854D01*
X152752001Y-101503363D01*
G37*
G36*
X150338920Y-101487696D02*
G01*
X150336943Y-101519085D01*
X150323341Y-101556216D01*
X150290059Y-101639863D01*
X150236622Y-101771178D01*
X150162552Y-101951312D01*
X150067372Y-102181415D01*
X149950605Y-102462639D01*
X149811772Y-102796134D01*
X149650397Y-103183053D01*
X149466003Y-103624546D01*
X149258113Y-104121764D01*
X149217347Y-104219214D01*
X149140618Y-104399013D01*
X149069640Y-104558592D01*
X149008490Y-104689319D01*
X148961245Y-104782560D01*
X148931981Y-104829682D01*
X148927236Y-104833563D01*
X148892273Y-104828730D01*
X148888780Y-104818186D01*
X148900069Y-104783245D01*
X148931415Y-104700422D01*
X148979036Y-104579017D01*
X149039152Y-104428331D01*
X149107979Y-104257662D01*
X149181738Y-104076310D01*
X149256646Y-103893575D01*
X149328922Y-103718757D01*
X149394784Y-103561156D01*
X149450451Y-103430071D01*
X149490298Y-103338903D01*
X149519794Y-103270695D01*
X149569064Y-103153937D01*
X149634447Y-102997428D01*
X149712283Y-102809963D01*
X149798911Y-102600343D01*
X149890670Y-102377364D01*
X149912387Y-102324451D01*
X150023799Y-102056395D01*
X150118760Y-101835298D01*
X150196173Y-101663543D01*
X150254939Y-101543513D01*
X150293961Y-101477590D01*
X150308435Y-101464878D01*
X150338920Y-101487696D01*
G37*
G36*
X152569856Y-101501873D02*
G01*
X152578438Y-101523048D01*
X152585568Y-101564059D01*
X152591376Y-101629582D01*
X152595991Y-101724298D01*
X152599542Y-101852883D01*
X152602158Y-102020016D01*
X152603968Y-102230375D01*
X152605101Y-102488639D01*
X152605686Y-102799486D01*
X152605853Y-103167594D01*
X152605853Y-103168537D01*
X152605685Y-103536958D01*
X152605093Y-103848099D01*
X152603951Y-104106628D01*
X152602129Y-104317216D01*
X152599500Y-104484531D01*
X152595935Y-104613245D01*
X152591307Y-104708026D01*
X152585486Y-104773543D01*
X152578345Y-104814468D01*
X152569755Y-104835468D01*
X152559922Y-104841220D01*
X152549805Y-104835075D01*
X152541258Y-104813527D01*
X152534153Y-104771907D01*
X152528361Y-104705546D01*
X152523754Y-104609773D01*
X152520202Y-104479920D01*
X152517576Y-104311318D01*
X152515748Y-104099296D01*
X152514589Y-103839185D01*
X152513970Y-103526317D01*
X152513763Y-103168537D01*
X152513879Y-102800292D01*
X152514421Y-102489320D01*
X152515517Y-102230941D01*
X152517296Y-102020477D01*
X152519886Y-101853250D01*
X152523416Y-101724580D01*
X152528014Y-101629790D01*
X152533809Y-101564201D01*
X152540929Y-101523134D01*
X152549502Y-101501911D01*
X152559658Y-101495854D01*
X152559694Y-101495854D01*
X152569856Y-101501873D01*
G37*
G36*
X147086887Y-101470728D02*
G01*
X147095489Y-101491389D01*
X147102644Y-101531530D01*
X147108480Y-101595819D01*
X147113124Y-101688924D01*
X147116705Y-101815512D01*
X147119352Y-101980253D01*
X147121194Y-102187814D01*
X147122358Y-102442863D01*
X147122974Y-102750069D01*
X147123169Y-103114099D01*
X147123170Y-103153049D01*
X147123009Y-103522905D01*
X147122441Y-103835479D01*
X147121336Y-104095439D01*
X147119567Y-104307452D01*
X147117004Y-104476187D01*
X147113520Y-104606312D01*
X147108986Y-104702495D01*
X147103273Y-104769404D01*
X147096253Y-104811708D01*
X147087798Y-104834074D01*
X147077779Y-104841170D01*
X147076707Y-104841220D01*
X147066527Y-104835370D01*
X147057925Y-104814709D01*
X147050770Y-104774568D01*
X147044934Y-104710279D01*
X147040290Y-104617174D01*
X147036709Y-104490585D01*
X147034062Y-104325845D01*
X147032220Y-104118284D01*
X147031056Y-103863234D01*
X147030440Y-103556029D01*
X147030245Y-103191998D01*
X147030244Y-103153049D01*
X147030405Y-102783192D01*
X147030973Y-102470619D01*
X147032078Y-102210659D01*
X147033847Y-101998646D01*
X147036410Y-101829911D01*
X147039894Y-101699786D01*
X147044428Y-101603603D01*
X147050141Y-101536693D01*
X147057161Y-101494390D01*
X147065616Y-101472024D01*
X147075635Y-101464928D01*
X147076707Y-101464878D01*
X147086887Y-101470728D01*
G37*
G36*
X147241765Y-101470728D02*
G01*
X147250368Y-101491389D01*
X147257522Y-101531530D01*
X147263358Y-101595819D01*
X147268002Y-101688924D01*
X147271583Y-101815512D01*
X147274230Y-101980253D01*
X147276072Y-102187814D01*
X147277236Y-102442863D01*
X147277852Y-102750069D01*
X147278047Y-103114099D01*
X147278048Y-103153049D01*
X147277887Y-103522905D01*
X147277319Y-103835479D01*
X147276214Y-104095439D01*
X147274445Y-104307452D01*
X147271882Y-104476187D01*
X147268398Y-104606312D01*
X147263864Y-104702495D01*
X147258151Y-104769404D01*
X147251131Y-104811708D01*
X147242676Y-104834074D01*
X147232657Y-104841170D01*
X147231585Y-104841220D01*
X147221406Y-104835370D01*
X147212803Y-104814709D01*
X147205648Y-104774568D01*
X147199812Y-104710279D01*
X147195168Y-104617174D01*
X147191587Y-104490585D01*
X147188940Y-104325845D01*
X147187098Y-104118284D01*
X147185934Y-103863234D01*
X147185318Y-103556029D01*
X147185123Y-103191998D01*
X147185122Y-103153049D01*
X147185283Y-102783192D01*
X147185851Y-102470619D01*
X147186956Y-102210659D01*
X147188725Y-101998646D01*
X147191288Y-101829911D01*
X147194772Y-101699786D01*
X147199306Y-101603603D01*
X147205019Y-101536693D01*
X147212039Y-101494390D01*
X147220494Y-101472024D01*
X147230513Y-101464928D01*
X147231585Y-101464878D01*
X147241765Y-101470728D01*
G37*
G36*
X147396643Y-101470728D02*
G01*
X147405246Y-101491389D01*
X147412400Y-101531530D01*
X147418236Y-101595819D01*
X147422880Y-101688924D01*
X147426461Y-101815512D01*
X147429108Y-101980253D01*
X147430950Y-102187814D01*
X147432114Y-102442863D01*
X147432730Y-102750069D01*
X147432925Y-103114099D01*
X147432927Y-103153049D01*
X147432765Y-103522905D01*
X147432197Y-103835479D01*
X147431092Y-104095439D01*
X147429323Y-104307452D01*
X147426760Y-104476187D01*
X147423276Y-104606312D01*
X147418742Y-104702495D01*
X147413029Y-104769404D01*
X147406009Y-104811708D01*
X147397554Y-104834074D01*
X147387535Y-104841170D01*
X147386463Y-104841220D01*
X147376284Y-104835370D01*
X147367681Y-104814709D01*
X147360526Y-104774568D01*
X147354691Y-104710279D01*
X147350046Y-104617174D01*
X147346465Y-104490585D01*
X147343818Y-104325845D01*
X147341976Y-104118284D01*
X147340812Y-103863234D01*
X147340196Y-103556029D01*
X147340001Y-103191998D01*
X147340000Y-103153049D01*
X147340161Y-102783192D01*
X147340729Y-102470619D01*
X147341834Y-102210659D01*
X147343604Y-101998646D01*
X147346166Y-101829911D01*
X147349650Y-101699786D01*
X147354184Y-101603603D01*
X147359897Y-101536693D01*
X147366917Y-101494390D01*
X147375372Y-101472024D01*
X147385391Y-101464928D01*
X147386463Y-101464878D01*
X147396643Y-101470728D01*
G37*
G36*
X147551521Y-101470728D02*
G01*
X147560124Y-101491389D01*
X147567278Y-101531530D01*
X147573114Y-101595819D01*
X147577758Y-101688924D01*
X147581339Y-101815512D01*
X147583986Y-101980253D01*
X147585828Y-102187814D01*
X147586992Y-102442863D01*
X147587608Y-102750069D01*
X147587803Y-103114099D01*
X147587805Y-103153049D01*
X147587644Y-103522905D01*
X147587075Y-103835479D01*
X147585970Y-104095439D01*
X147584201Y-104307452D01*
X147581638Y-104476187D01*
X147578154Y-104606312D01*
X147573620Y-104702495D01*
X147567907Y-104769404D01*
X147560888Y-104811708D01*
X147552432Y-104834074D01*
X147542413Y-104841170D01*
X147541341Y-104841220D01*
X147531162Y-104835370D01*
X147522559Y-104814709D01*
X147515404Y-104774568D01*
X147509569Y-104710279D01*
X147504924Y-104617174D01*
X147501343Y-104490585D01*
X147498696Y-104325845D01*
X147496854Y-104118284D01*
X147495690Y-103863234D01*
X147495074Y-103556029D01*
X147494879Y-103191998D01*
X147494878Y-103153049D01*
X147495039Y-102783192D01*
X147495607Y-102470619D01*
X147496712Y-102210659D01*
X147498482Y-101998646D01*
X147501044Y-101829911D01*
X147504528Y-101699786D01*
X147509062Y-101603603D01*
X147514775Y-101536693D01*
X147521795Y-101494390D01*
X147530250Y-101472024D01*
X147540269Y-101464928D01*
X147541341Y-101464878D01*
X147551521Y-101470728D01*
G37*
G36*
X152910345Y-101501713D02*
G01*
X152918977Y-101522418D01*
X152926149Y-101562657D01*
X152931991Y-101627119D01*
X152936633Y-101720494D01*
X152940206Y-101847472D01*
X152942839Y-102012741D01*
X152944664Y-102220990D01*
X152945809Y-102476909D01*
X152946406Y-102785187D01*
X152946585Y-103150514D01*
X152946585Y-103168537D01*
X152946422Y-103536566D01*
X152945847Y-103847333D01*
X152944729Y-104105529D01*
X152942939Y-104315842D01*
X152940345Y-104482961D01*
X152936818Y-104611576D01*
X152932227Y-104706376D01*
X152926442Y-104772050D01*
X152919334Y-104813287D01*
X152910770Y-104834777D01*
X152900622Y-104841209D01*
X152900122Y-104841220D01*
X152889899Y-104835360D01*
X152881266Y-104814656D01*
X152874094Y-104774417D01*
X152868252Y-104709954D01*
X152863610Y-104616579D01*
X152860037Y-104489602D01*
X152857404Y-104324333D01*
X152855580Y-104116084D01*
X152854434Y-103860164D01*
X152853837Y-103551886D01*
X152853659Y-103186559D01*
X152853658Y-103168537D01*
X152853821Y-102800508D01*
X152854396Y-102489740D01*
X152855514Y-102231544D01*
X152857304Y-102021232D01*
X152859898Y-101854113D01*
X152863425Y-101725498D01*
X152868016Y-101630698D01*
X152873801Y-101565024D01*
X152880910Y-101523786D01*
X152889473Y-101502296D01*
X152899621Y-101495864D01*
X152900122Y-101495854D01*
X152910345Y-101501713D01*
G37*
G36*
X153065223Y-101501713D02*
G01*
X153073855Y-101522418D01*
X153081027Y-101562657D01*
X153086869Y-101627119D01*
X153091511Y-101720494D01*
X153095084Y-101847472D01*
X153097717Y-102012741D01*
X153099542Y-102220990D01*
X153100687Y-102476909D01*
X153101284Y-102785187D01*
X153101463Y-103150514D01*
X153101463Y-103168537D01*
X153101300Y-103536566D01*
X153100725Y-103847333D01*
X153099607Y-104105529D01*
X153097817Y-104315842D01*
X153095223Y-104482961D01*
X153091696Y-104611576D01*
X153087105Y-104706376D01*
X153081320Y-104772050D01*
X153074212Y-104813287D01*
X153065648Y-104834777D01*
X153055500Y-104841209D01*
X153055000Y-104841220D01*
X153044777Y-104835360D01*
X153036144Y-104814656D01*
X153028972Y-104774417D01*
X153023130Y-104709954D01*
X153018488Y-104616579D01*
X153014915Y-104489602D01*
X153012282Y-104324333D01*
X153010458Y-104116084D01*
X153009312Y-103860164D01*
X153008715Y-103551886D01*
X153008537Y-103186559D01*
X153008536Y-103168537D01*
X153008699Y-102800508D01*
X153009274Y-102489740D01*
X153010392Y-102231544D01*
X153012183Y-102021232D01*
X153014776Y-101854113D01*
X153018303Y-101725498D01*
X153022894Y-101630698D01*
X153028679Y-101565024D01*
X153035788Y-101523786D01*
X153044351Y-101502296D01*
X153054499Y-101495864D01*
X153055000Y-101495854D01*
X153065223Y-101501713D01*
G37*
G36*
X150677910Y-101473165D02*
G01*
X150681189Y-101487301D01*
X150667504Y-101520318D01*
X150632098Y-101605374D01*
X150577109Y-101737335D01*
X150504679Y-101911070D01*
X150416948Y-102121446D01*
X150316056Y-102363331D01*
X150204143Y-102631591D01*
X150083351Y-102921095D01*
X149975966Y-103178430D01*
X149805748Y-103584521D01*
X149657964Y-103933243D01*
X149532475Y-104224916D01*
X149429135Y-104459862D01*
X149347803Y-104638401D01*
X149288337Y-104760855D01*
X149250593Y-104827545D01*
X149236982Y-104841220D01*
X149205347Y-104821154D01*
X149207011Y-104802500D01*
X149235075Y-104732312D01*
X149281345Y-104618545D01*
X149341409Y-104471879D01*
X149410854Y-104302995D01*
X149485266Y-104122573D01*
X149560231Y-103941291D01*
X149631337Y-103769830D01*
X149694171Y-103618870D01*
X149744318Y-103499091D01*
X149777367Y-103421173D01*
X149785459Y-103402669D01*
X149817908Y-103328021D01*
X149867705Y-103210531D01*
X149928756Y-103064701D01*
X149994966Y-102905032D01*
X150014028Y-102858781D01*
X150144474Y-102541989D01*
X150253586Y-102277724D01*
X150343519Y-102061189D01*
X150416425Y-101887583D01*
X150474460Y-101752110D01*
X150519778Y-101649970D01*
X150554532Y-101576365D01*
X150580878Y-101526496D01*
X150600968Y-101495565D01*
X150616959Y-101478774D01*
X150631002Y-101471324D01*
X150637648Y-101469664D01*
X150677910Y-101473165D01*
G37*
G36*
X152242912Y-95533625D02*
G01*
X152420355Y-95587761D01*
X152579793Y-95684633D01*
X152710767Y-95818326D01*
X152802816Y-95982922D01*
X152839944Y-96122615D01*
X152839806Y-96274424D01*
X152804276Y-96442505D01*
X152741160Y-96599129D01*
X152679129Y-96693933D01*
X152545407Y-96809338D01*
X152377458Y-96889736D01*
X152193817Y-96930116D01*
X152013020Y-96925466D01*
X151916583Y-96900093D01*
X151734707Y-96803509D01*
X151590040Y-96668200D01*
X151489229Y-96504111D01*
X151438925Y-96321184D01*
X151437668Y-96183812D01*
X151438518Y-96179937D01*
X151665866Y-96179937D01*
X151672481Y-96334756D01*
X151731070Y-96480302D01*
X151840875Y-96603814D01*
X151854401Y-96614281D01*
X151992785Y-96683396D01*
X152148407Y-96706406D01*
X152300131Y-96682072D01*
X152379218Y-96645034D01*
X152493986Y-96543962D01*
X152575141Y-96413155D01*
X152610284Y-96273507D01*
X152610828Y-96254668D01*
X152595190Y-96099773D01*
X152542693Y-95977896D01*
X152457551Y-95879042D01*
X152322169Y-95790003D01*
X152170110Y-95754958D01*
X152014538Y-95773614D01*
X151868618Y-95845676D01*
X151811593Y-95893516D01*
X151711984Y-96028604D01*
X151665866Y-96179937D01*
X151438518Y-96179937D01*
X151484114Y-95972091D01*
X151577209Y-95800270D01*
X151719719Y-95664523D01*
X151875855Y-95577237D01*
X152057925Y-95528145D01*
X152242912Y-95533625D01*
G37*
G36*
X153284898Y-105298026D02*
G01*
X153288227Y-105336829D01*
X153293492Y-105414268D01*
X153318292Y-105336829D01*
X153335976Y-105286184D01*
X153344366Y-105290578D01*
X153350399Y-105352317D01*
X153356768Y-105408341D01*
X153364326Y-105405870D01*
X153371128Y-105375549D01*
X153393935Y-105321132D01*
X153417246Y-105305854D01*
X153436004Y-105332637D01*
X153430579Y-105402653D01*
X153421198Y-105477512D01*
X153412898Y-105593569D01*
X153407037Y-105730070D01*
X153405749Y-105782104D01*
X153400279Y-106064756D01*
X153380244Y-105847927D01*
X153372976Y-105783894D01*
X153366846Y-105765825D01*
X153361545Y-105797007D01*
X153356762Y-105880724D01*
X153352189Y-106020262D01*
X153348162Y-106188659D01*
X153336116Y-106746220D01*
X153318292Y-106235122D01*
X153300469Y-105724025D01*
X153293893Y-106220789D01*
X153287317Y-106717554D01*
X153194390Y-106724635D01*
X153101463Y-106731716D01*
X153101463Y-106173171D01*
X153230256Y-106173171D01*
X153235124Y-106217145D01*
X153245880Y-106211890D01*
X153249971Y-106148473D01*
X153245880Y-106134451D01*
X153234574Y-106130560D01*
X153230256Y-106173171D01*
X153101463Y-106173171D01*
X153101463Y-106022398D01*
X153101679Y-105795059D01*
X153102762Y-105622033D01*
X153105364Y-105495683D01*
X153110137Y-105408369D01*
X153117734Y-105352455D01*
X153128806Y-105320303D01*
X153144006Y-105304273D01*
X153163414Y-105296879D01*
X153214947Y-105299398D01*
X153227543Y-105331985D01*
X153233661Y-105360412D01*
X153251411Y-105332558D01*
X153256341Y-105321342D01*
X153276226Y-105281968D01*
X153284898Y-105298026D01*
G37*
G36*
X152757650Y-105313866D02*
G01*
X152883138Y-105317863D01*
X152960974Y-105324232D01*
X152985304Y-105332607D01*
X152977561Y-105336829D01*
X152927240Y-105354349D01*
X152932218Y-105361788D01*
X152993048Y-105365192D01*
X153051235Y-105372962D01*
X153050756Y-105390584D01*
X153043751Y-105395505D01*
X153018398Y-105421050D01*
X153040899Y-105435381D01*
X153066254Y-105474065D01*
X153059302Y-105532058D01*
X153039472Y-105584155D01*
X153001796Y-105608548D01*
X152926781Y-105615430D01*
X152899531Y-105615610D01*
X152760731Y-105615610D01*
X152760731Y-106178333D01*
X152759764Y-106355728D01*
X152757076Y-106508113D01*
X152752985Y-106626185D01*
X152747812Y-106700640D01*
X152742059Y-106722384D01*
X152702411Y-106718037D01*
X152649132Y-106731943D01*
X152591135Y-106744776D01*
X152574403Y-106722221D01*
X152563106Y-106707730D01*
X152543902Y-106730732D01*
X152520260Y-106757137D01*
X152511844Y-106726977D01*
X152511224Y-106715244D01*
X152508572Y-106653293D01*
X152481951Y-106715244D01*
X152472572Y-106708480D01*
X152464724Y-106644617D01*
X152458675Y-106528495D01*
X152454695Y-106364954D01*
X152453152Y-106196403D01*
X152451265Y-105693049D01*
X152487990Y-105693049D01*
X152491338Y-105745950D01*
X152501034Y-105750607D01*
X152502269Y-105747846D01*
X152508397Y-105686353D01*
X152503417Y-105654919D01*
X152493557Y-105642287D01*
X152488194Y-105683430D01*
X152487990Y-105693049D01*
X152451265Y-105693049D01*
X152450975Y-105615610D01*
X152301729Y-105615610D01*
X152212185Y-105613366D01*
X152168310Y-105599879D01*
X152153836Y-105565018D01*
X152152483Y-105522683D01*
X152162074Y-105457280D01*
X152185179Y-105429294D01*
X152185571Y-105429282D01*
X152192890Y-105416180D01*
X152172195Y-105398781D01*
X152152357Y-105377289D01*
X152185344Y-105366880D01*
X152218658Y-105364614D01*
X152311585Y-105360475D01*
X152218658Y-105336829D01*
X152211754Y-105328110D01*
X152261261Y-105320996D01*
X152361649Y-105315848D01*
X152507390Y-105313027D01*
X152590366Y-105312606D01*
X152757650Y-105313866D01*
G37*
G36*
X148004975Y-101472530D02*
G01*
X148167041Y-101483351D01*
X148287658Y-101499315D01*
X148387318Y-101524706D01*
X148486517Y-101563811D01*
X148523816Y-101581009D01*
X148713238Y-101694792D01*
X148880383Y-101841486D01*
X149008666Y-102005509D01*
X149044036Y-102069683D01*
X149127334Y-102307696D01*
X149153947Y-102550409D01*
X149126881Y-102788897D01*
X149049140Y-103014233D01*
X148923730Y-103217490D01*
X148753656Y-103389742D01*
X148557644Y-103514481D01*
X148445863Y-103565394D01*
X148347352Y-103597409D01*
X148238520Y-103615937D01*
X148095773Y-103626391D01*
X148063334Y-103627891D01*
X147773658Y-103640560D01*
X147773658Y-103910827D01*
X147771565Y-104089564D01*
X147765790Y-104270593D01*
X147757088Y-104443369D01*
X147746215Y-104597342D01*
X147733927Y-104721965D01*
X147720979Y-104806690D01*
X147708127Y-104840969D01*
X147707000Y-104841220D01*
X147698101Y-104811908D01*
X147689772Y-104730630D01*
X147682618Y-104607371D01*
X147677246Y-104452116D01*
X147674582Y-104306890D01*
X147672564Y-104113422D01*
X147670973Y-103925175D01*
X147669916Y-103757821D01*
X147669498Y-103627032D01*
X147669607Y-103571220D01*
X147669915Y-103516045D01*
X147670065Y-103489174D01*
X147670755Y-103361877D01*
X147742683Y-103361877D01*
X147772385Y-103375556D01*
X147857060Y-103382465D01*
X147990056Y-103382210D01*
X148051042Y-103380186D01*
X148193845Y-103373390D01*
X148293041Y-103363324D01*
X148366948Y-103344900D01*
X148433883Y-103313031D01*
X148512165Y-103262628D01*
X148537977Y-103244937D01*
X148703474Y-103096811D01*
X148823425Y-102916978D01*
X148893980Y-102716300D01*
X148911288Y-102505641D01*
X148872876Y-102299966D01*
X148791397Y-102132415D01*
X148669205Y-101976561D01*
X148523215Y-101851470D01*
X148426683Y-101797061D01*
X148343230Y-101769688D01*
X148232088Y-101746114D01*
X148107903Y-101727733D01*
X147985324Y-101715941D01*
X147878999Y-101712132D01*
X147803574Y-101717701D01*
X147773699Y-101734044D01*
X147773658Y-101734866D01*
X147802132Y-101751362D01*
X147877646Y-101767405D01*
X147985338Y-101780067D01*
X148014267Y-101782274D01*
X148232167Y-101810556D01*
X148405850Y-101865299D01*
X148549273Y-101951655D01*
X148606159Y-102000777D01*
X148730441Y-102158655D01*
X148806492Y-102342663D01*
X148834121Y-102540081D01*
X148813140Y-102738189D01*
X148743361Y-102924266D01*
X148624595Y-103085593D01*
X148622294Y-103087905D01*
X148474083Y-103199996D01*
X148288581Y-103274178D01*
X148058772Y-103313029D01*
X147998231Y-103317276D01*
X147881195Y-103327076D01*
X147792350Y-103341046D01*
X147746126Y-103356668D01*
X147742683Y-103361877D01*
X147670755Y-103361877D01*
X147670793Y-103354881D01*
X147671622Y-103199512D01*
X147758170Y-103199512D01*
X147776203Y-103216154D01*
X147851229Y-103226696D01*
X147978528Y-103230485D01*
X147982578Y-103230488D01*
X148125770Y-103226228D01*
X148233180Y-103210011D01*
X148330600Y-103176683D01*
X148389169Y-103149242D01*
X148549338Y-103038836D01*
X148663708Y-102896888D01*
X148732200Y-102733658D01*
X148754736Y-102559408D01*
X148731238Y-102384398D01*
X148661627Y-102218890D01*
X148545824Y-102073145D01*
X148398209Y-101965216D01*
X148314942Y-101931278D01*
X148205214Y-101902636D01*
X148083722Y-101880961D01*
X147965162Y-101867929D01*
X147864230Y-101865211D01*
X147795624Y-101874481D01*
X147773658Y-101894110D01*
X147802179Y-101917068D01*
X147878940Y-101928724D01*
X147911524Y-101929512D01*
X148143870Y-101951352D01*
X148340520Y-102014856D01*
X148496720Y-102117000D01*
X148607722Y-102254757D01*
X148665690Y-102409649D01*
X148680082Y-102606146D01*
X148639529Y-102782417D01*
X148549366Y-102932522D01*
X148414932Y-103050520D01*
X148241561Y-103130472D01*
X148034590Y-103166436D01*
X147984572Y-103167856D01*
X147876742Y-103172514D01*
X147795175Y-103184050D01*
X147758170Y-103199512D01*
X147671622Y-103199512D01*
X147671737Y-103178044D01*
X147672443Y-103044634D01*
X147758170Y-103044634D01*
X147773298Y-103062054D01*
X147834501Y-103072298D01*
X147926360Y-103075686D01*
X148033454Y-103072542D01*
X148140364Y-103063189D01*
X148231670Y-103047947D01*
X148278491Y-103033760D01*
X148422048Y-102943427D01*
X148526139Y-102816096D01*
X148585400Y-102664837D01*
X148594465Y-102502716D01*
X148555539Y-102358918D01*
X148470394Y-102216326D01*
X148357434Y-102116737D01*
X148207964Y-102055209D01*
X148013287Y-102026801D01*
X147967256Y-102024628D01*
X147847380Y-102025991D01*
X147786750Y-102037370D01*
X147784341Y-102054443D01*
X147839129Y-102072889D01*
X147950091Y-102088384D01*
X147982991Y-102091044D01*
X148189231Y-102124846D01*
X148344639Y-102193547D01*
X148450058Y-102297875D01*
X148506330Y-102438557D01*
X148516957Y-102552188D01*
X148490488Y-102716703D01*
X148413549Y-102848479D01*
X148290279Y-102944029D01*
X148124819Y-102999868D01*
X147969084Y-103013611D01*
X147865467Y-103018286D01*
X147788539Y-103030398D01*
X147758170Y-103044634D01*
X147672443Y-103044634D01*
X147672847Y-102968366D01*
X147674072Y-102735551D01*
X147675050Y-102548248D01*
X147773658Y-102548248D01*
X147773658Y-102927503D01*
X148004015Y-102915871D01*
X148132468Y-102906038D01*
X148217580Y-102888866D01*
X148277924Y-102859164D01*
X148314292Y-102829157D01*
X148402320Y-102711678D01*
X148442099Y-102578620D01*
X148429595Y-102446761D01*
X148415107Y-102410076D01*
X148348989Y-102308703D01*
X148257351Y-102241232D01*
X148127884Y-102201137D01*
X147989505Y-102184437D01*
X147773658Y-102168993D01*
X147773658Y-102548248D01*
X147675050Y-102548248D01*
X147675358Y-102489303D01*
X147675756Y-102412930D01*
X147677024Y-102168993D01*
X147680064Y-101584180D01*
X147773658Y-101584180D01*
X147802230Y-101598113D01*
X147878478Y-101612609D01*
X147988198Y-101625241D01*
X148036794Y-101629124D01*
X148271485Y-101660751D01*
X148463671Y-101722674D01*
X148627732Y-101820656D01*
X148724358Y-101904702D01*
X148865675Y-102082673D01*
X148954195Y-102281071D01*
X148991551Y-102490737D01*
X148979378Y-102702513D01*
X148919308Y-102907241D01*
X148812975Y-103095762D01*
X148662014Y-103258918D01*
X148468056Y-103387551D01*
X148459064Y-103392027D01*
X148353075Y-103433593D01*
X148228715Y-103459100D01*
X148065533Y-103472566D01*
X148044695Y-103473471D01*
X147917169Y-103482020D01*
X147823998Y-103495018D01*
X147777012Y-103510607D01*
X147773658Y-103516045D01*
X147803591Y-103530987D01*
X147890195Y-103537861D01*
X148028674Y-103536351D01*
X148061528Y-103535043D01*
X148214727Y-103525206D01*
X148327688Y-103508326D01*
X148422082Y-103479662D01*
X148518418Y-103435072D01*
X148663426Y-103352163D01*
X148770030Y-103267885D01*
X148859254Y-103163362D01*
X148916776Y-103077397D01*
X149018080Y-102862954D01*
X149063245Y-102640640D01*
X149055905Y-102418873D01*
X148999693Y-102206068D01*
X148898242Y-102010642D01*
X148755185Y-101841012D01*
X148574156Y-101705594D01*
X148358787Y-101612804D01*
X148275487Y-101591856D01*
X148160228Y-101573353D01*
X148037791Y-101562214D01*
X147923478Y-101558672D01*
X147832593Y-101562963D01*
X147780440Y-101575320D01*
X147773658Y-101584180D01*
X147680064Y-101584180D01*
X147680731Y-101455981D01*
X148004975Y-101472530D01*
G37*
G36*
X147466732Y-105287822D02*
G01*
X147471305Y-105288424D01*
X147585192Y-105313445D01*
X147693667Y-105353734D01*
X147780626Y-105401395D01*
X147829967Y-105448533D01*
X147835609Y-105467051D01*
X147816208Y-105477874D01*
X147781402Y-105458275D01*
X147745470Y-105432804D01*
X147754142Y-105447122D01*
X147767463Y-105462226D01*
X147818803Y-105500235D01*
X147844767Y-105507195D01*
X147877368Y-105533745D01*
X147911481Y-105599502D01*
X147918399Y-105618902D01*
X147938095Y-105756988D01*
X147914809Y-105894426D01*
X147853415Y-106008014D01*
X147831882Y-106030713D01*
X147786387Y-106071694D01*
X147780795Y-106070542D01*
X147805909Y-106033781D01*
X147834229Y-105992440D01*
X147826568Y-105992710D01*
X147780868Y-106030838D01*
X147729655Y-106079348D01*
X147711707Y-106106050D01*
X147732448Y-106101726D01*
X147742683Y-106095732D01*
X147771290Y-106096716D01*
X147773658Y-106106810D01*
X147749610Y-106144035D01*
X147741317Y-106147813D01*
X147739118Y-106178770D01*
X147761197Y-106253774D01*
X147803856Y-106361603D01*
X147834243Y-106429737D01*
X147896892Y-106566529D01*
X147935748Y-106655697D01*
X147953623Y-106705563D01*
X147953325Y-106724453D01*
X147937665Y-106720690D01*
X147931182Y-106716879D01*
X147896928Y-106719047D01*
X147892462Y-106726383D01*
X147859598Y-106738951D01*
X147820122Y-106730863D01*
X147751951Y-106718608D01*
X147719451Y-106722845D01*
X147684634Y-106712670D01*
X147680257Y-106695326D01*
X147673719Y-106669935D01*
X147654757Y-106692725D01*
X147629846Y-106686868D01*
X147606185Y-106653293D01*
X147866585Y-106653293D01*
X147882073Y-106668781D01*
X147897561Y-106653293D01*
X147882073Y-106637805D01*
X147866585Y-106653293D01*
X147606185Y-106653293D01*
X147584949Y-106623160D01*
X147584500Y-106622317D01*
X147618780Y-106622317D01*
X147634268Y-106637805D01*
X147649756Y-106622317D01*
X147634268Y-106606829D01*
X147618780Y-106622317D01*
X147584500Y-106622317D01*
X147567986Y-106591342D01*
X147835609Y-106591342D01*
X147851097Y-106606829D01*
X147866585Y-106591342D01*
X147851097Y-106575854D01*
X147835609Y-106591342D01*
X147567986Y-106591342D01*
X147520484Y-106502243D01*
X147492609Y-106444920D01*
X147381037Y-106211204D01*
X147434416Y-106211204D01*
X147445705Y-106249850D01*
X147475983Y-106319751D01*
X147516459Y-106403450D01*
X147558343Y-106483492D01*
X147592842Y-106542419D01*
X147611167Y-106562776D01*
X147611384Y-106562599D01*
X147604201Y-106531489D01*
X147590094Y-106498415D01*
X147804634Y-106498415D01*
X147820122Y-106513903D01*
X147835609Y-106498415D01*
X147820122Y-106482927D01*
X147804634Y-106498415D01*
X147590094Y-106498415D01*
X147574228Y-106461215D01*
X147529407Y-106369867D01*
X147482280Y-106281991D01*
X147482037Y-106281585D01*
X147618780Y-106281585D01*
X147634268Y-106297073D01*
X147649756Y-106281585D01*
X147634268Y-106266098D01*
X147618780Y-106281585D01*
X147482037Y-106281585D01*
X147463511Y-106250610D01*
X147525853Y-106250610D01*
X147541341Y-106266098D01*
X147556829Y-106250610D01*
X147547627Y-106241408D01*
X147681972Y-106241408D01*
X147692068Y-106284495D01*
X147717396Y-106342857D01*
X147745838Y-106392309D01*
X147765274Y-106408665D01*
X147765626Y-106408357D01*
X147761405Y-106375429D01*
X147733708Y-106312880D01*
X147730859Y-106307556D01*
X147698509Y-106254146D01*
X147682333Y-106239672D01*
X147681972Y-106241408D01*
X147547627Y-106241408D01*
X147541341Y-106235122D01*
X147525853Y-106250610D01*
X147463511Y-106250610D01*
X147448188Y-106224991D01*
X147442899Y-106219634D01*
X147587805Y-106219634D01*
X147603292Y-106235122D01*
X147618780Y-106219634D01*
X147603292Y-106204146D01*
X147587805Y-106219634D01*
X147442899Y-106219634D01*
X147434429Y-106211054D01*
X147434416Y-106211204D01*
X147381037Y-106211204D01*
X147370274Y-106188659D01*
X147494878Y-106188659D01*
X147510366Y-106204146D01*
X147525853Y-106188659D01*
X147649756Y-106188659D01*
X147665244Y-106204146D01*
X147680731Y-106188659D01*
X147665244Y-106173171D01*
X147649756Y-106188659D01*
X147525853Y-106188659D01*
X147510366Y-106173171D01*
X147494878Y-106188659D01*
X147370274Y-106188659D01*
X147355487Y-106157683D01*
X147340381Y-106451951D01*
X147335113Y-106542230D01*
X147330506Y-106588539D01*
X147326229Y-106587674D01*
X147321952Y-106536431D01*
X147317343Y-106431609D01*
X147312072Y-106270004D01*
X147308391Y-106142195D01*
X147298713Y-105795953D01*
X147340000Y-105795953D01*
X147345611Y-105914625D01*
X147360351Y-106023534D01*
X147381077Y-106109206D01*
X147404650Y-106158168D01*
X147424980Y-106160467D01*
X147422471Y-106126730D01*
X147404461Y-106084933D01*
X147374520Y-106017089D01*
X147379494Y-105996614D01*
X147416431Y-106026881D01*
X147435694Y-106049268D01*
X147475333Y-106095529D01*
X147481847Y-106094132D01*
X147465981Y-106059049D01*
X147436898Y-105987701D01*
X147441246Y-105965356D01*
X147477128Y-105994455D01*
X147497645Y-106018293D01*
X147537284Y-106064553D01*
X147543798Y-106063156D01*
X147527932Y-106028073D01*
X147499958Y-105959031D01*
X147500967Y-105932207D01*
X147529275Y-105953849D01*
X147543229Y-105971240D01*
X147577063Y-106012199D01*
X147584976Y-105999036D01*
X147580963Y-105956581D01*
X147582571Y-105940854D01*
X147835609Y-105940854D01*
X147851097Y-105956342D01*
X147866585Y-105940854D01*
X147851097Y-105925366D01*
X147835609Y-105940854D01*
X147582571Y-105940854D01*
X147586843Y-105899057D01*
X147608455Y-105879731D01*
X147662172Y-105858284D01*
X147670406Y-105850705D01*
X147672306Y-105845346D01*
X147869030Y-105845346D01*
X147874726Y-105885521D01*
X147885299Y-105886001D01*
X147892694Y-105844544D01*
X147887745Y-105826631D01*
X147873991Y-105814898D01*
X147869030Y-105845346D01*
X147672306Y-105845346D01*
X147675715Y-105835730D01*
X147662662Y-105841598D01*
X147637890Y-105830514D01*
X147629105Y-105768093D01*
X147627319Y-105755000D01*
X147680731Y-105755000D01*
X147696219Y-105770488D01*
X147711707Y-105755000D01*
X147696219Y-105739512D01*
X147680731Y-105755000D01*
X147627319Y-105755000D01*
X147617321Y-105681705D01*
X147573240Y-105630096D01*
X147483773Y-105600359D01*
X147453485Y-105594945D01*
X147340000Y-105576528D01*
X147340000Y-105795953D01*
X147298713Y-105795953D01*
X147292580Y-105576528D01*
X147292433Y-105571279D01*
X147576568Y-105571279D01*
X147594001Y-105606467D01*
X147610033Y-105628651D01*
X147657024Y-105683596D01*
X147675967Y-105687361D01*
X147669101Y-105659492D01*
X147869030Y-105659492D01*
X147874726Y-105699668D01*
X147885299Y-105700147D01*
X147892694Y-105658690D01*
X147887745Y-105640778D01*
X147873991Y-105629045D01*
X147869030Y-105659492D01*
X147669101Y-105659492D01*
X147664171Y-105639479D01*
X147663578Y-105637926D01*
X147621871Y-105584896D01*
X147599894Y-105572129D01*
X147576568Y-105571279D01*
X147292433Y-105571279D01*
X147292373Y-105569146D01*
X147835609Y-105569146D01*
X147851097Y-105584634D01*
X147866585Y-105569146D01*
X147851097Y-105553659D01*
X147835609Y-105569146D01*
X147292373Y-105569146D01*
X147291508Y-105538171D01*
X147284778Y-106134943D01*
X147278048Y-106731716D01*
X147185122Y-106724635D01*
X147092195Y-106717554D01*
X147094372Y-105988472D01*
X147094980Y-105909878D01*
X147135206Y-105909878D01*
X147135888Y-106040221D01*
X147137832Y-106126207D01*
X147140770Y-106162669D01*
X147144436Y-106144443D01*
X147146071Y-106120252D01*
X147150302Y-105979268D01*
X147149621Y-105819146D01*
X147146170Y-105717569D01*
X147142323Y-105669337D01*
X147139061Y-105678398D01*
X147136649Y-105740092D01*
X147135353Y-105849761D01*
X147135206Y-105909878D01*
X147094980Y-105909878D01*
X147096096Y-105765798D01*
X147099684Y-105582311D01*
X147104914Y-105443138D01*
X147109351Y-105383293D01*
X147649756Y-105383293D01*
X147665244Y-105398781D01*
X147680731Y-105383293D01*
X147665244Y-105367805D01*
X147649756Y-105383293D01*
X147109351Y-105383293D01*
X147111048Y-105360399D01*
X147539288Y-105360399D01*
X147569735Y-105365360D01*
X147609911Y-105359664D01*
X147610391Y-105349091D01*
X147568933Y-105341696D01*
X147551021Y-105346645D01*
X147539288Y-105360399D01*
X147111048Y-105360399D01*
X147111566Y-105353410D01*
X147119416Y-105318255D01*
X147123170Y-105321342D01*
X147143721Y-105359278D01*
X147151531Y-105340334D01*
X147151969Y-105332527D01*
X147177038Y-105294960D01*
X147228990Y-105288163D01*
X147279653Y-105314500D01*
X147285318Y-105321342D01*
X147305320Y-105328444D01*
X147308550Y-105309607D01*
X147322205Y-105285615D01*
X147370767Y-105278896D01*
X147466732Y-105287822D01*
G37*
G36*
X150819234Y-101470971D02*
G01*
X150840505Y-101482178D01*
X150866785Y-101513575D01*
X150900552Y-101570425D01*
X150944281Y-101657992D01*
X151000451Y-101781538D01*
X151071538Y-101946326D01*
X151160019Y-102157618D01*
X151268371Y-102420677D01*
X151282877Y-102456098D01*
X151395022Y-102730064D01*
X151515162Y-103023567D01*
X151637256Y-103321851D01*
X151755265Y-103610159D01*
X151863149Y-103873735D01*
X151954867Y-104097824D01*
X151971459Y-104138363D01*
X152066541Y-104373378D01*
X152137671Y-104555679D01*
X152186173Y-104689113D01*
X152213370Y-104777526D01*
X152220587Y-104824764D01*
X152211389Y-104835315D01*
X152178403Y-104802269D01*
X152128467Y-104715906D01*
X152064393Y-104581621D01*
X151996470Y-104423049D01*
X151920304Y-104238329D01*
X151837268Y-104037606D01*
X151757675Y-103845777D01*
X151694925Y-103695122D01*
X151647763Y-103581791D01*
X151581455Y-103421833D01*
X151500411Y-103225919D01*
X151409041Y-103004720D01*
X151311755Y-102768908D01*
X151212963Y-102529153D01*
X151192743Y-102480042D01*
X151101877Y-102261928D01*
X151017657Y-102064751D01*
X150943091Y-101895167D01*
X150881191Y-101759835D01*
X150834964Y-101665412D01*
X150807421Y-101618556D01*
X150801681Y-101614953D01*
X150806846Y-101648686D01*
X150833273Y-101732416D01*
X150878307Y-101858991D01*
X150939296Y-102021260D01*
X151013585Y-102212069D01*
X151098519Y-102424268D01*
X151137640Y-102520277D01*
X151317384Y-102959147D01*
X151474771Y-103343587D01*
X151610972Y-103676477D01*
X151727163Y-103960696D01*
X151824514Y-104199122D01*
X151904200Y-104394636D01*
X151967394Y-104550115D01*
X152015268Y-104668440D01*
X152048996Y-104752489D01*
X152069750Y-104805141D01*
X152078703Y-104829276D01*
X152079268Y-104831473D01*
X152054345Y-104840446D01*
X152038455Y-104841220D01*
X152026226Y-104835473D01*
X152009642Y-104815496D01*
X151986914Y-104777180D01*
X151956251Y-104716420D01*
X151915864Y-104629107D01*
X151863961Y-104511134D01*
X151798753Y-104358395D01*
X151718449Y-104166783D01*
X151621261Y-103932190D01*
X151505396Y-103650509D01*
X151369066Y-103317634D01*
X151289137Y-103122073D01*
X151162924Y-102813389D01*
X151057904Y-102557339D01*
X150971994Y-102349145D01*
X150903113Y-102184029D01*
X150849176Y-102057213D01*
X150808104Y-101963919D01*
X150777812Y-101899367D01*
X150756218Y-101858781D01*
X150741241Y-101837381D01*
X150730798Y-101830390D01*
X150726440Y-101830873D01*
X150715924Y-101836891D01*
X150710746Y-101849398D01*
X150713066Y-101874353D01*
X150725048Y-101917718D01*
X150748853Y-101985455D01*
X150786643Y-102083525D01*
X150840581Y-102217888D01*
X150912829Y-102394507D01*
X151005548Y-102619342D01*
X151061510Y-102754728D01*
X151225574Y-103151701D01*
X151367337Y-103495264D01*
X151488279Y-103789215D01*
X151589877Y-104037352D01*
X151673607Y-104243471D01*
X151740947Y-104411370D01*
X151793375Y-104544846D01*
X151832368Y-104647697D01*
X151859404Y-104723720D01*
X151875960Y-104776713D01*
X151883513Y-104810472D01*
X151883540Y-104828795D01*
X151877520Y-104835480D01*
X151871015Y-104835373D01*
X151836041Y-104802367D01*
X151786520Y-104719375D01*
X151727405Y-104595215D01*
X151700310Y-104531464D01*
X151641891Y-104389937D01*
X151568390Y-104212306D01*
X151488541Y-104019658D01*
X151411077Y-103833078D01*
X151398797Y-103803537D01*
X151330807Y-103639386D01*
X151246336Y-103434488D01*
X151152227Y-103205492D01*
X151055317Y-102969046D01*
X150962449Y-102741798D01*
X150946994Y-102703903D01*
X150868614Y-102513072D01*
X150796845Y-102341040D01*
X150735309Y-102196274D01*
X150687630Y-102087239D01*
X150657430Y-102022404D01*
X150649453Y-102008500D01*
X150623315Y-101992083D01*
X150623137Y-102030856D01*
X150648622Y-102123899D01*
X150699471Y-102270290D01*
X150775388Y-102469109D01*
X150876076Y-102719434D01*
X150889855Y-102753002D01*
X151063183Y-103174658D01*
X151218396Y-103552670D01*
X151354787Y-103885307D01*
X151471649Y-104170840D01*
X151568278Y-104407541D01*
X151643966Y-104593679D01*
X151698008Y-104727527D01*
X151729698Y-104807353D01*
X151738536Y-104831507D01*
X151713613Y-104840449D01*
X151697723Y-104841220D01*
X151684873Y-104834683D01*
X151667093Y-104812310D01*
X151642573Y-104769950D01*
X151609498Y-104703457D01*
X151566057Y-104608681D01*
X151510437Y-104481476D01*
X151440825Y-104317693D01*
X151355410Y-104113183D01*
X151252378Y-103863799D01*
X151129916Y-103565392D01*
X150986214Y-103213815D01*
X150980376Y-103199512D01*
X150868041Y-102925217D01*
X150776427Y-102703922D01*
X150703423Y-102531033D01*
X150646922Y-102401958D01*
X150604816Y-102312105D01*
X150574995Y-102256881D01*
X150555351Y-102231693D01*
X150543775Y-102231950D01*
X150540201Y-102240787D01*
X150549341Y-102279021D01*
X150580717Y-102369816D01*
X150632517Y-102508638D01*
X150702933Y-102690953D01*
X150790154Y-102912228D01*
X150892370Y-103167928D01*
X151007771Y-103453521D01*
X151134548Y-103764473D01*
X151270889Y-104096249D01*
X151414986Y-104444316D01*
X151532854Y-104727200D01*
X151561849Y-104801393D01*
X151565038Y-104833410D01*
X151542133Y-104837525D01*
X151530671Y-104835558D01*
X151492691Y-104800747D01*
X151440606Y-104711071D01*
X151377067Y-104571307D01*
X151357511Y-104523663D01*
X151235964Y-104221707D01*
X150469998Y-104221707D01*
X149704033Y-104221707D01*
X149571768Y-104531464D01*
X149503344Y-104681662D01*
X149446871Y-104784956D01*
X149405240Y-104836329D01*
X149393145Y-104841220D01*
X149360777Y-104821642D01*
X149362389Y-104802500D01*
X149381873Y-104755401D01*
X149424340Y-104653706D01*
X149488740Y-104499921D01*
X149574022Y-104296550D01*
X149657434Y-104097805D01*
X149657441Y-104097789D01*
X149756097Y-104097789D01*
X149756097Y-104097805D01*
X149786561Y-104108609D01*
X149875970Y-104117237D01*
X150021355Y-104123562D01*
X150219744Y-104127453D01*
X150468165Y-104128781D01*
X150468536Y-104128781D01*
X150717023Y-104127456D01*
X150915482Y-104123569D01*
X151060941Y-104117248D01*
X151150429Y-104108622D01*
X151180975Y-104097821D01*
X151180975Y-104097805D01*
X151150512Y-104087001D01*
X151061102Y-104078373D01*
X150915717Y-104072048D01*
X150717329Y-104068157D01*
X150468908Y-104066829D01*
X150468536Y-104066829D01*
X150220049Y-104068154D01*
X150021590Y-104072041D01*
X149876131Y-104078362D01*
X149786643Y-104086988D01*
X149756097Y-104097789D01*
X149657441Y-104097789D01*
X149679135Y-104046099D01*
X149722461Y-103942927D01*
X149818048Y-103942927D01*
X149848444Y-103954109D01*
X149937385Y-103962952D01*
X150081506Y-103969296D01*
X150277440Y-103972979D01*
X150468536Y-103973903D01*
X150703369Y-103972455D01*
X150889073Y-103968220D01*
X151022282Y-103961357D01*
X151099629Y-103952027D01*
X151119024Y-103942927D01*
X151088629Y-103931744D01*
X150999687Y-103922901D01*
X150855566Y-103916558D01*
X150659633Y-103912875D01*
X150468536Y-103911951D01*
X150233704Y-103913399D01*
X150048000Y-103917634D01*
X149914791Y-103924497D01*
X149837443Y-103933827D01*
X149818048Y-103942927D01*
X149722461Y-103942927D01*
X149787501Y-103788049D01*
X149880000Y-103788049D01*
X149910313Y-103799641D01*
X149998692Y-103808709D01*
X150141294Y-103815051D01*
X150334277Y-103818465D01*
X150470364Y-103819025D01*
X150698639Y-103817460D01*
X150870266Y-103812819D01*
X150983756Y-103805183D01*
X151037619Y-103794633D01*
X151041585Y-103788049D01*
X151004108Y-103776799D01*
X150911038Y-103767770D01*
X150768705Y-103761295D01*
X150583438Y-103757705D01*
X150451220Y-103757073D01*
X150234860Y-103758715D01*
X150066253Y-103763497D01*
X149949415Y-103771199D01*
X149888365Y-103781605D01*
X149880000Y-103788049D01*
X149787501Y-103788049D01*
X149803030Y-103751070D01*
X149852563Y-103633171D01*
X149941951Y-103633171D01*
X149972123Y-103645381D01*
X150059529Y-103654774D01*
X150199503Y-103661066D01*
X150387380Y-103663976D01*
X150453048Y-103664146D01*
X150654518Y-103662318D01*
X150809497Y-103657021D01*
X150913322Y-103648537D01*
X150961327Y-103637151D01*
X150964146Y-103633171D01*
X150933974Y-103620961D01*
X150846568Y-103611568D01*
X150706594Y-103605275D01*
X150518717Y-103602366D01*
X150453048Y-103602195D01*
X150251579Y-103604024D01*
X150096600Y-103609321D01*
X149992775Y-103617804D01*
X149944770Y-103629191D01*
X149941951Y-103633171D01*
X149852563Y-103633171D01*
X149923978Y-103463188D01*
X150034878Y-103463188D01*
X150043770Y-103481732D01*
X150076313Y-103494674D01*
X150141309Y-103502941D01*
X150247559Y-103507463D01*
X150403864Y-103509166D01*
X150471894Y-103509268D01*
X150908911Y-103509268D01*
X150887607Y-103424085D01*
X150866714Y-103358538D01*
X150828724Y-103255611D01*
X150778314Y-103126530D01*
X150720163Y-102982519D01*
X150658950Y-102834801D01*
X150599351Y-102694600D01*
X150546047Y-102573141D01*
X150503715Y-102481648D01*
X150477033Y-102431344D01*
X150471218Y-102425122D01*
X150452883Y-102452099D01*
X150416513Y-102525648D01*
X150366764Y-102634692D01*
X150308291Y-102768157D01*
X150245750Y-102914968D01*
X150183795Y-103064048D01*
X150127083Y-103204323D01*
X150080268Y-103324717D01*
X150048006Y-103414156D01*
X150034953Y-103461564D01*
X150034878Y-103463188D01*
X149923978Y-103463188D01*
X149943660Y-103416342D01*
X150029753Y-103210838D01*
X150119057Y-102996587D01*
X150204456Y-102790735D01*
X150278834Y-102610428D01*
X150327521Y-102491424D01*
X150437917Y-102220456D01*
X150527873Y-102001551D01*
X150600010Y-101829272D01*
X150656946Y-101698183D01*
X150701302Y-101602846D01*
X150735697Y-101537825D01*
X150762751Y-101497684D01*
X150785084Y-101476985D01*
X150805316Y-101470293D01*
X150819234Y-101470971D01*
G37*
G36*
X154330267Y-105285308D02*
G01*
X154347716Y-105328313D01*
X154352782Y-105390919D01*
X154345396Y-105444368D01*
X154330692Y-105461206D01*
X154318957Y-105473462D01*
X154340487Y-105491707D01*
X154366892Y-105515349D01*
X154336732Y-105523765D01*
X154325000Y-105524386D01*
X154263048Y-105527037D01*
X154325000Y-105553659D01*
X154361429Y-105572606D01*
X154344209Y-105580462D01*
X154300773Y-105582457D01*
X154151973Y-105612598D01*
X154017292Y-105687419D01*
X153912755Y-105794931D01*
X153856283Y-105915115D01*
X153850835Y-106043020D01*
X153886550Y-106179373D01*
X153950762Y-106288418D01*
X153997478Y-106350256D01*
X154019082Y-106391492D01*
X154019225Y-106395163D01*
X154034690Y-106432350D01*
X154043441Y-106441626D01*
X154056436Y-106445141D01*
X154046104Y-106423456D01*
X154037700Y-106394033D01*
X154074491Y-106401159D01*
X154079857Y-106403276D01*
X154148976Y-106423522D01*
X154243699Y-106443037D01*
X154263048Y-106446189D01*
X154386951Y-106465297D01*
X154278536Y-106485522D01*
X154170122Y-106505747D01*
X154278536Y-106510299D01*
X154345184Y-106517175D01*
X154356172Y-106531976D01*
X154340487Y-106544878D01*
X154317356Y-106569591D01*
X154330003Y-106575379D01*
X154355382Y-106600336D01*
X154355604Y-106630061D01*
X154345093Y-106699277D01*
X154342857Y-106722988D01*
X154326063Y-106756785D01*
X154317256Y-106758314D01*
X154274905Y-106750703D01*
X154195789Y-106735563D01*
X154159180Y-106728407D01*
X154027469Y-106684268D01*
X154123658Y-106684268D01*
X154139146Y-106699756D01*
X154154634Y-106684268D01*
X154139146Y-106668781D01*
X154123658Y-106684268D01*
X154027469Y-106684268D01*
X153954848Y-106659931D01*
X153822472Y-106570406D01*
X153875853Y-106570406D01*
X153900821Y-106601449D01*
X153958209Y-106637243D01*
X154021745Y-106662714D01*
X154043638Y-106666684D01*
X154061362Y-106661551D01*
X154059126Y-106659406D01*
X153980920Y-106608033D01*
X153948597Y-106591342D01*
X154061707Y-106591342D01*
X154077195Y-106606829D01*
X154092683Y-106591342D01*
X154077195Y-106575854D01*
X154061707Y-106591342D01*
X153948597Y-106591342D01*
X153915505Y-106574254D01*
X153878897Y-106565843D01*
X153875853Y-106570406D01*
X153822472Y-106570406D01*
X153787100Y-106546484D01*
X153708352Y-106452187D01*
X153753980Y-106452187D01*
X153761672Y-106468227D01*
X153778975Y-106490671D01*
X153824188Y-106538828D01*
X153844369Y-106538619D01*
X153844878Y-106533183D01*
X153837547Y-106524228D01*
X154072032Y-106524228D01*
X154076284Y-106542643D01*
X154092683Y-106544878D01*
X154118179Y-106533545D01*
X154113333Y-106524228D01*
X154076572Y-106520521D01*
X154072032Y-106524228D01*
X153837547Y-106524228D01*
X153823710Y-106507327D01*
X153813324Y-106498415D01*
X153999756Y-106498415D01*
X154015244Y-106513903D01*
X154030731Y-106498415D01*
X154015244Y-106482927D01*
X153999756Y-106498415D01*
X153813324Y-106498415D01*
X153790670Y-106478976D01*
X153753980Y-106452187D01*
X153708352Y-106452187D01*
X153689702Y-106429855D01*
X153818895Y-106429855D01*
X153826432Y-106447165D01*
X153857621Y-106480419D01*
X153875552Y-106473598D01*
X153875853Y-106469267D01*
X153869983Y-106462277D01*
X154103008Y-106462277D01*
X154107260Y-106480691D01*
X154123658Y-106482927D01*
X154149155Y-106471593D01*
X154144309Y-106462277D01*
X154107548Y-106458569D01*
X154103008Y-106462277D01*
X153869983Y-106462277D01*
X153853852Y-106443068D01*
X153840092Y-106433506D01*
X153818895Y-106429855D01*
X153689702Y-106429855D01*
X153663834Y-106398879D01*
X153880846Y-106398879D01*
X153888383Y-106416190D01*
X153919572Y-106449443D01*
X153937503Y-106442622D01*
X153937805Y-106438292D01*
X153915803Y-106412092D01*
X153902043Y-106402530D01*
X153880846Y-106398879D01*
X153663834Y-106398879D01*
X153661241Y-106395774D01*
X153611825Y-106282524D01*
X153636060Y-106282524D01*
X153642263Y-106295012D01*
X153671799Y-106327037D01*
X153677232Y-106304453D01*
X153675013Y-106297309D01*
X153877882Y-106297309D01*
X153885574Y-106313349D01*
X153902878Y-106335793D01*
X153948090Y-106383950D01*
X153968272Y-106383740D01*
X153968780Y-106378305D01*
X153947612Y-106352449D01*
X153914573Y-106324098D01*
X153877882Y-106297309D01*
X153675013Y-106297309D01*
X153669713Y-106280250D01*
X153646908Y-106246516D01*
X153636608Y-106247213D01*
X153636060Y-106282524D01*
X153611825Y-106282524D01*
X153584792Y-106220573D01*
X153821914Y-106220573D01*
X153828116Y-106233061D01*
X153857652Y-106265086D01*
X153863086Y-106242502D01*
X153855567Y-106218298D01*
X153832762Y-106184564D01*
X153822461Y-106185262D01*
X153821914Y-106220573D01*
X153584792Y-106220573D01*
X153582580Y-106215503D01*
X153571089Y-106126707D01*
X153603111Y-106126707D01*
X153606460Y-106179608D01*
X153616156Y-106184266D01*
X153617391Y-106181504D01*
X153623109Y-106124126D01*
X153661470Y-106124126D01*
X153667165Y-106164302D01*
X153677738Y-106164782D01*
X153685133Y-106123324D01*
X153680184Y-106105412D01*
X153666430Y-106093679D01*
X153661470Y-106124126D01*
X153623109Y-106124126D01*
X153623519Y-106120012D01*
X153618539Y-106088577D01*
X153608679Y-106075946D01*
X153603316Y-106117088D01*
X153603111Y-106126707D01*
X153571089Y-106126707D01*
X153556423Y-106013379D01*
X153557464Y-106002805D01*
X153728787Y-106002805D01*
X153731280Y-106066555D01*
X153738300Y-106083009D01*
X153742258Y-106072861D01*
X153747692Y-106002805D01*
X153790738Y-106002805D01*
X153793231Y-106066555D01*
X153800251Y-106083009D01*
X153804209Y-106072861D01*
X153809979Y-105998475D01*
X153804834Y-105948959D01*
X153796675Y-105931791D01*
X153791542Y-105969022D01*
X153790738Y-106002805D01*
X153747692Y-106002805D01*
X153748028Y-105998475D01*
X153742883Y-105948959D01*
X153734723Y-105931791D01*
X153729590Y-105969022D01*
X153728787Y-106002805D01*
X153557464Y-106002805D01*
X153568133Y-105894390D01*
X153601964Y-105894390D01*
X153606832Y-105938364D01*
X153617587Y-105933110D01*
X153618087Y-105925366D01*
X153663915Y-105925366D01*
X153668783Y-105969340D01*
X153679539Y-105964085D01*
X153683630Y-105900668D01*
X153679539Y-105886646D01*
X153668233Y-105882755D01*
X153663915Y-105925366D01*
X153618087Y-105925366D01*
X153621679Y-105869692D01*
X153617587Y-105855671D01*
X153606282Y-105851780D01*
X153601964Y-105894390D01*
X153568133Y-105894390D01*
X153570209Y-105873294D01*
X153580907Y-105832439D01*
X153751951Y-105832439D01*
X153763284Y-105857936D01*
X153772601Y-105853090D01*
X153776308Y-105816329D01*
X153772601Y-105811789D01*
X153754186Y-105816041D01*
X153751951Y-105832439D01*
X153580907Y-105832439D01*
X153589018Y-105801464D01*
X153690000Y-105801464D01*
X153701333Y-105826960D01*
X153710650Y-105822114D01*
X153714357Y-105785353D01*
X153710650Y-105780813D01*
X153692235Y-105785065D01*
X153690000Y-105801464D01*
X153589018Y-105801464D01*
X153594227Y-105781571D01*
X153628048Y-105781571D01*
X153634100Y-105801080D01*
X153655149Y-105772857D01*
X153664134Y-105755000D01*
X153782927Y-105755000D01*
X153798414Y-105770488D01*
X153813902Y-105755000D01*
X153798414Y-105739512D01*
X153782927Y-105755000D01*
X153664134Y-105755000D01*
X153679720Y-105724025D01*
X153720975Y-105724025D01*
X153736463Y-105739512D01*
X153751951Y-105724025D01*
X153798858Y-105724025D01*
X153878071Y-105654329D01*
X153949262Y-105598376D01*
X153979856Y-105588256D01*
X153967556Y-105621114D01*
X153910069Y-105694092D01*
X153910038Y-105694127D01*
X153852978Y-105766862D01*
X153819203Y-105824937D01*
X153815142Y-105841261D01*
X153828032Y-105844419D01*
X153857886Y-105802242D01*
X153862233Y-105794410D01*
X153917096Y-105722994D01*
X153997782Y-105648340D01*
X154023615Y-105629034D01*
X154085555Y-105582454D01*
X154096112Y-105564464D01*
X154065572Y-105569711D01*
X154014893Y-105578077D01*
X154013482Y-105556604D01*
X154015103Y-105553887D01*
X154018147Y-105538171D01*
X154216585Y-105538171D01*
X154232073Y-105553659D01*
X154247561Y-105538171D01*
X154232073Y-105522683D01*
X154216585Y-105538171D01*
X154018147Y-105538171D01*
X154019442Y-105531488D01*
X153990629Y-105540996D01*
X153942361Y-105573780D01*
X153888336Y-105621210D01*
X153860241Y-105651460D01*
X153798858Y-105724025D01*
X153751951Y-105724025D01*
X153736463Y-105708537D01*
X153720975Y-105724025D01*
X153679720Y-105724025D01*
X153687513Y-105708537D01*
X153710829Y-105657106D01*
X153704218Y-105657298D01*
X153676221Y-105691225D01*
X153638976Y-105748822D01*
X153628048Y-105781571D01*
X153594227Y-105781571D01*
X153599173Y-105762684D01*
X153638038Y-105670776D01*
X153654839Y-105646585D01*
X153788813Y-105646585D01*
X153818688Y-105626229D01*
X153860366Y-105584634D01*
X153896138Y-105539762D01*
X153900943Y-105522683D01*
X153871068Y-105543039D01*
X153829390Y-105584634D01*
X153793618Y-105629506D01*
X153788813Y-105646585D01*
X153654839Y-105646585D01*
X153679453Y-105611143D01*
X153716071Y-105597356D01*
X153718826Y-105598794D01*
X153756505Y-105591261D01*
X153787161Y-105563786D01*
X153842989Y-105512012D01*
X153919603Y-105457498D01*
X153922317Y-105455828D01*
X153937045Y-105445244D01*
X154061707Y-105445244D01*
X154077195Y-105460732D01*
X154092683Y-105445244D01*
X154077195Y-105429756D01*
X154061707Y-105445244D01*
X153937045Y-105445244D01*
X153973224Y-105419244D01*
X153982837Y-105399835D01*
X153977602Y-105398896D01*
X153933835Y-105417941D01*
X153864935Y-105466491D01*
X153825306Y-105499448D01*
X153763711Y-105547788D01*
X153728759Y-105563736D01*
X153725674Y-105553655D01*
X153765661Y-105503852D01*
X153847126Y-105444128D01*
X153952739Y-105384037D01*
X153954382Y-105383293D01*
X154030731Y-105383293D01*
X154046219Y-105398781D01*
X154061707Y-105383293D01*
X154046219Y-105367805D01*
X154030731Y-105383293D01*
X153954382Y-105383293D01*
X154004945Y-105360399D01*
X154137093Y-105360399D01*
X154167540Y-105365360D01*
X154207716Y-105359664D01*
X154208196Y-105349091D01*
X154166738Y-105341696D01*
X154148826Y-105346645D01*
X154137093Y-105360399D01*
X154004945Y-105360399D01*
X154065167Y-105333132D01*
X154167080Y-105300967D01*
X154192178Y-105296511D01*
X154273988Y-105287074D01*
X154323951Y-105284236D01*
X154330267Y-105285308D01*
G37*
G36*
X151927340Y-93319460D02*
G01*
X152348167Y-93429482D01*
X152743205Y-93592515D01*
X153108917Y-93805538D01*
X153441765Y-94065528D01*
X153738213Y-94369462D01*
X153994722Y-94714318D01*
X154207755Y-95097074D01*
X154373776Y-95514705D01*
X154454879Y-95803758D01*
X154480906Y-95958728D01*
X154498409Y-96156078D01*
X154507188Y-96376801D01*
X154507042Y-96601886D01*
X154497769Y-96812326D01*
X154479168Y-96989110D01*
X154468080Y-97050854D01*
X154353256Y-97479734D01*
X154199411Y-97865445D01*
X154002203Y-98216155D01*
X153757292Y-98540028D01*
X153569799Y-98740681D01*
X153439216Y-98863433D01*
X153296973Y-98986136D01*
X153162852Y-99092221D01*
X153081601Y-99149546D01*
X152896899Y-99257584D01*
X152678319Y-99366534D01*
X152448522Y-99466352D01*
X152230171Y-99546989D01*
X152094756Y-99587029D01*
X151960873Y-99614565D01*
X151785475Y-99641648D01*
X151588973Y-99665939D01*
X151391772Y-99685097D01*
X151214283Y-99696783D01*
X151115742Y-99699268D01*
X150964146Y-99699268D01*
X150964146Y-99579337D01*
X150964146Y-99459405D01*
X151390061Y-99443316D01*
X151671875Y-99425841D01*
X151903339Y-99396013D01*
X152063780Y-99361225D01*
X152458697Y-99224760D01*
X152827554Y-99035238D01*
X153165673Y-98797745D01*
X153468376Y-98517366D01*
X153730985Y-98199186D01*
X153948823Y-97848290D01*
X154117212Y-97469765D01*
X154231474Y-97068694D01*
X154247174Y-96987597D01*
X154268853Y-96797975D01*
X154276254Y-96568918D01*
X154270325Y-96321037D01*
X154252017Y-96074942D01*
X154222280Y-95851241D01*
X154187296Y-95688852D01*
X154051642Y-95305530D01*
X153863518Y-94939537D01*
X153629678Y-94600654D01*
X153356873Y-94298660D01*
X153051855Y-94043333D01*
X153050400Y-94042291D01*
X152838005Y-93908204D01*
X152588020Y-93779135D01*
X152324518Y-93666113D01*
X152071567Y-93580168D01*
X151999969Y-93560973D01*
X151735287Y-93513750D01*
X151436825Y-93491228D01*
X151127609Y-93493393D01*
X150830667Y-93520233D01*
X150607927Y-93561750D01*
X150368864Y-93635477D01*
X150109046Y-93741555D01*
X149851565Y-93868994D01*
X149619511Y-94006803D01*
X149508292Y-94085154D01*
X149208864Y-94346571D01*
X148944985Y-94645353D01*
X148721720Y-94972812D01*
X148544134Y-95320258D01*
X148417294Y-95679002D01*
X148346263Y-96040355D01*
X148341412Y-96086870D01*
X148338234Y-96217049D01*
X148358653Y-96336094D01*
X148408153Y-96459141D01*
X148492220Y-96601327D01*
X148567239Y-96710122D01*
X148628821Y-96801672D01*
X148660392Y-96873248D01*
X148669862Y-96952726D01*
X148665809Y-97057506D01*
X148658588Y-97130063D01*
X148643983Y-97202665D01*
X148618242Y-97285009D01*
X148577613Y-97386791D01*
X148518343Y-97517708D01*
X148436683Y-97687457D01*
X148368540Y-97825791D01*
X148282609Y-98002101D01*
X148207058Y-98162437D01*
X148146041Y-98297540D01*
X148103713Y-98398151D01*
X148084229Y-98455010D01*
X148083414Y-98461169D01*
X148095317Y-98506057D01*
X148136544Y-98549171D01*
X148215374Y-98595796D01*
X148340087Y-98651219D01*
X148447378Y-98693584D01*
X148671951Y-98779788D01*
X148671951Y-99595747D01*
X148671951Y-100411707D01*
X149237256Y-100411405D01*
X149440400Y-100410798D01*
X149592528Y-100408490D01*
X149704572Y-100403378D01*
X149787464Y-100394360D01*
X149852137Y-100380332D01*
X149909524Y-100360191D01*
X149958088Y-100338678D01*
X150159211Y-100211801D01*
X150320058Y-100039419D01*
X150384550Y-99935750D01*
X150398652Y-99908411D01*
X150410716Y-99879929D01*
X150420945Y-99845412D01*
X150429543Y-99799970D01*
X150436714Y-99738712D01*
X150442660Y-99656746D01*
X150447586Y-99549183D01*
X150451694Y-99411132D01*
X150455188Y-99237700D01*
X150458271Y-99023998D01*
X150461148Y-98765134D01*
X150464021Y-98456218D01*
X150467094Y-98092358D01*
X150468536Y-97916764D01*
X150471758Y-97515008D01*
X150474686Y-97170559D01*
X150477830Y-96878780D01*
X150481698Y-96635032D01*
X150486800Y-96434677D01*
X150493644Y-96273078D01*
X150502740Y-96145595D01*
X150514597Y-96047591D01*
X150529723Y-95974428D01*
X150548628Y-95921467D01*
X150571820Y-95884070D01*
X150599810Y-95857599D01*
X150633104Y-95837416D01*
X150672214Y-95818883D01*
X150700191Y-95805907D01*
X150794311Y-95740930D01*
X150828006Y-95663918D01*
X150801388Y-95573825D01*
X150733969Y-95488777D01*
X150624184Y-95376347D01*
X150957298Y-95044266D01*
X151290412Y-94712185D01*
X151404510Y-94826283D01*
X151475037Y-94892335D01*
X151523398Y-94919740D01*
X151568564Y-94916172D01*
X151597596Y-94904391D01*
X151645399Y-94874772D01*
X151668880Y-94829746D01*
X151676272Y-94749350D01*
X151676585Y-94712859D01*
X151676585Y-94557317D01*
X152141219Y-94557317D01*
X152605853Y-94557317D01*
X152605853Y-94724325D01*
X152608433Y-94821845D01*
X152621240Y-94874844D01*
X152651876Y-94900699D01*
X152687933Y-94911934D01*
X152747974Y-94916155D01*
X152806650Y-94889054D01*
X152882443Y-94822750D01*
X152994872Y-94712965D01*
X153326953Y-95046079D01*
X153659034Y-95379193D01*
X153548693Y-95489535D01*
X153481539Y-95564538D01*
X153454670Y-95622024D01*
X153458908Y-95681777D01*
X153459119Y-95682621D01*
X153476324Y-95730603D01*
X153508317Y-95755264D01*
X153572495Y-95764271D01*
X153646894Y-95765366D01*
X153813902Y-95765366D01*
X153813902Y-96230000D01*
X153813902Y-96694634D01*
X153644126Y-96694634D01*
X153545538Y-96697185D01*
X153491712Y-96709638D01*
X153465518Y-96739200D01*
X153454316Y-96774459D01*
X153451000Y-96833513D01*
X153479620Y-96893045D01*
X153546268Y-96968969D01*
X153658254Y-97083653D01*
X153325140Y-97415734D01*
X152992026Y-97747815D01*
X152881685Y-97637474D01*
X152806682Y-97570319D01*
X152749196Y-97543451D01*
X152689443Y-97547689D01*
X152688598Y-97547900D01*
X152640617Y-97565105D01*
X152615955Y-97597098D01*
X152606949Y-97661275D01*
X152605853Y-97735675D01*
X152605853Y-97902683D01*
X152141219Y-97902683D01*
X151676585Y-97902683D01*
X151676585Y-97735675D01*
X151673985Y-97638123D01*
X151661157Y-97585109D01*
X151630557Y-97559275D01*
X151595106Y-97548217D01*
X151511364Y-97548524D01*
X151446001Y-97591299D01*
X151378374Y-97654831D01*
X151295280Y-97568099D01*
X151212186Y-97481368D01*
X151329533Y-97366782D01*
X151427161Y-97284660D01*
X151502116Y-97254077D01*
X151561714Y-97272362D01*
X151569719Y-97279098D01*
X151614309Y-97304949D01*
X151694980Y-97340720D01*
X151746280Y-97360745D01*
X151833425Y-97396365D01*
X151876909Y-97430327D01*
X151891848Y-97480554D01*
X151893414Y-97535184D01*
X151893414Y-97654878D01*
X152141219Y-97654878D01*
X152389024Y-97654878D01*
X152389024Y-97537869D01*
X152391729Y-97475959D01*
X152408070Y-97433880D01*
X152450388Y-97399143D01*
X152531024Y-97359264D01*
X152592097Y-97332391D01*
X152795170Y-97243923D01*
X152887189Y-97332082D01*
X152979207Y-97420241D01*
X153155334Y-97244115D01*
X153331460Y-97067988D01*
X153243301Y-96975970D01*
X153155142Y-96883951D01*
X153243610Y-96680878D01*
X153291085Y-96575478D01*
X153326934Y-96514803D01*
X153363642Y-96486513D01*
X153413696Y-96478268D01*
X153449088Y-96477805D01*
X153566097Y-96477805D01*
X153566097Y-96231781D01*
X153566097Y-95985757D01*
X153440411Y-95976232D01*
X153371314Y-95968025D01*
X153326394Y-95947200D01*
X153291396Y-95899915D01*
X153252067Y-95812329D01*
X153239213Y-95780854D01*
X153194000Y-95667058D01*
X153171956Y-95593946D01*
X153173150Y-95544720D01*
X153197651Y-95502580D01*
X153240540Y-95455937D01*
X153317665Y-95375435D01*
X153148071Y-95207947D01*
X152978476Y-95040459D01*
X152886823Y-95128269D01*
X152795170Y-95216078D01*
X152592097Y-95127610D01*
X152486697Y-95080134D01*
X152426022Y-95044285D01*
X152397732Y-95007577D01*
X152389487Y-94957523D01*
X152389024Y-94922132D01*
X152389024Y-94805122D01*
X152141219Y-94805122D01*
X151893414Y-94805122D01*
X151893414Y-94922132D01*
X151890710Y-94984041D01*
X151874368Y-95026121D01*
X151832050Y-95060857D01*
X151751414Y-95100737D01*
X151690341Y-95127610D01*
X151487268Y-95216078D01*
X151395250Y-95127918D01*
X151303231Y-95039759D01*
X151127105Y-95215886D01*
X150950978Y-95392012D01*
X151033658Y-95478311D01*
X151116338Y-95564611D01*
X151034294Y-95773403D01*
X150986229Y-95886342D01*
X150947362Y-95951018D01*
X150909681Y-95978679D01*
X150885560Y-95982195D01*
X150815697Y-96004245D01*
X150759861Y-96047369D01*
X150747642Y-96063185D01*
X150737164Y-96084746D01*
X150728245Y-96116799D01*
X150720704Y-96164090D01*
X150714359Y-96231368D01*
X150709027Y-96323378D01*
X150704528Y-96444868D01*
X150700678Y-96600584D01*
X150697296Y-96795273D01*
X150694200Y-97033683D01*
X150691208Y-97320559D01*
X150688139Y-97660649D01*
X150685366Y-97991089D01*
X150669878Y-99869634D01*
X150583135Y-100046276D01*
X150464380Y-100229005D01*
X150304039Y-100391602D01*
X150120022Y-100517666D01*
X150016730Y-100564920D01*
X149955420Y-100585878D01*
X149892087Y-100601699D01*
X149817107Y-100613091D01*
X149720856Y-100620762D01*
X149593711Y-100625419D01*
X149426047Y-100627768D01*
X149208242Y-100628516D01*
X149150911Y-100628537D01*
X148455122Y-100628537D01*
X148455122Y-99795988D01*
X148454387Y-99529878D01*
X148452022Y-99320334D01*
X148447785Y-99161984D01*
X148441435Y-99049460D01*
X148432731Y-98977389D01*
X148421432Y-98940403D01*
X148416402Y-98934427D01*
X148369545Y-98908362D01*
X148283740Y-98867795D01*
X148177470Y-98821460D01*
X148176341Y-98820987D01*
X148049403Y-98762230D01*
X147954668Y-98701553D01*
X147892017Y-98632352D01*
X147861330Y-98548027D01*
X147862489Y-98441975D01*
X147895375Y-98307594D01*
X147959869Y-98138283D01*
X148055851Y-97927439D01*
X148156531Y-97721814D01*
X148245103Y-97540196D01*
X148323234Y-97372485D01*
X148386784Y-97228187D01*
X148431616Y-97116805D01*
X148453591Y-97047847D01*
X148455122Y-97035989D01*
X148436262Y-96959224D01*
X148386692Y-96859329D01*
X148347148Y-96798687D01*
X148251451Y-96659569D01*
X148188346Y-96549677D01*
X148150163Y-96451153D01*
X148129230Y-96346140D01*
X148121895Y-96274290D01*
X148125989Y-96005789D01*
X148175975Y-95712064D01*
X148267694Y-95404398D01*
X148396989Y-95094078D01*
X148559700Y-94792387D01*
X148751671Y-94510610D01*
X148789708Y-94462005D01*
X149089602Y-94135425D01*
X149425940Y-93857228D01*
X149793980Y-93629522D01*
X150188981Y-93454410D01*
X150606202Y-93333999D01*
X151040901Y-93270394D01*
X151484262Y-93265473D01*
X151927340Y-93319460D01*
G37*
G36*
X150073597Y-105293946D02*
G01*
X150244872Y-105344035D01*
X150379028Y-105434138D01*
X150445305Y-105517579D01*
X150480382Y-105613816D01*
X150497560Y-105736337D01*
X150495254Y-105857580D01*
X150471883Y-105949987D01*
X150470314Y-105953021D01*
X150460079Y-106035294D01*
X150483770Y-106131383D01*
X150510916Y-106291354D01*
X150477585Y-106439947D01*
X150383354Y-106578656D01*
X150347539Y-106614490D01*
X150278479Y-106675708D01*
X150221543Y-106710143D01*
X150154734Y-106725098D01*
X150056054Y-106727873D01*
X150007677Y-106727284D01*
X149894941Y-106728447D01*
X149805620Y-106734642D01*
X149758834Y-106744532D01*
X149758584Y-106744683D01*
X149731665Y-106736711D01*
X149722944Y-106693840D01*
X149721845Y-106679106D01*
X150107154Y-106679106D01*
X150111406Y-106697521D01*
X150127805Y-106699756D01*
X150153301Y-106688423D01*
X150148455Y-106679106D01*
X150111694Y-106675399D01*
X150107154Y-106679106D01*
X149721845Y-106679106D01*
X149719921Y-106653293D01*
X150220731Y-106653293D01*
X150236219Y-106668781D01*
X150251707Y-106653293D01*
X150236219Y-106637805D01*
X150220731Y-106653293D01*
X149719921Y-106653293D01*
X149719286Y-106644782D01*
X149707345Y-106654777D01*
X149694146Y-106684268D01*
X149686058Y-106674241D01*
X149681731Y-106632352D01*
X150285206Y-106632352D01*
X150291717Y-106632611D01*
X150323445Y-106608552D01*
X150379169Y-106548643D01*
X150424115Y-106478977D01*
X150455495Y-106405420D01*
X150467324Y-106352819D01*
X150456322Y-106351332D01*
X150430277Y-106396343D01*
X150419487Y-106420054D01*
X150373288Y-106510423D01*
X150323737Y-106585389D01*
X150320029Y-106589886D01*
X150285206Y-106632352D01*
X149681731Y-106632352D01*
X149679171Y-106607569D01*
X149676741Y-106555203D01*
X150014227Y-106555203D01*
X150018479Y-106573618D01*
X150034878Y-106575854D01*
X150060374Y-106564520D01*
X150055528Y-106555203D01*
X150018767Y-106551496D01*
X150014227Y-106555203D01*
X149676741Y-106555203D01*
X149675543Y-106529390D01*
X150158780Y-106529390D01*
X150174268Y-106544878D01*
X150189756Y-106529390D01*
X150174268Y-106513903D01*
X150158780Y-106529390D01*
X149675543Y-106529390D01*
X149673866Y-106493252D01*
X149983252Y-106493252D01*
X149987504Y-106511667D01*
X150003902Y-106513903D01*
X150029399Y-106502569D01*
X150024553Y-106493252D01*
X149987792Y-106489545D01*
X149983252Y-106493252D01*
X149673866Y-106493252D01*
X149673694Y-106489552D01*
X149669833Y-106325490D01*
X149669088Y-106250610D01*
X149920574Y-106250610D01*
X149922190Y-106332896D01*
X149926729Y-106369089D01*
X149933108Y-106351835D01*
X149937129Y-106281585D01*
X149972927Y-106281585D01*
X149976120Y-106384634D01*
X149992763Y-106435959D01*
X150033448Y-106445724D01*
X150108771Y-106424090D01*
X150118044Y-106420795D01*
X150175022Y-106401904D01*
X150179548Y-106408085D01*
X150145116Y-106436283D01*
X150111247Y-106470686D01*
X150117083Y-106482927D01*
X150159044Y-106461702D01*
X150185977Y-106436464D01*
X150344634Y-106436464D01*
X150360122Y-106451951D01*
X150375609Y-106436464D01*
X150360122Y-106420976D01*
X150344634Y-106436464D01*
X150185977Y-106436464D01*
X150208187Y-106415651D01*
X150237692Y-106375963D01*
X150229645Y-106370436D01*
X150227234Y-106371783D01*
X150201127Y-106374966D01*
X150203611Y-106330744D01*
X150206686Y-106317841D01*
X150201997Y-106266098D01*
X150251707Y-106266098D01*
X150263040Y-106291594D01*
X150272357Y-106286748D01*
X150276065Y-106249987D01*
X150274466Y-106248029D01*
X150316104Y-106248029D01*
X150321799Y-106288204D01*
X150332373Y-106288684D01*
X150336401Y-106266098D01*
X150382796Y-106266098D01*
X150386025Y-106322452D01*
X150394066Y-106329094D01*
X150396962Y-106320305D01*
X150401779Y-106241744D01*
X150396962Y-106211890D01*
X150387984Y-106202250D01*
X150383095Y-106245081D01*
X150382796Y-106266098D01*
X150336401Y-106266098D01*
X150339767Y-106247227D01*
X150334818Y-106229314D01*
X150321064Y-106217581D01*
X150316104Y-106248029D01*
X150274466Y-106248029D01*
X150272357Y-106245447D01*
X150253942Y-106249699D01*
X150251707Y-106266098D01*
X150201997Y-106266098D01*
X150199219Y-106235444D01*
X150165369Y-106186077D01*
X150440006Y-106186077D01*
X150445701Y-106226253D01*
X150456275Y-106226733D01*
X150463669Y-106185275D01*
X150458721Y-106167363D01*
X150444966Y-106155630D01*
X150440006Y-106186077D01*
X150165369Y-106186077D01*
X150148414Y-106161349D01*
X150071602Y-106116398D01*
X150034878Y-106111220D01*
X149999076Y-106118614D01*
X149980426Y-106150586D01*
X149973587Y-106221816D01*
X149972927Y-106281585D01*
X149937129Y-106281585D01*
X149938499Y-106257651D01*
X149933424Y-106165982D01*
X149927093Y-106140448D01*
X149922481Y-106170366D01*
X149920576Y-106249243D01*
X149920574Y-106250610D01*
X149669088Y-106250610D01*
X149667795Y-106120681D01*
X149667525Y-106002805D01*
X149667811Y-105940854D01*
X149705971Y-105940854D01*
X149706718Y-106065307D01*
X149708843Y-106145251D01*
X149712039Y-106175292D01*
X149716002Y-106150033D01*
X149717000Y-106135665D01*
X149719561Y-106056236D01*
X149993850Y-106056236D01*
X150002215Y-106064663D01*
X150065853Y-106081072D01*
X150146982Y-106110776D01*
X150201002Y-106149469D01*
X150204148Y-106153854D01*
X150236586Y-106185843D01*
X150250611Y-106184507D01*
X150241333Y-106155983D01*
X150196002Y-106110131D01*
X150194068Y-106108553D01*
X150169825Y-106095732D01*
X150251707Y-106095732D01*
X150267195Y-106111220D01*
X150282683Y-106095732D01*
X150267195Y-106080244D01*
X150251707Y-106095732D01*
X150169825Y-106095732D01*
X150113172Y-106065770D01*
X150070867Y-106058147D01*
X150318651Y-106058147D01*
X150326188Y-106075458D01*
X150357377Y-106108712D01*
X150375308Y-106101890D01*
X150375609Y-106097560D01*
X150353608Y-106071360D01*
X150339848Y-106061798D01*
X150318651Y-106058147D01*
X150070867Y-106058147D01*
X150039190Y-106052439D01*
X149993850Y-106056236D01*
X149719561Y-106056236D01*
X149720010Y-106042292D01*
X150391313Y-106042292D01*
X150393861Y-106057012D01*
X150414984Y-106105814D01*
X150428221Y-106093398D01*
X150432538Y-106041525D01*
X150438829Y-105961931D01*
X150451900Y-105866157D01*
X150452359Y-105863415D01*
X150470649Y-105755000D01*
X150423806Y-105878903D01*
X150398129Y-105968978D01*
X150391313Y-106042292D01*
X149720010Y-106042292D01*
X149721366Y-106000230D01*
X149721239Y-105980976D01*
X149957439Y-105980976D01*
X150055861Y-105984146D01*
X150149467Y-105966641D01*
X150171138Y-105947506D01*
X150261303Y-105947506D01*
X150269017Y-105945145D01*
X150296462Y-105911702D01*
X150297342Y-105909878D01*
X150344634Y-105909878D01*
X150360122Y-105925366D01*
X150375609Y-105909878D01*
X150360122Y-105894390D01*
X150344634Y-105909878D01*
X150297342Y-105909878D01*
X150334493Y-105832848D01*
X150344159Y-105772311D01*
X150332508Y-105692495D01*
X150314062Y-105646585D01*
X150297186Y-105634045D01*
X150297552Y-105678207D01*
X150302412Y-105712032D01*
X150304864Y-105809049D01*
X150286485Y-105893209D01*
X150284337Y-105897886D01*
X150261303Y-105947506D01*
X150171138Y-105947506D01*
X150218483Y-105905701D01*
X150271836Y-105814253D01*
X150272103Y-105728945D01*
X150232982Y-105646585D01*
X150205804Y-105607668D01*
X150205378Y-105621748D01*
X150208709Y-105631098D01*
X150228133Y-105722930D01*
X150226571Y-105818158D01*
X150205239Y-105888956D01*
X150196978Y-105899558D01*
X150145960Y-105928694D01*
X150066386Y-105955185D01*
X150060979Y-105956496D01*
X149957439Y-105980976D01*
X149721239Y-105980976D01*
X149720358Y-105847071D01*
X149718577Y-105801464D01*
X149920890Y-105801464D01*
X149922476Y-105886563D01*
X149926660Y-105924454D01*
X149932579Y-105908193D01*
X149933383Y-105902134D01*
X149938509Y-105793518D01*
X149936380Y-105755000D01*
X149972927Y-105755000D01*
X149974961Y-105852590D01*
X149985614Y-105903406D01*
X150011709Y-105922599D01*
X150049651Y-105925366D01*
X150131308Y-105896857D01*
X150176123Y-105849444D01*
X150208900Y-105755654D01*
X150186115Y-105672906D01*
X150111929Y-105615516D01*
X150107650Y-105613835D01*
X150034429Y-105590856D01*
X149993964Y-105599179D01*
X149976662Y-105648859D01*
X149972929Y-105749945D01*
X149972927Y-105755000D01*
X149936380Y-105755000D01*
X149933383Y-105700793D01*
X149927309Y-105677414D01*
X149922866Y-105709039D01*
X149920916Y-105788723D01*
X149920890Y-105801464D01*
X149718577Y-105801464D01*
X149717112Y-105763958D01*
X149713058Y-105718547D01*
X149709658Y-105730257D01*
X149707215Y-105794258D01*
X149706034Y-105905722D01*
X149705971Y-105940854D01*
X149667811Y-105940854D01*
X149668558Y-105779338D01*
X149671519Y-105593927D01*
X149672506Y-105563984D01*
X150107154Y-105563984D01*
X150111406Y-105582399D01*
X150127805Y-105584634D01*
X150153301Y-105573301D01*
X150148455Y-105563984D01*
X150111694Y-105560277D01*
X150107154Y-105563984D01*
X149672506Y-105563984D01*
X149672703Y-105558013D01*
X150324831Y-105558013D01*
X150325289Y-105568475D01*
X150342925Y-105605830D01*
X150367208Y-105687668D01*
X150375609Y-105768452D01*
X150380015Y-105834624D01*
X150390658Y-105863377D01*
X150391097Y-105863415D01*
X150401572Y-105836253D01*
X150406525Y-105769954D01*
X150406585Y-105760920D01*
X150393359Y-105677561D01*
X150442452Y-105677561D01*
X150447319Y-105721535D01*
X150458075Y-105716281D01*
X150462166Y-105652863D01*
X150458075Y-105638842D01*
X150446769Y-105634950D01*
X150442452Y-105677561D01*
X150393359Y-105677561D01*
X150392142Y-105669890D01*
X150358413Y-105598299D01*
X150324831Y-105558013D01*
X149672703Y-105558013D01*
X149673527Y-105533008D01*
X150014227Y-105533008D01*
X150018479Y-105551423D01*
X150034878Y-105553659D01*
X150060374Y-105542325D01*
X150055528Y-105533008D01*
X150018767Y-105529301D01*
X150014227Y-105533008D01*
X149673527Y-105533008D01*
X149674378Y-105507195D01*
X150158780Y-105507195D01*
X150174268Y-105522683D01*
X150189756Y-105507195D01*
X150282683Y-105507195D01*
X150298170Y-105522683D01*
X150313658Y-105507195D01*
X150298170Y-105491707D01*
X150282683Y-105507195D01*
X150189756Y-105507195D01*
X150174268Y-105491707D01*
X150158780Y-105507195D01*
X149674378Y-105507195D01*
X149676202Y-105451872D01*
X149676642Y-105445244D01*
X150189756Y-105445244D01*
X150205244Y-105460732D01*
X150215877Y-105450098D01*
X150332252Y-105450098D01*
X150354927Y-105494740D01*
X150360471Y-105503381D01*
X150404751Y-105563864D01*
X150428046Y-105582923D01*
X150423690Y-105557578D01*
X150407508Y-105524408D01*
X150366524Y-105466055D01*
X150341254Y-105443155D01*
X150332252Y-105450098D01*
X150215877Y-105450098D01*
X150220731Y-105445244D01*
X150205244Y-105429756D01*
X150189756Y-105445244D01*
X149676642Y-105445244D01*
X149680751Y-105383293D01*
X150220731Y-105383293D01*
X150236219Y-105398781D01*
X150251707Y-105383293D01*
X150236219Y-105367805D01*
X150220731Y-105383293D01*
X149680751Y-105383293D01*
X149682270Y-105360399D01*
X150110264Y-105360399D01*
X150140711Y-105365360D01*
X150180887Y-105359664D01*
X150181367Y-105349091D01*
X150139909Y-105341696D01*
X150121997Y-105346645D01*
X150110264Y-105360399D01*
X149682270Y-105360399D01*
X149682398Y-105358471D01*
X149689902Y-105319024D01*
X149694146Y-105321342D01*
X149715025Y-105357658D01*
X149722924Y-105335546D01*
X149722944Y-105335104D01*
X149750135Y-105302217D01*
X149810026Y-105288249D01*
X149875755Y-105295093D01*
X149918245Y-105321342D01*
X149938546Y-105330132D01*
X149941477Y-105313232D01*
X149961137Y-105289851D01*
X150025642Y-105287923D01*
X150073597Y-105293946D01*
G37*
G36*
X153228642Y-101501443D02*
G01*
X153257051Y-101519586D01*
X153302089Y-101570060D01*
X153366204Y-101656454D01*
X153451843Y-101782356D01*
X153561451Y-101951354D01*
X153697477Y-102167035D01*
X153847967Y-102409634D01*
X153980158Y-102623839D01*
X154102861Y-102822475D01*
X154212066Y-102999067D01*
X154303766Y-103147144D01*
X154373953Y-103260233D01*
X154418621Y-103331859D01*
X154432906Y-103354390D01*
X154467939Y-103409503D01*
X154517718Y-103490321D01*
X154533763Y-103516774D01*
X154591499Y-103600930D01*
X154628976Y-103627071D01*
X154647657Y-103595199D01*
X154649611Y-103517012D01*
X154648360Y-103457336D01*
X154647409Y-103344452D01*
X154646777Y-103187105D01*
X154646484Y-102994037D01*
X154646549Y-102773992D01*
X154646991Y-102535714D01*
X154647242Y-102448354D01*
X154648399Y-102177829D01*
X154650196Y-101963037D01*
X154652963Y-101797760D01*
X154657033Y-101675781D01*
X154662736Y-101590882D01*
X154670402Y-101536846D01*
X154680363Y-101507454D01*
X154692950Y-101496489D01*
X154697934Y-101495854D01*
X154711658Y-101501848D01*
X154722460Y-101524052D01*
X154730650Y-101568793D01*
X154736539Y-101642402D01*
X154740436Y-101751209D01*
X154742652Y-101901542D01*
X154743498Y-102099732D01*
X154743284Y-102352108D01*
X154743121Y-102417378D01*
X154742251Y-102756354D01*
X154741722Y-103038569D01*
X154741643Y-103269214D01*
X154742124Y-103453479D01*
X154743275Y-103596553D01*
X154745207Y-103703627D01*
X154748028Y-103779892D01*
X154751850Y-103830537D01*
X154756782Y-103860752D01*
X154762934Y-103875728D01*
X154770416Y-103880654D01*
X154774146Y-103880976D01*
X154782935Y-103850248D01*
X154790317Y-103759026D01*
X154796253Y-103608751D01*
X154800706Y-103400865D01*
X154803639Y-103136809D01*
X154805015Y-102818026D01*
X154805122Y-102688415D01*
X154805366Y-102381900D01*
X154806243Y-102131804D01*
X154807968Y-101932595D01*
X154810757Y-101778744D01*
X154814825Y-101664717D01*
X154820388Y-101584986D01*
X154827660Y-101534017D01*
X154836858Y-101506281D01*
X154848197Y-101496246D01*
X154851585Y-101495854D01*
X154863007Y-101501996D01*
X154872426Y-101523940D01*
X154880028Y-101566960D01*
X154885999Y-101636332D01*
X154890528Y-101737331D01*
X154893798Y-101875232D01*
X154895998Y-102055310D01*
X154897314Y-102282840D01*
X154897931Y-102563097D01*
X154898048Y-102810489D01*
X154898779Y-103162272D01*
X154900939Y-103463615D01*
X154904482Y-103712508D01*
X154909361Y-103906941D01*
X154915530Y-104044903D01*
X154922942Y-104124382D01*
X154929024Y-104144268D01*
X154937562Y-104119072D01*
X154944743Y-104032412D01*
X154950557Y-103884760D01*
X154954993Y-103676589D01*
X154958040Y-103408371D01*
X154959686Y-103080580D01*
X154960000Y-102829633D01*
X154960213Y-102503924D01*
X154960975Y-102234927D01*
X154962467Y-102017405D01*
X154964873Y-101846118D01*
X154968374Y-101715828D01*
X154973154Y-101621299D01*
X154979394Y-101557291D01*
X154987277Y-101518566D01*
X154996986Y-101499887D01*
X155006463Y-101495854D01*
X155017422Y-101501883D01*
X155026544Y-101523338D01*
X155033990Y-101565266D01*
X155039925Y-101632715D01*
X155044511Y-101730735D01*
X155047912Y-101864373D01*
X155050290Y-102038678D01*
X155051808Y-102258698D01*
X155052630Y-102529482D01*
X155052918Y-102856079D01*
X155052927Y-102934392D01*
X155053594Y-103305400D01*
X155055573Y-103625096D01*
X155058824Y-103891713D01*
X155063311Y-104103482D01*
X155068996Y-104258634D01*
X155075841Y-104355400D01*
X155083809Y-104392012D01*
X155083902Y-104392073D01*
X155092112Y-104366630D01*
X155099074Y-104279664D01*
X155104782Y-104131591D01*
X155109225Y-103922825D01*
X155112394Y-103653784D01*
X155114281Y-103324883D01*
X155114878Y-102953536D01*
X155115069Y-102611798D01*
X155115751Y-102326994D01*
X155117083Y-102094110D01*
X155119224Y-101908127D01*
X155122335Y-101764032D01*
X155126575Y-101656807D01*
X155132105Y-101581437D01*
X155139084Y-101532906D01*
X155147672Y-101506198D01*
X155158029Y-101496297D01*
X155161341Y-101495854D01*
X155171891Y-101501787D01*
X155180743Y-101522821D01*
X155188041Y-101563802D01*
X155193930Y-101629581D01*
X155198553Y-101725005D01*
X155202054Y-101854922D01*
X155204579Y-102024182D01*
X155206270Y-102237633D01*
X155207273Y-102500123D01*
X155207731Y-102816501D01*
X155207805Y-103058294D01*
X155208420Y-103447686D01*
X155210244Y-103785019D01*
X155213248Y-104068722D01*
X155217400Y-104297223D01*
X155222669Y-104468951D01*
X155229025Y-104582335D01*
X155236437Y-104635803D01*
X155238780Y-104639878D01*
X155245496Y-104639015D01*
X155251283Y-104624833D01*
X155256199Y-104593293D01*
X155260299Y-104540354D01*
X155263641Y-104461976D01*
X155266279Y-104354118D01*
X155268272Y-104212741D01*
X155269674Y-104033805D01*
X155270543Y-103813268D01*
X155270934Y-103547090D01*
X155270905Y-103231232D01*
X155270511Y-102861653D01*
X155269809Y-102434313D01*
X155269778Y-102417378D01*
X155269607Y-102151651D01*
X155270392Y-101941561D01*
X155272444Y-101780799D01*
X155276076Y-101663053D01*
X155281601Y-101582014D01*
X155289330Y-101531372D01*
X155299577Y-101504815D01*
X155312652Y-101496034D01*
X155315382Y-101495854D01*
X155325773Y-101501297D01*
X155334546Y-101520770D01*
X155341834Y-101558990D01*
X155347771Y-101620674D01*
X155352489Y-101710537D01*
X155356122Y-101833297D01*
X155358803Y-101993669D01*
X155360666Y-102196370D01*
X155361844Y-102446117D01*
X155362471Y-102747626D01*
X155362679Y-103105614D01*
X155362683Y-103168537D01*
X155362620Y-103532802D01*
X155362320Y-103839976D01*
X155361609Y-104094921D01*
X155360316Y-104302496D01*
X155358270Y-104467562D01*
X155355300Y-104594980D01*
X155351234Y-104689610D01*
X155345900Y-104756313D01*
X155339127Y-104799949D01*
X155330744Y-104825380D01*
X155320579Y-104837465D01*
X155308460Y-104841065D01*
X155303675Y-104841220D01*
X155247438Y-104812269D01*
X155180803Y-104729274D01*
X155159276Y-104694085D01*
X155116350Y-104622305D01*
X155047004Y-104508897D01*
X154957886Y-104364622D01*
X154855646Y-104200240D01*
X154746932Y-104026509D01*
X154733350Y-104004878D01*
X154627075Y-103835295D01*
X154529018Y-103678055D01*
X154445113Y-103542736D01*
X154381295Y-103438914D01*
X154343497Y-103376165D01*
X154339861Y-103369878D01*
X154293416Y-103290997D01*
X154223187Y-103175087D01*
X154134138Y-103030059D01*
X154031239Y-102863828D01*
X153919454Y-102684306D01*
X153803752Y-102499404D01*
X153689099Y-102317037D01*
X153580463Y-102145116D01*
X153482809Y-101991554D01*
X153401105Y-101864265D01*
X153340318Y-101771160D01*
X153305414Y-101720152D01*
X153300311Y-101713789D01*
X153264113Y-101681903D01*
X153255222Y-101689642D01*
X153274655Y-101738884D01*
X153323431Y-101831506D01*
X153402569Y-101969385D01*
X153513085Y-102154399D01*
X153655999Y-102388424D01*
X153740607Y-102525508D01*
X153871018Y-102736025D01*
X153997916Y-102940530D01*
X154115641Y-103129928D01*
X154218534Y-103295123D01*
X154300935Y-103427019D01*
X154357183Y-103516521D01*
X154362399Y-103524756D01*
X154565059Y-103845749D01*
X154734523Y-104117466D01*
X154872071Y-104342105D01*
X154978981Y-104521864D01*
X155056531Y-104658941D01*
X155106000Y-104755533D01*
X155128666Y-104813839D01*
X155125808Y-104836056D01*
X155125229Y-104836214D01*
X155080434Y-104839827D01*
X155072258Y-104836214D01*
X155050637Y-104801715D01*
X155000567Y-104721239D01*
X154926201Y-104601485D01*
X154831692Y-104449156D01*
X154721191Y-104270952D01*
X154598851Y-104073576D01*
X154468824Y-103863728D01*
X154335262Y-103648111D01*
X154202318Y-103433425D01*
X154074144Y-103226372D01*
X153954892Y-103033652D01*
X153848714Y-102861969D01*
X153759764Y-102718022D01*
X153751044Y-102703903D01*
X153610197Y-102476434D01*
X153498248Y-102297403D01*
X153412038Y-102162240D01*
X153348406Y-102066371D01*
X153304188Y-102005226D01*
X153276226Y-101974233D01*
X153261357Y-101968820D01*
X153256421Y-101984415D01*
X153256341Y-101988474D01*
X153260000Y-102002890D01*
X153272331Y-102030159D01*
X153295369Y-102073625D01*
X153331147Y-102136634D01*
X153381698Y-102222531D01*
X153449055Y-102334661D01*
X153535253Y-102476369D01*
X153642324Y-102651001D01*
X153772302Y-102861901D01*
X153927221Y-103112415D01*
X154109113Y-103405887D01*
X154320012Y-103745664D01*
X154528137Y-104080676D01*
X154646710Y-104272656D01*
X154753060Y-104447106D01*
X154843177Y-104597264D01*
X154913049Y-104716366D01*
X154958667Y-104797651D01*
X154976019Y-104834355D01*
X154975883Y-104835661D01*
X154959129Y-104842842D01*
X154935532Y-104833334D01*
X154902410Y-104803242D01*
X154857083Y-104748670D01*
X154796869Y-104665722D01*
X154719087Y-104550502D01*
X154621056Y-104399115D01*
X154500094Y-104207665D01*
X154353521Y-103972255D01*
X154178655Y-103688990D01*
X154110813Y-103578702D01*
X153900974Y-103238476D01*
X153721982Y-102950739D01*
X153573257Y-102714591D01*
X153454217Y-102529135D01*
X153364282Y-102393471D01*
X153302869Y-102306702D01*
X153269399Y-102267927D01*
X153262570Y-102267045D01*
X153260214Y-102278035D01*
X153261774Y-102293004D01*
X153269775Y-102316207D01*
X153286741Y-102351895D01*
X153315197Y-102404324D01*
X153357666Y-102477745D01*
X153416675Y-102576413D01*
X153494747Y-102704580D01*
X153594406Y-102866501D01*
X153718178Y-103066428D01*
X153868587Y-103308615D01*
X154048157Y-103597316D01*
X154134183Y-103735557D01*
X154278930Y-103968473D01*
X154412955Y-104184763D01*
X154532826Y-104378842D01*
X154635110Y-104545121D01*
X154716374Y-104678016D01*
X154773185Y-104771940D01*
X154802112Y-104821306D01*
X154805122Y-104827447D01*
X154780082Y-104839970D01*
X154762312Y-104841220D01*
X154733443Y-104814694D01*
X154674055Y-104735932D01*
X154584935Y-104606157D01*
X154466869Y-104426592D01*
X154320645Y-104198459D01*
X154147048Y-103922982D01*
X153946867Y-103601385D01*
X153720887Y-103234888D01*
X153562399Y-102976212D01*
X153453661Y-102800569D01*
X153372235Y-102674771D01*
X153314971Y-102594720D01*
X153278717Y-102556317D01*
X153260321Y-102555464D01*
X153256341Y-102578250D01*
X153258752Y-102589086D01*
X153267629Y-102609270D01*
X153285442Y-102642863D01*
X153314659Y-102693926D01*
X153357746Y-102766517D01*
X153417174Y-102864699D01*
X153495410Y-102992532D01*
X153594922Y-103154075D01*
X153718179Y-103353390D01*
X153867649Y-103594536D01*
X154045800Y-103881575D01*
X154177866Y-104094230D01*
X154294407Y-104282585D01*
X154399410Y-104453690D01*
X154488637Y-104600523D01*
X154557847Y-104716061D01*
X154602801Y-104793283D01*
X154619258Y-104825166D01*
X154619268Y-104825318D01*
X154610508Y-104848390D01*
X154583051Y-104835228D01*
X154535131Y-104783359D01*
X154464981Y-104690311D01*
X154370836Y-104553614D01*
X154250928Y-104370794D01*
X154103492Y-104139380D01*
X153926761Y-103856900D01*
X153923221Y-103851204D01*
X153784797Y-103628949D01*
X153655858Y-103422860D01*
X153540228Y-103238979D01*
X153441732Y-103083349D01*
X153364197Y-102962013D01*
X153311447Y-102881015D01*
X153287307Y-102846398D01*
X153286972Y-102846045D01*
X153277497Y-102866571D01*
X153269744Y-102948367D01*
X153263734Y-103090775D01*
X153259485Y-103293135D01*
X153257020Y-103554792D01*
X153256341Y-103828317D01*
X153256042Y-104108713D01*
X153254961Y-104333144D01*
X153252824Y-104507598D01*
X153249356Y-104638060D01*
X153244283Y-104730514D01*
X153237330Y-104790948D01*
X153228223Y-104825346D01*
X153216686Y-104839694D01*
X153209878Y-104841220D01*
X153199661Y-104835362D01*
X153191032Y-104814663D01*
X153183863Y-104774438D01*
X153178022Y-104710000D01*
X153173379Y-104616662D01*
X153169805Y-104489739D01*
X153167170Y-104324544D01*
X153165343Y-104116391D01*
X153164195Y-103860594D01*
X153163596Y-103552466D01*
X153163415Y-103187321D01*
X153163414Y-103166382D01*
X153163414Y-101491545D01*
X153228642Y-101501443D01*
G37*
G36*
X155130500Y-105313215D02*
G01*
X155247032Y-105392967D01*
X155283478Y-105436635D01*
X155309210Y-105479965D01*
X155303640Y-105510498D01*
X155257636Y-105543259D01*
X155200175Y-105573663D01*
X155107863Y-105612288D01*
X155048675Y-105618355D01*
X155038987Y-105613070D01*
X154977517Y-105587437D01*
X154897358Y-105589150D01*
X154829685Y-105615149D01*
X154810711Y-105635497D01*
X154792988Y-105707367D01*
X154795626Y-105751656D01*
X154800902Y-105790359D01*
X154786683Y-105778808D01*
X154761697Y-105739512D01*
X154728771Y-105694575D01*
X154713834Y-105691826D01*
X154713767Y-105693049D01*
X154729874Y-105747392D01*
X154766164Y-105799925D01*
X154796248Y-105819353D01*
X154902529Y-105837195D01*
X155022803Y-105867591D01*
X155125292Y-105902071D01*
X155152679Y-105914339D01*
X155228538Y-105969522D01*
X155278434Y-106036985D01*
X155290111Y-106098275D01*
X155284374Y-106112627D01*
X155289198Y-106135555D01*
X155306173Y-106135219D01*
X155337008Y-106154757D01*
X155353961Y-106217445D01*
X155356625Y-106305966D01*
X155344594Y-106403003D01*
X155317461Y-106491238D01*
X155314672Y-106497300D01*
X155227366Y-106614453D01*
X155103797Y-106693402D01*
X154959571Y-106729820D01*
X154810295Y-106719375D01*
X154690940Y-106670322D01*
X154615450Y-106613297D01*
X154562571Y-106554217D01*
X154559294Y-106548572D01*
X154554664Y-106538068D01*
X154588828Y-106538068D01*
X154612207Y-106568389D01*
X154669654Y-106616074D01*
X154689062Y-106630061D01*
X154812266Y-106685436D01*
X154951185Y-106700928D01*
X155082648Y-106676290D01*
X155157783Y-106635070D01*
X155262310Y-106519156D01*
X155319773Y-106380293D01*
X155327830Y-106290868D01*
X155324731Y-106230156D01*
X155319767Y-106223470D01*
X155309563Y-106273747D01*
X155302902Y-106312561D01*
X155263712Y-106459629D01*
X155200150Y-106560227D01*
X155115498Y-106621997D01*
X154968410Y-106665332D01*
X154818274Y-106649157D01*
X154779198Y-106630199D01*
X154849016Y-106630199D01*
X154893522Y-106633404D01*
X154915360Y-106634243D01*
X155004446Y-106621083D01*
X155070238Y-106589045D01*
X155099499Y-106561347D01*
X155084954Y-106564033D01*
X155024509Y-106585994D01*
X154938300Y-106607579D01*
X154930076Y-106609231D01*
X154860377Y-106623540D01*
X154849016Y-106630199D01*
X154779198Y-106630199D01*
X154701030Y-106592275D01*
X154699509Y-106591342D01*
X154774146Y-106591342D01*
X154789634Y-106606829D01*
X154805122Y-106591342D01*
X154789634Y-106575854D01*
X154774146Y-106591342D01*
X154699509Y-106591342D01*
X154662199Y-106568448D01*
X154880508Y-106568448D01*
X154910955Y-106573408D01*
X154951131Y-106567713D01*
X154951610Y-106557139D01*
X154910153Y-106549745D01*
X154892241Y-106554694D01*
X154880508Y-106568448D01*
X154662199Y-106568448D01*
X154633826Y-106551038D01*
X154593783Y-106534912D01*
X154588828Y-106538068D01*
X154554664Y-106538068D01*
X154550839Y-106529390D01*
X154805122Y-106529390D01*
X154820609Y-106544878D01*
X154836097Y-106529390D01*
X154833787Y-106527080D01*
X154995447Y-106527080D01*
X155002751Y-106543243D01*
X155020123Y-106544878D01*
X155049040Y-106529390D01*
X155145853Y-106529390D01*
X155161341Y-106544878D01*
X155176829Y-106529390D01*
X155161341Y-106513903D01*
X155145853Y-106529390D01*
X155049040Y-106529390D01*
X155062126Y-106522381D01*
X155068195Y-106514257D01*
X155063209Y-106496655D01*
X155039047Y-106502084D01*
X154995447Y-106527080D01*
X154833787Y-106527080D01*
X154820609Y-106513903D01*
X154805122Y-106529390D01*
X154550839Y-106529390D01*
X154533539Y-106490146D01*
X154528218Y-106457607D01*
X154543729Y-106464161D01*
X154557317Y-106482927D01*
X154581221Y-106510889D01*
X154587712Y-106480807D01*
X154587818Y-106473456D01*
X154593450Y-106441015D01*
X154617474Y-106450603D01*
X154657987Y-106490462D01*
X154693792Y-106525575D01*
X154694578Y-106520558D01*
X154688963Y-106512982D01*
X154655196Y-106454484D01*
X154651704Y-106417893D01*
X154675563Y-106416712D01*
X154704451Y-106441431D01*
X154736260Y-106474081D01*
X154735427Y-106469643D01*
X154714720Y-106413341D01*
X154713137Y-106391549D01*
X154719361Y-106364071D01*
X154741485Y-106390793D01*
X154746613Y-106399461D01*
X154816222Y-106466480D01*
X154910206Y-106495371D01*
X154986877Y-106480910D01*
X155184424Y-106480910D01*
X155188661Y-106482927D01*
X155216928Y-106461121D01*
X155223292Y-106451951D01*
X155231186Y-106422993D01*
X155226949Y-106420976D01*
X155198681Y-106442782D01*
X155192317Y-106451951D01*
X155184424Y-106480910D01*
X154986877Y-106480910D01*
X155000747Y-106478294D01*
X155038082Y-106449935D01*
X155122472Y-106449935D01*
X155126709Y-106451951D01*
X155154977Y-106430145D01*
X155161341Y-106420976D01*
X155169234Y-106392017D01*
X155164997Y-106390000D01*
X155136729Y-106411806D01*
X155130366Y-106420976D01*
X155122472Y-106449935D01*
X155038082Y-106449935D01*
X155085580Y-106413856D01*
X155113461Y-106343537D01*
X155101005Y-106339892D01*
X155081634Y-106366389D01*
X155007066Y-106443106D01*
X154911124Y-106465474D01*
X154853613Y-106452722D01*
X154795147Y-106418183D01*
X154774146Y-106384572D01*
X154783250Y-106362382D01*
X154811317Y-106383805D01*
X154877415Y-106417703D01*
X154955160Y-106418373D01*
X155018153Y-106388707D01*
X155037439Y-106359025D01*
X155045805Y-106260797D01*
X155037272Y-106248029D01*
X155086348Y-106248029D01*
X155092043Y-106288204D01*
X155102617Y-106288684D01*
X155103883Y-106281585D01*
X155238780Y-106281585D01*
X155254268Y-106297073D01*
X155269756Y-106281585D01*
X155254268Y-106266098D01*
X155238780Y-106281585D01*
X155103883Y-106281585D01*
X155110011Y-106247227D01*
X155105062Y-106229314D01*
X155091308Y-106217581D01*
X155086348Y-106248029D01*
X155037272Y-106248029D01*
X155007947Y-106204146D01*
X155145853Y-106204146D01*
X155157187Y-106229643D01*
X155166504Y-106224797D01*
X155170211Y-106188036D01*
X155166504Y-106183496D01*
X155148089Y-106187748D01*
X155145853Y-106204146D01*
X155007947Y-106204146D01*
X155000309Y-106192717D01*
X154947492Y-106173171D01*
X155207805Y-106173171D01*
X155219138Y-106198667D01*
X155228455Y-106193821D01*
X155232162Y-106157060D01*
X155228455Y-106152520D01*
X155210040Y-106156772D01*
X155207805Y-106173171D01*
X154947492Y-106173171D01*
X154904047Y-106157093D01*
X154785354Y-106129019D01*
X154723790Y-106095732D01*
X154836097Y-106095732D01*
X154851585Y-106111220D01*
X154867073Y-106095732D01*
X154851585Y-106080244D01*
X154836097Y-106095732D01*
X154723790Y-106095732D01*
X154717025Y-106092074D01*
X154706618Y-106064756D01*
X154743170Y-106064756D01*
X154758658Y-106080244D01*
X154774146Y-106064756D01*
X154758658Y-106049268D01*
X154743170Y-106064756D01*
X154706618Y-106064756D01*
X154703221Y-106055839D01*
X154686715Y-106016123D01*
X154641270Y-105967774D01*
X154628029Y-105956577D01*
X155147882Y-105956577D01*
X155155574Y-105972617D01*
X155172878Y-105995061D01*
X155218090Y-106043218D01*
X155238272Y-106043009D01*
X155238780Y-106037573D01*
X155217612Y-106011717D01*
X155184573Y-105983366D01*
X155147882Y-105956577D01*
X154628029Y-105956577D01*
X154572805Y-105909878D01*
X154960000Y-105909878D01*
X154975487Y-105925366D01*
X154990975Y-105909878D01*
X154975487Y-105894390D01*
X154960000Y-105909878D01*
X154572805Y-105909878D01*
X154631813Y-105979573D01*
X154662851Y-106027841D01*
X154657146Y-106049210D01*
X154655758Y-106049268D01*
X154610364Y-106022232D01*
X154559287Y-105952314D01*
X154513505Y-105856304D01*
X154499917Y-105815694D01*
X154531554Y-105815694D01*
X154545840Y-105870121D01*
X154567537Y-105894390D01*
X154569744Y-105878903D01*
X154836097Y-105878903D01*
X154851585Y-105894390D01*
X154867073Y-105878903D01*
X154851585Y-105863415D01*
X154836097Y-105878903D01*
X154569744Y-105878903D01*
X154571273Y-105868178D01*
X154568564Y-105847927D01*
X154619268Y-105847927D01*
X154634756Y-105863415D01*
X154650244Y-105847927D01*
X154634756Y-105832439D01*
X154619268Y-105847927D01*
X154568564Y-105847927D01*
X154564419Y-105816951D01*
X154681219Y-105816951D01*
X154696707Y-105832439D01*
X154712195Y-105816951D01*
X154696707Y-105801464D01*
X154681219Y-105816951D01*
X154564419Y-105816951D01*
X154563383Y-105809207D01*
X154548229Y-105761146D01*
X154534157Y-105762695D01*
X154533781Y-105763766D01*
X154531554Y-105815694D01*
X154499917Y-105815694D01*
X154496626Y-105805858D01*
X154488853Y-105708537D01*
X154593183Y-105708537D01*
X154598051Y-105752511D01*
X154608807Y-105747256D01*
X154611305Y-105708537D01*
X154655134Y-105708537D01*
X154660002Y-105752511D01*
X154670758Y-105747256D01*
X154674849Y-105683838D01*
X154670758Y-105669817D01*
X154659452Y-105665926D01*
X154655134Y-105708537D01*
X154611305Y-105708537D01*
X154612898Y-105683838D01*
X154608807Y-105669817D01*
X154597501Y-105665926D01*
X154593183Y-105708537D01*
X154488853Y-105708537D01*
X154487013Y-105685500D01*
X154498121Y-105628516D01*
X154528787Y-105628516D01*
X154534482Y-105668692D01*
X154545056Y-105669172D01*
X154552123Y-105629549D01*
X154743645Y-105629549D01*
X154754098Y-105643610D01*
X154766876Y-105628450D01*
X154810873Y-105586752D01*
X154851585Y-105559697D01*
X154881534Y-105538171D01*
X154990975Y-105538171D01*
X155006463Y-105553659D01*
X155021951Y-105538171D01*
X155114878Y-105538171D01*
X155130366Y-105553659D01*
X155145853Y-105538171D01*
X155130366Y-105522683D01*
X155114878Y-105538171D01*
X155021951Y-105538171D01*
X155006463Y-105522683D01*
X154990975Y-105538171D01*
X154881534Y-105538171D01*
X154888751Y-105532984D01*
X154870327Y-105523784D01*
X154865524Y-105523625D01*
X154800875Y-105545120D01*
X154752834Y-105595839D01*
X154743645Y-105629549D01*
X154552123Y-105629549D01*
X154552450Y-105627714D01*
X154547501Y-105609802D01*
X154536154Y-105600122D01*
X154681219Y-105600122D01*
X154696707Y-105615610D01*
X154712195Y-105600122D01*
X154696707Y-105584634D01*
X154681219Y-105600122D01*
X154536154Y-105600122D01*
X154533747Y-105598069D01*
X154528787Y-105628516D01*
X154498121Y-105628516D01*
X154512871Y-105552854D01*
X154522259Y-105533245D01*
X154557317Y-105533245D01*
X154562919Y-105553444D01*
X154565061Y-105551077D01*
X154588070Y-105521154D01*
X154624719Y-105476220D01*
X154681219Y-105476220D01*
X154696707Y-105491707D01*
X154712195Y-105476220D01*
X155021951Y-105476220D01*
X155037439Y-105491707D01*
X155052927Y-105476220D01*
X155145853Y-105476220D01*
X155161341Y-105491707D01*
X155176829Y-105476220D01*
X155161341Y-105460732D01*
X155145853Y-105476220D01*
X155052927Y-105476220D01*
X155037439Y-105460732D01*
X155021951Y-105476220D01*
X154712195Y-105476220D01*
X154696707Y-105460732D01*
X154681219Y-105476220D01*
X154624719Y-105476220D01*
X154635541Y-105462951D01*
X154650244Y-105445244D01*
X154701870Y-105383293D01*
X154898048Y-105383293D01*
X154913536Y-105398781D01*
X154929024Y-105383293D01*
X154960000Y-105383293D01*
X154975487Y-105398781D01*
X154990975Y-105383293D01*
X154975722Y-105368040D01*
X155147882Y-105368040D01*
X155155574Y-105384081D01*
X155172878Y-105406525D01*
X155218090Y-105454682D01*
X155238272Y-105454472D01*
X155238780Y-105449037D01*
X155217612Y-105423180D01*
X155184573Y-105394829D01*
X155147882Y-105368040D01*
X154975722Y-105368040D01*
X154975487Y-105367805D01*
X154960000Y-105383293D01*
X154929024Y-105383293D01*
X154913536Y-105367805D01*
X154898048Y-105383293D01*
X154701870Y-105383293D01*
X154727683Y-105352317D01*
X154743170Y-105352317D01*
X154758658Y-105367805D01*
X154774146Y-105352317D01*
X155083902Y-105352317D01*
X155099390Y-105367805D01*
X155114878Y-105352317D01*
X155099390Y-105336829D01*
X155083902Y-105352317D01*
X154774146Y-105352317D01*
X154758658Y-105336829D01*
X154743170Y-105352317D01*
X154727683Y-105352317D01*
X154642500Y-105427412D01*
X154586306Y-105484636D01*
X154558093Y-105528418D01*
X154557317Y-105533245D01*
X154522259Y-105533245D01*
X154567072Y-105439647D01*
X154583554Y-105418841D01*
X154700827Y-105327936D01*
X154735571Y-105316179D01*
X154815447Y-105316179D01*
X154819699Y-105334594D01*
X154836097Y-105336829D01*
X154852757Y-105329424D01*
X154973434Y-105329424D01*
X155003882Y-105334384D01*
X155044058Y-105328689D01*
X155044537Y-105318115D01*
X155003080Y-105310721D01*
X154985167Y-105315670D01*
X154973434Y-105329424D01*
X154852757Y-105329424D01*
X154861594Y-105325496D01*
X154856748Y-105316179D01*
X154819987Y-105312472D01*
X154815447Y-105316179D01*
X154735571Y-105316179D01*
X154841604Y-105280298D01*
X154990093Y-105275525D01*
X155130500Y-105313215D01*
G37*
G36*
X148959585Y-105270818D02*
G01*
X149143938Y-105330431D01*
X149317527Y-105444459D01*
X149331450Y-105456726D01*
X149466436Y-105614986D01*
X149548616Y-105791274D01*
X149580920Y-105976574D01*
X149566278Y-106161870D01*
X149507622Y-106338144D01*
X149407881Y-106496381D01*
X149269985Y-106627563D01*
X149096864Y-106722675D01*
X148904268Y-106771180D01*
X148808139Y-106777832D01*
X148729245Y-106774272D01*
X148718414Y-106772242D01*
X148554658Y-106724221D01*
X148473658Y-106684268D01*
X149074634Y-106684268D01*
X149090122Y-106699756D01*
X149105609Y-106684268D01*
X149090122Y-106668781D01*
X149074634Y-106684268D01*
X148473658Y-106684268D01*
X148428690Y-106662088D01*
X148417299Y-106653293D01*
X149136585Y-106653293D01*
X149152073Y-106668781D01*
X149167561Y-106653293D01*
X149152073Y-106637805D01*
X149136585Y-106653293D01*
X148417299Y-106653293D01*
X148337063Y-106591342D01*
X148393170Y-106591342D01*
X148408658Y-106606829D01*
X148424146Y-106591342D01*
X149105609Y-106591342D01*
X149121097Y-106606829D01*
X149125060Y-106602866D01*
X149237753Y-106602866D01*
X149250161Y-106603711D01*
X149254561Y-106600833D01*
X149320568Y-106543060D01*
X149390720Y-106463916D01*
X149401695Y-106449488D01*
X149448943Y-106382218D01*
X149475324Y-106338390D01*
X149477317Y-106332356D01*
X149467109Y-106330630D01*
X149442727Y-106358648D01*
X149388844Y-106419423D01*
X149319975Y-106496608D01*
X149262524Y-106564775D01*
X149237753Y-106602866D01*
X149125060Y-106602866D01*
X149136585Y-106591342D01*
X149136455Y-106591212D01*
X149152073Y-106591212D01*
X149255409Y-106498350D01*
X149327118Y-106426592D01*
X149380882Y-106359992D01*
X149390847Y-106343537D01*
X149405694Y-106307659D01*
X149395839Y-106312561D01*
X149360947Y-106352441D01*
X149301404Y-106420502D01*
X149260402Y-106467374D01*
X149152073Y-106591212D01*
X149136455Y-106591212D01*
X149121097Y-106575854D01*
X149105609Y-106591342D01*
X148424146Y-106591342D01*
X148408658Y-106575854D01*
X148393170Y-106591342D01*
X148337063Y-106591342D01*
X148324927Y-106581972D01*
X148274398Y-106524228D01*
X148837154Y-106524228D01*
X148841406Y-106542643D01*
X148857805Y-106544878D01*
X148883301Y-106533545D01*
X148878455Y-106524228D01*
X148841694Y-106520521D01*
X148837154Y-106524228D01*
X148274398Y-106524228D01*
X148251811Y-106498415D01*
X148981707Y-106498415D01*
X148997195Y-106513903D01*
X149006888Y-106504210D01*
X149136585Y-106504210D01*
X149146252Y-106512156D01*
X149180169Y-106484312D01*
X149245715Y-106414596D01*
X149246948Y-106413232D01*
X149337927Y-106312561D01*
X149237256Y-106403539D01*
X149176237Y-106460680D01*
X149140478Y-106498027D01*
X149136585Y-106504210D01*
X149006888Y-106504210D01*
X149012683Y-106498415D01*
X148997195Y-106482927D01*
X148981707Y-106498415D01*
X148251811Y-106498415D01*
X148183181Y-106419985D01*
X148140377Y-106328049D01*
X148186438Y-106328049D01*
X148186868Y-106349481D01*
X148216798Y-106402335D01*
X148246908Y-106444207D01*
X148281661Y-106481635D01*
X148287007Y-106471984D01*
X148284692Y-106467439D01*
X148579024Y-106467439D01*
X148594512Y-106482927D01*
X148610000Y-106467439D01*
X148594512Y-106451951D01*
X148579024Y-106467439D01*
X148284692Y-106467439D01*
X148262127Y-106423138D01*
X148250932Y-106405488D01*
X148300244Y-106405488D01*
X148315731Y-106420976D01*
X148331219Y-106405488D01*
X148315731Y-106390000D01*
X148300244Y-106405488D01*
X148250932Y-106405488D01*
X148228336Y-106374512D01*
X148362195Y-106374512D01*
X148377683Y-106390000D01*
X148393170Y-106374512D01*
X148377683Y-106359025D01*
X148362195Y-106374512D01*
X148228336Y-106374512D01*
X148210896Y-106350604D01*
X148186438Y-106328049D01*
X148140377Y-106328049D01*
X148133166Y-106312561D01*
X148238292Y-106312561D01*
X148253780Y-106328049D01*
X148269268Y-106312561D01*
X148253780Y-106297073D01*
X148238292Y-106312561D01*
X148133166Y-106312561D01*
X148099827Y-106240953D01*
X148088842Y-106162894D01*
X148116353Y-106162894D01*
X148123190Y-106215412D01*
X148141649Y-106266262D01*
X148161391Y-106289167D01*
X148165345Y-106287419D01*
X148165203Y-106281585D01*
X148300244Y-106281585D01*
X148315731Y-106297073D01*
X148331219Y-106281585D01*
X148315731Y-106266098D01*
X148300244Y-106281585D01*
X148165203Y-106281585D01*
X148164507Y-106253000D01*
X148163749Y-106250610D01*
X148207317Y-106250610D01*
X148222805Y-106266098D01*
X148238292Y-106250610D01*
X148222805Y-106235122D01*
X148207317Y-106250610D01*
X148163749Y-106250610D01*
X148154229Y-106220573D01*
X148339231Y-106220573D01*
X148345433Y-106233061D01*
X148374970Y-106265086D01*
X148380403Y-106242502D01*
X148372884Y-106218298D01*
X148350079Y-106184564D01*
X148339779Y-106185262D01*
X148339231Y-106220573D01*
X148154229Y-106220573D01*
X148147994Y-106200900D01*
X148126023Y-106158620D01*
X148116353Y-106162894D01*
X148088842Y-106162894D01*
X148074668Y-106062175D01*
X148240738Y-106062175D01*
X148246433Y-106102351D01*
X148257007Y-106102830D01*
X148264401Y-106061373D01*
X148259452Y-106043460D01*
X148245698Y-106031728D01*
X148240738Y-106062175D01*
X148074668Y-106062175D01*
X148072507Y-106046817D01*
X148074708Y-106028053D01*
X148303887Y-106028053D01*
X148307760Y-106074469D01*
X148315303Y-106066891D01*
X148328408Y-106001993D01*
X148332572Y-105977631D01*
X148358530Y-105870434D01*
X148394298Y-105776582D01*
X148408843Y-105750370D01*
X148452872Y-105694061D01*
X148473150Y-105687963D01*
X148467217Y-105724111D01*
X148432614Y-105794538D01*
X148425931Y-105805714D01*
X148370965Y-105943900D01*
X148374666Y-106087250D01*
X148424146Y-106219634D01*
X148467714Y-106307921D01*
X148482641Y-106349247D01*
X148469986Y-106351022D01*
X148439634Y-106328049D01*
X148398898Y-106298615D01*
X148395072Y-106305470D01*
X148422839Y-106339571D01*
X148476885Y-106391871D01*
X148477416Y-106392345D01*
X148520565Y-106427106D01*
X148527668Y-106424165D01*
X148520087Y-106413232D01*
X148493174Y-106374213D01*
X148498400Y-106363129D01*
X148543320Y-106380670D01*
X148626682Y-106422929D01*
X148783018Y-106470654D01*
X148949789Y-106458768D01*
X149025508Y-106434252D01*
X149066241Y-106424575D01*
X149060489Y-106449778D01*
X149055565Y-106473190D01*
X149084012Y-106464477D01*
X149132305Y-106431999D01*
X149186922Y-106384111D01*
X149214371Y-106354683D01*
X149253201Y-106307897D01*
X149251598Y-106302614D01*
X149216731Y-106328583D01*
X149177731Y-106352348D01*
X149171901Y-106343537D01*
X149199997Y-106281585D01*
X149322439Y-106281585D01*
X149337927Y-106297073D01*
X149353414Y-106281585D01*
X149337927Y-106266098D01*
X149477317Y-106266098D01*
X149488650Y-106291594D01*
X149497967Y-106286748D01*
X149501674Y-106249987D01*
X149497967Y-106245447D01*
X149479552Y-106249699D01*
X149477317Y-106266098D01*
X149337927Y-106266098D01*
X149322439Y-106281585D01*
X149199997Y-106281585D01*
X149214044Y-106250610D01*
X149260487Y-106250610D01*
X149275975Y-106266098D01*
X149291463Y-106250610D01*
X149275975Y-106235122D01*
X149260487Y-106250610D01*
X149214044Y-106250610D01*
X149230360Y-106214633D01*
X149246532Y-106173171D01*
X149291463Y-106173171D01*
X149302797Y-106198667D01*
X149312113Y-106193821D01*
X149315821Y-106157060D01*
X149312113Y-106152520D01*
X149293699Y-106156772D01*
X149291463Y-106173171D01*
X149246532Y-106173171D01*
X149258615Y-106142195D01*
X149513183Y-106142195D01*
X149518051Y-106186169D01*
X149528807Y-106180915D01*
X149532898Y-106117497D01*
X149528807Y-106103476D01*
X149517501Y-106099584D01*
X149513183Y-106142195D01*
X149258615Y-106142195D01*
X149265315Y-106125017D01*
X149272231Y-106095732D01*
X149446341Y-106095732D01*
X149461829Y-106111220D01*
X149477317Y-106095732D01*
X149461829Y-106080244D01*
X149446341Y-106095732D01*
X149272231Y-106095732D01*
X149281004Y-106058585D01*
X149281665Y-105999233D01*
X149275129Y-105951335D01*
X149254151Y-105894390D01*
X149513183Y-105894390D01*
X149518051Y-105938364D01*
X149528807Y-105933110D01*
X149532898Y-105869692D01*
X149528807Y-105855671D01*
X149517501Y-105851780D01*
X149513183Y-105894390D01*
X149254151Y-105894390D01*
X149223143Y-105810216D01*
X149179267Y-105755000D01*
X149477317Y-105755000D01*
X149492805Y-105770488D01*
X149508292Y-105755000D01*
X149492805Y-105739512D01*
X149477317Y-105755000D01*
X149179267Y-105755000D01*
X149154653Y-105724025D01*
X149229512Y-105724025D01*
X149245000Y-105739512D01*
X149260487Y-105724025D01*
X149245000Y-105708537D01*
X149229512Y-105724025D01*
X149154653Y-105724025D01*
X149130039Y-105693049D01*
X149446341Y-105693049D01*
X149461829Y-105708537D01*
X149477317Y-105693049D01*
X149461829Y-105677561D01*
X149446341Y-105693049D01*
X149130039Y-105693049D01*
X149126582Y-105688699D01*
X149000225Y-105599667D01*
X148952319Y-105584870D01*
X149107638Y-105584870D01*
X149115330Y-105600910D01*
X149132634Y-105623354D01*
X149177846Y-105671511D01*
X149198028Y-105671301D01*
X149198536Y-105665866D01*
X149177368Y-105640010D01*
X149144329Y-105611659D01*
X149128528Y-105600122D01*
X149384390Y-105600122D01*
X149399878Y-105615610D01*
X149415366Y-105600122D01*
X149399878Y-105584634D01*
X149384390Y-105600122D01*
X149128528Y-105600122D01*
X149107638Y-105584870D01*
X148952319Y-105584870D01*
X148858854Y-105556001D01*
X148818886Y-105553659D01*
X148746309Y-105567579D01*
X148653278Y-105602299D01*
X148625487Y-105615610D01*
X148532336Y-105660572D01*
X148491085Y-105673581D01*
X148500535Y-105654592D01*
X148548048Y-105612842D01*
X148589979Y-105575244D01*
X148581667Y-105571567D01*
X148563536Y-105579711D01*
X148443900Y-105669960D01*
X148355118Y-105799891D01*
X148308195Y-105950497D01*
X148303887Y-106028053D01*
X148074708Y-106028053D01*
X148081304Y-105971829D01*
X148238292Y-105971829D01*
X148253780Y-105987317D01*
X148269268Y-105971829D01*
X148253780Y-105956342D01*
X148238292Y-105971829D01*
X148081304Y-105971829D01*
X148084938Y-105940854D01*
X148115460Y-105940854D01*
X148133333Y-105878903D01*
X148176341Y-105878903D01*
X148191829Y-105894390D01*
X148207317Y-105878903D01*
X148191829Y-105863415D01*
X148176341Y-105878903D01*
X148133333Y-105878903D01*
X148149001Y-105824597D01*
X148152514Y-105816951D01*
X148269268Y-105816951D01*
X148284756Y-105832439D01*
X148300244Y-105816951D01*
X148284756Y-105801464D01*
X148269268Y-105816951D01*
X148152514Y-105816951D01*
X148166745Y-105785976D01*
X148207317Y-105785976D01*
X148222805Y-105801464D01*
X148238292Y-105785976D01*
X148222805Y-105770488D01*
X148207317Y-105785976D01*
X148166745Y-105785976D01*
X148180977Y-105755000D01*
X148300244Y-105755000D01*
X148315731Y-105770488D01*
X148331219Y-105755000D01*
X148315731Y-105739512D01*
X148300244Y-105755000D01*
X148180977Y-105755000D01*
X148187635Y-105740508D01*
X148198355Y-105724025D01*
X148238292Y-105724025D01*
X148253780Y-105739512D01*
X148269268Y-105724025D01*
X148253780Y-105708537D01*
X148238292Y-105724025D01*
X148198355Y-105724025D01*
X148214732Y-105698844D01*
X148331219Y-105698844D01*
X148340886Y-105706790D01*
X148374803Y-105678946D01*
X148440349Y-105609230D01*
X148441582Y-105607866D01*
X148504567Y-105538171D01*
X148640975Y-105538171D01*
X148656463Y-105553659D01*
X148671951Y-105538171D01*
X148981707Y-105538171D01*
X148997195Y-105553659D01*
X149012683Y-105538171D01*
X148997195Y-105522683D01*
X148981707Y-105538171D01*
X148671951Y-105538171D01*
X148656463Y-105522683D01*
X148640975Y-105538171D01*
X148504567Y-105538171D01*
X148532561Y-105507195D01*
X148548048Y-105507195D01*
X148563536Y-105522683D01*
X148579024Y-105507195D01*
X148573862Y-105502033D01*
X148806179Y-105502033D01*
X148810431Y-105520448D01*
X148826829Y-105522683D01*
X148852325Y-105511350D01*
X148847479Y-105502033D01*
X148810719Y-105498325D01*
X148806179Y-105502033D01*
X148573862Y-105502033D01*
X148563536Y-105491707D01*
X148548048Y-105507195D01*
X148532561Y-105507195D01*
X148431890Y-105598173D01*
X148370871Y-105655314D01*
X148335112Y-105692661D01*
X148331219Y-105698844D01*
X148214732Y-105698844D01*
X148236179Y-105665866D01*
X148269268Y-105665866D01*
X148284336Y-105675138D01*
X148325514Y-105635347D01*
X148335170Y-105623354D01*
X148361959Y-105586663D01*
X148345919Y-105594355D01*
X148323475Y-105611659D01*
X148280575Y-105649870D01*
X148269268Y-105665866D01*
X148236179Y-105665866D01*
X148254961Y-105636987D01*
X148326576Y-105547916D01*
X148331699Y-105541964D01*
X148393170Y-105541964D01*
X148408238Y-105551235D01*
X148449416Y-105511444D01*
X148459073Y-105499451D01*
X148485862Y-105462761D01*
X148469821Y-105470453D01*
X148447378Y-105487756D01*
X148404478Y-105525968D01*
X148393170Y-105541964D01*
X148331699Y-105541964D01*
X148395170Y-105468222D01*
X148420063Y-105430298D01*
X148402037Y-105432797D01*
X148388621Y-105441069D01*
X148289170Y-105530914D01*
X148201738Y-105652788D01*
X148143294Y-105780853D01*
X148131033Y-105833209D01*
X148115460Y-105940854D01*
X148084938Y-105940854D01*
X148097282Y-105835636D01*
X148170023Y-105651341D01*
X148282342Y-105497867D01*
X148420833Y-105383293D01*
X148486097Y-105383293D01*
X148501585Y-105398781D01*
X148517073Y-105383293D01*
X149136585Y-105383293D01*
X149152073Y-105398781D01*
X149167561Y-105383293D01*
X149152073Y-105367805D01*
X149136585Y-105383293D01*
X148517073Y-105383293D01*
X148501585Y-105367805D01*
X148486097Y-105383293D01*
X148420833Y-105383293D01*
X148425848Y-105379144D01*
X148492315Y-105347155D01*
X148558374Y-105347155D01*
X148562626Y-105365570D01*
X148579024Y-105367805D01*
X148604520Y-105356471D01*
X148602359Y-105352317D01*
X149074634Y-105352317D01*
X149090122Y-105367805D01*
X149105609Y-105352317D01*
X149090122Y-105336829D01*
X149074634Y-105352317D01*
X148602359Y-105352317D01*
X148599674Y-105347155D01*
X148562914Y-105343447D01*
X148558374Y-105347155D01*
X148492315Y-105347155D01*
X148556677Y-105316179D01*
X148651300Y-105316179D01*
X148655552Y-105334594D01*
X148671951Y-105336829D01*
X148697447Y-105325496D01*
X148692601Y-105316179D01*
X148655840Y-105312472D01*
X148651300Y-105316179D01*
X148556677Y-105316179D01*
X148592150Y-105299107D01*
X148772859Y-105261687D01*
X148959585Y-105270818D01*
G37*
G36*
X151591190Y-105299669D02*
G01*
X151772096Y-105382538D01*
X151926736Y-105514599D01*
X151926904Y-105514791D01*
X152034281Y-105664364D01*
X152092496Y-105821253D01*
X152109943Y-106008152D01*
X152109941Y-106009554D01*
X152080926Y-106222575D01*
X151998960Y-106412761D01*
X151870539Y-106571618D01*
X151702160Y-106690654D01*
X151542300Y-106751699D01*
X151427911Y-106778874D01*
X151345262Y-106787824D01*
X151266777Y-106778203D01*
X151164881Y-106749667D01*
X151155885Y-106746867D01*
X151086390Y-106715244D01*
X151211951Y-106715244D01*
X151227439Y-106730732D01*
X151242927Y-106715244D01*
X151227439Y-106699756D01*
X151211951Y-106715244D01*
X151086390Y-106715244D01*
X151006973Y-106679106D01*
X151593983Y-106679106D01*
X151598235Y-106697521D01*
X151614634Y-106699756D01*
X151640130Y-106688423D01*
X151635284Y-106679106D01*
X151598523Y-106675399D01*
X151593983Y-106679106D01*
X151006973Y-106679106D01*
X150957683Y-106656677D01*
X150953547Y-106653293D01*
X151026097Y-106653293D01*
X151041585Y-106668781D01*
X151686408Y-106668781D01*
X151719216Y-106649628D01*
X151781398Y-106600332D01*
X151833379Y-106554950D01*
X151937399Y-106446329D01*
X152011341Y-106339501D01*
X152045780Y-106248846D01*
X152047080Y-106228916D01*
X152036126Y-106226594D01*
X152010432Y-106270969D01*
X152002112Y-106289329D01*
X151964890Y-106360905D01*
X151938508Y-106388033D01*
X151930112Y-106367188D01*
X151939269Y-106320305D01*
X151950937Y-106272495D01*
X151940243Y-106281903D01*
X151921790Y-106312561D01*
X151878742Y-106373763D01*
X151814225Y-106453558D01*
X151788665Y-106482927D01*
X151692073Y-106591342D01*
X151808231Y-106484594D01*
X151873077Y-106430943D01*
X151915240Y-106407456D01*
X151924390Y-106412486D01*
X151902500Y-106450435D01*
X151846183Y-106511218D01*
X151794912Y-106557952D01*
X151728007Y-106618116D01*
X151689725Y-106658366D01*
X151686408Y-106668781D01*
X151041585Y-106668781D01*
X151057073Y-106653293D01*
X151041585Y-106637805D01*
X151026097Y-106653293D01*
X150953547Y-106653293D01*
X150915688Y-106622317D01*
X150964146Y-106622317D01*
X150979634Y-106637805D01*
X150995122Y-106622317D01*
X151583658Y-106622317D01*
X151599146Y-106637805D01*
X151614634Y-106622317D01*
X151599146Y-106606829D01*
X151583658Y-106622317D01*
X150995122Y-106622317D01*
X150979634Y-106606829D01*
X150964146Y-106622317D01*
X150915688Y-106622317D01*
X150877830Y-106591342D01*
X151645609Y-106591342D01*
X151661097Y-106606829D01*
X151676585Y-106591342D01*
X151661097Y-106575854D01*
X151645609Y-106591342D01*
X150877830Y-106591342D01*
X150839971Y-106560366D01*
X151552683Y-106560366D01*
X151568170Y-106575854D01*
X151583658Y-106560366D01*
X151568170Y-106544878D01*
X151552683Y-106560366D01*
X150839971Y-106560366D01*
X150802112Y-106529390D01*
X150840244Y-106529390D01*
X150855731Y-106544878D01*
X150871219Y-106529390D01*
X151304878Y-106529390D01*
X151320366Y-106544878D01*
X151335853Y-106529390D01*
X151366829Y-106529390D01*
X151382317Y-106544878D01*
X151397805Y-106529390D01*
X151614634Y-106529390D01*
X151630122Y-106544878D01*
X151645609Y-106529390D01*
X151630122Y-106513903D01*
X151614634Y-106529390D01*
X151397805Y-106529390D01*
X151382317Y-106513903D01*
X151366829Y-106529390D01*
X151335853Y-106529390D01*
X151320366Y-106513903D01*
X151304878Y-106529390D01*
X150871219Y-106529390D01*
X150855731Y-106513903D01*
X150840244Y-106529390D01*
X150802112Y-106529390D01*
X150800813Y-106528327D01*
X150779282Y-106498415D01*
X151180975Y-106498415D01*
X151196463Y-106513903D01*
X151211951Y-106498415D01*
X151196463Y-106482927D01*
X151180975Y-106498415D01*
X150779282Y-106498415D01*
X150687481Y-106370883D01*
X150651109Y-106275380D01*
X150685481Y-106275380D01*
X150698069Y-106320227D01*
X150727963Y-106382538D01*
X150762957Y-106440733D01*
X150790842Y-106473232D01*
X150797733Y-106473811D01*
X150796767Y-106467439D01*
X151119024Y-106467439D01*
X151134512Y-106482927D01*
X151150000Y-106467439D01*
X151134512Y-106451951D01*
X151119024Y-106467439D01*
X150796767Y-106467439D01*
X150792721Y-106440741D01*
X150761931Y-106376670D01*
X150760667Y-106374512D01*
X150809268Y-106374512D01*
X150824756Y-106390000D01*
X150840244Y-106374512D01*
X150824756Y-106359025D01*
X150809268Y-106374512D01*
X150760667Y-106374512D01*
X150749102Y-106354774D01*
X150741624Y-106343537D01*
X150871219Y-106343537D01*
X150886707Y-106359025D01*
X150902195Y-106343537D01*
X150886707Y-106328049D01*
X150871219Y-106343537D01*
X150741624Y-106343537D01*
X150709651Y-106295493D01*
X150687337Y-106272485D01*
X150685481Y-106275380D01*
X150651109Y-106275380D01*
X150623980Y-106204146D01*
X150654390Y-106204146D01*
X150665723Y-106229643D01*
X150675040Y-106224797D01*
X150678747Y-106188036D01*
X150675040Y-106183496D01*
X150656625Y-106187748D01*
X150654390Y-106204146D01*
X150623980Y-106204146D01*
X150619891Y-106193410D01*
X150601637Y-106018293D01*
X150628305Y-106018293D01*
X150633173Y-106062267D01*
X150643929Y-106057012D01*
X150644429Y-106049268D01*
X150840244Y-106049268D01*
X150851577Y-106074765D01*
X150860894Y-106069919D01*
X150864601Y-106033158D01*
X150860894Y-106028618D01*
X150842479Y-106032870D01*
X150840244Y-106049268D01*
X150644429Y-106049268D01*
X150648020Y-105993594D01*
X150643929Y-105979573D01*
X150632623Y-105975682D01*
X150628305Y-106018293D01*
X150601637Y-106018293D01*
X150600249Y-106004974D01*
X150610528Y-105940854D01*
X150840244Y-105940854D01*
X150855731Y-105956342D01*
X150871219Y-105940854D01*
X150855731Y-105925366D01*
X150840244Y-105940854D01*
X150610528Y-105940854D01*
X150625839Y-105845346D01*
X150656835Y-105845346D01*
X150662530Y-105885521D01*
X150673104Y-105886001D01*
X150680499Y-105844544D01*
X150679168Y-105839728D01*
X150871335Y-105839728D01*
X150884833Y-105842460D01*
X150918328Y-105801147D01*
X150930776Y-105781612D01*
X150980824Y-105710035D01*
X151025204Y-105662959D01*
X151029678Y-105659860D01*
X151038948Y-105665821D01*
X151015563Y-105709682D01*
X150998071Y-105735370D01*
X150926171Y-105886373D01*
X150911671Y-106049095D01*
X150945876Y-106186779D01*
X150976363Y-106272398D01*
X150981620Y-106315663D01*
X150963924Y-106311109D01*
X150925553Y-106253272D01*
X150921347Y-106245604D01*
X150889420Y-106197198D01*
X150872982Y-106192669D01*
X150872459Y-106196857D01*
X150891946Y-106239922D01*
X150943143Y-106307177D01*
X150983823Y-106351735D01*
X151038418Y-106405573D01*
X151063239Y-106425230D01*
X151057470Y-106413232D01*
X151032462Y-106374354D01*
X151038322Y-106363118D01*
X151083175Y-106380107D01*
X151165487Y-106420976D01*
X151324992Y-106473296D01*
X151475147Y-106465592D01*
X151611314Y-106399607D01*
X151728855Y-106277090D01*
X151782664Y-106188590D01*
X151814072Y-106139547D01*
X151830474Y-106135777D01*
X151831156Y-106142195D01*
X151806780Y-106226327D01*
X151743610Y-106320985D01*
X151656940Y-106406483D01*
X151592718Y-106449167D01*
X151529421Y-106486425D01*
X151504569Y-106509290D01*
X151509382Y-106512534D01*
X151555058Y-106497288D01*
X151626235Y-106457693D01*
X151639628Y-106448968D01*
X151738284Y-106448968D01*
X151758211Y-106433454D01*
X151792744Y-106399633D01*
X151853027Y-106330663D01*
X151888454Y-106274434D01*
X151892472Y-106258809D01*
X151880156Y-106250495D01*
X151857351Y-106281585D01*
X151812535Y-106350511D01*
X151757622Y-106422410D01*
X151738284Y-106448968D01*
X151639628Y-106448968D01*
X151647098Y-106444102D01*
X151732663Y-106370378D01*
X151803502Y-106283444D01*
X151808953Y-106274516D01*
X151836639Y-106219634D01*
X151955366Y-106219634D01*
X151970853Y-106235122D01*
X151986341Y-106219634D01*
X151970853Y-106204146D01*
X151955366Y-106219634D01*
X151836639Y-106219634D01*
X151840964Y-106211061D01*
X151845143Y-106188659D01*
X151893414Y-106188659D01*
X151908902Y-106204146D01*
X151924390Y-106188659D01*
X151908902Y-106173171D01*
X151893414Y-106188659D01*
X151845143Y-106188659D01*
X151851950Y-106152171D01*
X151845876Y-106095732D01*
X152054331Y-106095732D01*
X152057679Y-106148633D01*
X152067376Y-106153290D01*
X152068610Y-106150529D01*
X152074738Y-106089036D01*
X152069758Y-106057602D01*
X152059898Y-106044970D01*
X152054535Y-106086113D01*
X152054331Y-106095732D01*
X151845876Y-106095732D01*
X151843523Y-106073872D01*
X151835147Y-106033781D01*
X151862439Y-106033781D01*
X151877927Y-106049268D01*
X151893414Y-106033781D01*
X151877927Y-106018293D01*
X151862439Y-106033781D01*
X151835147Y-106033781D01*
X151827567Y-105997497D01*
X151818312Y-105971829D01*
X152048292Y-105971829D01*
X152063780Y-105987317D01*
X152079268Y-105971829D01*
X152063780Y-105956342D01*
X152048292Y-105971829D01*
X151818312Y-105971829D01*
X151790390Y-105894390D01*
X152048292Y-105894390D01*
X152059626Y-105919887D01*
X152068943Y-105915041D01*
X152072650Y-105878280D01*
X152068943Y-105873740D01*
X152050528Y-105877992D01*
X152048292Y-105894390D01*
X151790390Y-105894390D01*
X151763220Y-105819038D01*
X151738675Y-105785976D01*
X152017317Y-105785976D01*
X152032805Y-105801464D01*
X152048292Y-105785976D01*
X152032805Y-105770488D01*
X152017317Y-105785976D01*
X151738675Y-105785976D01*
X151661997Y-105682693D01*
X151560852Y-105615845D01*
X151678614Y-105615845D01*
X151686306Y-105631886D01*
X151703610Y-105654329D01*
X151748822Y-105702487D01*
X151769003Y-105702277D01*
X151769512Y-105696842D01*
X151748344Y-105670985D01*
X151715305Y-105642634D01*
X151678614Y-105615845D01*
X151560852Y-105615845D01*
X151529106Y-105594864D01*
X151487859Y-105580114D01*
X151430255Y-105569146D01*
X151583658Y-105569146D01*
X151599146Y-105584634D01*
X151614634Y-105569146D01*
X151608026Y-105562538D01*
X151898407Y-105562538D01*
X151905944Y-105579848D01*
X151937133Y-105613102D01*
X151955064Y-105606280D01*
X151955366Y-105601950D01*
X151933364Y-105575750D01*
X151919604Y-105566189D01*
X151898407Y-105562538D01*
X151608026Y-105562538D01*
X151599146Y-105553659D01*
X151583658Y-105569146D01*
X151430255Y-105569146D01*
X151394468Y-105562332D01*
X151297193Y-105569451D01*
X151176858Y-105604230D01*
X151091481Y-105637129D01*
X151063296Y-105637338D01*
X151071005Y-105611884D01*
X151065103Y-105607487D01*
X151026222Y-105640955D01*
X150982390Y-105684850D01*
X150918869Y-105758060D01*
X150878684Y-105818027D01*
X150871335Y-105839728D01*
X150679168Y-105839728D01*
X150675550Y-105826631D01*
X150661796Y-105814898D01*
X150656835Y-105845346D01*
X150625839Y-105845346D01*
X150630761Y-105814640D01*
X150665664Y-105737496D01*
X150692960Y-105737496D01*
X150697197Y-105739512D01*
X150725465Y-105717706D01*
X150731829Y-105708537D01*
X150732379Y-105706520D01*
X150878814Y-105706520D01*
X150883051Y-105708537D01*
X150911319Y-105686730D01*
X150917683Y-105677561D01*
X150925576Y-105648602D01*
X150921339Y-105646585D01*
X150893071Y-105668392D01*
X150886707Y-105677561D01*
X150878814Y-105706520D01*
X150732379Y-105706520D01*
X150739722Y-105679578D01*
X150735485Y-105677561D01*
X150707217Y-105699367D01*
X150700853Y-105708537D01*
X150692960Y-105737496D01*
X150665664Y-105737496D01*
X150707707Y-105644569D01*
X150754911Y-105644569D01*
X150759148Y-105646585D01*
X150787416Y-105624779D01*
X150793780Y-105615610D01*
X150801673Y-105586651D01*
X150797436Y-105584634D01*
X150769168Y-105606440D01*
X150762805Y-105615610D01*
X150754911Y-105644569D01*
X150707707Y-105644569D01*
X150713632Y-105631474D01*
X150764459Y-105569146D01*
X151119024Y-105569146D01*
X151134512Y-105584634D01*
X151150000Y-105569146D01*
X151134512Y-105553659D01*
X151119024Y-105569146D01*
X150764459Y-105569146D01*
X150786625Y-105541964D01*
X150809268Y-105541964D01*
X150824336Y-105551235D01*
X150837855Y-105538171D01*
X151026097Y-105538171D01*
X151041585Y-105553659D01*
X151057073Y-105538171D01*
X151051910Y-105533008D01*
X151191300Y-105533008D01*
X151195552Y-105551423D01*
X151211951Y-105553659D01*
X151237447Y-105542325D01*
X151232601Y-105533008D01*
X151501057Y-105533008D01*
X151505309Y-105551423D01*
X151521707Y-105553659D01*
X151547203Y-105542325D01*
X151542357Y-105533008D01*
X151505597Y-105529301D01*
X151501057Y-105533008D01*
X151232601Y-105533008D01*
X151195840Y-105529301D01*
X151191300Y-105533008D01*
X151051910Y-105533008D01*
X151041585Y-105522683D01*
X151026097Y-105538171D01*
X150837855Y-105538171D01*
X150865514Y-105511444D01*
X150865809Y-105511077D01*
X151331555Y-105511077D01*
X151372698Y-105516440D01*
X151382317Y-105516644D01*
X151435218Y-105513296D01*
X151439875Y-105503599D01*
X151437114Y-105502365D01*
X151375621Y-105496237D01*
X151344187Y-105501217D01*
X151331555Y-105511077D01*
X150865809Y-105511077D01*
X150875170Y-105499451D01*
X150901959Y-105462761D01*
X150885919Y-105470453D01*
X150863475Y-105487756D01*
X150820575Y-105525968D01*
X150809268Y-105541964D01*
X150786625Y-105541964D01*
X150845273Y-105470046D01*
X150861077Y-105458715D01*
X150940765Y-105458715D01*
X150945002Y-105460732D01*
X150971773Y-105440081D01*
X151315203Y-105440081D01*
X151319455Y-105458496D01*
X151335853Y-105460732D01*
X151361350Y-105449398D01*
X151356504Y-105440081D01*
X151342165Y-105438635D01*
X151774505Y-105438635D01*
X151782042Y-105455946D01*
X151813231Y-105489200D01*
X151831162Y-105482378D01*
X151831463Y-105478048D01*
X151809462Y-105451848D01*
X151795701Y-105442286D01*
X151774505Y-105438635D01*
X151342165Y-105438635D01*
X151319743Y-105436374D01*
X151315203Y-105440081D01*
X150971773Y-105440081D01*
X150973270Y-105438926D01*
X150979634Y-105429756D01*
X150987527Y-105400797D01*
X150983290Y-105398781D01*
X150955022Y-105420587D01*
X150948658Y-105429756D01*
X150940765Y-105458715D01*
X150861077Y-105458715D01*
X150966269Y-105383293D01*
X151026097Y-105383293D01*
X151041585Y-105398781D01*
X151048991Y-105391375D01*
X151225386Y-105391375D01*
X151255833Y-105396335D01*
X151296009Y-105390640D01*
X151296488Y-105380066D01*
X151255031Y-105372672D01*
X151237119Y-105377621D01*
X151225386Y-105391375D01*
X151048991Y-105391375D01*
X151057073Y-105383293D01*
X151041585Y-105367805D01*
X151026097Y-105383293D01*
X150966269Y-105383293D01*
X151009472Y-105352317D01*
X151088048Y-105352317D01*
X151103536Y-105367805D01*
X151119024Y-105352317D01*
X151103536Y-105336829D01*
X151088048Y-105352317D01*
X151009472Y-105352317D01*
X151011059Y-105351179D01*
X151071352Y-105329424D01*
X151194410Y-105329424D01*
X151224857Y-105334384D01*
X151265033Y-105328689D01*
X151265367Y-105321342D01*
X151459756Y-105321342D01*
X151475244Y-105336829D01*
X151490731Y-105321342D01*
X151521707Y-105321342D01*
X151537195Y-105336829D01*
X151552683Y-105321342D01*
X151537195Y-105305854D01*
X151521707Y-105321342D01*
X151490731Y-105321342D01*
X151475244Y-105305854D01*
X151459756Y-105321342D01*
X151265367Y-105321342D01*
X151265513Y-105318115D01*
X151224055Y-105310721D01*
X151206143Y-105315670D01*
X151194410Y-105329424D01*
X151071352Y-105329424D01*
X151198652Y-105283491D01*
X151396036Y-105266487D01*
X151591190Y-105299669D01*
G37*
D12*
%TO.C,C3*%
X134351252Y-88730000D02*
X132928748Y-88730000D01*
X134351252Y-90550000D02*
X132928748Y-90550000D01*
%TO.C,C1*%
X128970000Y-101618748D02*
X128970000Y-103041252D01*
X130790000Y-101618748D02*
X130790000Y-103041252D01*
D17*
%TO.C,J4*%
X140244000Y-76694400D02*
X155744000Y-76694400D01*
X140244000Y-87694400D02*
X140244000Y-76694400D01*
X155744000Y-76694400D02*
X155744000Y-87694400D01*
X155744000Y-87694400D02*
X140244000Y-87694400D01*
D18*
X157244000Y-84694400D02*
X157244000Y-84694400D01*
X157444000Y-84694400D02*
X157444000Y-84694400D01*
X157244000Y-84694400D02*
G75*
G02*
X157444000Y-84694400I100000J0D01*
G01*
X157444000Y-84694400D02*
G75*
G02*
X157244000Y-84694400I-100000J0D01*
G01*
D16*
%TO.C,kibuzzard-66B25C50*%
G36*
X128146574Y-107394521D02*
G01*
X127788920Y-107394521D01*
X127399221Y-107394521D01*
X127061023Y-107394521D01*
X126820680Y-107394521D01*
X126463026Y-107394521D01*
X126463026Y-106648455D01*
X126828405Y-106648455D01*
X126840422Y-106709828D01*
X126992354Y-106999099D01*
X127019392Y-107027425D01*
X127061023Y-107036867D01*
X127102654Y-107027425D01*
X127129693Y-106999099D01*
X127281624Y-106709828D01*
X127295787Y-106667768D01*
X127289092Y-106645451D01*
X127321109Y-106645451D01*
X127322397Y-106675064D01*
X127330551Y-106698670D01*
X127354585Y-106718412D01*
X127399221Y-106724421D01*
X127444714Y-106718841D01*
X127468748Y-106700815D01*
X127476903Y-106678927D01*
X127478191Y-106651459D01*
X127494929Y-106598026D01*
X127545143Y-106580215D01*
X127588491Y-106591803D01*
X127607375Y-106614120D01*
X127610379Y-106636867D01*
X127602761Y-106669914D01*
X127579907Y-106702103D01*
X127547182Y-106731288D01*
X127509950Y-106755322D01*
X127468534Y-106779464D01*
X127423255Y-106808970D01*
X127381839Y-106840622D01*
X127352010Y-106871202D01*
X127328834Y-106910901D01*
X127321109Y-106954464D01*
X127344285Y-107010687D01*
X127399221Y-107034292D01*
X127709092Y-107034292D01*
X127738706Y-107032575D01*
X127763169Y-107023991D01*
X127782912Y-107000386D01*
X127788920Y-106956180D01*
X127782912Y-106910687D01*
X127763598Y-106886652D01*
X127740422Y-106878069D01*
X127710809Y-106876352D01*
X127603512Y-106876352D01*
X127655015Y-106845880D01*
X127707375Y-106800815D01*
X127732161Y-106770343D01*
X127751581Y-106733863D01*
X127764135Y-106693090D01*
X127768319Y-106649742D01*
X127761071Y-106589943D01*
X127739326Y-106536438D01*
X127703083Y-106489227D01*
X127656445Y-106452508D01*
X127603512Y-106430477D01*
X127544285Y-106423133D01*
X127482101Y-106430763D01*
X127428310Y-106453653D01*
X127382912Y-106491803D01*
X127348577Y-106539394D01*
X127327976Y-106590610D01*
X127321109Y-106645451D01*
X127289092Y-106645451D01*
X127285487Y-106633433D01*
X127247289Y-106604249D01*
X127184628Y-106590086D01*
X127161882Y-106605644D01*
X127141710Y-106639442D01*
X127061023Y-106823133D01*
X126980336Y-106639442D01*
X126938706Y-106590515D01*
X126874757Y-106604249D01*
X126828405Y-106648455D01*
X126463026Y-106648455D01*
X126463026Y-106065479D01*
X126820680Y-106065479D01*
X127788920Y-106065479D01*
X128146574Y-106065479D01*
X128146574Y-107394521D01*
G37*
%TD*%
%LPC*%
%TO.C,U1*%
G36*
X131204401Y-94616001D02*
G01*
X131204401Y-95116000D01*
X131104401Y-95216000D01*
X130954399Y-95216000D01*
X130854399Y-95116000D01*
X130854399Y-94616001D01*
X130954399Y-94516001D01*
X131104401Y-94516001D01*
X131204401Y-94616001D01*
G37*
G36*
X131204401Y-97416000D02*
G01*
X131204401Y-97915999D01*
X131104401Y-98015999D01*
X130954399Y-98015999D01*
X130854399Y-97915999D01*
X130854399Y-97416000D01*
X130954399Y-97316000D01*
X131104401Y-97316000D01*
X131204401Y-97416000D01*
G37*
G36*
X131704400Y-94616001D02*
G01*
X131704400Y-95116000D01*
X131604400Y-95216000D01*
X131454400Y-95216000D01*
X131354401Y-95116000D01*
X131354401Y-94616001D01*
X131454400Y-94516001D01*
X131604400Y-94516001D01*
X131704400Y-94616001D01*
G37*
G36*
X131704400Y-97416000D02*
G01*
X131704400Y-97915999D01*
X131604400Y-98015999D01*
X131454400Y-98015999D01*
X131354401Y-97915999D01*
X131354401Y-97416000D01*
X131454400Y-97316000D01*
X131604400Y-97316000D01*
X131704400Y-97416000D01*
G37*
G36*
X132204399Y-97416000D02*
G01*
X132204399Y-97915999D01*
X132104399Y-98015999D01*
X131954399Y-98015999D01*
X131854400Y-97915999D01*
X131854400Y-97416000D01*
X131954399Y-97316000D01*
X132104399Y-97316000D01*
X132204399Y-97416000D01*
G37*
G36*
X132204399Y-94616001D02*
G01*
X132204399Y-95116000D01*
X132104399Y-95216000D01*
X131954399Y-95216000D01*
X131854400Y-95116000D01*
X131854400Y-94616001D01*
X131954399Y-94516001D01*
X132104399Y-94516001D01*
X132204399Y-94616001D01*
G37*
G36*
X132904400Y-95940999D02*
G01*
X132904400Y-96090999D01*
X132804400Y-96190999D01*
X132304399Y-96190999D01*
X132204399Y-96090999D01*
X132204399Y-95940999D01*
X132304399Y-95841000D01*
X132804400Y-95841000D01*
X132904400Y-95940999D01*
G37*
G36*
X132904400Y-96441001D02*
G01*
X132904400Y-96591001D01*
X132804400Y-96691000D01*
X132304399Y-96691000D01*
X132204399Y-96591001D01*
X132204399Y-96441001D01*
X132304399Y-96341001D01*
X132804400Y-96341001D01*
X132904400Y-96441001D01*
G37*
G36*
X132904400Y-96941000D02*
G01*
X132904400Y-97091000D01*
X132804400Y-97190999D01*
X132304399Y-97190999D01*
X132204399Y-97091000D01*
X132204399Y-96941000D01*
X132304399Y-96841000D01*
X132804400Y-96841000D01*
X132904400Y-96941000D01*
G37*
G36*
X132904400Y-95441000D02*
G01*
X132904400Y-95591000D01*
X132804400Y-95691000D01*
X132304399Y-95691000D01*
X132204399Y-95591000D01*
X132204399Y-95441000D01*
X132304399Y-95341001D01*
X132804400Y-95341001D01*
X132904400Y-95441000D01*
G37*
G36*
X129879382Y-94616024D02*
G01*
X129879385Y-94916023D01*
X129954383Y-94916023D01*
X129954383Y-96091022D01*
X129904383Y-96141024D01*
X129604384Y-96141022D01*
X129554384Y-96091024D01*
X129554384Y-94916023D01*
X129629385Y-94916023D01*
X129629385Y-94616024D01*
X129679385Y-94566024D01*
X129829385Y-94566024D01*
X129879382Y-94616024D01*
G37*
G36*
X129904416Y-96391001D02*
G01*
X129954416Y-96440998D01*
X129954416Y-97616000D01*
X129879415Y-97616000D01*
X129879415Y-97915999D01*
X129829415Y-97965999D01*
X129679415Y-97965999D01*
X129629418Y-97915999D01*
X129629416Y-97616000D01*
X129554417Y-97616000D01*
X129554417Y-96441001D01*
X129604417Y-96390998D01*
X129904416Y-96391001D01*
G37*
G36*
X130604433Y-96391001D02*
G01*
X130654433Y-96440998D01*
X130654433Y-97616000D01*
X130579431Y-97616000D01*
X130579431Y-97915999D01*
X130529429Y-97965999D01*
X130379432Y-97965999D01*
X130329432Y-97915999D01*
X130329432Y-97616000D01*
X130254431Y-97616000D01*
X130254433Y-96441001D01*
X130304433Y-96390998D01*
X130604433Y-96391001D01*
G37*
G36*
X130579398Y-94616001D02*
G01*
X130579401Y-94916000D01*
X130654400Y-94916000D01*
X130654400Y-96090999D01*
X130604400Y-96141002D01*
X130304400Y-96140999D01*
X130254400Y-96091002D01*
X130254400Y-94916000D01*
X130329399Y-94916000D01*
X130329401Y-94616001D01*
X130379401Y-94566001D01*
X130529401Y-94566001D01*
X130579398Y-94616001D01*
G37*
G36*
X129179401Y-94616001D02*
G01*
X129179401Y-94916000D01*
X129254400Y-94916000D01*
X129254400Y-97616000D01*
X129179401Y-97616000D01*
X129179399Y-97915999D01*
X129129399Y-97965999D01*
X128979399Y-97965999D01*
X128929399Y-97915999D01*
X128929399Y-97616000D01*
X128854401Y-97616000D01*
X128854401Y-97141000D01*
X128004400Y-97141000D01*
X127954400Y-97091000D01*
X127954400Y-96941000D01*
X128004400Y-96891000D01*
X128854401Y-96891000D01*
X128854401Y-96641001D01*
X128004400Y-96641001D01*
X127954400Y-96591001D01*
X127954400Y-96441001D01*
X128004400Y-96391001D01*
X128854401Y-96391001D01*
X128854401Y-96140999D01*
X128004400Y-96140999D01*
X127954400Y-96090999D01*
X127954400Y-95940999D01*
X128004400Y-95890999D01*
X128854401Y-95890999D01*
X128854401Y-95641000D01*
X128004400Y-95641000D01*
X127954400Y-95591000D01*
X127954400Y-95441000D01*
X128004400Y-95391000D01*
X128854401Y-95391000D01*
X128854401Y-94916000D01*
X128929399Y-94916000D01*
X128929399Y-94616001D01*
X128979399Y-94566001D01*
X129129399Y-94566001D01*
X129179401Y-94616001D01*
G37*
%TD*%
D19*
%TO.C,*%
X105690000Y-91170000D03*
%TD*%
%TO.C,*%
X137820000Y-105830000D03*
%TD*%
%TO.C,*%
X107380000Y-89960000D03*
%TD*%
%TO.C,*%
X96030000Y-93430000D03*
%TD*%
%TO.C,*%
X134820000Y-105760000D03*
%TD*%
%TO.C,*%
X92600000Y-91090000D03*
%TD*%
%TO.C,*%
X118980000Y-101190000D03*
%TD*%
%TO.C,*%
X127490000Y-91220000D03*
%TD*%
%TO.C,*%
X97540000Y-87630000D03*
%TD*%
%TO.C,*%
X104290000Y-102540000D03*
%TD*%
D20*
%TO.C,R1*%
X135200000Y-92250000D03*
X132100000Y-92250000D03*
%TD*%
D19*
%TO.C,*%
X115880000Y-92690000D03*
%TD*%
D21*
%TO.C,J3*%
X135331200Y-84654400D03*
X135331200Y-79654400D03*
X131831197Y-84654400D03*
X131831197Y-79654400D03*
%TD*%
D19*
%TO.C,*%
X124150000Y-102530000D03*
%TD*%
%TO.C,*%
X162750000Y-89640000D03*
%TD*%
%TO.C,*%
X94430000Y-89940000D03*
%TD*%
%TO.C,*%
X134840000Y-106950000D03*
%TD*%
%TO.C,*%
X114170000Y-102500000D03*
%TD*%
D22*
%TO.C,U1*%
X130454400Y-95265999D03*
X130454400Y-97266001D03*
X130454400Y-96266000D03*
X129754399Y-95265999D03*
X129754399Y-97266001D03*
X128604401Y-97266001D03*
X128604401Y-95265999D03*
%TD*%
D21*
%TO.C,J5*%
X102520000Y-98577200D03*
X107520000Y-98577200D03*
X102520000Y-95077197D03*
X107520000Y-95077197D03*
%TD*%
D19*
%TO.C,*%
X119040000Y-99320000D03*
%TD*%
%TO.C,*%
X142250000Y-106990000D03*
%TD*%
%TO.C,*%
X117940000Y-94570000D03*
%TD*%
%TO.C,*%
X162820000Y-97080000D03*
%TD*%
%TO.C,*%
X139230000Y-105870000D03*
%TD*%
%TO.C,*%
X115900000Y-89390000D03*
%TD*%
%TO.C,*%
X122470000Y-101200000D03*
%TD*%
%TO.C,*%
X96010000Y-95850000D03*
%TD*%
%TO.C,*%
X92710000Y-84600000D03*
%TD*%
%TO.C,*%
X94450000Y-93430000D03*
%TD*%
%TO.C,*%
X97720000Y-100060000D03*
%TD*%
%TO.C,*%
X124120000Y-101210000D03*
%TD*%
%TO.C,*%
X118980000Y-98160000D03*
%TD*%
%TO.C,*%
X122500000Y-102520000D03*
%TD*%
%TO.C,*%
X97430000Y-86150000D03*
%TD*%
%TO.C,*%
X161240000Y-97110000D03*
%TD*%
%TO.C,*%
X112320000Y-101180000D03*
%TD*%
%TO.C,*%
X92740000Y-86180000D03*
%TD*%
%TO.C,*%
X125770000Y-91200000D03*
%TD*%
D23*
%TO.C,C2*%
X135020000Y-100770000D03*
X142220000Y-100770000D03*
%TD*%
D19*
%TO.C,*%
X127070000Y-95680000D03*
%TD*%
%TO.C,*%
X95020000Y-86180000D03*
%TD*%
%TO.C,*%
X143730000Y-107020000D03*
%TD*%
%TO.C,*%
X92570000Y-94610000D03*
%TD*%
%TO.C,*%
X161170000Y-89670000D03*
%TD*%
%TO.C,*%
X139250000Y-107060000D03*
%TD*%
%TO.C,*%
X159760000Y-97220000D03*
%TD*%
%TO.C,*%
X125770000Y-101120000D03*
%TD*%
%TO.C,*%
X162790000Y-99460000D03*
%TD*%
%TO.C,*%
X94450000Y-100040000D03*
%TD*%
%TO.C,*%
X104080000Y-89940000D03*
%TD*%
%TO.C,*%
X92610000Y-93440000D03*
%TD*%
%TO.C,*%
X122350000Y-91210000D03*
%TD*%
%TO.C,*%
X96010000Y-89940000D03*
%TD*%
%TO.C,*%
X159660000Y-87370000D03*
%TD*%
%TO.C,*%
X92590000Y-95860000D03*
%TD*%
%TO.C,*%
X127130000Y-97650000D03*
%TD*%
%TO.C,*%
X94460000Y-98900000D03*
%TD*%
%TO.C,*%
X104110000Y-91170000D03*
%TD*%
D24*
%TO.C,J2*%
X122732800Y-84705200D03*
X122732800Y-79705200D03*
X119232800Y-84705200D03*
X119232800Y-79705200D03*
X115732800Y-84705200D03*
X115732800Y-79705200D03*
X112232800Y-84705200D03*
X112232800Y-79705200D03*
%TD*%
D19*
%TO.C,*%
X105910000Y-102550000D03*
%TD*%
%TO.C,*%
X92850000Y-87660000D03*
%TD*%
%TO.C,*%
X119010000Y-102510000D03*
%TD*%
%TO.C,*%
X92610000Y-92240000D03*
%TD*%
%TO.C,*%
X114190000Y-101180000D03*
%TD*%
%TO.C,*%
X115810000Y-101190000D03*
%TD*%
%TO.C,*%
X127030000Y-94640000D03*
%TD*%
%TO.C,*%
X112300000Y-102500000D03*
%TD*%
%TO.C,*%
X162820000Y-94500000D03*
%TD*%
%TO.C,*%
X127420000Y-89990000D03*
%TD*%
%TO.C,*%
X162860000Y-91950000D03*
%TD*%
%TO.C,*%
X96020000Y-91080000D03*
%TD*%
%TO.C,*%
X136320000Y-106990000D03*
%TD*%
%TO.C,*%
X95130000Y-87660000D03*
%TD*%
%TO.C,*%
X140710000Y-107020000D03*
%TD*%
%TO.C,*%
X92580000Y-100040000D03*
%TD*%
%TO.C,*%
X161210000Y-99490000D03*
%TD*%
%TO.C,*%
X102240000Y-89950000D03*
%TD*%
%TO.C,*%
X94430000Y-95850000D03*
%TD*%
%TO.C,*%
X96080000Y-98910000D03*
%TD*%
D21*
%TO.C,J1*%
X105537001Y-84709000D03*
X105537001Y-79709000D03*
X102036998Y-84709000D03*
X102036998Y-79709000D03*
%TD*%
D19*
%TO.C,*%
X117930000Y-91150000D03*
%TD*%
%TO.C,*%
X161280000Y-91980000D03*
%TD*%
%TO.C,*%
X159760000Y-94640000D03*
%TD*%
%TO.C,*%
X127070000Y-96680000D03*
%TD*%
%TO.C,*%
X97730000Y-98920000D03*
%TD*%
%TO.C,*%
X145330000Y-107040000D03*
%TD*%
%TO.C,*%
X161140000Y-84980000D03*
%TD*%
%TO.C,*%
X145310000Y-105850000D03*
%TD*%
%TO.C,*%
X97730000Y-89960000D03*
%TD*%
%TO.C,H2*%
X158128000Y-80183056D03*
X158830944Y-78486000D03*
X158830944Y-81880112D03*
X160528000Y-77783056D03*
D25*
X160528000Y-80183056D03*
D19*
X160528000Y-82583056D03*
X162225056Y-78486000D03*
X162225056Y-81880112D03*
X162928000Y-80183056D03*
%TD*%
%TO.C,*%
X161140000Y-87260000D03*
%TD*%
%TO.C,*%
X143710000Y-105830000D03*
%TD*%
%TO.C,*%
X105660000Y-89940000D03*
%TD*%
%TO.C,*%
X122470000Y-98170000D03*
%TD*%
%TO.C,*%
X124120000Y-98180000D03*
%TD*%
%TO.C,*%
X94990000Y-84600000D03*
%TD*%
%TO.C,*%
X97750000Y-92250000D03*
%TD*%
%TO.C,*%
X97750000Y-93450000D03*
%TD*%
%TO.C,*%
X115790000Y-102510000D03*
%TD*%
%TO.C,H3*%
X92088000Y-104140000D03*
X92790944Y-102442944D03*
X92790944Y-105837056D03*
X94488000Y-101740000D03*
D25*
X94488000Y-104140000D03*
D19*
X94488000Y-106540000D03*
X96185056Y-102442944D03*
X96185056Y-105837056D03*
X96888000Y-104140000D03*
%TD*%
%TO.C,*%
X120850000Y-101190000D03*
%TD*%
%TO.C,*%
X102270000Y-91180000D03*
%TD*%
%TO.C,*%
X97730000Y-95870000D03*
%TD*%
%TO.C,*%
X94410000Y-94600000D03*
%TD*%
%TO.C,*%
X120910000Y-99320000D03*
%TD*%
%TO.C,*%
X162720000Y-84950000D03*
%TD*%
%TO.C,*%
X124120000Y-89970000D03*
%TD*%
%TO.C,*%
X122530000Y-99330000D03*
%TD*%
%TO.C,*%
X125700000Y-89970000D03*
%TD*%
%TO.C,*%
X115880000Y-91110000D03*
%TD*%
%TO.C,*%
X124180000Y-99340000D03*
%TD*%
%TO.C,*%
X133320000Y-106890000D03*
%TD*%
%TO.C,*%
X142230000Y-105800000D03*
%TD*%
%TO.C,*%
X97710000Y-94620000D03*
%TD*%
%TO.C,*%
X92590000Y-98900000D03*
%TD*%
%TO.C,*%
X107410000Y-91190000D03*
%TD*%
%TO.C,*%
X94440000Y-91080000D03*
%TD*%
%TO.C,*%
X161240000Y-94530000D03*
%TD*%
%TO.C,*%
X136300000Y-105800000D03*
%TD*%
%TO.C,*%
X97740000Y-91100000D03*
%TD*%
%TO.C,*%
X96070000Y-100050000D03*
%TD*%
D26*
%TO.C,C3*%
X135202500Y-89640000D03*
X132077500Y-89640000D03*
%TD*%
D19*
%TO.C,*%
X162720000Y-87230000D03*
%TD*%
%TO.C,*%
X92590000Y-89950000D03*
%TD*%
%TO.C,*%
X133300000Y-105700000D03*
%TD*%
%TO.C,*%
X115890000Y-94530000D03*
%TD*%
%TO.C,*%
X102420000Y-102540000D03*
%TD*%
%TO.C,*%
X120880000Y-102510000D03*
%TD*%
%TO.C,*%
X95990000Y-94600000D03*
%TD*%
D27*
%TO.C,C1*%
X129880000Y-100767500D03*
X129880000Y-103892500D03*
%TD*%
D19*
%TO.C,*%
X159800000Y-92090000D03*
%TD*%
%TO.C,*%
X96030000Y-92230000D03*
%TD*%
%TO.C,*%
X117950000Y-89430000D03*
%TD*%
%TO.C,*%
X117440000Y-102520000D03*
%TD*%
%TO.C,*%
X124190000Y-91200000D03*
%TD*%
%TO.C,*%
X159730000Y-99600000D03*
%TD*%
%TO.C,*%
X125820000Y-102560002D03*
%TD*%
%TO.C,*%
X94450000Y-92230000D03*
%TD*%
%TO.C,*%
X140690000Y-105830000D03*
%TD*%
%TO.C,*%
X107560000Y-102560000D03*
%TD*%
D24*
%TO.C,J4*%
X153244000Y-84694400D03*
X153244000Y-79694400D03*
X149744000Y-84694400D03*
X149744000Y-79694400D03*
X146244000Y-84694400D03*
X146244000Y-79694400D03*
X142744000Y-84694400D03*
X142744000Y-79694400D03*
%TD*%
D19*
%TO.C,*%
X117930000Y-92730000D03*
%TD*%
%TO.C,H1*%
X92088000Y-80264000D03*
X92790944Y-78566944D03*
X92790944Y-81961056D03*
X94488000Y-77864000D03*
D25*
X94488000Y-80264000D03*
D19*
X94488000Y-82664000D03*
X96185056Y-78566944D03*
X96185056Y-81961056D03*
X96888000Y-80264000D03*
%TD*%
%TO.C,*%
X137840000Y-107020000D03*
%TD*%
%TO.C,*%
X159690000Y-89780000D03*
%TD*%
%TO.C,*%
X122280000Y-89980000D03*
%TD*%
%TO.C,*%
X97400000Y-84570000D03*
%TD*%
%TO.C,*%
X117460000Y-101200000D03*
%TD*%
%TO.C,H4*%
X158128000Y-104093944D03*
X158830944Y-102396888D03*
X158830944Y-105791000D03*
X160528000Y-101693944D03*
D25*
X160528000Y-104093944D03*
D19*
X160528000Y-106493944D03*
X162225056Y-102396888D03*
X162225056Y-105791000D03*
X162928000Y-104093944D03*
%TD*%
%TO.C,*%
X120850000Y-98160000D03*
%TD*%
%TO.C,*%
X159660000Y-85090000D03*
%TD*%
%LPD*%
M02*
